<?xml version="1.0" encoding="UTF-8"?>
<svg version="1.1" xmlns="http://www.w3.org/2000/svg" width="600" height="207">
<path d="M0 0 C0.95648438 0.2990625 1.91296875 0.598125 2.8984375 0.90625 C5.37073021 1.79331848 7.65059715 2.82348856 10 4 C10.57637207 4.2882666 11.15274414 4.5765332 11.74658203 4.87353516 C26.75119097 12.5095739 39.60007806 22.57112584 49.5 36.3125 C49.98557373 36.98547119 50.47114746 37.65844238 50.97143555 38.35180664 C51.91434128 39.66550905 52.85419389 40.98140987 53.79052734 42.29980469 C54.72006117 43.60648082 55.66369308 44.90313683 56.61328125 46.1953125 C64.18296384 57.19231066 67.10523705 71.02291849 69 84 C69.1959375 85.28261719 69.391875 86.56523438 69.59375 87.88671875 C70.1380881 92.39320492 69.96260419 96.79090406 69.6875 101.3125 C69.63972412 102.14700684 69.59194824 102.98151367 69.54272461 103.84130859 C69.15051483 110.00768464 68.37006825 115.96969962 67 122 C66.83371094 122.80824219 66.66742188 123.61648437 66.49609375 124.44921875 C65.59449361 128.74424303 64.48560359 132.86153287 63 137 C62.34 137 61.68 137 61 137 C60.87753906 137.56589844 60.75507813 138.13179687 60.62890625 138.71484375 C58.46816883 146.5659704 53.63997879 153.16629933 48.76953125 159.5546875 C46.9887546 161.85998116 46.9887546 161.85998116 46 164.1015625 C44.75263665 166.46960386 43.23050738 167.7812175 41.1875 169.5 C40.47851562 170.10199219 39.76953125 170.70398438 39.0390625 171.32421875 C37.39670488 172.67397242 35.73284891 173.99754447 34.0625 175.3125 C31.91019125 176.83873758 31.91019125 176.83873758 31 179 C29.28515625 180.078125 29.28515625 180.078125 27.0625 181.25 C23.74010636 183.02854981 20.55098641 184.9106142 17.375 186.9375 C-6.33681 201.08457683 -33.34621448 202.22238186 -60 198 C-60 197.34 -60 196.68 -60 196 C-61.0003125 195.89558594 -62.000625 195.79117188 -63.03125 195.68359375 C-67.10916524 195.09299207 -70.74873952 193.729519 -74.5 192.0625 C-75.1899707 191.75602539 -75.87994141 191.44955078 -76.59082031 191.13378906 C-97.17618394 181.63357341 -113.9938936 165.81099152 -125 146 C-125 145.01 -125 144.02 -125 143 C-125.66 143 -126.32 143 -127 143 C-131.81454156 129.96458116 -135.23588304 117.88094096 -136.5703125 104.0390625 C-136.87133017 100.97659631 -137.31754903 98.00517882 -138 95 C-137.34 95 -136.68 95 -136 95 C-136.04640625 94.33097656 -136.0928125 93.66195312 -136.140625 92.97265625 C-137.07000862 68.24441357 -125.08648349 44.57018319 -108.625 26.8125 C-106.77173883 24.8513834 -104.89299137 22.92352349 -103 21 C-102.2678125 20.24203125 -101.535625 19.4840625 -100.78125 18.703125 C-98.94883762 16.95108158 -97.24680222 16.12340111 -95 15 C-94.34 14.01 -93.68 13.02 -93 12 C-92.34 12 -91.68 12 -91 12 C-89.66129669 11.14381832 -88.35337534 10.23922244 -87.0625 9.3125 C-62.1994801 -7.62318022 -27.87635385 -9.02165176 0 0 Z M-56 41 C-57.39512413 41.07671762 -58.79117991 41.1370306 -60.1875 41.1875 C-65.63204034 41.7380715 -68.29976091 44.16894437 -72 48 C-72.825 48.78375 -73.65 49.5675 -74.5 50.375 C-75.325 51.24125 -76.15 52.1075 -77 53 C-77.59167969 53.57363281 -78.18335938 54.14726563 -78.79296875 54.73828125 C-83.15817251 59.22949089 -84.86985353 62.6613686 -85.61328125 68.8984375 C-86 71 -86 71 -88 73 C-87.67801034 76.09926819 -87.67801034 76.09926819 -87 79 C-86.34 79 -85.68 79 -85 79 C-84.773125 79.886875 -84.54625 80.77375 -84.3125 81.6875 C-82.37668467 86.57312917 -79.3092041 89.12719727 -75 92 C-74.01 91.505 -74.01 91.505 -73 91 C-72.01 91.04125 -71.02 91.0825 -70 91.125 C-65.7695387 91.21406234 -62.12150492 89.9743416 -58.13671875 88.65625 C-56 88 -56 88 -54 88 C-53.67 88.99 -53.34 89.98 -53 91 C-50.03 91.495 -50.03 91.495 -47 92 C-46.92572162 95.34252724 -46.93453047 97.8035914 -48 101 C-46.8478359 102.78332666 -46.8478359 102.78332666 -45.1875 104.5625 C-41.71793594 108.92978344 -40.07975991 113.38689661 -40 119 C-40.66 119.99 -41.32 120.98 -42 122 C-42.6229519 127.29509115 -41.54692841 130.39940932 -39.07421875 134.90234375 C-37.97411291 137.05055043 -37.22403024 139.13740394 -36.5 141.4375 C-35.02077069 146.12853659 -33.07466647 150.54525932 -31 155 C-23.35684919 155.10000384 -18.65583878 153.79081696 -12.6796875 148.984375 C-10.69982169 146.64537074 -10.52171032 144.9693606 -10 142 C-7.4375 140.1875 -7.4375 140.1875 -5 139 C-5.495 135.535 -5.495 135.535 -6 132 C-5.01 131.67 -4.02 131.34 -3 131 C-2.67 130.34 -2.34 129.68 -2 129 C-0.33333333 128.33333333 1.33333333 127.66666667 3 127 C4.17573623 124.64852754 4.02764863 123.5276702 3.8515625 120.9296875 C3.19771175 107.64528963 3.19771175 107.64528963 5.30859375 103.31640625 C7.0625 101.4375 7.0625 101.4375 8.984375 99.765625 C11.39976426 97.64981891 13.00939475 95.33912537 14.8125 92.6875 C15.65748047 91.45580078 15.65748047 91.45580078 16.51953125 90.19921875 C19.3329777 86.01987746 20.22552695 84.07435627 20 79 C15.05 79.495 15.05 79.495 10 80 C9.4225 79.030625 8.845 78.06125 8.25 77.0625 C5.802274 73.73087295 5.62595083 73.84605519 2 73 C0.9375 70.8125 0.9375 70.8125 0 68 C-0.98034504 65.99029266 -1.98388875 63.99186293 -3 62 C-3.84111328 60.22882813 -3.84111328 60.22882813 -4.69921875 58.421875 C-8.09376798 51.59879676 -8.09376798 51.59879676 -13.98339844 47.16699219 C-18.62615832 46.05499151 -23.24362275 45.91829536 -28 46 C-28.33 46.99 -28.66 47.98 -29 49 C-32.89945314 47.95014723 -36.39905186 46.80047407 -40 45 C-40.99 45 -41.98 45 -43 45 C-43 43.35 -43 41.7 -43 40 C-44.79158489 39.97303635 -46.58328473 39.95362083 -48.375 39.9375 C-49.87160156 39.92009766 -49.87160156 39.92009766 -51.3984375 39.90234375 C-53.98432453 39.81993398 -53.98432453 39.81993398 -56 41 Z M17 119 C16.5875 119.763125 16.175 120.52625 15.75 121.3125 C14 124 14 124 11.3125 125.5 C10.1678125 126.2425 10.1678125 126.2425 9 127 C8.83312552 129.41645782 8.83312552 129.41645782 9 132 C8.484375 132.845625 7.96875 133.69125 7.4375 134.5625 C5.7392742 136.86761597 5.7392742 136.86761597 6.3125 139.3125 C6.539375 139.869375 6.76625 140.42625 7 141 C8.89481753 141.00605465 8.89481753 141.00605465 11 140 C12.46382386 137.7804622 13.6129477 135.7515857 14.75 133.375 C15.06582031 132.77042969 15.38164062 132.16585937 15.70703125 131.54296875 C17.8413704 127.2096135 18.32016215 123.79011834 18 119 C17.67 119 17.34 119 17 119 Z " fill="#2DCB40" transform="translate(141,6)"/>
<path d="M0 0 C0.99 0.33 1.98 0.66 3 1 C7 6.37142857 7 6.37142857 7 9 C0.81818182 13 0.81818182 13 -2.5 13 C-5 12 -5 12 -8.3125 9.9375 C-12.14024838 7.68393386 -15.63918594 7.07146164 -20 8 C-23.97461513 9.48157697 -27.00984082 11.28791874 -29.16796875 15.01953125 C-31.29509135 20.72181766 -32.35314024 27.12405592 -30.30859375 32.98046875 C-28.07258346 37.3682881 -25.4264829 39.95070236 -21 42 C-16.4005895 42.64967596 -12.43994616 42.59476037 -8.125 40.8125 C-5.71634257 38.75805689 -3.86361934 36.55384873 -2 34 C-3.11375 34.185625 -4.2275 34.37125 -5.375 34.5625 C-9 35 -9 35 -11 34 C-11.33 30.7 -11.66 27.4 -12 24 C-3.75 24 4.5 24 13 24 C11.74972032 36.50279685 9.47338097 42.53524241 -0.01171875 50.6015625 C-2 52 -2 52 -4 52 C-4.495 52.99 -4.495 52.99 -5 54 C-14.31013021 56.51844709 -22.47000799 55.16616366 -31 51 C-31.68707031 50.71898437 -32.37414062 50.43796875 -33.08203125 50.1484375 C-35.57735642 48.65429167 -36.68393528 46.93610067 -38.25 44.5 C-38.77078125 43.7059375 -39.2915625 42.911875 -39.828125 42.09375 C-41 40 -41 40 -41 38 C-41.66 38 -42.32 38 -43 38 C-45.01192804 27.32380123 -45.50561221 16.91770764 -39.453125 7.625 C-36.18385855 3.1116764 -33.41671226 -0.11044921 -28 -2 C-27.34 -2 -26.68 -2 -26 -2 C-25.67 -2.66 -25.34 -3.32 -25 -4 C-16.22376958 -6.54089797 -7.66582343 -4.46011545 0 0 Z " fill="#102022" transform="translate(276,91)"/>
<path d="M0 0 C0.95648438 0.2990625 1.91296875 0.598125 2.8984375 0.90625 C5.37073021 1.79331848 7.65059715 2.82348856 10 4 C10.57637207 4.2882666 11.15274414 4.5765332 11.74658203 4.87353516 C26.75119097 12.5095739 39.60007806 22.57112584 49.5 36.3125 C49.98557373 36.98547119 50.47114746 37.65844238 50.97143555 38.35180664 C51.91434128 39.66550905 52.85419389 40.98140987 53.79052734 42.29980469 C54.72006117 43.60648082 55.66369308 44.90313683 56.61328125 46.1953125 C64.18296384 57.19231066 67.10523705 71.02291849 69 84 C69.1959375 85.28261719 69.391875 86.56523438 69.59375 87.88671875 C70.1380881 92.39320492 69.96260419 96.79090406 69.6875 101.3125 C69.63972412 102.14700684 69.59194824 102.98151367 69.54272461 103.84130859 C69.15051483 110.00768464 68.37006825 115.96969962 67 122 C66.83371094 122.80824219 66.66742188 123.61648437 66.49609375 124.44921875 C65.59449361 128.74424303 64.48560359 132.86153287 63 137 C62.34 137 61.68 137 61 137 C60.87753906 137.56589844 60.75507813 138.13179687 60.62890625 138.71484375 C58.46816883 146.5659704 53.63997879 153.16629933 48.76953125 159.5546875 C47.24733482 161.6582084 46.06882298 163.6431083 45 166 C44.01 165.67 43.02 165.34 42 165 C43.7048347 161.96918275 45.57767735 159.26338244 47.75 156.5625 C52.07811244 150.87781501 54.95796433 144.4253729 58 138 C58.40476563 137.19304687 58.80953125 136.38609375 59.2265625 135.5546875 C65.89258221 121.76467725 66.4283229 106.04970903 66 91 C65.97164062 89.97261719 65.94328125 88.94523437 65.9140625 87.88671875 C64.97413274 69.55808837 57.99690587 52.60026095 47 38 C46.34515625 37.11957031 45.6903125 36.23914062 45.015625 35.33203125 C39.552526 28.30943059 33.08679867 21.04339933 25 17 C25 16.34 25 15.68 25 15 C23.93845703 14.60554688 23.93845703 14.60554688 22.85546875 14.203125 C19.84034367 12.9327303 17.14158719 11.39198002 14.3125 9.75 C8.92960909 6.82278515 3.55550727 4.57807428 -2.25 2.625 C-2.98178467 2.37459961 -3.71356934 2.12419922 -4.4675293 1.86621094 C-8.95883405 0.41502652 -13.24307269 -0.39463844 -17.94824219 -0.77587891 C-20 -1 -20 -1 -22.02294922 -1.5144043 C-25.41887889 -2.34849964 -28.89702232 -2.19077733 -32.375 -2.1875 C-33.56307251 -2.18737915 -33.56307251 -2.18737915 -34.77514648 -2.18725586 C-46.69933848 -2.62851174 -46.69933848 -2.62851174 -57 1 C-57.94875 1.0825 -58.8975 1.165 -59.875 1.25 C-65.37194651 1.98589953 -70.06597392 4.59224517 -75 7 C-76.69962891 7.77730469 -76.69962891 7.77730469 -78.43359375 8.5703125 C-85.86636723 12.07096157 -91.76264334 15.84737184 -97.890625 21.27734375 C-100 23 -100 23 -102 23 C-102 23.66 -102 24.32 -102 25 C-103.875 27.125 -103.875 27.125 -106 29 C-106.66 29 -107.32 29 -108 29 C-108.26296875 29.57621094 -108.5259375 30.15242188 -108.796875 30.74609375 C-110.06633525 33.1242709 -111.52991912 34.98988002 -113.25 37.0625 C-117.19508089 42.04921347 -120.10642198 47.35625744 -123 53 C-123.36996094 53.66644531 -123.73992187 54.33289062 -124.12109375 55.01953125 C-132.99010035 71.41166407 -134.30433402 90.73274718 -133 109 C-132.67 109.33 -132.34 109.66 -132 110 C-131.8642325 111.58093717 -131.76765255 113.16526952 -131.6875 114.75 C-130.97333351 123.43335764 -128.62720787 131.60395076 -124 139 C-123.566875 140.051875 -123.13375 141.10375 -122.6875 142.1875 C-119.47711362 149.83919811 -115.01035375 156.39598998 -109.3203125 162.40625 C-108 164 -108 164 -108 166 C-107.01 166.33 -106.02 166.66 -105 167 C-104.43152344 167.72832031 -103.86304688 168.45664063 -103.27734375 169.20703125 C-100.42951006 172.69965747 -97.2033582 175.07163414 -93.5625 177.6875 C-92.90701172 178.17283203 -92.25152344 178.65816406 -91.57617188 179.15820312 C-88.16978771 181.63526282 -85.04228717 183.66814816 -81 185 C-81 185.66 -81 186.32 -81 187 C-80.0409375 187.1546875 -80.0409375 187.1546875 -79.0625 187.3125 C-74.93522674 188.23903073 -70.99357051 189.61660629 -67 191 C-67 191.66 -67 192.32 -67 193 C-66.01 193.12375 -65.02 193.2475 -64 193.375 C-61.30028737 193.75149312 -58.89985752 194.29805056 -56.2421875 195.01806641 C-52.20438375 196.0425542 -48.28094659 196.32221597 -44.125 196.3359375 C-43.39740479 196.3425943 -42.66980957 196.3492511 -41.92016602 196.35610962 C-40.38739518 196.36616776 -38.85458115 196.37092878 -37.32177734 196.37060547 C-35.03274764 196.37493802 -32.74571593 196.41121385 -30.45703125 196.44921875 C-16.46606999 196.55638653 -4.16246773 193.81784729 8.64453125 187.953125 C11 187 11 187 14 187 C14 186.34 14 185.68 14 185 C20.625 181 20.625 181 24 181 C24 180.34 24 179.68 24 179 C24.99 179 25.98 179 27 179 C27 178.34 27 177.68 27 177 C28.79296875 175.4140625 28.79296875 175.4140625 31.1875 173.625 C32.41339844 172.69880859 32.41339844 172.69880859 33.6640625 171.75390625 C34.43492187 171.17511719 35.20578125 170.59632813 36 170 C37.66998649 168.67082708 39.33857487 167.33985898 41 166 C40.46115292 169.8224465 38.94772136 171.23524018 36 173.625 C33.04427685 175.94555299 33.04427685 175.94555299 31 179 C29.28515625 180.078125 29.28515625 180.078125 27.0625 181.25 C23.74010636 183.02854981 20.55098641 184.9106142 17.375 186.9375 C-6.33681 201.08457683 -33.34621448 202.22238186 -60 198 C-60 197.34 -60 196.68 -60 196 C-61.0003125 195.89558594 -62.000625 195.79117188 -63.03125 195.68359375 C-67.10916524 195.09299207 -70.74873952 193.729519 -74.5 192.0625 C-75.1899707 191.75602539 -75.87994141 191.44955078 -76.59082031 191.13378906 C-97.17618394 181.63357341 -113.9938936 165.81099152 -125 146 C-125 145.01 -125 144.02 -125 143 C-125.66 143 -126.32 143 -127 143 C-131.81454156 129.96458116 -135.23588304 117.88094096 -136.5703125 104.0390625 C-136.87133017 100.97659631 -137.31754903 98.00517882 -138 95 C-137.34 95 -136.68 95 -136 95 C-136.04640625 94.33097656 -136.0928125 93.66195312 -136.140625 92.97265625 C-137.07000862 68.24441357 -125.08648349 44.57018319 -108.625 26.8125 C-106.77173883 24.8513834 -104.89299137 22.92352349 -103 21 C-102.2678125 20.24203125 -101.535625 19.4840625 -100.78125 18.703125 C-98.94883762 16.95108158 -97.24680222 16.12340111 -95 15 C-94.34 14.01 -93.68 13.02 -93 12 C-92.34 12 -91.68 12 -91 12 C-89.66129669 11.14381832 -88.35337534 10.23922244 -87.0625 9.3125 C-62.1994801 -7.62318022 -27.87635385 -9.02165176 0 0 Z " fill="#39C14E" transform="translate(141,6)"/>
<path d="M0 0 C1.9375 2.3125 1.9375 2.3125 2.9375 5.3125 C1.69573305 6.01476141 0.44364401 6.69879109 -0.8125 7.375 C-1.50859375 7.75785156 -2.2046875 8.14070313 -2.921875 8.53515625 C-5.49075389 9.46801556 -6.54264537 9.29386327 -9.0625 8.3125 C-10.5784375 7.2915625 -10.5784375 7.2915625 -12.125 6.25 C-16.82192592 3.4092828 -21.75037062 3.96668326 -27.0625 4.3125 C-27.3925 4.9725 -27.7225 5.6325 -28.0625 6.3125 C-28.84625 6.84875 -29.63 7.385 -30.4375 7.9375 C-33.87163589 11.04457533 -35.1873179 13.78943499 -36.0625 18.3125 C-36.36731892 26.21340634 -34.14751273 30.7600611 -29 36.6875 C-24.46992357 39.19349973 -20.1217145 39.07769691 -15.0625 38.3125 C-12.65398315 37.23181739 -11.12909028 36.01743698 -9.0625 34.3125 C-6.0625 33.3125 -6.0625 33.3125 -3.80078125 34.30859375 C-2.60001953 35.02208984 -2.60001953 35.02208984 -1.375 35.75 C-0.56675781 36.22308594 0.24148438 36.69617188 1.07421875 37.18359375 C1.68910156 37.55613281 2.30398438 37.92867187 2.9375 38.3125 C0.40642837 44.23111699 -5.09847632 47.67441444 -10.875 50.1875 C-18.45643989 52.62597482 -25.09348131 52.12422482 -32.3125 48.8125 C-40.20920783 44.45958064 -45.17007507 38.82908451 -48.0625 30.3125 C-49.33990388 25.78352261 -50.20525164 19.59800327 -48.0625 15.3125 C-48.7225 14.9825 -49.3825 14.6525 -50.0625 14.3125 C-49.4025 13.9825 -48.7425 13.6525 -48.0625 13.3125 C-47.16928508 11.4557844 -46.32264707 9.57654142 -45.5 7.6875 C-42.09398585 0.67511792 -37.73574106 -3.44497157 -30.734375 -6.8046875 C-18.47045789 -10.85680046 -9.30834266 -8.62274235 0 0 Z " fill="#101E22" transform="translate(341.0625,94.6875)"/>
<path d="M0 0 C3.28515625 0.0625 3.28515625 0.0625 7 1 C8.87845287 3.034196 10.0685722 4.65508313 11.4375 7 C11.83437012 7.63558838 12.23124023 8.27117676 12.64013672 8.92602539 C13.55967665 10.39875537 14.47010718 11.87719502 15.37353516 13.35986328 C17.27764536 16.45068402 19.23396073 19.50649322 21.19921875 22.55859375 C21.9362803 23.7037754 22.67334084 24.84895769 23.41040039 25.99414062 C23.77618195 26.56237549 24.1419635 27.13061035 24.51882935 27.71606445 C27.3588532 32.13574237 30.17779241 36.56893422 33 41 C33.03758423 39.1902771 33.03758423 39.1902771 33.07592773 37.34399414 C33.16982523 32.88424339 33.27008833 28.42465487 33.37231445 23.96508789 C33.41573041 22.03185815 33.45740042 20.09858841 33.49731445 18.1652832 C33.55485631 15.39261798 33.6185962 12.62015543 33.68359375 9.84765625 C33.70030624 8.97786636 33.71701874 8.10807648 33.73423767 7.21192932 C33.88612829 1.11387171 33.88612829 1.11387171 35 0 C38 -0.125 38 -0.125 41 0 C42 1 42 1 42.12025452 3.28419495 C42.11803391 4.29457321 42.11581329 5.30495148 42.11352539 6.34594727 C42.11344986 7.4870546 42.11337433 8.62816193 42.11329651 9.80384827 C42.10813522 11.0454924 42.10297394 12.28713654 42.09765625 13.56640625 C42.0962413 14.83016586 42.09482635 16.09392548 42.09336853 17.39598083 C42.08870582 20.76124889 42.0797148 24.1264499 42.06866455 27.49169922 C42.05844846 30.9234967 42.05387049 34.35530109 42.04882812 37.78710938 C42.0377738 44.52475824 42.0210171 51.26237525 42 58 C34.23388672 58.15820312 34.23388672 58.15820312 32.12890625 56.734375 C30.95957445 54.93789293 29.91132432 53.1606211 28.9375 51.25 C26.20191112 46.17552395 23.03092129 41.45215794 19.81225586 36.67773438 C16.58654335 31.89138798 13.45286671 27.05502892 10.375 22.171875 C9.27386245 20.43257818 8.14188203 18.71282304 7 17 C7.01160156 17.94875 7.02320313 18.8975 7.03515625 19.875 C7.13696821 32.60308568 6.60356969 45.28811607 6 58 C2.535 58.495 2.535 58.495 -1 59 C-1.16927979 52.82954061 -1.32963873 46.65893308 -1.48217773 40.48803711 C-1.53513875 38.39422562 -1.59042406 36.30047145 -1.64819336 34.20678711 C-2.32686367 9.48548353 -2.32686367 9.48548353 -1 1 C-0.67 0.67 -0.34 0.34 0 0 Z " fill="#122125" transform="translate(507,87)"/>
<path d="M0 0 C2.71687951 0.09248499 5.43241051 0.19863448 8.14819336 0.31933594 C9.07825195 0.34640625 10.00831055 0.37347656 10.96655273 0.40136719 C18.19563659 0.71633781 24.06091404 1.76787341 29.96069336 6.25683594 C32.60866078 9.7614987 34.07778596 12.62537512 34.08569336 17.06933594 C33.28018219 19.6032555 32.26815122 21.83512796 31.03100586 24.18652344 C29.93612793 26.01609768 29.93612793 26.01609768 30.08569336 28.06933594 C30.70444336 28.83246094 31.32319336 29.59558594 31.96069336 30.38183594 C35.86768822 35.32303532 36.81056065 39.82167021 36.08569336 46.06933594 C35.07448418 50.75148937 33.88426627 53.40669033 30.14819336 56.50683594 C25.58594892 58.83451167 22.12096047 59.19205784 17.00756836 59.16699219 C15.26733398 59.1621582 15.26733398 59.1621582 13.49194336 59.15722656 C12.28538086 59.14884766 11.07881836 59.14046875 9.83569336 59.13183594 C8.61366211 59.12732422 7.39163086 59.1228125 6.13256836 59.11816406 C3.1168939 59.10638408 0.10131838 59.08993447 -2.91430664 59.06933594 C-2.93743515 51.52435361 -2.95522433 43.97937493 -2.96611881 36.43436527 C-2.97134653 32.93124709 -2.97844214 29.42815309 -2.98974609 25.92504883 C-3.0026487 21.90152753 -3.00753576 17.8780318 -3.01196289 13.85449219 C-3.01970482 11.95921532 -3.01970482 11.95921532 -3.02760315 10.02565002 C-3.02767868 8.86452194 -3.02775421 7.70339386 -3.02783203 6.50708008 C-3.03116295 4.96486534 -3.03116295 4.96486534 -3.03456116 3.39149475 C-2.88678812 0.53794321 -2.86207745 0.10366407 0 0 Z M5.08569336 8.06933594 C5.08569336 13.34933594 5.08569336 18.62933594 5.08569336 24.06933594 C7.64319336 24.15183594 10.20069336 24.23433594 12.83569336 24.31933594 C13.63458984 24.35575195 14.43348633 24.39216797 15.2565918 24.4296875 C18.74351437 24.48414322 20.71865828 24.33438482 23.57397461 22.27246094 C25.76701331 19.07640453 25.55908194 16.85644462 25.08569336 13.06933594 C23.32554205 9.88430024 22.5867842 9.23636622 19.08569336 8.06933594 C14.41601581 7.93343147 9.7583135 8.02646786 5.08569336 8.06933594 Z M5.08569336 31.06933594 C5.08569336 37.99933594 5.08569336 44.92933594 5.08569336 52.06933594 C7.97319336 52.15183594 10.86069336 52.23433594 13.83569336 52.31933594 C14.73900391 52.35575195 15.64231445 52.39216797 16.57299805 52.4296875 C21.40138526 52.51585507 21.40138526 52.51585507 25.57397461 50.26074219 C27.69313456 47.18878163 28.52150214 44.76792283 29.08569336 41.06933594 C27.69676474 36.43957388 26.38245058 33.38350582 22.08569336 31.06933594 C19.15628641 30.71034365 16.28116292 30.78731547 13.33569336 30.88183594 C9.25194336 30.97464844 9.25194336 30.97464844 5.08569336 31.06933594 Z " fill="#0F1F23" transform="translate(412.914306640625,85.9306640625)"/>
<path d="M0 0 C2.49849261 6.11395838 4.89735469 12.26616927 7.25 18.4375 C7.52021973 19.13552734 7.79043945 19.83355469 8.06884766 20.55273438 C9.18893705 23.51178727 10 25.80809822 10 29 C10.66 29 11.32 29 12 29 C12.56618778 31.75005495 13.06265424 34.46543147 13.4375 37.25 C13.623125 38.1575 13.80875 39.065 14 40 C14.99 40.495 14.99 40.495 16 41 C17.0703125 43.58203125 17.0703125 43.58203125 18.125 46.8125 C18.47820312 47.87082031 18.83140625 48.92914063 19.1953125 50.01953125 C20 53 20 53 20 57 C17.36 57 14.72 57 12 57 C10.02 51.555 10.02 51.555 8 46 C-0.25 46 -8.5 46 -17 46 C-17.495 48.475 -17.495 48.475 -18 51 C-18.66 51 -19.32 51 -20 51 C-20.33 52.98 -20.66 54.96 -21 57 C-23.64 57 -26.28 57 -29 57 C-28.61774747 52.69965901 -27.73920337 49.02674044 -26.23046875 44.9765625 C-25.87098145 44.00710693 -25.51149414 43.03765137 -25.14111328 42.03881836 C-24.7645459 41.0360083 -24.38797852 40.03319824 -24 39 C-23.64019043 38.03779541 -23.28038086 37.07559082 -22.90966797 36.08422852 C-21.40209427 32.06279755 -19.886218 28.04452519 -18.36865234 24.02685547 C-15.79775875 17.19762144 -13.3476896 10.34741057 -11.0703125 3.4140625 C-8.64108823 -2.06499079 -5.09567899 -0.96144887 0 0 Z M-5 11 C-8.3 19.91 -11.6 28.82 -15 38 C-8.07 38 -1.14 38 6 38 C5.278125 36.14375 4.55625 34.2875 3.8125 32.375 C1.0852971 25.29206447 -1.4779213 18.15841059 -4 11 C-4.33 11 -4.66 11 -5 11 Z " fill="#101F23" transform="translate(480,88)"/>
<path d="M0 0 C3 2 3 2 3.68359375 4.5390625 C4.07614305 8.83287333 4.10716685 13.06636652 4.0625 17.375 C4.05798828 18.20644531 4.05347656 19.03789063 4.04882812 19.89453125 C4.03713164 21.92971897 4.01919935 23.96486923 4 26 C5.27285526 24.46000228 6.54309821 22.91784561 7.8125 21.375 C8.63363281 20.38628906 9.45476563 19.39757812 10.30078125 18.37890625 C12.21345063 16.03373425 13.99279772 13.62968652 15.73046875 11.15234375 C22.66413395 1.43884456 22.66413395 1.43884456 26.69921875 0.11328125 C29.1875 0.125 29.1875 0.125 33 1 C33 4.27482662 32.66957433 4.84937891 30.8125 7.375 C30.40644531 7.93960938 30.00039063 8.50421875 29.58203125 9.0859375 C28 11 28 11 25.65625 13.33203125 C22.80711404 16.19373692 20.24554503 19.19357991 17.6875 22.3125 C17.23310547 22.86228516 16.77871094 23.41207031 16.31054688 23.97851562 C15.20474148 25.31712216 14.10204061 26.65829231 13 28 C15.9217135 34.47834701 15.9217135 34.47834701 21 39 C21.89256898 40.57916051 22.78075029 42.16093851 23.6484375 43.75390625 C25.95086662 47.58019742 28.700166 51.08507363 31.390625 54.64453125 C33 57 33 57 33 59 C29.83478184 59.60135082 27.15199723 59.73723622 24 59 C20.928775 56.35137918 18.87888951 53.13915235 16.6875 49.75 C15.50654394 48.01382789 14.32303018 46.27939225 13.13671875 44.546875 C12.37427856 43.38430176 12.37427856 43.38430176 11.59643555 42.19824219 C9.917231 39.88602965 8.06777307 37.9667491 6 36 C3.91254955 39.13117567 3.72346004 40.06946224 3.5859375 43.66796875 C3.52792969 45.00698242 3.52792969 45.00698242 3.46875 46.37304688 C3.42234375 47.76620117 3.42234375 47.76620117 3.375 49.1875 C3.31699219 50.59805664 3.31699219 50.59805664 3.2578125 52.03710938 C3.16356813 54.3578771 3.07795975 56.67863748 3 59 C0.66705225 59.04241723 -1.66702567 59.04092937 -4 59 C-5.94545905 57.05454095 -5.27792535 53.39145176 -5.3515625 50.73046875 C-5.37512314 49.98587906 -5.39868378 49.24128937 -5.42295837 48.47413635 C-5.4967132 46.04539514 -5.56165022 43.61653358 -5.625 41.1875 C-5.64779022 40.36987183 -5.67058044 39.55224365 -5.69406128 38.70983887 C-6.02840465 26.42767696 -6.00078513 14.2557687 -5 2 C-2.6875 0.875 -2.6875 0.875 0 0 Z " fill="#101F23" transform="translate(561,86)"/>
<path d="M0 0 C0.9075 0.00257812 1.815 0.00515625 2.75 0.0078125 C4.11125 0.00394531 4.11125 0.00394531 5.5 0 C7.75 0.1328125 7.75 0.1328125 8.75 1.1328125 C8.84295815 2.57571037 8.86746513 4.02311035 8.86352539 5.46899414 C8.86344986 6.3898732 8.86337433 7.31075226 8.86329651 8.25953674 C8.85813522 9.26056931 8.85297394 10.26160187 8.84765625 11.29296875 C8.8462413 12.31257187 8.84482635 13.33217499 8.84336853 14.38267517 C8.83775097 17.65358357 8.8251955 20.92442463 8.8125 24.1953125 C8.80748726 26.40690006 8.80292396 28.61848868 8.79882812 30.83007812 C8.78777584 36.26434607 8.77102063 41.69857447 8.75 47.1328125 C9.90757812 47.04902344 11.06515625 46.96523437 12.2578125 46.87890625 C13.79685066 46.77567808 15.3359146 46.67283381 16.875 46.5703125 C18.01582031 46.48620117 18.01582031 46.48620117 19.1796875 46.40039062 C23.54993128 46.11783176 27.43070669 46.20133551 31.75 47.1328125 C31.75 50.7628125 31.75 54.3928125 31.75 58.1328125 C20.2 58.1328125 8.65 58.1328125 -3.25 58.1328125 C-3.27094585 50.72496422 -3.2909839 43.31722262 -3.30175018 35.90937042 C-3.30703976 32.45999388 -3.31411301 29.01064175 -3.32543945 25.5612793 C-3.33834235 21.60726207 -3.34322918 17.65325494 -3.34765625 13.69921875 C-3.35281754 12.45757462 -3.35797882 11.21593048 -3.36329651 9.93666077 C-3.36337204 8.79555344 -3.36344757 7.65444611 -3.36352539 6.47875977 C-3.365746 5.4683815 -3.36796661 4.45800323 -3.37025452 3.41700745 C-3.20898853 0.35381316 -3.05975752 0.18061069 0 0 Z " fill="#112023" transform="translate(352.25,86.8671875)"/>
<path d="M0 0 C2.5625 1.25 2.5625 1.25 4 3 C4 4.32 4 5.64 4 7 C4.7425 7.144375 5.485 7.28875 6.25 7.4375 C9 8 9 8 11.1875 8.6875 C11.785625 8.790625 12.38375 8.89375 13 9 C13.66 8.34 14.32 7.68 15 7 C17.66960803 6.88444538 20.15759255 6.90883216 22.8125 7.0625 C23.88081055 7.08473633 23.88081055 7.08473633 24.97070312 7.10742188 C28.74523096 7.31343218 30.77053308 7.81779544 33.75 10.18359375 C36.04082688 13.05110448 38.1667641 15.93567322 40.1875 19 C40.86167969 20.010625 41.53585938 21.02125 42.23046875 22.0625 C43.80660165 24.67895021 44.91080038 27.16030099 46 30 C48.06195895 32.84408132 50.23487907 35.22954091 52.75 37.6875 C55 40 55 40 55 42 C55.99 42 56.98 42 58 42 C58 42.66 58 43.32 58 44 C54.38739215 43.69894935 53.25490423 43.29131912 50.8125 40.5 C50.214375 39.675 49.61625 38.85 49 38 C48.34 37.67 47.68 37.34 47 37 C45.78125 35.546875 45.78125 35.546875 44.5 33.75 C44.0771875 33.16734375 43.654375 32.5846875 43.21875 31.984375 C42 30 42 30 41.1015625 27.65234375 C39.74375841 24.38302114 37.89017297 21.71969398 35.875 18.8125 C32 13.22064057 32 13.22064057 32 11 C30.845 11.020625 29.69 11.04125 28.5 11.0625 C24.25649453 11.07007769 20.19823356 10.59974765 16 10 C15.67 10.66 15.34 11.32 15 12 C9.72250715 11.46148032 5.74354436 10.22656164 1 8 C1 6.35 1 4.7 1 3 C-0.79206547 3.14084796 -2.58364917 3.28783701 -4.375 3.4375 C-5.87160156 3.55931641 -5.87160156 3.55931641 -7.3984375 3.68359375 C-9.97927613 3.84965626 -9.97927613 3.84965626 -12 5 C-13.41545142 5.1019125 -14.83249071 5.18249956 -16.25 5.25 C-21.14995115 5.75255909 -23.48556925 7.48556925 -27 11 C-27.845625 11.825 -28.69125 12.65 -29.5625 13.5 C-30.366875 14.325 -31.17125 15.15 -32 16 C-33.66666667 17.66666667 -35.33333333 19.33333333 -37 21 C-36.67 21.66 -36.34 22.32 -36 23 C-36.99 23.33 -37.98 23.66 -39 24 C-39.12117188 24.69867188 -39.24234375 25.39734375 -39.3671875 26.1171875 C-39.53476562 27.02726562 -39.70234375 27.93734375 -39.875 28.875 C-40.03742187 29.77992187 -40.19984375 30.68484375 -40.3671875 31.6171875 C-41 34 -41 34 -43 36 C-43.16681109 39.08347826 -43.16681109 39.08347826 -43 42 C-42.34 42 -41.68 42 -41 42 C-38 47.75 -38 47.75 -38 50 C-37.071875 50.433125 -37.071875 50.433125 -36.125 50.875 C-34 52 -34 52 -32 54 C-32.33 54.99 -32.66 55.98 -33 57 C-38.89965692 52.51626074 -42.91599187 47.79583219 -46 41 C-46.4375 37.4375 -46.4375 37.4375 -46 35 C-45.505 34.505 -45.505 34.505 -45 34 C-45 32.88625 -45 31.7725 -45 30.625 C-44.32206844 24.18465021 -39.41390135 19.40615766 -35 15 C-34.01 14.67 -33.02 14.34 -32 14 C-32 13.34 -32 12.68 -32 12 C-31.34 12 -30.68 12 -30 12 C-30 11.01 -30 10.02 -30 9 C-25.93734683 4.50556726 -21.6421778 1.65597623 -15.5625 1.125 C-14.73878906 1.10695312 -13.91507813 1.08890625 -13.06640625 1.0703125 C-8.59303946 0.91809964 -4.79360127 -0.47680581 0 0 Z " fill="#39C24F" transform="translate(97,43)"/>
<path d="M0 0 C1.65 0 3.3 0 5 0 C6.454314 2.30979283 7.0474465 3.56111988 6.75 6.3125 C4.79219227 13.32797772 0.09651915 19.24348775 -5.4375 23.8125 C-8.19553177 26.38489502 -8.93423568 27.53362138 -9.46875 31.32421875 C-9.43833451 34.9018413 -9.26256422 38.43246079 -9 42 C-8.88538911 45.14930803 -9.10877086 46.88069799 -10 50 C-11.96388259 51.69723474 -14.01970191 53.07529572 -16.1953125 54.48828125 C-18.40282967 56.03001801 -18.40282967 56.03001801 -18.875 59.75 C-18.91625 60.8225 -18.9575 61.895 -19 63 C-19.99 63.99 -19.99 63.99 -21 65 C-21.99 65 -22.98 65 -24 65 C-24 65.86625 -24 66.7325 -24 67.625 C-25.43752382 72.4766429 -28.70778848 74.52473691 -33 77 C-33.66 77 -34.32 77 -35 77 C-35 76.34 -35 75.68 -35 75 C-33.5390625 73.921875 -33.5390625 73.921875 -31.625 72.75 C-27.96922884 70.28107238 -27.22747491 68.24895161 -26 64 C-23.875 62.625 -23.875 62.625 -22 62 C-22.0825 60.9275 -22.165 59.855 -22.25 58.75 C-22 55 -22 55 -20.3125 52.625 C-17.79323935 50.85470873 -15.99529207 50.50666632 -13 50 C-13.03665771 49.40574219 -13.07331543 48.81148437 -13.11108398 48.19921875 C-14.02457432 31.20466438 -14.02457432 31.20466438 -11.6875 26.17578125 C-9.90197531 24.27467572 -7.99456984 22.67760331 -6 21 C-4.68126485 19.26454454 -3.41074728 17.49153275 -2.1875 15.6875 C-1.62417969 14.86636719 -1.06085938 14.04523438 -0.48046875 13.19921875 C2.15661023 9.28186923 3.37329355 6.70029838 4 2 C2.35 2 0.7 2 -1 2 C-0.67 1.34 -0.34 0.68 0 0 Z " fill="#3AC14F" transform="translate(157,83)"/>
<path d="M0 0 C0.33 0.66 0.66 1.32 1 2 C3.3140622 2.73075648 5.64828869 3.40138258 8 4 C8.07427838 7.34252724 8.06546953 9.8035914 7 13 C8.1521641 14.78332666 8.1521641 14.78332666 9.8125 16.5625 C13.28206406 20.92978344 14.92024009 25.38689661 15 31 C14.34 31.99 13.68 32.98 13 34 C12.79443565 37.76867967 12.62808128 41.43301133 14 45 C14.99 45.495 14.99 45.495 16 46 C16 48.64 16 51.28 16 54 C15.34 54 14.68 54 14 54 C13.8453125 52.4221875 13.8453125 52.4221875 13.6875 50.8125 C13.27078243 47.07310546 13.27078243 47.07310546 11.4375 44.625 C9.37558423 40.85976251 9.54679635 37.21828013 10 33 C10.33 32.67 10.66 32.34 11 32 C11.41372478 26.72500903 10.74642897 23.51199045 8 19 C7.2575 18.236875 6.515 17.47375 5.75 16.6875 C3.17795552 12.73757455 4.10466086 9.46696378 5 5 C4.071875 4.855625 3.14375 4.71125 2.1875 4.5625 C-1 4 -1 4 -4 3 C-4.825 3.309375 -5.65 3.61875 -6.5 3.9375 C-11.35309556 5.41076115 -15.96623908 5.16122366 -21 5 C-21 4.34 -21 3.68 -21 3 C-19 2 -19 2 -15.9375 2.125 C-11.77116953 1.99273554 -8.84838483 1.06623529 -5.015625 -0.44140625 C-3 -1 -3 -1 0 0 Z " fill="#3AC24F" transform="translate(87,94)"/>
<path d="M0 0 C0.66 0 1.32 0 2 0 C2.76882217 8.02992046 0.99470684 13.10005183 -3 20 C-3.32355469 20.73734375 -3.64710938 21.4746875 -3.98046875 22.234375 C-5 24 -5 24 -7.9375 24.875 C-11 25 -11 25 -14 23 C-14.1875 19.375 -14.1875 19.375 -14 16 C-13.34 16 -12.68 16 -12 16 C-11.938125 14.741875 -11.87625 13.48375 -11.8125 12.1875 C-11.5390625 9.96484375 -11.5390625 9.96484375 -11 8 C-8.6875 6.25 -8.6875 6.25 -6 5 C-4.63015802 3.70420353 -3.2848951 2.38007251 -2 1 C-2.33 2.65 -2.66 4.3 -3 6 C-3.99 6.33 -4.98 6.66 -6 7 C-7.05531154 8.9023914 -7.05531154 8.9023914 -7.375 10.75 C-8 13 -8 13 -9.5625 16 C-11.28808012 19.04677388 -11.28808012 19.04677388 -11 23 C-7.93694658 21.95018993 -7.0384115 21.06350941 -5.33203125 18.2421875 C-2.55469229 12.08777572 -0.26605827 6.78448592 0 0 Z " fill="#3BC351" transform="translate(159,124)"/>
<path d="M0 0 C0.66 0.33 1.32 0.66 2 1 C2 1.66 2 2.32 2 3 C0.35 3 -1.3 3 -3 3 C-3 21.15 -3 39.3 -3 58 C-3.66 58 -4.32 58 -5 58 C-6.40027356 19.14796541 -6.40027356 19.14796541 -5 2 C-2.625 0.9375 -2.625 0.9375 0 0 Z " fill="#091A1E" transform="translate(561,86)"/>
<path d="M0 0 C1.37478516 0.01740234 1.37478516 0.01740234 2.77734375 0.03515625 C3.69644531 0.04417969 4.61554688 0.05320312 5.5625 0.0625 C6.27277344 0.07410156 6.98304688 0.08570312 7.71484375 0.09765625 C7.71484375 0.75765625 7.71484375 1.41765625 7.71484375 2.09765625 C4.74484375 2.09765625 1.77484375 2.09765625 -1.28515625 2.09765625 C-1.28515625 20.24765625 -1.28515625 38.39765625 -1.28515625 57.09765625 C-1.61515625 57.09765625 -1.94515625 57.09765625 -2.28515625 57.09765625 C-2.43877145 49.81354746 -2.58695309 42.52934979 -2.72811985 35.24498844 C-2.79383548 31.86288954 -2.86145123 28.48085051 -2.93334961 25.09887695 C-3.01584752 21.21445847 -3.09018865 17.32990498 -3.1640625 13.4453125 C-3.19109756 12.22554214 -3.21813263 11.00577179 -3.24598694 9.7490387 C-3.27613136 8.06740883 -3.27613136 8.06740883 -3.30688477 6.35180664 C-3.32687027 5.35919327 -3.34685577 4.3665799 -3.3674469 3.34388733 C-3.25515897 0.27884111 -3.06415023 0.13094659 0 0 Z " fill="#05151B" transform="translate(352.28515625,86.90234375)"/>
<path d="M0 0 C1.4540625 0.0309375 1.4540625 0.0309375 2.9375 0.0625 C2.9375 0.7225 2.9375 1.3825 2.9375 2.0625 C1.2875 2.0625 -0.3625 2.0625 -2.0625 2.0625 C-2.0625 16.5825 -2.0625 31.1025 -2.0625 46.0625 C-2.3925 46.0625 -2.7225 46.0625 -3.0625 46.0625 C-3.2303363 39.67228608 -3.39029785 33.28191052 -3.54467773 26.89135742 C-3.59818301 24.71553032 -3.65351865 22.53974745 -3.71069336 20.36401367 C-3.79236715 17.24407494 -3.86754532 14.12403847 -3.94140625 11.00390625 C-3.96844131 10.02474747 -3.99547638 9.04558868 -4.02333069 8.03675842 C-4.04342697 7.13590012 -4.06352325 6.23504181 -4.08422852 5.30688477 C-4.10421402 4.50968521 -4.12419952 3.71248566 -4.14479065 2.89112854 C-4.0013031 -0.29739203 -3.22727476 0.06586275 0 0 Z " fill="#06151B" transform="translate(545.0625,86.9375)"/>
<path d="M0 0 C0 0.66 0 1.32 0 2 C-3.86207074 2.90816798 -7.43148656 3.11643845 -11.39453125 3.09765625 C-12.59658203 3.09443359 -13.79863281 3.09121094 -15.03710938 3.08789062 C-16.28298828 3.07951172 -17.52886719 3.07113281 -18.8125 3.0625 C-20.07771484 3.05798828 -21.34292969 3.05347656 -22.64648438 3.04882812 C-25.7643711 3.03706251 -28.88216133 3.02062272 -32 3 C-32 2.67 -32 2.34 -32 2 C-27.79196298 1.66285491 -23.58352782 1.33095755 -19.375 1 C-18.18519531 0.90460938 -16.99539062 0.80921875 -15.76953125 0.7109375 C-14.61582031 0.62070313 -13.46210937 0.53046875 -12.2734375 0.4375 C-10.68668213 0.31181641 -10.68668213 0.31181641 -9.06787109 0.18359375 C-6.03692697 0.00220986 -3.03554529 -0.03182747 0 0 Z " fill="#3FBF56" transform="translate(130,202)"/>
<path d="M0 0 C6.93 0.33 13.86 0.66 21 1 C21.33 1.66 21.66 2.32 22 3 C14.41 3 6.82 3 -1 3 C-0.67 2.01 -0.34 1.02 0 0 Z " fill="#041116" transform="translate(411,86)"/>
<path d="M0 0 C0.99 0.495 0.99 0.495 2 1 C2 1.66 2 2.32 2 3 C2.66 3 3.32 3 4 3 C4.99 5.64 5.98 8.28 7 11 C10.3 11.33 13.6 11.66 17 12 C17 12.33 17 12.66 17 13 C15.20991533 13.22151549 13.41781838 13.42682213 11.625 13.625 C10.62726563 13.74101562 9.62953125 13.85703125 8.6015625 13.9765625 C7.74304688 13.98429688 6.88453125 13.99203125 6 14 C3.49230175 11.49230175 3.03927163 9.37763279 2 6 C1.62875 4.88625 1.2575 3.7725 0.875 2.625 C0.58625 1.75875 0.2975 0.8925 0 0 Z " fill="#39C14F" transform="translate(103,149)"/>
<path d="M0 0 C0.33 0 0.66 0 1 0 C0.67 8.91 0.34 17.82 0 27 C-0.33 27 -0.66 27 -1 27 C-1 25.35 -1 23.7 -1 22 C-1.66 22 -2.32 22 -3 22 C-3.33 20.35 -3.66 18.7 -4 17 C-3.01 17 -2.02 17 -1 17 C-1.01160156 16.27554688 -1.02320313 15.55109375 -1.03515625 14.8046875 C-1.08231311 9.75216677 -1.07377564 4.96621233 0 0 Z " fill="#3EC254" transform="translate(7,84)"/>
<path d="M0 0 C2.31 0 4.62 0 7 0 C7 0.99 7 1.98 7 3 C4.36 2.67 1.72 2.34 -1 2 C-0.67 1.34 -0.34 0.68 0 0 Z " fill="#041115" transform="translate(587,87)"/>
<path d="M0 0 C0.66 0.33 1.32 0.66 2 1 C1.34 1.66 0.68 2.32 0 3 C0 2.01 0 1.02 0 0 Z " fill="#35C04A" transform="translate(188,170)"/>
<path d="M0 0 C0.66 0.66 1.32 1.32 2 2 C1.34 2 0.68 2 0 2 C0 1.34 0 0.68 0 0 Z " fill="#142428" transform="translate(464,93)"/>
<path d="M0 0 C0.66 0 1.32 0 2 0 C1.67 0.66 1.34 1.32 1 2 C0.67 1.34 0.34 0.68 0 0 Z " fill="#1F6B32" transform="translate(248,84)"/>
<path d="" fill="#2DC141" transform="translate(0,0)"/>
<path d="M0 0 C2 1 2 1 2 1 Z " fill="#2AAC3C" transform="translate(205,148)"/>
<path d="" fill="#15262C" transform="translate(0,0)"/>
<path d="" fill="#0C1E22" transform="translate(0,0)"/>
<path d="M0 0 C2 1 2 1 2 1 Z " fill="#17262A" transform="translate(566,138)"/>
<path d="M0 0 C2 1 2 1 2 1 Z " fill="#152529" transform="translate(499,132)"/>
<path d="M0 0 C2 1 2 1 2 1 Z " fill="#142427" transform="translate(520,126)"/>
<path d="" fill="#152428" transform="translate(0,0)"/>
<path d="M0 0 C2 1 2 1 2 1 Z " fill="#152428" transform="translate(531,106)"/>
<path d="" fill="#122125" transform="translate(0,0)"/>
<path d="M0 0 C2 1 2 1 2 1 Z " fill="#142327" transform="translate(504,83)"/>
<path d="M0 0 C2 1 2 1 2 1 Z " fill="#122124" transform="translate(314,80)"/>
<path d="M0 0 C2 1 2 1 2 1 Z " fill="#2EBE43" transform="translate(186,34)"/>
<path d="" fill="#3AC44F" transform="translate(0,0)"/>
<path d="" fill="#2BB93C" transform="translate(0,0)"/>
<path d="" fill="#3AC74F" transform="translate(0,0)"/>
<path d="" fill="#39C24E" transform="translate(0,0)"/>
<path d="" fill="#38BE4E" transform="translate(0,0)"/>
<path d="" fill="#38C24D" transform="translate(0,0)"/>
<path d="" fill="#39C44E" transform="translate(0,0)"/>
<path d="" fill="#2DC440" transform="translate(0,0)"/>
<path d="" fill="#38C54D" transform="translate(0,0)"/>
<path d="" fill="#3CC550" transform="translate(0,0)"/>
<path d="" fill="#3AC550" transform="translate(0,0)"/>
<path d="" fill="#2DC13F" transform="translate(0,0)"/>
<path d="" fill="#2DC941" transform="translate(0,0)"/>
<path d="" fill="#2ABB3F" transform="translate(0,0)"/>
<path d="" fill="#28C03B" transform="translate(0,0)"/>
<path d="" fill="#3BC450" transform="translate(0,0)"/>
<path d="" fill="#34C847" transform="translate(0,0)"/>
<path d="" fill="#2DBF40" transform="translate(0,0)"/>
<path d="" fill="#2BB93C" transform="translate(0,0)"/>
<path d="" fill="#29AD3B" transform="translate(0,0)"/>
<path d="" fill="#2BB63E" transform="translate(0,0)"/>
<path d="" fill="#2CC13F" transform="translate(0,0)"/>
<path d="" fill="#2DCA40" transform="translate(0,0)"/>
<path d="" fill="#29BB3C" transform="translate(0,0)"/>
<path d="" fill="#36BB4A" transform="translate(0,0)"/>
<path d="" fill="#37C04B" transform="translate(0,0)"/>
<path d="" fill="#37BB4D" transform="translate(0,0)"/>
<path d="" fill="#36C14B" transform="translate(0,0)"/>
<path d="" fill="#3BBF51" transform="translate(0,0)"/>
<path d="" fill="#2DC13F" transform="translate(0,0)"/>
<path d="" fill="#3CC951" transform="translate(0,0)"/>
<path d="" fill="#3AC44F" transform="translate(0,0)"/>
<path d="" fill="#132327" transform="translate(0,0)"/>
<path d="" fill="#132226" transform="translate(0,0)"/>
<path d="" fill="#132226" transform="translate(0,0)"/>
<path d="" fill="#132226" transform="translate(0,0)"/>
<path d="" fill="#132226" transform="translate(0,0)"/>
<path d="" fill="#132226" transform="translate(0,0)"/>
<path d="" fill="#122023" transform="translate(0,0)"/>
<path d="" fill="#111F23" transform="translate(0,0)"/>
<path d="" fill="#2BB93D" transform="translate(0,0)"/>
<path d="" fill="#132326" transform="translate(0,0)"/>
<path d="" fill="#132226" transform="translate(0,0)"/>
<path d="" fill="#132226" transform="translate(0,0)"/>
<path d="" fill="#194A2A" transform="translate(0,0)"/>
<path d="" fill="#1B562C" transform="translate(0,0)"/>
<path d="" fill="#2AB93C" transform="translate(0,0)"/>
<path d="" fill="#142327" transform="translate(0,0)"/>
<path d="" fill="#132226" transform="translate(0,0)"/>
<path d="" fill="#142327" transform="translate(0,0)"/>
<path d="" fill="#122125" transform="translate(0,0)"/>
<path d="" fill="#132226" transform="translate(0,0)"/>
<path d="" fill="#132327" transform="translate(0,0)"/>
<path d="" fill="#132327" transform="translate(0,0)"/>
<path d="" fill="#122023" transform="translate(0,0)"/>
<path d="" fill="#122124" transform="translate(0,0)"/>
<path d="" fill="#1D462F" transform="translate(0,0)"/>
<path d="" fill="#18292D" transform="translate(0,0)"/>
<path d="" fill="#1A2A2E" transform="translate(0,0)"/>
<path d="" fill="#132226" transform="translate(0,0)"/>
<path d="" fill="#1B2B2F" transform="translate(0,0)"/>
<path d="" fill="#1A2A2E" transform="translate(0,0)"/>
<path d="" fill="#1B2B2F" transform="translate(0,0)"/>
<path d="" fill="#142327" transform="translate(0,0)"/>
<path d="" fill="#18282C" transform="translate(0,0)"/>
<path d="" fill="#122023" transform="translate(0,0)"/>
<path d="" fill="#0C1C21" transform="translate(0,0)"/>
<path d="" fill="#122429" transform="translate(0,0)"/>
<path d="" fill="#112227" transform="translate(0,0)"/>
<path d="" fill="#0F2126" transform="translate(0,0)"/>
<path d="" fill="#0E1F23" transform="translate(0,0)"/>
<path d="" fill="#2AAC3C" transform="translate(0,0)"/>
<path d="" fill="#19292D" transform="translate(0,0)"/>
<path d="" fill="#1E2D31" transform="translate(0,0)"/>
<path d="" fill="#142529" transform="translate(0,0)"/>
<path d="" fill="#102D25" transform="translate(0,0)"/>
<path d="" fill="#2CC13F" transform="translate(0,0)"/>
<path d="" fill="#122126" transform="translate(0,0)"/>
<path d="" fill="#142327" transform="translate(0,0)"/>
<path d="" fill="#0F2024" transform="translate(0,0)"/>
<path d="" fill="#0F1F22" transform="translate(0,0)"/>
<path d="" fill="#3FBF55" transform="translate(0,0)"/>
<path d="" fill="#1D2D32" transform="translate(0,0)"/>
<path d="" fill="#122124" transform="translate(0,0)"/>
<path d="" fill="#2EC740" transform="translate(0,0)"/>
<path d="" fill="#1B2B2F" transform="translate(0,0)"/>
<path d="" fill="#142427" transform="translate(0,0)"/>
<path d="" fill="#203135" transform="translate(0,0)"/>
<path d="" fill="#123327" transform="translate(0,0)"/>
<path d="" fill="#2DC440" transform="translate(0,0)"/>
<path d="" fill="#27B43A" transform="translate(0,0)"/>
<path d="" fill="#2DC440" transform="translate(0,0)"/>
<path d="" fill="#111F23" transform="translate(0,0)"/>
<path d="" fill="#39C04F" transform="translate(0,0)"/>
<path d="" fill="#3BC451" transform="translate(0,0)"/>
<path d="" fill="#142327" transform="translate(0,0)"/>
<path d="" fill="#38BB4C" transform="translate(0,0)"/>
<path d="" fill="#2CC13F" transform="translate(0,0)"/>
<path d="" fill="#2BCA3E" transform="translate(0,0)"/>
<path d="" fill="#152529" transform="translate(0,0)"/>
<path d="" fill="#2DCA40" transform="translate(0,0)"/>
<path d="" fill="#142428" transform="translate(0,0)"/>
<path d="" fill="#19292C" transform="translate(0,0)"/>
<path d="" fill="#142327" transform="translate(0,0)"/>
<path d="" fill="#122228" transform="translate(0,0)"/>
<path d="" fill="#132226" transform="translate(0,0)"/>
<path d="" fill="#132326" transform="translate(0,0)"/>
<path d="" fill="#152327" transform="translate(0,0)"/>
<path d="" fill="#111F23" transform="translate(0,0)"/>
<path d="" fill="#132429" transform="translate(0,0)"/>
<path d="" fill="#111F23" transform="translate(0,0)"/>
<path d="" fill="#124123" transform="translate(0,0)"/>
<path d="" fill="#2AC33D" transform="translate(0,0)"/>
<path d="" fill="#132326" transform="translate(0,0)"/>
<path d="" fill="#000F14" transform="translate(0,0)"/>
<path d="" fill="#18402C" transform="translate(0,0)"/>
<path d="" fill="#102024" transform="translate(0,0)"/>
<path d="" fill="#132226" transform="translate(0,0)"/>
<path d="" fill="#31C346" transform="translate(0,0)"/>
<path d="" fill="#102024" transform="translate(0,0)"/>
<path d="" fill="#132326" transform="translate(0,0)"/>
<path d="" fill="#132226" transform="translate(0,0)"/>
<path d="" fill="#122124" transform="translate(0,0)"/>
<path d="" fill="#163428" transform="translate(0,0)"/>
<path d="" fill="#112226" transform="translate(0,0)"/>
<path d="" fill="#2EC841" transform="translate(0,0)"/>
<path d="" fill="#132326" transform="translate(0,0)"/>
<path d="" fill="#07181B" transform="translate(0,0)"/>
<path d="" fill="#132225" transform="translate(0,0)"/>
<path d="" fill="#122023" transform="translate(0,0)"/>
<path d="" fill="#163428" transform="translate(0,0)"/>
<path d="" fill="#142428" transform="translate(0,0)"/>
<path d="" fill="#132326" transform="translate(0,0)"/>
<path d="" fill="#0F2024" transform="translate(0,0)"/>
<path d="" fill="#122125" transform="translate(0,0)"/>
<path d="" fill="#29AA3B" transform="translate(0,0)"/>
<path d="" fill="#29AA3B" transform="translate(0,0)"/>
<path d="" fill="#2DC840" transform="translate(0,0)"/>
<path d="" fill="#0F1F23" transform="translate(0,0)"/>
<path d="" fill="#3AC250" transform="translate(0,0)"/>
<path d="" fill="#1A2A2F" transform="translate(0,0)"/>
<path d="" fill="#122328" transform="translate(0,0)"/>
<path d="" fill="#122226" transform="translate(0,0)"/>
<path d="" fill="#152529" transform="translate(0,0)"/>
<path d="" fill="#29B33C" transform="translate(0,0)"/>
<path d="" fill="#0F1F23" transform="translate(0,0)"/>
<path d="" fill="#16272A" transform="translate(0,0)"/>
<path d="" fill="#132326" transform="translate(0,0)"/>
<path d="" fill="#102025" transform="translate(0,0)"/>
<path d="" fill="#142327" transform="translate(0,0)"/>
<path d="" fill="#1D6731" transform="translate(0,0)"/>
<path d="" fill="#112024" transform="translate(0,0)"/>
<path d="" fill="#162629" transform="translate(0,0)"/>
<path d="" fill="#15262B" transform="translate(0,0)"/>
<path d="" fill="#1B2A2E" transform="translate(0,0)"/>
<path d="" fill="#132226" transform="translate(0,0)"/>
<path d="" fill="#269E38" transform="translate(0,0)"/>
<path d="" fill="#39BC4E" transform="translate(0,0)"/>
<path d="" fill="#2CC13F" transform="translate(0,0)"/>
<path d="" fill="#122326" transform="translate(0,0)"/>
<path d="" fill="#202E33" transform="translate(0,0)"/>
<path d="" fill="#34B648" transform="translate(0,0)"/>
<path d="" fill="#102025" transform="translate(0,0)"/>
<path d="" fill="#132226" transform="translate(0,0)"/>
<path d="" fill="#3BBD51" transform="translate(0,0)"/>
<path d="" fill="#2DC440" transform="translate(0,0)"/>
<path d="" fill="#04151A" transform="translate(0,0)"/>
<path d="" fill="#28A93B" transform="translate(0,0)"/>
<path d="" fill="#248237" transform="translate(0,0)"/>
<path d="" fill="#0E1F23" transform="translate(0,0)"/>
<path d="" fill="#3CC452" transform="translate(0,0)"/>
<path d="" fill="#2CC13F" transform="translate(0,0)"/>
<path d="" fill="#0D1D21" transform="translate(0,0)"/>
<path d="" fill="#1C2C30" transform="translate(0,0)"/>
<path d="" fill="#16282C" transform="translate(0,0)"/>
<path d="" fill="#132225" transform="translate(0,0)"/>
<path d="" fill="#0F2024" transform="translate(0,0)"/>
<path d="" fill="#132226" transform="translate(0,0)"/>
<path d="" fill="#2DC13F" transform="translate(0,0)"/>
<path d="" fill="#142428" transform="translate(0,0)"/>
<path d="" fill="#152529" transform="translate(0,0)"/>
<path d="" fill="#142327" transform="translate(0,0)"/>
<path d="" fill="#243438" transform="translate(0,0)"/>
<path d="" fill="#24B137" transform="translate(0,0)"/>
<path d="" fill="#3BC550" transform="translate(0,0)"/>
<path d="" fill="#2DC13F" transform="translate(0,0)"/>
<path d="" fill="#0F1F24" transform="translate(0,0)"/>
<path d="" fill="#0B1C20" transform="translate(0,0)"/>
<path d="" fill="#142428" transform="translate(0,0)"/>
<path d="" fill="#3AC24F" transform="translate(0,0)"/>
<path d="" fill="#223135" transform="translate(0,0)"/>
<path d="" fill="#132226" transform="translate(0,0)"/>
<path d="" fill="#2ECA41" transform="translate(0,0)"/>
<path d="" fill="#152428" transform="translate(0,0)"/>
<path d="" fill="#132226" transform="translate(0,0)"/>
<path d="" fill="#2ECA41" transform="translate(0,0)"/>
<path d="" fill="#152428" transform="translate(0,0)"/>
<path d="" fill="#132226" transform="translate(0,0)"/>
<path d="" fill="#132226" transform="translate(0,0)"/>
<path d="" fill="#132226" transform="translate(0,0)"/>
<path d="" fill="#0E1E22" transform="translate(0,0)"/>
<path d="" fill="#0E1E23" transform="translate(0,0)"/>
<path d="" fill="#27353A" transform="translate(0,0)"/>
<path d="" fill="#122023" transform="translate(0,0)"/>
<path d="" fill="#163328" transform="translate(0,0)"/>
<path d="" fill="#0B171B" transform="translate(0,0)"/>
<path d="" fill="#1D2C30" transform="translate(0,0)"/>
<path d="" fill="#0E1E22" transform="translate(0,0)"/>
<path d="" fill="#122124" transform="translate(0,0)"/>
<path d="" fill="#1D5B2F" transform="translate(0,0)"/>
<path d="" fill="#132327" transform="translate(0,0)"/>
<path d="" fill="#07191D" transform="translate(0,0)"/>
<path d="" fill="#1A4B2C" transform="translate(0,0)"/>
<path d="" fill="#132326" transform="translate(0,0)"/>
<path d="" fill="#122124" transform="translate(0,0)"/>
<path d="" fill="#112325" transform="translate(0,0)"/>
<path d="" fill="#132125" transform="translate(0,0)"/>
<path d="" fill="#132226" transform="translate(0,0)"/>
<path d="" fill="#142326" transform="translate(0,0)"/>
<path d="" fill="#101F23" transform="translate(0,0)"/>
<path d="" fill="#279239" transform="translate(0,0)"/>
<path d="" fill="#122328" transform="translate(0,0)"/>
<path d="" fill="#19292D" transform="translate(0,0)"/>
<path d="" fill="#29AB3C" transform="translate(0,0)"/>
<path d="" fill="#2DC940" transform="translate(0,0)"/>
<path d="" fill="#2DC440" transform="translate(0,0)"/>
<path d="" fill="#112125" transform="translate(0,0)"/>
<path d="" fill="#041419" transform="translate(0,0)"/>
<path d="" fill="#102226" transform="translate(0,0)"/>
<path d="" fill="#142427" transform="translate(0,0)"/>
<path d="" fill="#14252A" transform="translate(0,0)"/>
<path d="" fill="#26A038" transform="translate(0,0)"/>
<path d="" fill="#2DC440" transform="translate(0,0)"/>
<path d="" fill="#122326" transform="translate(0,0)"/>
<path d="" fill="#152529" transform="translate(0,0)"/>
<path d="" fill="#142427" transform="translate(0,0)"/>
<path d="" fill="#111F22" transform="translate(0,0)"/>
<path d="" fill="#2BB93D" transform="translate(0,0)"/>
<path d="" fill="#142327" transform="translate(0,0)"/>
<path d="" fill="#132226" transform="translate(0,0)"/>
<path d="" fill="#2DC440" transform="translate(0,0)"/>
<path d="" fill="#142327" transform="translate(0,0)"/>
<path d="" fill="#142327" transform="translate(0,0)"/>
<path d="" fill="#101F24" transform="translate(0,0)"/>
<path d="" fill="#2AB93C" transform="translate(0,0)"/>
<path d="" fill="#142428" transform="translate(0,0)"/>
<path d="" fill="#142428" transform="translate(0,0)"/>
<path d="" fill="#142428" transform="translate(0,0)"/>
<path d="" fill="#122023" transform="translate(0,0)"/>
<path d="" fill="#2CC13F" transform="translate(0,0)"/>
<path d="" fill="#132326" transform="translate(0,0)"/>
<path d="" fill="#132327" transform="translate(0,0)"/>
<path d="" fill="#132226" transform="translate(0,0)"/>
<path d="" fill="#132226" transform="translate(0,0)"/>
<path d="" fill="#2CC13F" transform="translate(0,0)"/>
<path d="" fill="#142427" transform="translate(0,0)"/>
<path d="" fill="#233337" transform="translate(0,0)"/>
<path d="" fill="#122125" transform="translate(0,0)"/>
<path d="" fill="#2BB93C" transform="translate(0,0)"/>
<path d="" fill="#0A181C" transform="translate(0,0)"/>
<path d="" fill="#09191D" transform="translate(0,0)"/>
<path d="" fill="#1F5E31" transform="translate(0,0)"/>
<path d="" fill="#2AB93C" transform="translate(0,0)"/>
<path d="" fill="#132225" transform="translate(0,0)"/>
<path d="" fill="#111F23" transform="translate(0,0)"/>
<path d="" fill="#1A4B2C" transform="translate(0,0)"/>
<path d="" fill="#36BF4B" transform="translate(0,0)"/>
<path d="" fill="#132226" transform="translate(0,0)"/>
<path d="" fill="#132226" transform="translate(0,0)"/>
<path d="" fill="#183F2A" transform="translate(0,0)"/>
<path d="" fill="#35C34A" transform="translate(0,0)"/>
<path d="" fill="#28C63A" transform="translate(0,0)"/>
<path d="" fill="#111F23" transform="translate(0,0)"/>
<path d="" fill="#163328" transform="translate(0,0)"/>
<path d="" fill="#2CC13F" transform="translate(0,0)"/>
<path d="" fill="#29BF3D" transform="translate(0,0)"/>
<path d="" fill="#34C149" transform="translate(0,0)"/>
<path d="" fill="#28C23B" transform="translate(0,0)"/>
<path d="" fill="#3ECA53" transform="translate(0,0)"/>
<path d="" fill="#2AC63D" transform="translate(0,0)"/>
<path d="" fill="#2DC640" transform="translate(0,0)"/>
<path d="" fill="#2DC640" transform="translate(0,0)"/>
<path d="" fill="#27BA3A" transform="translate(0,0)"/>
<path d="" fill="#2DC640" transform="translate(0,0)"/>
<path d="" fill="#2CC13F" transform="translate(0,0)"/>
<path d="" fill="#36C64B" transform="translate(0,0)"/>
<path d="" fill="#2BB93C" transform="translate(0,0)"/>
<path d="" fill="#34C947" transform="translate(0,0)"/>
<path d="" fill="#37C94A" transform="translate(0,0)"/>
<path d="" fill="#3AC350" transform="translate(0,0)"/>
<path d="" fill="#28AC3A" transform="translate(0,0)"/>
<path d="" fill="#2DC13F" transform="translate(0,0)"/>
<path d="" fill="#3CC651" transform="translate(0,0)"/>
<path d="" fill="#38CA4D" transform="translate(0,0)"/>
<path d="" fill="#39C54E" transform="translate(0,0)"/>
<path d="" fill="#2BB93D" transform="translate(0,0)"/>
<path d="" fill="#2CC63F" transform="translate(0,0)"/>
<path d="" fill="#37C44C" transform="translate(0,0)"/>
<path d="" fill="#40C455" transform="translate(0,0)"/>
<path d="" fill="#2CBD3F" transform="translate(0,0)"/>
<path d="" fill="#38C04D" transform="translate(0,0)"/>
<path d="" fill="#2EC841" transform="translate(0,0)"/>
<path d="" fill="#2CBD3F" transform="translate(0,0)"/>
<path d="" fill="#2EC440" transform="translate(0,0)"/>
<path d="" fill="#2AB43C" transform="translate(0,0)"/>
<path d="" fill="#37C04C" transform="translate(0,0)"/>
<path d="" fill="#2BB93D" transform="translate(0,0)"/>
<path d="" fill="#40C856" transform="translate(0,0)"/>
<path d="" fill="#37C14C" transform="translate(0,0)"/>
<path d="" fill="#38C04D" transform="translate(0,0)"/>
<path d="" fill="#2BB93D" transform="translate(0,0)"/>
<path d="" fill="#2EC941" transform="translate(0,0)"/>
<path d="" fill="#3AC44F" transform="translate(0,0)"/>
<path d="" fill="#38C44E" transform="translate(0,0)"/>
<path d="" fill="#3AC34F" transform="translate(0,0)"/>
<path d="" fill="#2EC541" transform="translate(0,0)"/>
<path d="" fill="#39C24E" transform="translate(0,0)"/>
<path d="" fill="#2EC440" transform="translate(0,0)"/>
<path d="" fill="#2DC13F" transform="translate(0,0)"/>
<path d="" fill="#2DC13F" transform="translate(0,0)"/>
<path d="" fill="#2DC440" transform="translate(0,0)"/>
<path d="" fill="#3AC14F" transform="translate(0,0)"/>
<path d="" fill="#27C53A" transform="translate(0,0)"/>
<path d="" fill="#2DC13F" transform="translate(0,0)"/>
<path d="" fill="#2BB93D" transform="translate(0,0)"/>
<path d="" fill="#2DC940" transform="translate(0,0)"/>
<path d="" fill="#34C848" transform="translate(0,0)"/>
<path d="" fill="#3DC353" transform="translate(0,0)"/>
<path d="" fill="#3AC14F" transform="translate(0,0)"/>
<path d="" fill="#2BB93D" transform="translate(0,0)"/>
</svg>
