<?xml version="1.0" encoding="UTF-8"?>
<svg version="1.1" xmlns="http://www.w3.org/2000/svg" width="2000" height="1260">
<path d="M0 0 C4.05614564 2.02011959 7.92893289 4.29294893 11.8125 6.625 C12.96331542 7.30451561 14.11486019 7.98279734 15.26708984 8.65991211 C17.65923363 10.0669062 20.04816329 11.4791416 22.43505859 12.89501953 C27.96779002 16.17032891 33.54961697 19.36056136 39.125 22.5625 C48.42356752 27.92151571 57.69937767 33.318586 66.96582031 38.73291016 C77.52620282 44.89919054 88.12126766 51.0049595 98.71777344 57.10888672 C104.14659942 60.23680148 109.57319281 63.36858448 115 66.5 C117.16665583 67.75001879 119.3333225 69.00001878 121.5 70.25 C134.5 77.75 147.5 85.25 160.5 92.75 C161.57266113 93.36883057 162.64532227 93.98766113 163.75048828 94.62524414 C165.91557071 95.87435518 168.08060982 97.12354129 170.24560547 98.37280273 C175.68615706 101.51202309 181.12747216 104.64990563 186.5703125 107.78515625 C198.0544882 114.40222892 209.52196894 121.04633977 220.96582031 127.73291016 C231.52620282 133.89919054 242.12126766 140.0049595 252.71777344 146.10888672 C255.98174327 147.98948106 259.24494189 149.87140546 262.5078125 151.75390625 C263.58111816 152.37313965 264.65442383 152.99237305 265.76025391 153.63037109 C267.90595791 154.86863796 270.05146838 156.10724025 272.19677734 157.34619141 C277.29041321 160.28706287 282.38639383 163.22363596 287.49072266 166.14590454 C289.9115662 167.53218831 292.33107889 168.92078547 294.75048828 170.30957031 C296.46647617 171.29328204 298.18439193 172.27362835 299.90234375 173.25390625 C300.93488281 173.846875 301.96742188 174.43984375 303.03125 175.05078125 C303.94455078 175.57325439 304.85785156 176.09572754 305.79882812 176.6340332 C308 178 308 178 310 180 C310.21169748 182.48542247 310.3039953 184.85674843 310.30078125 187.34375 C310.30720894 188.43109436 310.30720894 188.43109436 310.31376648 189.54040527 C310.31951167 191.07363846 310.32000864 192.6068989 310.31567383 194.14013672 C310.31251206 196.49103044 310.33597461 198.84066808 310.36132812 201.19140625 C310.36360087 202.67968591 310.36430473 204.16796896 310.36328125 205.65625 C310.372491 206.36148804 310.38170074 207.06672607 310.39118958 207.79333496 C310.37231445 209.77539062 310.37231445 209.77539062 310 213 C307 215 307 215 304.6730957 214.8190918 C301.56185976 213.86574477 299.04743013 212.52662923 296.23046875 210.89453125 C295.10688965 210.24798584 293.98331055 209.60144043 292.82568359 208.93530273 C291.61285954 208.22786671 290.40013416 207.52026149 289.1875 206.8125 C287.92562747 206.08283592 286.66341571 205.35375823 285.40087891 204.62524414 C281.59512132 202.4261745 277.79714354 200.21389905 274 198 C272.93056152 197.37770508 271.86112305 196.75541016 270.75927734 196.11425781 C265.83089416 193.2460548 260.90640724 190.37127323 255.984375 187.4921875 C246.44177067 181.91570844 236.85942207 176.40788509 227.28222656 170.89111328 C221.85340058 167.76319852 216.42680719 164.63141552 211 161.5 C208.83334417 160.24998121 206.6666775 158.99998122 204.5 157.75 C200.16666667 155.25 195.83333333 152.75 191.5 150.25 C190.42733887 149.63116943 189.35467773 149.01233887 188.24951172 148.37475586 C186.08442929 147.12564482 183.91939018 145.87645871 181.75439453 144.62719727 C176.31384294 141.48797691 170.87252784 138.35009437 165.4296875 135.21484375 C153.9455118 128.59777108 142.47803106 121.95366023 131.03417969 115.26708984 C120.47379718 109.10080946 109.87873234 102.9950405 99.28222656 96.89111328 C92.77128743 93.13971976 86.26336806 89.38309006 79.75488281 85.62744141 C74.31414664 82.48817754 68.87268523 79.35018503 63.4296875 76.21484375 C51.80086835 69.51445773 40.18758546 62.788761 28.59912109 56.01879883 C19.41419241 50.65359741 10.2100893 45.32186764 1 40 C1 45.28 1 50.56 1 56 C2.52625 56.84820312 4.0525 57.69640625 5.625 58.5703125 C18.46540646 65.72356148 31.22143692 73.00059966 43.90234375 80.43359375 C50.25046615 84.15334912 56.62362113 87.82895249 63 91.5 C71.34809759 96.30832078 79.68243316 101.1390576 88 106 C99.54722486 112.74713114 111.12902119 119.4333937 122.71777344 126.10888672 C128.14659942 129.23680148 133.57319281 132.36858448 139 135.5 C141.16665583 136.75001879 143.3333225 138.00001878 145.5 139.25 C149.83333333 141.75 154.16666667 144.25 158.5 146.75 C159.57266113 147.36883057 160.64532227 147.98766113 161.75048828 148.62524414 C163.91557071 149.87435518 166.08060982 151.12354129 168.24560547 152.37280273 C173.68615706 155.51202309 179.12747216 158.64990563 184.5703125 161.78515625 C196.0544882 168.40222892 207.52196894 175.04633977 218.96582031 181.73291016 C229.52620282 187.89919054 240.12126766 194.0049595 250.71777344 200.10888672 C257.2142295 203.85193556 263.70820766 207.59928616 270.20117188 211.34838867 C275.27694244 214.27852765 280.3545798 217.20527377 285.43914795 220.12011719 C287.8404023 221.49696526 290.24055526 222.87572692 292.640625 224.25463867 C294.33486603 225.22696703 296.03069581 226.1965254 297.7265625 227.16601562 C299.26570313 228.05063477 299.26570313 228.05063477 300.8359375 228.953125 C301.73876465 229.47036133 302.6415918 229.98759766 303.57177734 230.52050781 C304.37309082 231.00874023 305.1744043 231.49697266 306 232 C306.75700195 232.40436279 307.51400391 232.80872559 308.29394531 233.2253418 C310.46986107 235.48875503 310.47562848 237.25281407 310.50448608 240.31996155 C310.48292953 241.37007668 310.48292953 241.37007668 310.4609375 242.44140625 C310.46002106 243.16488754 310.45910461 243.88836884 310.4581604 244.6337738 C310.45212477 246.16110812 310.43637953 247.68843061 310.41162109 249.21557617 C310.37507692 251.55757057 310.37060194 253.89798446 310.37109375 256.24023438 C310.36126376 257.72397205 310.34960727 259.20769898 310.3359375 260.69140625 C310.33371185 261.39350723 310.33148621 262.09560822 310.32919312 262.81898499 C310.23217276 267.76782724 310.23217276 267.76782724 308 270 C301.80925586 269.9511771 296.80430454 266.33970139 291.625 263.3125 C290.61477783 262.73161621 289.60455566 262.15073242 288.5637207 261.55224609 C285.36977765 259.71170219 282.18409937 257.85751341 279 256 C277.02214278 254.85024774 275.04427837 253.70050788 273.06640625 252.55078125 C269.09458593 250.23829332 265.12653199 247.91946834 261.16015625 245.59765625 C251.56057762 239.98321325 241.91864049 234.4419968 232.28222656 228.89111328 C226.85340058 225.76319852 221.42680719 222.63141552 216 219.5 C213.83334417 218.24998121 211.6666775 216.99998122 209.5 215.75 C205.16666667 213.25 200.83333333 210.75 196.5 208.25 C195.42733887 207.63116943 194.35467773 207.01233887 193.24951172 206.37475586 C191.08442929 205.12564482 188.91939018 203.87645871 186.75439453 202.62719727 C181.31384294 199.48797691 175.87252784 196.35009437 170.4296875 193.21484375 C158.9455118 186.59777108 147.47803106 179.95366023 136.03417969 173.26708984 C125.47379718 167.10080946 114.87873234 160.9950405 104.28222656 154.89111328 C98.85340058 151.76319852 93.42680719 148.63141552 88 145.5 C85.83334417 144.24998121 83.6666775 142.99998122 81.5 141.75 C77.16666667 139.25 72.83333333 136.75 68.5 134.25 C67.42717773 133.63108887 66.35435547 133.01217773 65.24902344 132.37451172 C63.08552524 131.12628966 60.92211357 129.87791761 58.75878906 128.62939453 C53.29434983 125.47594744 47.82836355 122.32523904 42.359375 119.1796875 C28.51653014 111.21348363 14.73043576 103.15846534 1 95 C1 100.28 1 105.56 1 111 C2.71960938 111.98097656 4.43921875 112.96195312 6.2109375 113.97265625 C21.42149835 122.65432962 36.60935961 131.37402167 51.7734375 140.13671875 C55.03524007 142.0203505 58.29861844 143.90122321 61.5625 145.78125 C73.04959095 152.39909168 84.51945745 159.04487232 95.96582031 165.73291016 C106.52620282 171.89919054 117.12126766 178.0049595 127.71777344 184.10888672 C133.14659942 187.23680148 138.57319281 190.36858448 144 193.5 C146.16665583 194.75001879 148.3333225 196.00001878 150.5 197.25 C154.83333333 199.75 159.16666667 202.25 163.5 204.75 C164.57266113 205.36883057 165.64532227 205.98766113 166.75048828 206.62524414 C168.91557071 207.87435518 171.08060982 209.12354129 173.24560547 210.37280273 C178.68615706 213.51202309 184.12747216 216.64990563 189.5703125 219.78515625 C201.0544882 226.40222892 212.52196894 233.04633977 223.96582031 239.73291016 C235.61659185 246.53587623 247.30903744 253.26642186 259 260 C272.20032618 267.60291784 285.39592364 275.21374651 298.5625 282.875 C299.59842285 283.47642822 300.6343457 284.07785645 301.70166016 284.69750977 C302.64702637 285.24850342 303.59239258 285.79949707 304.56640625 286.3671875 C305.40115479 286.85300293 306.23590332 287.33881836 307.09594727 287.83935547 C309 289 309 289 310 290 C310.11322434 292.42490371 310.16416875 294.82026862 310.16796875 297.24609375 C310.17129715 297.97240494 310.17462555 298.69871613 310.17805481 299.44703674 C310.18312675 300.98625046 310.18546305 302.5254752 310.18530273 304.06469727 C310.18748766 306.42417471 310.20563565 308.78318361 310.22460938 311.14257812 C310.22754352 312.63541506 310.22952817 314.12825423 310.23046875 315.62109375 C310.23765427 316.32946884 310.24483978 317.03784393 310.25224304 317.76768494 C310.22882337 322.77117663 310.22882337 322.77117663 308 325 C303.93423799 325.49599135 301.63060229 324.54950212 298.17578125 322.46484375 C297.24330566 321.91062744 296.31083008 321.35641113 295.35009766 320.78540039 C294.34769043 320.17559326 293.3452832 319.56578613 292.3125 318.9375 C290.13981434 317.64240439 287.96661996 316.34816191 285.79296875 315.0546875 C284.10953369 314.04680176 284.10953369 314.04680176 282.39208984 313.01855469 C277.00172621 309.81087321 271.56361751 306.68742643 266.125 303.5625 C263.93998572 302.30359097 261.75509053 301.04447523 259.5703125 299.78515625 C258.48524414 299.16012207 257.40017578 298.53508789 256.28222656 297.89111328 C250.85340058 294.76319852 245.42680719 291.63141552 240 288.5 C237.83334417 287.24998121 235.6666775 285.99998122 233.5 284.75 C229.16666667 282.25 224.83333333 279.75 220.5 277.25 C219.42733887 276.63116943 218.35467773 276.01233887 217.24951172 275.37475586 C215.08442929 274.12564482 212.91939018 272.87645871 210.75439453 271.62719727 C205.31384294 268.48797691 199.87252784 265.35009437 194.4296875 262.21484375 C182.9455118 255.59777108 171.47803106 248.95366023 160.03417969 242.26708984 C149.47379718 236.10080946 138.87873234 229.9950405 128.28222656 223.89111328 C122.85340058 220.76319852 117.42680719 217.63141552 112 214.5 C109.83334417 213.24998121 107.6666775 211.99998122 105.5 210.75 C101.16666667 208.25 96.83333333 205.75 92.5 203.25 C91.42733887 202.63116943 90.35467773 202.01233887 89.24951172 201.37475586 C87.08442929 200.12564482 84.91939018 198.87645871 82.75439453 197.62719727 C77.31384294 194.48797691 71.87252784 191.35009437 66.4296875 188.21484375 C44.54367054 175.60482535 22.73070495 162.87587045 1 150 C1 155.28 1 160.56 1 166 C2.57523438 166.90878906 4.15046875 167.81757813 5.7734375 168.75390625 C15.04947917 174.10546875 24.32552083 179.45703125 33.6015625 184.80859375 C34.65956055 185.41896484 35.71755859 186.02933594 36.80761719 186.65820312 C38.95154067 187.89510728 41.09542026 189.13208754 43.23925781 190.36914062 C48.68192559 193.50958117 54.12535545 196.64868634 59.5703125 199.78515625 C71.0544882 206.40222892 82.52196894 213.04633977 93.96582031 219.73291016 C104.52620282 225.89919054 115.12126766 232.0049595 125.71777344 238.10888672 C131.14659942 241.23680148 136.57319281 244.36858448 142 247.5 C144.16665583 248.75001879 146.3333225 250.00001878 148.5 251.25 C152.83333333 253.75 157.16666667 256.25 161.5 258.75 C162.57266113 259.36883057 163.64532227 259.98766113 164.75048828 260.62524414 C166.91557071 261.87435518 169.08060982 263.12354129 171.24560547 264.37280273 C176.68615706 267.51202309 182.12747216 270.64990563 187.5703125 273.78515625 C199.0544882 280.40222892 210.52196894 287.04633977 221.96582031 293.73291016 C232.52620282 299.89919054 243.12126766 306.0049595 253.71777344 312.10888672 C260.21194646 315.85062015 266.70338011 319.59710585 273.19458008 323.34399414 C278.29971501 326.29035522 283.4060522 329.23457408 288.51651001 332.17169189 C290.94660552 333.56849807 293.37603935 334.96645278 295.80541992 336.36450195 C297.53304415 337.35805992 299.2616312 338.34994309 300.99023438 339.34179688 C302.54387695 340.23608398 302.54387695 340.23608398 304.12890625 341.1484375 C305.04744385 341.67614746 305.96598145 342.20385742 306.91235352 342.74755859 C309 344 309 344 310 345 C310.08847743 347.52094076 310.11527301 350.01430893 310.09765625 352.53515625 C310.0962413 353.28840683 310.09482635 354.04165741 310.09336853 354.81773376 C310.08775376 357.2326956 310.07519883 359.64756601 310.0625 362.0625 C310.0574869 363.69596221 310.05292366 365.32942586 310.04882812 366.96289062 C310.03777954 370.97529585 310.02050506 374.98763241 310 379 C304.77978133 380.1006072 302.11478932 380.11731838 297.54296875 377.34375 C296.52654297 376.74111328 295.51011719 376.13847656 294.46289062 375.51757812 C293.38201172 374.85177734 292.30113281 374.18597656 291.1875 373.5 C290.03570486 372.80984291 288.88268462 372.12172671 287.72851562 371.43554688 C285.33290715 370.00915593 282.94279615 368.574149 280.55615234 367.1328125 C275.0855715 363.83897125 269.53918137 360.67656729 264 357.5 C261.83297789 356.25061631 259.66631218 355.00061425 257.5 353.75 C256.4275 353.13125 255.355 352.5125 254.25 351.875 C251 350 247.75 348.125 244.5 346.25 C243.42733887 345.63116943 242.35467773 345.01233887 241.24951172 344.37475586 C239.08442929 343.12564482 236.91939018 341.87645871 234.75439453 340.62719727 C229.31384294 337.48797691 223.87252784 334.35009437 218.4296875 331.21484375 C206.9455118 324.59777108 195.47803106 317.95366023 184.03417969 311.26708984 C173.47379718 305.10080946 162.87873234 298.9950405 152.28222656 292.89111328 C146.85340058 289.76319852 141.42680719 286.63141552 136 283.5 C133.83334417 282.24998121 131.6666775 280.99998122 129.5 279.75 C125.16666667 277.25 120.83333333 274.75 116.5 272.25 C115.42733887 271.63116943 114.35467773 271.01233887 113.24951172 270.37475586 C111.08442929 269.12564482 108.91939018 267.87645871 106.75439453 266.62719727 C101.31384294 263.48797691 95.87252784 260.35009437 90.4296875 257.21484375 C79.93767869 251.1694482 69.45521288 245.10884752 59 239 C39.40081543 227.54946426 19.72084201 216.23954531 0 205 C-1.1564956 210.56563506 -1.68796772 215.80091996 1 221 C6.76064304 226.48841969 14.49170331 229.72773995 21.54345703 233.23925781 C27.11885942 236.07933424 32.48091166 239.27053962 37.875 242.4375 C40.05610565 243.69736799 42.23840555 244.95517066 44.421875 246.2109375 C45.50662109 246.83581055 46.59136719 247.46068359 47.70898438 248.10449219 C48.79501953 248.73000977 49.88105469 249.35552734 51 250 C64.67554314 257.87662589 78.33960958 265.77120092 91.96582031 273.73291016 C102.52620282 279.89919054 113.12126766 286.0049595 123.71777344 292.10888672 C129.14659942 295.23680148 134.57319281 298.36858448 140 301.5 C142.16665583 302.75001879 144.3333225 304.00001878 146.5 305.25 C166 316.5 166 316.5 185.5 327.75 C186.57266113 328.36883057 187.64532227 328.98766113 188.75048828 329.62524414 C190.91557071 330.87435518 193.08060982 332.12354129 195.24560547 333.37280273 C200.68615706 336.51202309 206.12747216 339.64990563 211.5703125 342.78515625 C223.0544882 349.40222892 234.52196894 356.04633977 245.96582031 362.73291016 C253.25622682 366.98982894 260.56159401 371.22022852 267.875 375.4375 C268.93855713 376.05141602 270.00211426 376.66533203 271.09790039 377.29785156 C276.21715885 380.25089922 281.34015232 383.19704672 286.47399902 386.12464905 C288.88326663 387.49918706 291.29051049 388.87724689 293.6975708 390.25564575 C295.40105042 391.22916939 297.10747822 392.19752849 298.81396484 393.16577148 C299.84344238 393.75559814 300.87291992 394.3454248 301.93359375 394.953125 C302.84165771 395.47036133 303.74972168 395.98759766 304.68530273 396.52050781 C308.68142652 399.07472258 308.68142652 399.07472258 310 401 C310.37231445 404.24633789 310.37231445 404.24633789 310.36328125 408.22265625 C310.36377975 408.9239415 310.36427826 409.62522675 310.36479187 410.34776306 C310.3624542 411.82798094 310.35274363 413.30820301 310.33618164 414.78833008 C310.31254879 417.05781435 310.31562728 419.32612676 310.32226562 421.59570312 C310.27913434 432.72086566 310.27913434 432.72086566 308 435 C300.75129374 435.09808804 295.22222608 430.99871447 289.1875 427.375 C288.03522395 426.6947446 286.88221411 426.0157308 285.72851562 425.33789062 C283.33486256 423.93023797 280.94443892 422.51732301 278.55615234 421.10058594 C273.06653778 417.8501489 267.53093453 414.67941401 262 411.5 C259.83311897 410.25037163 257.6664529 409.00037046 255.5 407.75 C254.4275 407.13125 253.355 406.5125 252.25 405.875 C249 404 245.75 402.125 242.5 400.25 C241.42733887 399.63116943 240.35467773 399.01233887 239.24951172 398.37475586 C237.08442929 397.12564482 234.91939018 395.87645871 232.75439453 394.62719727 C227.31384294 391.48797691 221.87252784 388.35009437 216.4296875 385.21484375 C204.9455118 378.59777108 193.47803106 371.95366023 182.03417969 365.26708984 C171.47379718 359.10080946 160.87873234 352.9950405 150.28222656 346.89111328 C144.85340058 343.76319852 139.42680719 340.63141552 134 337.5 C131.83334417 336.24998121 129.6666775 334.99998122 127.5 333.75 C123.16666667 331.25 118.83333333 328.75 114.5 326.25 C113.42733887 325.63116943 112.35467773 325.01233887 111.24951172 324.37475586 C109.08442929 323.12564482 106.91939018 321.87645871 104.75439453 320.62719727 C99.31384294 317.48797691 93.87252784 314.35009437 88.4296875 311.21484375 C76.95063001 304.60072015 65.48797925 297.96004216 54.04956055 291.27587891 C44.45621206 285.6737738 34.83262071 280.12459086 25.20703125 274.578125 C16.79698367 269.73205563 8.39804987 264.86682167 0 260 C0 265.61 0 271.22 0 277 C1.98 277.66 3.96 278.32 6 279 C7.66763046 279.85967635 9.30906879 280.77188076 10.921875 281.73046875 C11.85112793 282.27823975 12.78038086 282.82601074 13.73779297 283.39038086 C14.73182129 283.98343018 15.72584961 284.57647949 16.75 285.1875 C18.91367549 286.46419778 21.07775166 287.74021671 23.2421875 289.015625 C24.35819336 289.67498047 25.47419922 290.33433594 26.62402344 291.01367188 C32.0212633 294.18925356 37.44764 297.3137656 42.875 300.4375 C45.05991376 301.69658348 47.24480949 302.95569823 49.4296875 304.21484375 C50.51475586 304.83987793 51.59982422 305.46491211 52.71777344 306.10888672 C59.22871257 309.86028024 65.73663194 313.61690994 72.24511719 317.37255859 C77.68585336 320.51182246 83.12731477 323.64981497 88.5703125 326.78515625 C100.0544882 333.40222892 111.52196894 340.04633977 122.96582031 346.73291016 C133.52620282 352.89919054 144.12126766 359.0049595 154.71777344 365.10888672 C160.14659942 368.23680148 165.57319281 371.36858448 171 374.5 C173.16665583 375.75001879 175.3333225 377.00001878 177.5 378.25 C181.83333333 380.75 186.16666667 383.25 190.5 385.75 C191.57266113 386.36883057 192.64532227 386.98766113 193.75048828 387.62524414 C195.91557071 388.87435518 198.08060982 390.12354129 200.24560547 391.37280273 C205.68615706 394.51202309 211.12747216 397.64990563 216.5703125 400.78515625 C228.05164953 407.4005933 239.51725101 414.04145782 250.95703125 420.72851562 C258.33002895 425.03508261 265.72455453 429.30330977 273.125 433.5625 C281.60222913 438.44708961 290.06593012 443.35370193 298.5 448.3125 C299.43215332 448.857854 300.36430664 449.40320801 301.32470703 449.96508789 C302.17661621 450.4677417 303.02852539 450.97039551 303.90625 451.48828125 C304.65197266 451.92696533 305.39769531 452.36564941 306.16601562 452.81762695 C308 454 308 454 310 456 C310.18721852 458.49743862 310.25579767 460.88188683 310.23046875 463.37890625 C310.22978142 464.46980812 310.22978142 464.46980812 310.2290802 465.58274841 C310.22605836 467.12020499 310.21817405 468.65765852 310.20581055 470.19506836 C310.18754573 472.55658735 310.1853009 474.91771461 310.18554688 477.27929688 C310.18063203 478.77083674 310.17480386 480.26237394 310.16796875 481.75390625 C310.16685593 482.46430557 310.1657431 483.1747049 310.16459656 483.90663147 C310.11605365 488.88394635 310.11605365 488.88394635 309 490 C303.28066942 490.71274332 299.8729404 488.68113534 295.125 485.875 C294.34962891 485.43051514 293.57425781 484.98603027 292.77539062 484.52807617 C290.17547033 483.03230506 287.5875113 481.51712442 285 480 C283.13314357 478.91479484 281.26594714 477.83017442 279.3984375 476.74609375 C275.37344634 474.40548855 271.35339695 472.05663198 267.3359375 469.703125 C260.94718008 465.96365411 254.53883924 462.25874966 248.125 458.5625 C247.04541016 457.94028564 245.96582031 457.31807129 244.85351562 456.67700195 C242.6631748 455.41488483 240.47274498 454.15292215 238.28222656 452.89111328 C232.85340058 449.76319852 227.42680719 446.63141552 222 443.5 C219.83334417 442.24998121 217.6666775 440.99998122 215.5 439.75 C211.16666667 437.25 206.83333333 434.75 202.5 432.25 C201.42733887 431.63116943 200.35467773 431.01233887 199.24951172 430.37475586 C197.08442929 429.12564482 194.91939018 427.87645871 192.75439453 426.62719727 C187.31384294 423.48797691 181.87252784 420.35009437 176.4296875 417.21484375 C164.9455118 410.59777108 153.47803106 403.95366023 142.03417969 397.26708984 C131.47379718 391.10080946 120.87873234 384.9950405 110.28222656 378.89111328 C104.85340058 375.76319852 99.42680719 372.63141552 94 369.5 C91.83334417 368.24998121 89.6666775 366.99998122 87.5 365.75 C83.16666667 363.25 78.83333333 360.75 74.5 358.25 C73.42733887 357.63116943 72.35467773 357.01233887 71.24951172 356.37475586 C69.08442929 355.12564482 66.91939018 353.87645871 64.75439453 352.62719727 C59.31384294 349.48797691 53.87252784 346.35009437 48.4296875 343.21484375 C37.50112142 336.91798924 26.58252993 330.6047418 15.6875 324.25 C14.68509277 323.66532959 13.68268555 323.08065918 12.64990234 322.47827148 C8.41901919 320.00751468 4.20148676 317.52089206 0 315 C0 320.61 0 326.22 0 332 C1.65 332.66 3.3 333.32 5 334 C6.20671757 334.60552136 7.40166607 335.23521562 8.58203125 335.890625 C9.25363281 336.26276123 9.92523437 336.63489746 10.6171875 337.01831055 C11.34164063 337.42476807 12.06609375 337.83122559 12.8125 338.25 C13.59238281 338.68546143 14.37226562 339.12092285 15.17578125 339.56958008 C23.73353842 344.37245415 32.19617718 349.33793988 40.6640625 354.296875 C47.05281992 358.03634589 53.46116076 361.74125034 59.875 365.4375 C60.95458984 366.05971436 62.03417969 366.68192871 63.14648438 367.32299805 C65.3368252 368.58511517 67.52725502 369.84707785 69.71777344 371.10888672 C75.14659942 374.23680148 80.57319281 377.36858448 86 380.5 C88.16665583 381.75001879 90.3333225 383.00001878 92.5 384.25 C96.83333333 386.75 101.16666667 389.25 105.5 391.75 C106.57266113 392.36883057 107.64532227 392.98766113 108.75048828 393.62524414 C110.91557071 394.87435518 113.08060982 396.12354129 115.24560547 397.37280273 C120.68615706 400.51202309 126.12747216 403.64990563 131.5703125 406.78515625 C143.0544882 413.40222892 154.52196894 420.04633977 165.96582031 426.73291016 C176.52620282 432.89919054 187.12126766 439.0049595 197.71777344 445.10888672 C203.14659942 448.23680148 208.57319281 451.36858448 214 454.5 C216.16665583 455.75001879 218.3333225 457.00001878 220.5 458.25 C224.83333333 460.75 229.16666667 463.25 233.5 465.75 C234.57266113 466.36883057 235.64532227 466.98766113 236.75048828 467.62524414 C238.91557071 468.87435518 241.08060982 470.12354129 243.24560547 471.37280273 C248.68615706 474.51202309 254.12747216 477.64990563 259.5703125 480.78515625 C264.96950594 483.89573994 270.36639293 487.01028577 275.76123047 490.12841797 C277.96025941 491.39916694 280.15982237 492.66899215 282.35986328 493.93798828 C285.63788685 495.82997953 288.91303505 497.726858 292.1875 499.625 C293.17314941 500.1929126 294.15879883 500.7608252 295.17431641 501.34594727 C296.99386235 502.40325954 298.80212117 503.48033651 300.59619141 504.58032227 C302.91269618 506.01802806 302.91269618 506.01802806 305.18115234 506.93334961 C307.49441069 508.07465529 308.56329669 508.83622012 310 511 C311.04617819 515.7086591 311.25883905 520.22508826 311.2421875 525.03686523 C311.24996787 527.30314115 311.36394611 529.54781643 311.484375 531.81054688 C311.59208694 536.19375764 311.31166003 539.78546267 310 544 C306.68694894 547.36700013 303.10922871 549.24770985 298.81524658 551.16262817 C295.93359419 552.49193216 293.24744164 554.13697444 290.51953125 555.75390625 C288.28499315 557.02544119 286.04927698 558.29490766 283.8125 559.5625 C281.34443247 560.96636027 278.87734636 562.3719422 276.41015625 563.77734375 C275.79046967 564.13006348 275.17078308 564.4827832 274.53231812 564.84619141 C258.9732763 573.70525859 243.49261384 582.70081764 228.03369141 591.7331543 C217.47352916 597.8994513 206.87857454 604.00505039 196.28222656 610.10888672 C190.85340062 613.23680146 185.42677993 616.36853731 180 619.5 C173.47766725 623.26363919 166.95486238 627.02644622 160.4296875 630.78515625 C149.93767906 636.83055159 139.45518324 642.89110219 129 649 C117.45270484 655.74701194 105.87097973 662.43339318 94.28222656 669.10888672 C88.85340058 672.23680148 83.42680719 675.36858448 78 678.5 C75.83334417 679.75001879 73.6666775 681.00001878 71.5 682.25 C69.89125 683.178125 69.89125 683.178125 68.25 684.125 C65 686 61.75 687.875 58.5 689.75 C56.8900415 690.6788501 56.8900415 690.6788501 55.24755859 691.62646484 C53.08909502 692.87169484 50.93056677 694.11681272 48.77197266 695.36181641 C42.09140767 699.21517356 35.41341141 703.07293999 28.73706055 706.93359375 C25.46655486 708.82213207 22.19257395 710.70451881 18.91796875 712.5859375 C15.25833263 714.68971551 11.61474115 716.81614964 7.98828125 718.9765625 C7.24980957 719.40984863 6.51133789 719.84313477 5.75048828 720.28955078 C4.42819312 721.0654016 3.11207586 721.85193818 1.80419922 722.65185547 C-0.70243307 724.10715962 -2.4011883 725.05883589 -5.33569336 724.77050781 C-10.72556166 723.21177746 -15.42315496 720.04866367 -20.25 717.25 C-21.36375 716.62867188 -22.4775 716.00734375 -23.625 715.3671875 C-24.68203125 714.75617187 -25.7390625 714.14515625 -26.828125 713.515625 C-28.2807373 712.68466309 -28.2807373 712.68466309 -29.76269531 711.83691406 C-32 710 -32 710 -33.07324219 707.53027344 C-33 705 -33 705 -31.41259766 702.89770508 C-28.83573632 700.8707932 -26.25794013 699.24206585 -23.3984375 697.63671875 C-22.28178711 697.00491699 -21.16513672 696.37311523 -20.01464844 695.72216797 C-19.42228394 695.3910199 -18.82991943 695.05987183 -18.21960449 694.71868896 C-16.34132225 693.66867313 -14.46750725 692.61106341 -12.59472656 691.55126953 C-10.00086572 690.08365143 -7.405637 688.61849729 -4.80957031 687.15478516 C0.89818204 683.9317132 6.57465293 680.65475138 12.25 677.375 C13.31814941 676.75842529 14.38629883 676.14185059 15.48681641 675.5065918 C23.66083022 670.78422812 31.81553663 666.02917741 39.96630859 661.2668457 C50.52647084 655.1005487 61.12142546 648.99494961 71.71777344 642.89111328 C77.14659942 639.76319852 82.57319281 636.63141552 88 633.5 C90.16665583 632.24998121 92.3333225 630.99998122 94.5 629.75 C96.10875 628.821875 96.10875 628.821875 97.75 627.875 C107.50000001 622.24999999 107.50000001 622.24999999 110.75048828 620.37475586 C112.91557071 619.12564482 115.08060982 617.87645871 117.24560547 616.62719727 C122.68615706 613.48797691 128.12747216 610.35009437 133.5703125 607.21484375 C144.06232094 601.16944841 154.54481676 595.10889781 165 589 C176.54729516 582.25298806 188.12902027 575.56660682 199.71777344 568.89111328 C206.22217941 565.14348395 212.72375795 561.39095039 219.2253418 557.63842773 C224.77686292 554.43467538 230.33020797 551.23415423 235.88671875 548.0390625 C250.02280055 539.91444951 250.02280055 539.91444951 264.0625 531.625 C264.66989014 531.26164551 265.27728027 530.89829102 265.90307617 530.52392578 C268.60380449 528.96578538 268.60380449 528.96578538 271 527 C269.14123491 525.7668387 267.26216916 524.56423799 265.375 523.375 C264.33085938 522.70210937 263.28671875 522.02921875 262.2109375 521.3359375 C259.11012442 519.70627925 259.11012442 519.70627925 256.0546875 520.52734375 C252.50239399 522.23989446 249.11419909 524.13763988 245.75 526.1875 C244.23381085 527.09498405 242.71683112 528.00114806 241.19921875 528.90625 C239.95664307 529.64875 239.95664307 529.64875 238.68896484 530.40625 C233.67332069 533.37902329 228.61579365 536.27935172 223.5625 539.1875 C222.45825684 539.82381348 221.35401367 540.46012695 220.21630859 541.11572266 C216.81124162 543.07779018 213.40566474 545.03897026 210 547 C197.31652382 554.30469788 184.63750821 561.61598343 172 569 C160.45270484 575.74701194 148.87097973 582.43339318 137.28222656 589.10888672 C131.85340058 592.23680148 126.42680719 595.36858448 121 598.5 C118.83334417 599.75001879 116.6666775 601.00001878 114.5 602.25 C112.89125 603.178125 112.89125 603.178125 111.25 604.125 C101.5 609.75 101.5 609.75 98.24951172 611.62524414 C96.08442929 612.87435518 93.91939018 614.12354129 91.75439453 615.37280273 C86.31384294 618.51202309 80.87252784 621.64990563 75.4296875 624.78515625 C64.93767906 630.83055159 54.45518324 636.89110219 44 643 C32.45270484 649.74701194 20.87097973 656.43339318 9.28222656 663.10888672 C2.78663684 666.85143641 -3.70606042 670.59900243 -10.19897461 674.34619141 C-15.28625032 677.28182759 -20.37426104 680.21616612 -25.4649353 683.14590454 C-27.87543748 684.53328095 -30.28551376 685.92139624 -32.69555664 687.30957031 C-34.40143968 688.29173815 -36.10793986 689.27283385 -37.81445312 690.25390625 C-38.84376953 690.846875 -39.87308594 691.43984375 -40.93359375 692.05078125 C-41.84165771 692.57325439 -42.74972168 693.09572754 -43.68530273 693.6340332 C-45.49126201 694.69977966 -47.25521129 695.83680752 -49 697 C-55.87926 697.77605419 -60.43672102 694.36631438 -66.13378906 690.92089844 C-67.87705241 689.87376717 -69.6395761 688.86637913 -71.40625 687.859375 C-72.50710938 687.20195313 -73.60796875 686.54453125 -74.7421875 685.8671875 C-75.7513623 685.27019043 -76.76053711 684.67319336 -77.80029297 684.05810547 C-80 682 -80 682 -80.41210938 678.85498047 C-80 676 -80 676 -78.6640625 674.453125 C-77.99117187 674.05609375 -77.31828125 673.6590625 -76.625 673.25 C-75.79355469 672.74984375 -74.96210937 672.2496875 -74.10546875 671.734375 C-73.08066406 671.16203125 -72.05585937 670.5896875 -71 670 C-70.40396973 669.66548828 -69.80793945 669.33097656 -69.19384766 668.98632812 C-66.34064945 667.38768224 -63.48212277 665.79922755 -60.61572266 664.22436523 C-54.18404672 660.68700803 -47.83330776 657.02273996 -41.5 653.3125 C-33.05731393 648.36831732 -24.60196465 643.44771407 -16.125 638.5625 C-15.04541016 637.94028564 -13.96582031 637.31807129 -12.85351562 636.67700195 C-10.6631748 635.41488483 -8.47274498 634.15292215 -6.28222656 632.89111328 C-0.85340062 629.76319854 4.57322007 626.63146269 10 623.5 C16.52233275 619.73636081 23.04513762 615.97355378 29.5703125 612.21484375 C40.06232094 606.16944841 50.54481676 600.10889781 61 594 C72.54729516 587.25298806 84.12902027 580.56660682 95.71777344 573.89111328 C101.14659942 570.76319852 106.57319281 567.63141552 112 564.5 C114.16665583 563.24998121 116.3333225 561.99998122 118.5 560.75 C120.10875 559.821875 120.10875 559.821875 121.75 558.875 C157.5 538.25 157.5 538.25 160.75146484 536.37426758 C162.91337884 535.12693452 165.07516317 533.8793767 167.23681641 532.6315918 C172.72514585 529.46391168 178.21582533 526.30043239 183.7109375 523.14453125 C196.89273456 515.56802393 210.00097526 507.8863723 223 500 C221.39371931 498.59450439 219.7074998 497.28062485 218 496 C217.44038574 495.54520264 216.88077148 495.09040527 216.30419922 494.62182617 C214.12462501 493.14937874 212.61021732 492.40706312 210 492 C205.62102625 493.3998886 201.9721421 495.83405269 198.125 498.3125 C196.97864611 499.01772114 195.83016173 499.71948958 194.6796875 500.41796875 C192.29132319 501.87168567 189.91281001 503.33982715 187.54003906 504.81884766 C182.1090328 508.18711061 176.548943 511.33140586 171 514.5 C168.83272563 515.74894606 166.66606044 516.99894979 164.5 518.25 C151.49999999 525.75 151.49999999 525.75 148.24951172 527.62524414 C146.08442929 528.87435518 143.91939018 530.12354129 141.75439453 531.37280273 C136.31384294 534.51202309 130.87252784 537.64990563 125.4296875 540.78515625 C114.93767906 546.83055159 104.45518324 552.89110219 94 559 C82.45270484 565.74701194 70.87097973 572.43339318 59.28222656 579.10888672 C53.85340058 582.23680148 48.42680719 585.36858448 43 588.5 C40.83334417 589.75001879 38.6666775 591.00001878 36.5 592.25 C34.89125 593.178125 34.89125 593.178125 33.25 594.125 C23.49999999 599.75 23.49999999 599.75 20.24951172 601.62524414 C18.08442929 602.87435518 15.91939018 604.12354129 13.75439453 605.37280273 C8.31384294 608.51202309 2.87252784 611.64990563 -2.5703125 614.78515625 C-13.06232094 620.83055159 -23.54481676 626.89110219 -34 633 C-43.34863356 638.46234779 -52.71066294 643.90089872 -62.10229492 649.2890625 C-67.23060835 652.23341577 -72.34613285 655.19471219 -77.42242432 658.22779846 C-79.80654883 659.65096018 -82.19686626 661.06353109 -84.58770752 662.47537231 C-86.27733178 663.47910802 -87.95787869 664.498074 -89.63818359 665.51733398 C-90.66121582 666.12005127 -91.68424805 666.72276855 -92.73828125 667.34375 C-94.08466675 668.15102539 -94.08466675 668.15102539 -95.45825195 668.97460938 C-98.57660516 670.23261374 -99.83902224 670.07716889 -103 669 C-104.93735837 668.02754362 -106.83688591 666.97780574 -108.703125 665.875 C-110.29640625 664.93914062 -110.29640625 664.93914062 -111.921875 663.984375 C-113.02015625 663.32953125 -114.1184375 662.6746875 -115.25 662 C-116.36375 661.34515625 -117.4775 660.6903125 -118.625 660.015625 C-126.8234747 655.1765253 -126.8234747 655.1765253 -128 654 C-128.29663086 651.6171875 -128.29663086 651.6171875 -128 649 C-126.45532227 647.4453125 -126.45532227 647.4453125 -124.25390625 646.125 C-123.42777832 645.6196875 -122.60165039 645.114375 -121.75048828 644.59375 C-120.84282715 644.0678125 -119.93516602 643.541875 -119 643 C-118.07815918 642.4534375 -117.15631836 641.906875 -116.20654297 641.34375 C-113.13007668 639.53858892 -110.0363192 637.76649465 -106.9375 636 C-104.6129802 634.66718751 -102.28876911 633.33384757 -99.96484375 632 C-99.37947845 631.66444092 -98.79411316 631.32888184 -98.19100952 630.9831543 C-92.44265387 627.68614658 -86.7198735 624.34609023 -81 621 C-69.45309442 614.25232762 -57.87097459 607.56660386 -46.28222656 600.89111328 C-40.85340058 597.76319852 -35.42680719 594.63141552 -30 591.5 C-27.83334417 590.24998121 -25.6666775 588.99998122 -23.5 587.75 C-21.89125 586.821875 -21.89125 586.821875 -20.25 585.875 C15.49999999 565.25 15.49999999 565.25 18.75048828 563.37475586 C20.91557071 562.12564482 23.08060982 560.87645871 25.24560547 559.62719727 C30.68615706 556.48797691 36.12747216 553.35009437 41.5703125 550.21484375 C52.06232094 544.16944841 62.54481676 538.10889781 73 532 C84.54729516 525.25298806 96.12902027 518.56660682 107.71777344 511.89111328 C114.22076271 508.14430021 120.72107578 504.3928437 127.22094727 500.640625 C132.2141693 497.75865642 137.20858131 494.87884293 142.20825195 492.0080719 C159.25032453 482.24865025 159.25032453 482.24865025 176 472 C174.09273249 470.79746184 172.1737988 469.61341051 170.25 468.4375 C169.18265625 467.77621094 168.1153125 467.11492187 167.015625 466.43359375 C164.26726189 464.79298827 164.26726189 464.79298827 162.125 465.24365234 C159.5726217 466.15211604 157.34599883 467.33754087 154.984375 468.66796875 C153.49756226 469.5021936 153.49756226 469.5021936 151.98071289 470.35327148 C150.91457764 470.95856689 149.84844238 471.5638623 148.75 472.1875 C147.63681396 472.815354 146.52362793 473.44320801 145.37670898 474.09008789 C135.899919 479.45159504 126.49062284 484.92681788 117.09765625 490.43359375 C110.74953385 494.15334912 104.37637887 497.82895249 98 501.5 C89.65190241 506.30832078 81.31756684 511.1390576 73 516 C61.45277514 522.74713114 49.87097881 529.4333937 38.28222656 536.10888672 C32.85340058 539.23680148 27.42680719 542.36858448 22 545.5 C19.83334417 546.75001879 17.6666775 548.00001878 15.5 549.25 C13.89125 550.178125 13.89125 550.178125 12.25 551.125 C2.49999999 556.75 2.49999999 556.75 -0.75048828 558.62524414 C-2.91557071 559.87435518 -5.08060982 561.12354129 -7.24560547 562.37280273 C-12.68615706 565.51202309 -18.12747216 568.64990563 -23.5703125 571.78515625 C-34.06232094 577.83055159 -44.54481676 583.89110219 -55 590 C-66.54729516 596.74701194 -78.12902027 603.43339318 -89.71777344 610.10888672 C-94.06605364 612.61422579 -98.413038 615.12180284 -102.7590332 617.63110352 C-104.90714734 618.86980888 -107.05671006 620.10600581 -109.20776367 621.33959961 C-114.28691156 624.25622736 -119.34819792 627.19547197 -124.36178589 630.2232666 C-126.72744505 631.64989678 -129.10126031 633.06262926 -131.47583008 634.47436523 C-133.14631526 635.47532205 -134.80479771 636.49622453 -136.46289062 637.51757812 C-143.92137355 641.93969704 -143.92137355 641.93969704 -148.703125 642.20703125 C-152.9817694 640.64056073 -156.70012627 638.58732155 -160.5625 636.1875 C-161.29146484 635.74857422 -162.02042969 635.30964844 -162.77148438 634.85742188 C-164.86092847 633.59171902 -166.93214508 632.30059885 -169 631 C-169.90685547 630.44578369 -169.90685547 630.44578369 -170.83203125 629.88037109 C-174.89783387 627.32109355 -174.89783387 627.32109355 -175.875 624.25 C-175.91625 623.5075 -175.9575 622.765 -176 622 C-170.02165388 617.15679713 -163.62008659 613.32581753 -156.918396 609.56808472 C-155.07443221 608.53414586 -153.23429579 607.49366858 -151.39501953 606.45141602 C-149.48124596 605.36699961 -147.56728384 604.28293691 -145.65219116 603.20085144 C-139.37103767 599.65126284 -133.12066057 596.04913772 -126.875 592.4375 C-124.72918858 591.19787874 -122.58335523 589.95829543 -120.4375 588.71875 C-119.37789062 588.10644531 -118.31828125 587.49414062 -117.2265625 586.86328125 C-113.96475993 584.9796495 -110.70138156 583.09877679 -107.4375 581.21875 C-96.94261084 575.17252688 -86.45769461 569.11036519 -76 563 C-64.45270484 556.25298806 -52.87097973 549.56660682 -41.28222656 542.89111328 C-35.85340062 539.76319854 -30.42677993 536.63146269 -25 533.5 C-18.47766725 529.73636081 -11.95486238 525.97355378 -5.4296875 522.21484375 C5.06232094 516.16944841 15.54481676 510.10889781 26 504 C37.54729516 497.25298806 49.12902027 490.56660682 60.71777344 483.89111328 C66.1465994 480.76319853 71.57320669 477.63143954 77 474.5 C83.07716164 470.99355517 89.15440473 467.48725299 95.23284912 463.98303223 C96.98341241 462.97380896 98.73390411 461.96446164 100.484375 460.95507812 C102.66392165 459.6983234 104.84359832 458.44179414 107.0234375 457.18554688 C114.02861283 453.14583558 121.01858507 449.0806316 128 445 C121.53746517 439.97042617 121.53746517 439.97042617 114 437 C109.79898403 438.0657903 106.56018212 440.3343328 103 442.75 C100.87613497 444.09034179 98.7510937 445.4288212 96.625 446.765625 C95.53445313 447.46880859 94.44390625 448.17199219 93.3203125 448.89648438 C87.98318377 452.2777124 82.49087739 455.37718708 77 458.5 C74.8115706 459.75880228 72.62406798 461.01921717 70.4375 462.28125 C69.365 462.9 68.2925 463.51875 67.1875 464.15625 C62.11643513 467.08951301 57.05788091 470.04407933 52 473 C40.45277514 479.74713114 28.87097881 486.4333937 17.28222656 493.10888672 C11.85340058 496.23680148 6.42680719 499.36858448 1 502.5 C-1.16665583 503.75001879 -3.3333225 505.00001878 -5.5 506.25 C-6.5725 506.86875 -7.645 507.4875 -8.75 508.125 C-18.50000001 513.75 -18.50000001 513.75 -21.75048828 515.62524414 C-23.91557071 516.87435518 -26.08060982 518.12354129 -28.24560547 519.37280273 C-33.68615706 522.51202309 -39.12747216 525.64990563 -44.5703125 528.78515625 C-55.06232094 534.83055159 -65.54481676 540.89110219 -76 547 C-87.54729516 553.74701194 -99.12902027 560.43339318 -110.71777344 567.10888672 C-116.14659942 570.23680148 -121.57319281 573.36858448 -127 576.5 C-129.16665583 577.75001879 -131.3333225 579.00001878 -133.5 580.25 C-135.10875 581.178125 -135.10875 581.178125 -136.75 582.125 C-140 584 -143.25 585.875 -146.5 587.75 C-148.11116699 588.67993774 -148.11116699 588.67993774 -149.75488281 589.62866211 C-151.90429738 590.86814922 -154.05467657 592.10596518 -156.20605469 593.34204102 C-161.28531786 596.26304151 -166.35305797 599.20007897 -171.38757324 602.19747925 C-173.7647581 603.61139517 -176.1475144 605.01576663 -178.53076172 606.41943359 C-180.20962104 607.41358914 -181.88032199 608.42148132 -183.55078125 609.4296875 C-184.57042969 610.02910156 -185.59007812 610.62851562 -186.640625 611.24609375 C-187.53297852 611.77904053 -188.42533203 612.3119873 -189.34472656 612.86108398 C-192.54324083 614.23301016 -194.5463039 614.4121821 -198 614 C-200.8684082 612.73071289 -200.8684082 612.73071289 -203.80078125 610.97265625 C-204.85974609 610.34552734 -205.91871094 609.71839844 -207.00976562 609.07226562 C-208.64461914 608.07743164 -208.64461914 608.07743164 -210.3125 607.0625 C-211.42173828 606.40314453 -212.53097656 605.74378906 -213.67382812 605.06445312 C-221.76864077 600.23135923 -221.76864077 600.23135923 -223 599 C-223.4921875 596.21484375 -223.4921875 596.21484375 -223 593 C-220.68300008 591.14446385 -218.72490717 589.91209487 -216.125 588.5625 C-214.55301579 587.69337655 -212.98142646 586.82353861 -211.41015625 585.953125 C-210.54406738 585.48326172 -209.67797852 585.01339844 -208.78564453 584.52929688 C-203.65922697 581.71493407 -198.61992705 578.74841133 -193.5625 575.8125 C-191.31694697 574.51729124 -189.07084532 573.22303324 -186.82421875 571.9296875 C-185.6954834 571.27967773 -184.56674805 570.62966797 -183.40380859 569.95996094 C-182.28055176 569.31317383 -181.15729492 568.66638672 -180 568 C-167.31652382 560.69530212 -154.63750821 553.38401657 -142 546 C-130.45270484 539.25298806 -118.87097973 532.56660682 -107.28222656 525.89111328 C-101.85340058 522.76319852 -96.42680719 519.63141552 -91 516.5 C-88.83334417 515.24998121 -86.6666775 513.99998122 -84.5 512.75 C-82.89125 511.821875 -82.89125 511.821875 -81.25 510.875 C-45.5 490.25 -45.5 490.25 -42.24951172 488.37475586 C-40.08442929 487.12564482 -37.91939018 485.87645871 -35.75439453 484.62719727 C-30.31384294 481.48797691 -24.87252784 478.35009437 -19.4296875 475.21484375 C-8.93767906 469.16944841 1.54481676 463.10889781 12 457 C22.42744 450.90731239 32.88134006 444.86156887 43.34765625 438.8359375 C47.37733868 436.51525342 51.40270105 434.18743492 55.42242432 431.8495636 C57.80989553 430.46120023 60.1987632 429.0752493 62.58770752 427.68942261 C64.2725462 426.71070895 65.95539038 425.72856435 67.63818359 424.74633789 C68.66121582 424.15328857 69.68424805 423.56023926 70.73828125 422.94921875 C71.63587158 422.42674561 72.53346191 421.90427246 73.45825195 421.3659668 C75.92213502 420.0418456 78.38364731 418.98293426 81 418 C81 417.34 81 416.68 81 416 C80.319375 415.7525 79.63875 415.505 78.9375 415.25 C76.55805636 414.23747079 74.66346502 413.18064309 72.5 411.8125 C68.6018771 409.79382921 68.00581612 409.7852534 64 411 C61.39365296 412.2455272 61.39365296 412.2455272 58.73828125 413.8515625 C57.71541016 414.44775391 56.69253906 415.04394531 55.63867188 415.65820312 C54.54103516 416.30724609 53.44339844 416.95628906 52.3125 417.625 C51.15083078 418.30478918 49.98871307 418.98381248 48.82617188 419.66210938 C46.41182554 421.07158303 43.99944078 422.48432987 41.58837891 423.89941406 C36.07681417 427.13055521 30.5370062 430.31272995 25 433.5 C22.83320035 434.74976947 20.6665341 435.99977024 18.5 437.25 C5.50000001 444.75 5.50000001 444.75 2.24951172 446.62524414 C0.08442929 447.87435518 -2.08060982 449.12354129 -4.24560547 450.37280273 C-9.68615706 453.51202309 -15.12747216 456.64990563 -20.5703125 459.78515625 C-31.06232094 465.83055159 -41.54481676 471.89110219 -52 478 C-63.54729516 484.74701194 -75.12902027 491.43339318 -86.71777344 498.10888672 C-92.14659938 501.23680146 -97.57322007 504.36853731 -103 507.5 C-109.52233275 511.26363919 -116.04513762 515.02644622 -122.5703125 518.78515625 C-133.06232094 524.83055159 -143.54481676 530.89110219 -154 537 C-168.84488886 545.6737752 -183.74479698 554.25188983 -198.6484375 562.82421875 C-199.74196533 563.45400635 -200.83549316 564.08379395 -201.9621582 564.73266602 C-204.13647997 565.98410791 -206.31207973 567.23333224 -208.48901367 568.48022461 C-213.80205966 571.53308941 -219.06930352 574.63799022 -224.27734375 577.8671875 C-225.27411133 578.47868652 -226.27087891 579.09018555 -227.29785156 579.72021484 C-229.17054066 580.87363691 -231.03391671 582.04237451 -232.88574219 583.22900391 C-236.53393839 585.46533551 -239.09816437 586.93484444 -243.40625 587.24609375 C-248.79960789 585.37600553 -253.46139815 582.54068794 -258.3125 579.5625 C-259.81393555 578.6643457 -259.81393555 578.6643457 -261.34570312 577.74804688 C-268.66569675 573.33430325 -268.66569675 573.33430325 -271 571 C-271.359375 568.55566406 -271.359375 568.55566406 -271 566 C-269.453125 564.43652344 -269.453125 564.43652344 -267.25 563.109375 C-266.0125 562.35237305 -266.0125 562.35237305 -264.75 561.58007812 C-263.8425 561.05865234 -262.935 560.53722656 -262 560 C-261.071875 559.46310547 -260.14375 558.92621094 -259.1875 558.37304688 C-256.13858973 556.63979004 -253.07219953 554.941605 -250 553.25 C-242.8110787 549.25824448 -235.63355882 545.26013522 -228.5625 541.0625 C-221.55287147 536.90196866 -214.50198311 532.8167102 -207.4375 528.75 C-198.94343701 523.85854676 -190.4623443 518.94612699 -182 514 C-170.45281274 507.25280507 -158.87097832 500.56660602 -147.28222656 493.89111328 C-141.85340062 490.76319854 -136.42677993 487.63146269 -131 484.5 C-124.47766725 480.73636081 -117.95486238 476.97355378 -111.4296875 473.21484375 C-100.93767906 467.16944841 -90.45518324 461.10889781 -80 455 C-68.45270484 448.25298806 -56.87097973 441.56660682 -45.28222656 434.89111328 C-38.77270411 431.14053601 -32.2660522 427.38498011 -25.75927734 423.62963867 C-20.29465337 420.47614838 -14.82852098 417.3253296 -9.359375 414.1796875 C1.30855676 408.04089825 11.96050697 401.87714476 22.5625 395.625 C23.50319336 395.07118652 24.44388672 394.51737305 25.41308594 393.94677734 C26.26805664 393.44098145 27.12302734 392.93518555 28.00390625 392.4140625 C28.75486572 391.9701416 29.5058252 391.5262207 30.27954102 391.06884766 C31.96151057 390.11431796 31.96151057 390.11431796 33 389 C28.64628021 386.04212305 24.21248168 383.11536464 19 382 C13.88429125 383.03592359 9.99713091 385.71942218 5.75 388.625 C4.53768132 389.3937489 3.32160599 390.15660205 2.10205078 390.91381836 C-0.40181474 392.4759188 -2.88649061 394.06319754 -5.36035156 395.67236328 C-10.81597462 399.19624636 -16.47697321 402.36017456 -22.125 405.5625 C-24.27197176 406.80011052 -26.41780604 408.0396964 -28.5625 409.28125 C-32.89408507 411.7842949 -37.22744603 414.28421773 -41.5625 416.78125 C-52.05738916 422.82747312 -62.54230539 428.88963481 -73 435 C-84.54729516 441.74701194 -96.12902027 448.43339318 -107.71777344 455.10888672 C-113.14659942 458.23680148 -118.57319281 461.36858448 -124 464.5 C-126.16665583 465.75001879 -128.3333225 467.00001878 -130.5 468.25 C-131.5725 468.86875 -132.645 469.4875 -133.75 470.125 C-143.5 475.75 -143.5 475.75 -146.75048828 477.62524414 C-148.91557071 478.87435518 -151.08060982 480.12354129 -153.24560547 481.37280273 C-158.68615706 484.51202309 -164.12747216 487.64990563 -169.5703125 490.78515625 C-180.06232094 496.83055159 -190.54481676 502.89110219 -201 509 C-215.84488886 517.6737752 -230.74479698 526.25188983 -245.6484375 534.82421875 C-246.7420459 535.45392578 -247.8356543 536.08363281 -248.96240234 536.73242188 C-251.13635389 537.98390504 -253.31114554 539.2339301 -255.48681641 540.48242188 C-260.79989897 543.53977465 -266.0796719 546.63899478 -271.3125 549.83203125 C-272.3137793 550.43901855 -273.31505859 551.04600586 -274.34667969 551.67138672 C-276.22929249 552.81659535 -278.10542075 553.9725597 -279.97363281 555.14111328 C-281.23191895 555.90464111 -281.23191895 555.90464111 -282.515625 556.68359375 C-283.24040039 557.13275146 -283.96517578 557.58190918 -284.71191406 558.04467773 C-287.69850143 559.29163851 -289.78416741 559.33155026 -293 559 C-295.74487305 557.85424805 -295.74487305 557.85424805 -298.51171875 556.26171875 C-300.01895508 555.40223633 -300.01895508 555.40223633 -301.55664062 554.52539062 C-302.58982422 553.91888672 -303.62300781 553.31238281 -304.6875 552.6875 C-305.73228516 552.09259766 -306.77707031 551.49769531 -307.85351562 550.88476562 C-316.96160057 545.63574049 -316.96160057 545.63574049 -319 543 C-319.37719816 540.31085259 -319.37719816 540.31085259 -319.38031673 536.9885416 C-319.38875668 535.72404605 -319.39719662 534.45955051 -319.40589231 533.15673691 C-319.4000965 531.74556779 -319.39401544 530.33439983 -319.38768005 528.92323303 C-319.39185025 527.43031282 -319.39732603 525.93739577 -319.40399987 524.44448465 C-319.41851462 520.33155273 -319.41419106 516.21882016 -319.40683305 512.10587704 C-319.40211851 507.67429963 -319.41459599 503.24276642 -319.42485046 498.811203 C-319.44207759 490.12534543 -319.44287039 481.43956006 -319.43763756 472.75368983 C-319.43360189 465.69619771 -319.43503223 458.63872698 -319.44038582 451.58123589 C-319.44113424 450.57811648 -319.44188266 449.57499707 -319.44265376 448.54148011 C-319.44418519 446.50387363 -319.44572353 444.46626715 -319.44726873 442.42866068 C-319.46100793 423.30510283 -319.45554612 404.18158585 -319.44408352 385.05802893 C-319.43414964 367.54952762 -319.44709198 350.04113197 -319.47101771 332.53264696 C-319.49537999 314.56984453 -319.50502366 296.60709137 -319.49836498 278.64427274 C-319.49486637 268.55353342 -319.49714707 258.46287539 -319.51461601 248.37214851 C-319.52930215 239.78205239 -319.53002061 231.19209479 -319.5125451 222.6020015 C-319.504003 218.21669628 -319.50196331 213.8316389 -319.51719666 209.44634628 C-319.53095886 205.4349935 -319.52639091 201.42410282 -319.50695742 197.41277736 C-319.50317087 195.95856731 -319.50619511 194.50432099 -319.51656907 193.05014301 C-319.52963389 191.07923127 -319.51583673 189.10819546 -319.50057125 187.13729954 C-319.50046391 186.04077456 -319.50035658 184.94424958 -319.50024599 183.81449658 C-318.88080772 180.3293974 -317.71047213 179.1979624 -315 177 C-312.97290039 175.67553711 -312.97290039 175.67553711 -310.84765625 174.52734375 C-310.07099609 174.10259766 -309.29433594 173.67785156 -308.49414062 173.24023438 C-307.29047852 172.59538086 -307.29047852 172.59538086 -306.0625 171.9375 C-304.46967462 171.07230914 -302.87721657 170.20644162 -301.28515625 169.33984375 C-300.53927246 168.93781738 -299.79338867 168.53579102 -299.02490234 168.12158203 C-297.35292339 167.19548229 -295.72245975 166.19485655 -294.10546875 165.17578125 C-292 164 -292 164 -289.25 164.25 C-287 165 -287 165 -286 166 C-285.90238614 167.87657049 -285.87628653 169.7568722 -285.87695217 171.63597965 C-285.87496112 172.86760934 -285.87297007 174.09923903 -285.87091869 175.36819082 C-285.87377228 176.75262728 -285.87671789 178.13706355 -285.87974548 179.52149963 C-285.87930991 180.97841741 -285.87843526 182.43533511 -285.87715632 183.89225239 C-285.87490863 187.9147585 -285.87893636 191.93723825 -285.88393438 195.959741 C-285.88823479 200.29037057 -285.88679275 204.62099853 -285.8860321 208.95162964 C-285.88550661 216.46105365 -285.88865608 223.97046899 -285.89426994 231.47989082 C-285.90238148 242.33738405 -285.90499981 253.19487307 -285.90625793 264.05236899 C-285.908449 281.66601855 -285.91511056 299.27966349 -285.92456055 316.89331055 C-285.93373326 334.00789364 -285.94081478 351.12247549 -285.94506836 368.23706055 C-285.94533108 369.29120726 -285.94559381 370.34535398 -285.94586449 371.43144453 C-285.94716949 376.71955104 -285.9484332 382.00765756 -285.94967639 387.29576409 C-285.96005071 431.19717929 -285.9777446 475.09858934 -286 519 C-279.07 515.04 -279.07 515.04 -272 511 C-271.99945523 509.15865101 -271.99891047 507.31730202 -271.99834919 505.42015457 C-271.98431457 461.74105898 -271.94460518 418.0620497 -271.87314438 374.38300855 C-271.8643773 369.01054767 -271.85582755 363.63808645 -271.84741211 358.265625 C-271.84573305 357.19603415 -271.84405398 356.12644331 -271.84232404 355.02444062 C-271.81563139 337.69038058 -271.80655734 320.3563536 -271.80395857 303.02227512 C-271.80090251 285.24485435 -271.7789961 267.46752942 -271.73947543 249.69015193 C-271.7156733 238.71454435 -271.70669382 227.7391279 -271.71648689 216.76349804 C-271.72178978 209.24399855 -271.70883469 201.72467083 -271.6813371 194.20522025 C-271.66600107 189.86242907 -271.65889235 185.52002211 -271.67340279 181.17721939 C-271.68649958 177.20449187 -271.67676963 173.23251091 -271.64856227 169.259868 C-271.64242334 167.81970941 -271.64480077 166.37948524 -271.65637074 164.93936005 C-271.67083113 162.98734507 -271.65175789 161.03516664 -271.63085651 159.08320999 C-271.62971735 157.99720985 -271.62857819 156.9112097 -271.62740451 155.79230046 C-270.60588549 151.24597032 -267.30752631 149.84191164 -263.58398438 147.44433594 C-260.89566487 145.86824274 -258.20155898 144.30330352 -255.5 142.75 C-254.56285156 142.19570312 -253.62570312 141.64140625 -252.66015625 141.0703125 C-251.75136719 140.54695312 -250.84257813 140.02359375 -249.90625 139.484375 C-249.08447266 139.00709961 -248.26269531 138.52982422 -247.41601562 138.03808594 C-244.70197328 136.87194729 -242.923522 136.64656663 -240 137 C-238 139 -238 139 -237.75160301 141.50543129 C-237.75236245 142.5739643 -237.75312189 143.64249731 -237.75390434 144.74341011 C-237.74992225 145.97354745 -237.74594015 147.20368479 -237.74183738 148.47109902 C-237.7475442 149.84866352 -237.75343541 151.22622727 -237.75949097 152.60379028 C-237.75861956 154.05744689 -237.75686978 155.51110319 -237.75431263 156.9647578 C-237.74982228 160.97363294 -237.75786582 164.98240202 -237.76786876 168.99126363 C-237.77647678 173.30892395 -237.77358498 177.62657791 -237.77206421 181.94424438 C-237.77101367 189.42965241 -237.77730783 196.91502567 -237.78853989 204.40042496 C-237.80476916 215.2231546 -237.81000025 226.04586737 -237.81251587 236.86860786 C-237.81689702 254.42624942 -237.8302175 271.98387243 -237.84912109 289.54150391 C-237.86746903 306.60074775 -237.88163085 323.65998657 -237.89013672 340.71923828 C-237.89066217 341.77013528 -237.89118761 342.82103227 -237.89172898 343.90377463 C-237.89433899 349.17562642 -237.89686642 354.44747823 -237.89935279 359.71933007 C-237.92009837 403.47956635 -237.95548361 447.23978193 -238 491 C-233.38 488.36 -228.76 485.72 -224 483 C-224.00471361 480.24074189 -224.00471361 480.24074189 -224.00952244 477.4257412 C-224.08207896 433.77883328 -224.10832941 390.13210216 -224.07740569 346.48513921 C-224.07364168 341.11525576 -224.07026919 335.74537214 -224.06713867 330.37548828 C-224.06650885 329.30642206 -224.06587903 328.23735583 -224.06523012 327.13589366 C-224.05596056 309.81605065 -224.07842199 292.49638632 -224.11256976 275.17658071 C-224.14689276 257.41042062 -224.14720985 239.6444957 -224.11582941 221.87832892 C-224.09753482 210.91174813 -224.10589884 199.94584837 -224.14815276 188.97933097 C-224.17457276 181.46345829 -224.16801968 173.94806938 -224.13534261 166.43222301 C-224.11745619 162.09290404 -224.11429467 157.75486572 -224.15022469 153.41563034 C-224.18279453 149.44349733 -224.17400556 145.47369202 -224.13215785 141.50166579 C-224.12434121 140.06415212 -224.13177338 138.6264588 -224.15590347 137.18912642 C-224.32391336 126.45449002 -224.32391336 126.45449002 -221.07713211 122.88748097 C-218.77596685 121.32817281 -216.52263592 120.15769072 -214 119 C-212.5145661 118.08211884 -211.03878081 117.14822615 -209.578125 116.19140625 C-208.13702351 115.31246417 -206.69431971 114.43614366 -205.25 113.5625 C-204.52167969 113.10423828 -203.79335938 112.64597656 -203.04296875 112.17382812 C-197.75573404 108.99285116 -197.75573404 108.99285116 -194.109375 109.02734375 C-192 110 -192 110 -190 113 C-189.74519098 115.61680573 -189.74519098 115.61680573 -189.73828697 118.8352232 C-189.73082148 120.0603848 -189.72335599 121.28554639 -189.71566427 122.5478341 C-189.71744122 123.91459533 -189.71940214 125.28135633 -189.7215271 126.64811707 C-189.71652696 128.09438955 -189.710652 129.54065923 -189.70397437 130.98692495 C-189.68812615 134.97071196 -189.68474105 138.95442854 -189.68332577 142.93824327 C-189.6796401 147.23068474 -189.66448884 151.52308719 -189.65071106 155.81550598 C-189.62840812 163.25558758 -189.61341311 170.69565535 -189.60334396 178.13576317 C-189.58877507 188.89298208 -189.56324332 199.65015284 -189.53501268 210.40734354 C-189.48951209 227.85903336 -189.45291081 245.31073009 -189.421875 262.76245117 C-189.39170282 279.71786718 -189.35735869 296.67326625 -189.31738281 313.62866211 C-189.31369049 315.19565253 -189.31369049 315.19565253 -189.30992357 316.79429933 C-189.29754923 322.03491253 -189.28509265 327.27552553 -189.27259517 332.51613843 C-189.16897847 376.01073535 -189.07979137 419.5053533 -189 463 C-184.4861006 461.20019818 -180.66142394 459.22401041 -177 456 C-175.22790583 451.27616288 -175.42325122 446.61571138 -175.55262756 441.63876343 C-175.54684081 440.16370272 -175.53576611 438.68865491 -175.51987356 437.21366847 C-175.49144485 433.1673681 -175.5375918 429.12484069 -175.59596479 425.07898855 C-175.64578004 420.71358396 -175.62611217 416.3484304 -175.61471558 411.98283386 C-175.60425343 404.4206642 -175.63710019 396.85968186 -175.69886971 389.29777145 C-175.78771862 378.35926999 -175.80554975 367.4215396 -175.8051452 356.48271902 C-175.80595017 338.72814127 -175.85661243 320.97408616 -175.94213867 303.21972656 C-176.02498108 285.98635336 -176.09687597 268.75303929 -176.14526367 251.51953125 C-176.14825637 250.45783991 -176.15124908 249.39614857 -176.15433247 248.30228476 C-176.18640027 236.71467898 -176.21214171 225.12707739 -176.22831631 213.53943825 C-176.22974007 212.52142506 -176.23116383 211.50341187 -176.23263074 210.4545498 C-176.2381836 206.38529211 -176.24358589 202.31603459 -176.24808591 198.24677558 C-176.26130643 186.32730795 -176.29460071 174.40831382 -176.36424499 162.4890355 C-176.40722195 155.01547119 -176.4337166 147.54197458 -176.44717873 140.06829904 C-176.45572583 135.75361112 -176.47285386 131.43937015 -176.51190376 127.12484169 C-176.54757786 123.17713643 -176.56046274 119.2300448 -176.55511492 115.28218813 C-176.55733189 113.85226353 -176.56811901 112.4223219 -176.58822537 110.99253695 C-176.75024145 98.95790542 -176.75024145 98.95790542 -173.61609554 95.72262001 C-172.75278401 95.15415541 -171.88947248 94.5856908 -171 94 C-170.20271484 93.44916748 -169.40542969 92.89833496 -168.58398438 92.33081055 C-165.89541911 90.77170628 -163.20473016 89.21844424 -160.5 87.6875 C-159.56285156 87.13771484 -158.62570312 86.58792969 -157.66015625 86.02148438 C-156.75136719 85.50263672 -155.84257813 84.98378906 -154.90625 84.44921875 C-154.08447266 83.97830811 -153.26269531 83.50739746 -152.41601562 83.0222168 C-149.70512274 81.87523736 -147.91395069 81.65048549 -145 82 C-143 84 -143 84 -142.75160301 86.50543129 C-142.75236245 87.5739643 -142.75312189 88.64249731 -142.75390434 89.74341011 C-142.74992225 90.97354745 -142.74594015 92.20368479 -142.74183738 93.47109902 C-142.7475442 94.84866352 -142.75343541 96.22622727 -142.75949097 97.60379028 C-142.75861956 99.05744689 -142.75686978 100.51110319 -142.75431263 101.9647578 C-142.74982228 105.97363294 -142.75786582 109.98240202 -142.76786876 113.99126363 C-142.77647678 118.30892395 -142.77358498 122.62657791 -142.77206421 126.94424438 C-142.77101367 134.42965241 -142.77730783 141.91502567 -142.78853989 149.40042496 C-142.80476916 160.2231546 -142.81000025 171.04586737 -142.81251587 181.86860786 C-142.81689702 199.42624942 -142.8302175 216.98387243 -142.84912109 234.54150391 C-142.86746903 251.60074775 -142.88163085 268.65998657 -142.89013672 285.71923828 C-142.89066217 286.77013528 -142.89118761 287.82103227 -142.89172898 288.90377463 C-142.89433899 294.17562642 -142.89686642 299.44747823 -142.89935279 304.71933007 C-142.92009837 348.47956635 -142.95548361 392.23978193 -143 436 C-136.07 432.04 -136.07 432.04 -129 428 C-129.0031424 426.16049459 -129.00628481 424.32098919 -129.00952244 422.4257412 C-129.08207896 378.77883328 -129.10832941 335.13210216 -129.07740569 291.48513921 C-129.07364168 286.11525576 -129.07026919 280.74537214 -129.06713867 275.37548828 C-129.06650885 274.30642206 -129.06587903 273.23735583 -129.06523012 272.13589366 C-129.05596056 254.81605065 -129.07842199 237.49638632 -129.11256976 220.17658071 C-129.14689276 202.41042062 -129.14720985 184.6444957 -129.11582941 166.87832892 C-129.09753482 155.91174813 -129.10589884 144.94584837 -129.14815276 133.97933097 C-129.17457276 126.46345829 -129.16801968 118.94806938 -129.13534261 111.43222301 C-129.11745619 107.09290404 -129.11429467 102.75486572 -129.15022469 98.41563034 C-129.18279453 94.44349733 -129.17400556 90.47369202 -129.13215785 86.50166579 C-129.12434121 85.06415212 -129.13177338 83.6264588 -129.15590347 82.18912642 C-129.32392774 71.4535715 -129.32392774 71.4535715 -126.07589614 67.88748097 C-123.77528626 66.329181 -121.52103929 65.15864269 -119 64 C-117.5258982 63.08259331 -116.06174756 62.14877582 -114.61328125 61.19140625 C-113.18129451 60.31248057 -111.74770538 59.43616006 -110.3125 58.5625 C-109.59255859 58.10423828 -108.87261719 57.64597656 -108.13085938 57.17382812 C-104.62212039 55.053232 -102.72620419 53.9811269 -98.54296875 54.08984375 C-96 55 -96 55 -95 57 C-94.90031966 58.90722055 -94.86609914 60.81797502 -94.8613348 62.72779274 C-94.85586036 63.95444668 -94.85038591 65.18110063 -94.84474558 66.4449259 C-94.84366924 67.81855934 -94.84268457 69.19219285 -94.84178162 70.56582642 C-94.83721867 72.01535885 -94.83221905 73.46488997 -94.82681805 74.91441953 C-94.81319701 78.91185035 -94.80580715 82.90927264 -94.79939139 86.90672064 C-94.79140481 91.21212106 -94.77770107 95.51750363 -94.76467896 99.82289124 C-94.74289142 107.28699816 -94.72475528 114.75110688 -94.70907402 122.21522903 C-94.68639609 133.00719974 -94.65825041 143.7991507 -94.62875474 154.59110467 C-94.58105332 172.09881367 -94.53779606 189.60653074 -94.49731445 207.11425781 C-94.45797249 224.12500639 -94.41654939 241.13574779 -94.37231445 258.14648438 C-94.36959018 259.19439438 -94.36686591 260.24230438 -94.36405908 261.32196923 C-94.35037982 266.57883706 -94.3366595 271.83570478 -94.32291877 277.09257245 C-94.20891394 320.72836668 -94.10211347 364.36417643 -94 408 C-93.15695312 407.4946875 -92.31390625 406.989375 -91.4453125 406.46875 C-90.34960938 405.8190625 -89.25390625 405.169375 -88.125 404.5 C-87.03445313 403.8503125 -85.94390625 403.200625 -84.8203125 402.53125 C-82 401 -82 401 -80 401 C-80.00512622 399.86396782 -80.00512622 399.86396782 -80.01035601 398.7049855 C-80.21167198 353.83774662 -80.3661349 308.9705568 -80.45958797 264.10295694 C-80.47084459 258.71805126 -80.48249347 253.3331465 -80.49438477 247.94824219 C-80.49792596 246.34015693 -80.49792596 246.34015693 -80.50153869 244.6995851 C-80.5407218 227.33117303 -80.6116945 209.96302853 -80.69437516 192.5947753 C-80.7784802 174.77898752 -80.82851654 156.96334005 -80.84679645 139.14736187 C-80.85915795 128.14999012 -80.89822654 117.15337456 -80.9712482 106.15623553 C-81.01874981 98.61942371 -81.03321749 91.08300393 -81.0215124 83.54605322 C-81.01573609 79.19451836 -81.02471045 74.8443065 -81.07284927 70.49300575 C-81.11659393 66.50987732 -81.11890137 62.52896318 -81.08809005 58.54573359 C-81.08428153 57.10413828 -81.09575263 55.66240581 -81.12394864 54.22108124 C-81.32232448 43.4554645 -81.32232448 43.4554645 -78.07051647 39.87624383 C-75.77010503 38.31518035 -73.52906836 37.14402171 -71 36 C-69.6012667 35.16398445 -68.21024842 34.31473431 -66.83203125 33.4453125 C-65.4942619 32.66829255 -64.15443109 31.89481023 -62.8125 31.125 C-61.80413086 30.52171875 -61.80413086 30.52171875 -60.77539062 29.90625 C-56.7632424 27.60912911 -53.75535258 26.19687379 -49 27 C-46.69340435 30.45989347 -46.74703654 31.75646544 -46.73828697 35.8352232 C-46.73082148 37.0603848 -46.72335599 38.28554639 -46.71566427 39.5478341 C-46.71744122 40.91459533 -46.71940214 42.28135633 -46.7215271 43.64811707 C-46.71652696 45.09438955 -46.710652 46.54065923 -46.70397437 47.98692495 C-46.68812615 51.97071196 -46.68474105 55.95442854 -46.68332577 59.93824327 C-46.6796401 64.23068474 -46.66448884 68.52308719 -46.65071106 72.81550598 C-46.62840812 80.25558758 -46.61341311 87.69565535 -46.60334396 95.13576317 C-46.58877507 105.89298208 -46.56324332 116.65015284 -46.53501268 127.40734354 C-46.48951209 144.85903336 -46.45291081 162.31073009 -46.421875 179.76245117 C-46.39170282 196.71786718 -46.35735869 213.67326625 -46.31738281 230.62866211 C-46.31369049 232.19565253 -46.31369049 232.19565253 -46.30992357 233.79429933 C-46.29754923 239.03491253 -46.28509265 244.27552553 -46.27259517 249.51613843 C-46.16897847 293.01073535 -46.07979137 336.5053533 -46 380 C-41.48590147 378.20036825 -37.66147949 376.22412427 -34 373 C-32.22610193 368.27445133 -32.41900522 363.61135348 -32.54589844 358.6320343 C-32.53939515 357.15625845 -32.52760788 355.68049806 -32.51100636 354.20480126 C-32.48063946 350.15659637 -32.524852 346.11212769 -32.58130574 342.0643295 C-32.62906202 337.69687916 -32.60736647 333.32971083 -32.59397888 328.96209717 C-32.5801073 321.39666633 -32.60965178 313.83240825 -32.66830444 306.26720619 C-32.75272415 295.32504367 -32.76708574 284.38365535 -32.76363456 273.44120838 C-32.75956216 255.68216449 -32.80607633 237.9236411 -32.88720703 220.16479492 C-32.96580618 202.92457854 -33.03060991 185.68444668 -33.06982422 168.4440918 C-33.07225152 167.38183505 -33.07467882 166.31957831 -33.07717967 165.22513197 C-33.1031247 153.632861 -33.12348143 142.04059036 -33.13717651 130.44829845 C-33.13839024 129.43007523 -33.13960397 128.41185201 -33.14085448 127.36277353 C-33.14563022 123.29286043 -33.15034541 119.22294746 -33.15434384 115.15303352 C-33.16619865 103.22889873 -33.19556766 91.30510999 -33.25632852 79.38111904 C-33.2940134 71.9056935 -33.3189078 64.4303035 -33.33367735 56.95479766 C-33.34287183 52.63827472 -33.35901999 48.32204317 -33.39269829 44.00563622 C-33.42348375 40.05743235 -33.43613928 36.10960875 -33.43421602 32.16128924 C-33.43685987 30.73004693 -33.44638628 29.29879808 -33.46334219 27.86765376 C-33.4854108 25.92790442 -33.48058376 23.9879041 -33.47428894 22.04803944 C-33.48176793 20.42928763 -33.48176793 20.42928763 -33.489398 18.77783376 C-32.72108159 14.41685299 -30.11675287 12.78623926 -26.63745117 10.33666992 C-23.83246307 8.60014817 -21.01573322 6.88592165 -18.1875 5.1875 C-16.72860352 4.27194336 -16.72860352 4.27194336 -15.24023438 3.33789062 C-6.00615319 -2.20755962 -6.00615319 -2.20755962 0 0 Z " fill="#002A5A" transform="translate(1010,13)"/>
<path d="M0 0 C1.24040794 -0.01475876 1.24040794 -0.01475876 2.50587463 -0.02981567 C38.06538 -0.36543376 70.26352267 4.88307112 103.06640625 19.23828125 C103.79230957 19.54846191 104.51821289 19.85864258 105.26611328 20.17822266 C121.78438756 27.27894024 137.07872586 36.96035613 151.06640625 48.23828125 C151.58412598 48.6544873 152.1018457 49.07069336 152.63525391 49.49951172 C167.09205837 61.2243895 180.76472991 74.4258714 192.06640625 89.23828125 C192.75476563 90.09421875 193.443125 90.95015625 194.15234375 91.83203125 C199.06640625 97.96975358 199.06640625 97.96975358 199.06640625 100.23828125 C198.36370605 100.59954102 197.66100586 100.96080078 196.93701172 101.33300781 C183.11855646 108.44554713 169.36376298 115.64430391 155.7421875 123.12890625 C149.07994501 126.78829631 142.38590892 130.38839961 135.69140625 133.98828125 C134.53632568 134.60960937 133.38124512 135.2309375 132.19116211 135.87109375 C129.48317814 137.32732238 126.77494408 138.78308311 124.06640625 140.23828125 C121.26905288 137.45682193 118.49695478 134.65537269 115.75390625 131.8203125 C94.98524989 110.49651024 70.87920926 95.89974041 42.06640625 88.23828125 C41.40302246 88.05894043 40.73963867 87.87959961 40.05615234 87.69482422 C20.52788475 82.68208767 -2.46711594 83.26128486 -21.93359375 88.23828125 C-22.61067383 88.40457031 -23.28775391 88.57085938 -23.98535156 88.7421875 C-50.85880213 95.45123202 -72.81274485 109.51194663 -92.93359375 128.23828125 C-93.95066406 129.17414063 -93.95066406 129.17414063 -94.98828125 130.12890625 C-104.72962711 139.43991153 -112.23442495 150.61644388 -118.93359375 162.23828125 C-119.59101562 163.35332031 -120.2484375 164.46835937 -120.92578125 165.6171875 C-143.66110896 205.31835285 -146.86104395 254.10314949 -135.32421875 297.76000977 C-123.86713414 338.20332491 -97.40956024 373.19556133 -60.98046875 394.12890625 C-40.34389762 405.59345194 -18.55558718 412.15841869 5.06640625 413.23828125 C5.906875 413.27953125 6.74734375 413.32078125 7.61328125 413.36328125 C39.55379694 414.13759678 72.47300571 402.50685807 97.06640625 382.23828125 C97.64551758 381.76455078 98.22462891 381.29082031 98.82128906 380.80273438 C105.79108948 375.07504011 112.48684314 369.36986077 118.06640625 362.23828125 C118.84371094 361.2740625 119.62101562 360.30984375 120.421875 359.31640625 C130.06583871 347.20889846 137.33615548 334.12534798 144.06640625 320.23828125 C144.72640625 318.91828125 145.38640625 317.59828125 146.06640625 316.23828125 C117.35640625 316.23828125 88.64640625 316.23828125 59.06640625 316.23828125 C59.06640625 291.81828125 59.06640625 267.39828125 59.06640625 242.23828125 C120.77640625 242.23828125 182.48640625 242.23828125 246.06640625 242.23828125 C246.06640625 300.47686031 232.90434432 355.33336348 197.06640625 402.23828125 C196.64568848 402.8003125 196.2249707 403.36234375 195.79150391 403.94140625 C188.51706263 413.65159618 180.4820851 422.50946086 172.06640625 431.23828125 C170.82697266 432.53958984 170.82697266 432.53958984 169.5625 433.8671875 C131.5107357 473.00808996 74.7325719 497.73929624 20.24609375 498.5390625 C16.81092806 498.5682217 13.37664133 498.56566101 9.94140625 498.55078125 C9.04188232 498.5486261 8.1423584 498.54647095 7.21557617 498.54425049 C-6.69025678 498.49090882 -20.26272992 497.99291415 -33.93359375 495.23828125 C-34.91569824 495.04492188 -35.89780273 494.8515625 -36.90966797 494.65234375 C-77.63128145 486.37647562 -114.01720891 467.29061402 -144.609375 439.33984375 C-146.6392439 437.50443288 -148.71068735 435.74446681 -150.80859375 433.98828125 C-167.02736814 419.75216265 -179.7943124 401.57841729 -190.93359375 383.23828125 C-191.56128662 382.20960938 -191.56128662 382.20960938 -192.20166016 381.16015625 C-227.10230565 323.20574844 -236.01144395 250.08907962 -220.39453125 184.68359375 C-207.42234067 132.91956403 -177.46799763 84.04259274 -134.93359375 51.23828125 C-134.38751465 50.81579102 -133.84143555 50.39330078 -133.27880859 49.95800781 C-123.2874898 42.28014342 -112.81826096 35.57454284 -101.93359375 29.23828125 C-101.32112793 28.87637695 -100.70866211 28.51447266 -100.07763672 28.14160156 C-70.53850225 10.83383845 -34.29794441 0.33873069 0 0 Z " fill="#002A5A" transform="translate(246.93359375,742.76171875)"/>
<path d="M0 0 C0.97694824 0.51965332 0.97694824 0.51965332 1.97363281 1.04980469 C27.20568674 14.4962381 51.83730703 32.75496901 70 55 C71.08744073 56.3004006 72.17600056 57.59986611 73.265625 58.8984375 C74.46966449 60.34819933 75.67277826 61.79873044 76.875 63.25 C77.45975098 63.94851074 78.04450195 64.64702148 78.64697266 65.36669922 C79.4675415 66.36854248 79.4675415 66.36854248 80.3046875 67.390625 C80.79952637 67.98907227 81.29436523 68.58751953 81.80419922 69.20410156 C83.08937247 71.13422293 83.57666805 72.73433238 84 75 C71.52130394 82.05392958 58.89702329 88.82035312 46.21777344 95.50488281 C39.68558639 98.9527352 33.17907478 102.43151959 26.7421875 106.0546875 C25.63955566 106.67045654 24.53692383 107.28622559 23.40087891 107.9206543 C21.3461412 109.07284218 19.29850438 110.237814 17.25927734 111.41723633 C15.90116943 112.17556763 15.90116943 112.17556763 14.515625 112.94921875 C13.73477539 113.39612061 12.95392578 113.84302246 12.14941406 114.3034668 C10 115 10 115 7.81811523 114.22998047 C5.75327748 112.83308875 4.39085398 111.36659931 2.8125 109.4375 C-20.27697471 82.48367805 -53.88298292 65.43926005 -89 61 C-94.12211981 60.76162748 -99.24789921 60.75431008 -104.375 60.75 C-105.45213257 60.74898788 -105.45213257 60.74898788 -106.55102539 60.74795532 C-117.32602913 60.76405583 -127.53170688 61.21813769 -138 64 C-138.65242676 64.17160645 -139.30485352 64.34321289 -139.97705078 64.52001953 C-166.21258416 71.59242663 -188.50854344 85.18165739 -208 104 C-208.5576001 104.53423584 -209.1152002 105.06847168 -209.68969727 105.61889648 C-221.62339443 117.26638231 -230.58571724 131.14567926 -238 146 C-238.36464355 146.72799805 -238.72928711 147.45599609 -239.10498047 148.20605469 C-258.70643581 188.04785391 -261.92479639 236.84291812 -248 279 C-233.16498267 321.72719802 -204.73720668 356.29493606 -163.8125 376.1875 C-130.31048745 391.9030599 -91.70350382 392.89300841 -57.00390625 380.62109375 C-32.07195182 371.33849871 -8.35462499 355.09784569 8 334 C12.41404301 335.34956383 16.31210351 337.08938937 20.375 339.2734375 C20.97278259 339.59320557 21.57056519 339.91297363 22.1864624 340.24243164 C24.12683531 341.28199095 26.06346433 342.32831254 28 343.375 C29.35171489 344.10139648 30.70360466 344.82746762 32.05566406 345.55322266 C36.04105491 347.69487461 40.02124925 349.84604261 44 352 C45.61551758 352.87398437 45.61551758 352.87398437 47.26367188 353.765625 C59.55637478 360.42518266 71.79155407 367.18738573 84 374 C83.40733961 377.04204706 82.53270426 378.92699489 80.5859375 381.328125 C80.07973877 381.95517334 79.57354004 382.58222168 79.05200195 383.22827148 C78.22188599 384.2290271 78.22188599 384.2290271 77.375 385.25 C76.80031982 385.94875244 76.22563965 386.64750488 75.63354492 387.36743164 C41.3987531 428.50161722 -5.26962694 459.45269617 -58.125 470.25 C-58.86298828 470.40114258 -59.60097656 470.55228516 -60.36132812 470.70800781 C-75.08320056 473.5118726 -89.67050899 474.37911481 -104.625 474.3125 C-105.50051514 474.31034485 -106.37603027 474.3081897 -107.27807617 474.30596924 C-171.92208133 474.05136099 -227.690658 446.53419556 -273.03686523 401.21435547 C-279.2719584 394.8696165 -284.76028568 388.1769595 -290 381 C-290.47888672 380.35482422 -290.95777344 379.70964844 -291.45117188 379.04492188 C-322.32015111 337.33767945 -340.80293151 287.09850236 -342 235 C-342.02046387 234.24187012 -342.04092773 233.48374023 -342.06201172 232.70263672 C-343.51850795 172.14369006 -325.72589532 111.21212546 -287 64 C-286.56816406 63.46665039 -286.13632812 62.93330078 -285.69140625 62.38378906 C-273.61803528 47.5370423 -260.14410738 33.50615582 -244.65478516 22.21044922 C-243.00755869 21.00552907 -241.38428859 19.77300818 -239.76171875 18.53515625 C-208.71145989 -4.7859129 -171.40268803 -19.14718984 -133 -24 C-132.28102539 -24.09571289 -131.56205078 -24.19142578 -130.82128906 -24.29003906 C-86.2959829 -29.54270732 -39.39493512 -21.40545731 0 0 Z " fill="#002A5A" transform="translate(884,767)"/>
<path d="M0 0 C1.99311615 1.88360427 3.97027866 3.77743763 5.9375 5.6875 C6.87142578 6.58275391 6.87142578 6.58275391 7.82421875 7.49609375 C17.02250262 16.33854458 25.35265354 25.42646456 32.9375 35.6875 C33.54980469 36.41453125 34.16210938 37.1415625 34.79296875 37.890625 C35.17066406 38.48359375 35.54835938 39.0765625 35.9375 39.6875 C34.6705838 43.4882486 33.65066155 43.64348567 30.14453125 45.40234375 C29.13334229 45.91724365 28.12215332 46.43214355 27.08032227 46.96264648 C25.98131592 47.51122314 24.88230957 48.0597998 23.75 48.625 C21.44176399 49.80023042 19.1344884 50.97734887 16.828125 52.15625 C15.66474609 52.74921875 14.50136719 53.3421875 13.30273438 53.953125 C8.49171466 56.43262907 3.74251347 59.01747635 -1 61.625 C-1.87084229 62.1001001 -2.74168457 62.5752002 -3.63891602 63.06469727 C-8.19680013 65.55333257 -12.74075962 68.06429534 -17.26777649 70.60871887 C-19.65156185 71.94465109 -22.04244909 73.26752867 -24.43460083 74.58840942 C-26.15803356 75.54612542 -27.87197562 76.52085638 -29.58569336 77.49584961 C-30.63249268 78.07214111 -31.67929199 78.64843262 -32.7578125 79.2421875 C-33.68609863 79.76280762 -34.61438477 80.28342773 -35.57080078 80.81982422 C-38.0625 81.6875 -38.0625 81.6875 -40.27294922 80.96508789 C-42.58466616 79.31471753 -44.22895266 77.42039221 -46.0625 75.25 C-65.59773522 53.13764092 -91.71104366 38.42920469 -120.0625 30.6875 C-120.74070801 30.49687988 -121.41891602 30.30625977 -122.11767578 30.10986328 C-141.63572344 24.89610418 -166.61742893 25.65683219 -186.0625 30.6875 C-186.71009277 30.83783691 -187.35768555 30.98817383 -188.02490234 31.14306641 C-213.8151026 37.15225171 -236.2989401 51.35903714 -255.0625 69.6875 C-255.91070313 70.47382812 -256.75890625 71.26015625 -257.6328125 72.0703125 C-285.5451603 98.58266794 -302.73647373 140.6913697 -304.18652344 178.96069336 C-305.26046905 228.49809196 -291.96856758 274.22312583 -257.0625 310.6875 C-256.32 311.49316406 -255.5775 312.29882812 -254.8125 313.12890625 C-228.50938378 340.7731353 -191.24531706 354.95043083 -153.5625 355.9375 C-112.37548618 354.9173882 -75.1554516 337.84627671 -46.49609375 308.2578125 C-44.25722405 305.80542662 -42.14455399 303.27429435 -40.0625 300.6875 C-35.80949145 301.99642184 -32.03684013 303.62705 -28.125 305.7421875 C-26.42827148 306.65532715 -26.42827148 306.65532715 -24.69726562 307.58691406 C-23.48559924 308.24529947 -22.27401253 308.90383153 -21.0625 309.5625 C-19.80423309 310.2422261 -18.54576713 310.92158385 -17.28710938 311.60058594 C-14.12997579 313.30552292 -10.97611612 315.01640494 -7.82373047 316.73010254 C-6.19149437 317.6173792 -4.55866318 318.50356089 -2.92578125 319.38964844 C10.05690307 326.43726621 22.9996991 333.55790069 35.9375 340.6875 C33.74024144 347.09521215 29.29089023 351.61545488 24.9375 356.6875 C23.96683594 357.82832031 23.96683594 357.82832031 22.9765625 358.9921875 C10.31695635 373.45316054 -3.33160508 386.62183904 -19.0625 397.6875 C-19.7028418 398.14060547 -20.34318359 398.59371094 -21.00292969 399.06054688 C-46.4766343 416.93544934 -74.57252827 429.8202238 -105 436.5625 C-105.86141602 436.75360352 -106.72283203 436.94470703 -107.61035156 437.14160156 C-122.57789545 440.23388378 -137.44711771 441.06788832 -152.6875 441 C-153.56301514 440.99784485 -154.43853027 440.9956897 -155.34057617 440.99346924 C-191.45275183 440.85123706 -226.16410169 432.94833646 -258.0625 415.6875 C-258.78920898 415.30335938 -259.51591797 414.91921875 -260.26464844 414.5234375 C-292.3605775 397.55160294 -321.21694267 372.45963961 -342.0625 342.6875 C-342.51947266 342.03797363 -342.97644531 341.38844727 -343.44726562 340.71923828 C-349.51954177 332.01725354 -355.04101261 323.03881684 -360.0625 313.6875 C-360.38959961 313.0785791 -360.71669922 312.4696582 -361.05371094 311.84228516 C-386.43769202 264.03372371 -395.54496456 208.24836049 -388.0625 154.6875 C-387.93891113 153.79224609 -387.81532227 152.89699219 -387.68798828 151.97460938 C-383.45361631 122.51364562 -374.05962826 94.90851725 -360.0625 68.6875 C-359.72283203 68.04151855 -359.38316406 67.39553711 -359.03320312 66.72998047 C-351.2702151 52.04607901 -341.81317312 38.35237164 -331.0625 25.6875 C-330.45019531 24.96433594 -329.83789062 24.24117187 -329.20703125 23.49609375 C-308.24933753 -0.46134723 -284.29827805 -19.59985877 -256.0625 -34.3125 C-255.35077637 -34.6847168 -254.63905273 -35.05693359 -253.90576172 -35.44042969 C-233.40200305 -46.00993482 -211.749118 -52.42324664 -189.0625 -56.3125 C-188.33063477 -56.44382324 -187.59876953 -56.57514648 -186.84472656 -56.71044922 C-120.19185376 -68.17294278 -49.68553278 -44.73037183 0 0 Z " fill="#002A5A" transform="translate(1406.0625,800.3125)"/>
<path d="M0 0 C219.8202847 0 219.8202847 0 257 35 C257.67675781 35.60070312 258.35351562 36.20140625 259.05078125 36.8203125 C279.89307276 56.1171836 289.24052214 86.08705877 290.3203125 113.73046875 C291.03132104 143.8854744 284.17284063 172.80548915 264 196 C263.53335937 196.60972656 263.06671875 197.21945312 262.5859375 197.84765625 C256.29574154 205.92191363 247.28536895 211.89300989 238 216 C238.94359375 216.35191406 239.8871875 216.70382812 240.859375 217.06640625 C255.09501961 222.48657899 266.12938747 229.38292946 277 240 C277.65742187 240.59554687 278.31484375 241.19109375 278.9921875 241.8046875 C304.13697932 265.09548546 314.15170301 304.58977559 315.875 337.5 C317.32036364 378.25786832 305.23290216 414.07657949 277.59423828 444.32617188 C256.8876373 466.06651741 229.96637416 475.88828691 201 481 C134.67 481 68.34 481 0 481 C0 322.27 0 163.54 0 0 Z M50 44 C50 94.49 50 144.98 50 197 C69.75875 197.0825 89.5175 197.165 109.875 197.25 C119.18307861 197.30462402 119.18307861 197.30462402 128.67919922 197.36035156 C134.31251085 197.37374124 134.31251085 197.37374124 139.9458313 197.3817749 C142.42673627 197.38785889 144.9076305 197.40180394 147.38845825 197.42230225 C176.58181801 197.65115421 200.6649514 193.55676039 222.8125 172.8125 C238.03157122 156.88350126 241.46327973 137.26587119 241.20703125 115.91015625 C240.74548796 98.15348168 235.47806088 80.99407092 223 68 C222.00226563 66.95972656 222.00226563 66.95972656 220.984375 65.8984375 C199.54108296 45.32876106 171.89717079 43.53427854 143.84765625 43.70703125 C141.44039112 43.71145067 139.03312309 43.71450592 136.62585449 43.71618652 C127.77135859 43.73181583 118.91692469 43.77369944 110.0625 43.8125 C90.241875 43.874375 70.42125 43.93625 50 44 Z M50 240 C50 305.34 50 370.68 50 438 C71.594375 438.04125 93.18875 438.0825 115.4375 438.125 C122.22626709 438.14320801 129.01503418 438.16141602 136.00952148 438.18017578 C142.1577825 438.1868695 142.1577825 438.1868695 148.30604553 438.19088745 C151.01954251 438.19393497 153.73284535 438.20014912 156.44630432 438.21115112 C189.87194226 438.34039201 217.20139384 435.4370869 242.6875 411.75 C261.53151214 391.739898 270.70090174 365.36150911 271.3125 338.125 C270.39301266 313.75858544 262.45709684 290.308957 246 272 C245.48566406 271.34515625 244.97132813 270.6903125 244.44140625 270.015625 C231.78421672 254.23359317 211.88907017 243.43241107 191.92399025 240.71772099 C184.79443799 239.93603518 177.7310359 239.86532623 170.56396484 239.88647461 C169.22109798 239.88678161 167.87823095 239.88664632 166.53536415 239.88610935 C162.9681879 239.88588537 159.40104581 239.89164352 155.83387756 239.89871979 C152.47559711 239.90445254 149.11731796 239.90468495 145.7590332 239.90539551 C135.96435102 239.91062424 126.16967507 239.9245855 116.375 239.9375 C83.519375 239.9684375 83.519375 239.9684375 50 240 Z " fill="#FFC300" transform="translate(1658,751)"/>
<path d="M0 0 C9.27875961 7.35163261 14.73980165 16.56912616 17.5390625 28.01171875 C18.63498559 39.45519471 17.49804533 50.97782129 10.6015625 60.51171875 C9.6052248 61.69937316 8.58634315 62.8687336 7.5390625 64.01171875 C6.7553125 64.87796875 5.9715625 65.74421875 5.1640625 66.63671875 C-5.94568211 76.68839245 -16.0173133 79.94012746 -30.921875 79.39453125 C-42.01353211 78.66788375 -51.67083987 73.32182311 -59.2109375 65.26171875 C-68.34336223 54.17991334 -70.33424474 41.99849656 -69.4609375 28.01171875 C-67.59525714 16.33161903 -60.61923577 6.29018565 -51.21484375 -0.64453125 C-35.3625499 -10.99290867 -15.5583416 -10.69355755 0 0 Z " fill="#002A5A" transform="translate(1559.4609375,1161.98828125)"/>
</svg>
