<?xml version="1.0" encoding="UTF-8"?>
<svg version="1.1" xmlns="http://www.w3.org/2000/svg" width="600" height="202">
<path d="M0 0 C0.33 0.66 0.66 1.32 1 2 C2.30324219 2.433125 2.30324219 2.433125 3.6328125 2.875 C7.38010043 4.12699411 10.54646831 5.92155035 13.875 8 C14.46796875 8.35578125 15.0609375 8.7115625 15.671875 9.078125 C17.15294043 9.99269997 18.58212216 10.99023537 20 12 C20 12.66 20 13.32 20 14 C20.680625 14.165 21.36125 14.33 22.0625 14.5 C25.68535203 16.34996699 27.60253273 18.7181826 30.15625 21.83203125 C32.03237269 24.10350023 32.03237269 24.10350023 34.44921875 26.40625 C53.4815271 45.75916386 59.18050366 72.70779829 58.96875 98.859375 C57.78091611 125.11050397 44.26211109 150.06709873 25.1875 167.75 C17.64674178 173.97460945 4.07650828 185 -6 185 C-6.33 185.66 -6.66 186.32 -7 187 C-7.66 186.67 -8.32 186.34 -9 186 C-9.33 186.66 -9.66 187.32 -10 188 C-16.59490768 190.3003038 -23.04361054 191.40133016 -30 191 C-30.33 191.66 -30.66 192.32 -31 193 C-61.33630436 193.82986851 -90.18123997 184.5335895 -112.40429688 163.57763672 C-119.05730547 156.99995289 -125.66102688 149.3075461 -130 141 C-130 140.01 -130 139.02 -130 138 C-130.66 138 -131.32 138 -132 138 C-133.00816056 135.41958904 -134.0067111 132.83613056 -135 130.25 C-135.28617188 129.52039063 -135.57234375 128.79078125 -135.8671875 128.0390625 C-136.27324219 126.97558594 -136.27324219 126.97558594 -136.6875 125.890625 C-136.93886719 125.24125977 -137.19023437 124.59189453 -137.44921875 123.92285156 C-138 122 -138 122 -138 118 C-138.66 117.67 -139.32 117.34 -140 117 C-140.50367758 114.43186619 -140.85752826 111.97156726 -141.125 109.375 C-141.2084668 108.58899414 -141.29193359 107.80298828 -141.37792969 106.99316406 C-142.01911129 100.24898041 -142.21425946 93.52229012 -142.25 86.75 C-142.25918457 85.77466309 -142.26836914 84.79932617 -142.27783203 83.79443359 C-142.25597042 78.7618897 -141.89955178 74.72792851 -140 70 C-139.57415416 68.31479299 -139.15742181 66.62725585 -138.75 64.9375 C-135.11292335 51.51668716 -127.67379595 36.18294311 -118 26 C-117.34 26 -116.68 26 -116 26 C-115.814375 25.0925 -115.62875 24.185 -115.4375 23.25 C-113.82177603 19.59705885 -112.38148309 18.75153853 -108.87890625 17.00390625 C-105.0979038 14.98370328 -102.01773035 12.01773035 -99 9 C-97.9790625 8.7525 -97.9790625 8.7525 -96.9375 8.5 C-95.9784375 8.2525 -95.9784375 8.2525 -95 8 C-94.67 7.34 -94.34 6.68 -94 6 C-91.51859259 4.63582821 -89.06013516 3.38740569 -86.5 2.1875 C-85.74477051 1.83292725 -84.98954102 1.47835449 -84.21142578 1.11303711 C-57.42231869 -11.07869495 -27.18433007 -11.42420529 0 0 Z M-66 37 C-66.99 36.9175 -67.98 36.835 -69 36.75 C-73.00618169 37.08384847 -74.7256933 38.80499088 -77.6796875 41.39453125 C-79.31759007 43.03974158 -79.31759007 43.03974158 -79 46 C-79.66 46 -80.32 46 -81 46 C-81.66 46.66 -82.32 47.32 -83 48 C-83.969375 48.7425 -84.93875 49.485 -85.9375 50.25 C-89.01242663 52.8287282 -90.64266951 55.15423027 -92 59 C-92.22156711 61.72281365 -92.14174339 64.25962787 -92 67 C-92.66 67 -93.32 67 -94 67 C-94.85240413 72.54062684 -92.73561241 75.4866185 -89.703125 79.8515625 C-89.14109375 80.56054688 -88.5790625 81.26953125 -88 82 C-87.40574219 82.7528125 -86.81148437 83.505625 -86.19921875 84.28125 C-83.15326753 86.66174473 -81.3504209 86.28663533 -77.5625 85.875 C-76.45003906 85.76929688 -75.33757812 85.66359375 -74.19140625 85.5546875 C-71.19471669 85.03384305 -68.79299457 84.15935624 -66 83 C-65.01 83 -64.02 83 -63 83 C-62.34 83.99 -61.68 84.98 -61 86 C-57.44327821 87.2188121 -57.44327821 87.2188121 -54 88 C-54.45375 88.969375 -54.9075 89.93875 -55.375 90.9375 C-56.2160611 93.74103701 -56.13534764 94.72206203 -54.83203125 97.3984375 C-53.29055562 99.66122121 -51.67254663 101.83319156 -50 104 C-48.8101694 106.3796612 -48.86650034 107.91485735 -48.875 110.5625 C-48.87113281 111.77099609 -48.87113281 111.77099609 -48.8671875 113.00390625 C-49 115 -49 115 -50 116 C-50.06565391 121.88259028 -48.49825909 126.70236059 -45.9765625 131.9453125 C-44.7336167 134.56047047 -43.87970814 137.24358117 -43 140 C-42.02069507 142.67481794 -41.01024399 145.33662947 -40 148 C-39.41734375 147.82726562 -38.8346875 147.65453125 -38.234375 147.4765625 C-36 147 -36 147 -32.25 147.375 C-27.42976168 147.45623997 -24.97642351 145.11133894 -21.6171875 141.8828125 C-19.7692713 139.73137384 -18.91454093 137.66741105 -18 135 C-15.875 133.6875 -15.875 133.6875 -14 133 C-14 130.36 -14 127.72 -14 125 C-11.94709452 123.97354726 -9.90024097 122.95439587 -7.8125 122 C-5.82798477 121.12855431 -5.82798477 121.12855431 -5 119 C-5.0982346 116.97678532 -5.19941306 114.95364211 -5.32006836 112.93164062 C-5.90310756 100.85872907 -5.90310756 100.85872907 -1.4375 95.5 C0.02715558 93.9858276 1.50648244 92.48571172 3 91 C7.35616193 85.54237507 10.8449374 81.13287948 11 74 C6.05 74.495 6.05 74.495 1 75 C0.4225 74.030625 -0.155 73.06125 -0.75 72.0625 C-3.197726 68.73087295 -3.37404917 68.84605519 -7 68 C-8.25 65.4375 -8.25 65.4375 -9 63 C-9.66 63 -10.32 63 -11 63 C-10.92007813 62.29101562 -10.84015625 61.58203125 -10.7578125 60.8515625 C-11.07925756 57.0668061 -12.56612901 55.35763406 -14.875 52.375 C-15.95394531 50.96347656 -15.95394531 50.96347656 -17.0546875 49.5234375 C-17.69664062 48.69070312 -18.33859375 47.85796875 -19 47 C-19.99 45.515 -19.99 45.515 -21 44 C-21.680625 44 -22.36125 44 -23.0625 44 C-26.7568939 44 -29.51070347 42.819958 -32.9140625 41.4609375 C-33.60242188 41.30882812 -34.29078125 41.15671875 -35 41 C-35.99 41.66 -36.98 42.32 -38 43 C-38 43.66 -38 44.32 -38 45 C-43.75 43.25 -43.75 43.25 -46 41 C-46.66 40.896875 -47.32 40.79375 -48 40.6875 C-48.66 40.460625 -49.32 40.23375 -50 40 C-51.25 37.4375 -51.25 37.4375 -52 35 C-57.13105774 34.79056907 -61.09752126 35.57382437 -66 37 Z M8 114 C8 114.66 8 115.32 8 116 C4 118 4 118 1.875 118.6875 C-1.14917937 120.80442556 -1.2516299 123.48841722 -2 127 C-2.36950465 129.32787927 -2.71352467 131.66045145 -3 134 C-2.01 134.33 -1.02 134.66 0 135 C3.14379334 133.42810333 4.10595391 130.34132971 5.625 127.3125 C5.94984375 126.69955078 6.2746875 126.08660156 6.609375 125.45507812 C8.62396889 121.46398141 9.36954757 118.45510127 9 114 C8.67 114 8.34 114 8 114 Z " fill="#1A5D1E" transform="translate(147,9)"/>
<path d="M0 0 C2.52477051 2.18212308 4.81012665 4.48382101 7 7 C4.27330625 9.87233318 1.73039255 11.55352126 -2 13 C-4.51408915 12.2381548 -6.04163261 10.9681633 -8.125 9.375 C-12.38052417 7.33974931 -16.36165212 7.42115856 -21 8 C-24.78365532 9.69403089 -24.78365532 9.69403089 -27 13 C-27.66 13 -28.32 13 -29 13 C-31.28171773 21.12861943 -32.17086121 27.23356879 -28 35 C-25.8392999 37.92330014 -24.36645931 39.70160507 -20.74609375 40.4921875 C-19.16429184 40.65976202 -17.57717637 40.78460346 -15.98828125 40.859375 C-14 41 -14 41 -12 42 C-11.505 41.01 -11.505 41.01 -11 40 C-10.21625 39.71125 -9.4325 39.4225 -8.625 39.125 C-5.68498901 37.86499529 -4.68536412 36.66110125 -3 34 C-4.299375 33.87625 -5.59875 33.7525 -6.9375 33.625 C-9.15234375 33.4140625 -9.15234375 33.4140625 -11 33 C-12 31 -12 31 -11 23 C-3.41 23 4.18 23 12 23 C11.89651182 32.7278889 10.90211089 38.90616381 4 46 C-3.26252505 52 -3.26252505 52 -8 52 C-8.495 52.99 -8.495 52.99 -9 54 C-18.79586075 54.35477967 -27.34257373 53.14528031 -34.85546875 46.3125 C-40.47543265 40.36899873 -43.96958322 33.15643162 -45 25 C-43.42062472 14.16578082 -39.82001971 6.77890192 -31.4921875 -0.265625 C-21.39226678 -7.29440995 -9.96261694 -6.61989678 0 0 Z " fill="#E3B80F" transform="translate(270,89)"/>
<path d="M0 0 C0.6909375 0.020625 1.381875 0.04125 2.09375 0.0625 C5.85516171 0.28706189 7.77857438 0.81462041 10.6875 3.25 C11.450625 4.1575 12.21375 5.065 13 6 C13.928125 6.86625 14.85625 7.7325 15.8125 8.625 C18 11 18 11 18 14 C16.76115681 14.72767003 15.50831659 15.43154815 14.25 16.125 C13.55390625 16.51945312 12.8578125 16.91390625 12.140625 17.3203125 C10 18 10 18 7.90234375 17.21875 C7.27457031 16.8165625 6.64679688 16.414375 6 16 C0.95799209 12.95134406 -3.21898983 12.08666267 -9 13 C-13.32002301 15.0377467 -16.08335272 17.58639608 -18.31640625 21.8671875 C-20.0033322 27.13039646 -19.8297241 33.77053047 -18 39 C-17.34 39.33 -16.68 39.66 -16 40 C-15.29875 40.825 -14.5975 41.65 -13.875 42.5 C-9.43555077 46.36039063 -5.49551609 46.14679506 0.1875 45.8125 C3.16470678 45.16763565 3.16470678 45.16763565 5.5 42.8125 C6.325 42.214375 7.15 41.61625 8 41 C11.64183261 41.74323115 14.73838397 43.24374521 18 45 C17.52794881 49.24846075 15.11122478 51.26819288 12 54 C11.34 54 10.68 54 10 54 C9.505 54.99 9.505 54.99 9 56 C1.44343565 59.5295064 -6.32756289 59.84105415 -14.2265625 57.27734375 C-21.2566661 54.14229755 -26.98945514 48.52495541 -30.22265625 41.53125 C-31.96137646 35.86948771 -32.41857558 29.87544681 -33 24 C-32.34 24 -31.68 24 -31 24 C-30.896875 22.989375 -30.79375 21.97875 -30.6875 20.9375 C-29.64626027 14.97403607 -28.26401194 10.68995757 -23.5 6.8125 C-16.30105572 1.87645916 -8.70202334 -0.7132806 0 0 Z " fill="#E3B810" transform="translate(371,84)"/>
<path d="M0 0 C2.82231635 1.86272879 4.58210602 3.07314291 6.125 6.0625 C4.96588961 9.53983117 4.44238459 9.77812011 1.3125 11.375 C0.62542969 11.74238281 -0.06164062 12.10976562 -0.76953125 12.48828125 C-2.875 13.0625 -2.875 13.0625 -4.99609375 12.26953125 C-6.40025523 11.36748157 -7.77202443 10.41464902 -9.125 9.4375 C-13.52885193 7.23557403 -17.47041252 7.3024786 -22.0625 8.75390625 C-25.54282835 10.28294757 -27.53300537 11.59915244 -29.8125 14.6875 C-31.96219295 21.51593644 -32.85501577 26.7986389 -29.8125 33.5 C-27.45518216 37.62530622 -25.60236774 39.76479121 -20.875 41.0625 C-15.41498165 41.8065506 -11.63835687 41.01124473 -6.875 38.0625 C-6.215 37.4025 -5.555 36.7425 -4.875 36.0625 C-0.81023764 36.36359351 2.71368696 39.02883261 6.125 41.0625 C3.68473303 46.59377181 -0.75962554 49.23108036 -5.875 52.0625 C-13.10913603 54.80648263 -19.40998333 54.73842449 -26.609375 52.09375 C-34.03159786 48.7153589 -39.34493496 43.41197967 -42.875 36.0625 C-45.14171481 29.01165899 -45.82644061 21.25584226 -43.875 14.0625 C-39.19436089 5.04841204 -32.89324449 -0.71526436 -23.38671875 -4.2109375 C-15.07816789 -6.61434412 -7.39539956 -3.93902335 0 0 Z " fill="#DAB725" transform="translate(329.875,88.9375)"/>
<path d="M0 0 C5.03088058 2.63406444 7.07043355 6.96483343 9.91796875 11.75390625 C11.1425086 13.74783854 12.3677786 15.74132258 13.59375 17.734375 C14.20041504 18.73259277 14.80708008 19.73081055 15.43212891 20.75927734 C18.08089354 25.0779935 20.83782545 29.32331016 23.60546875 33.56640625 C25.13171875 35.91765625 26.65796875 38.26890625 28.23046875 40.69140625 C28.56046875 27.49140625 28.89046875 14.29140625 29.23046875 0.69140625 C31.54046875 0.69140625 33.85046875 0.69140625 36.23046875 0.69140625 C38.5906092 3.0515467 37.72181349 8.71473055 37.85546875 11.87890625 C37.89978027 12.92578613 37.9440918 13.97266602 37.98974609 15.05126953 C38.30162026 24.07193376 38.15908069 33.04967615 37.85546875 42.06640625 C37.79093506 44.04483521 37.79093506 44.04483521 37.72509766 46.06323242 C37.36455319 55.42323736 37.36455319 55.42323736 36.23046875 57.69140625 C33.05859375 58.15625 33.05859375 58.15625 29.23046875 57.69140625 C26.92312551 55.56427502 25.5216868 52.9659448 23.98046875 50.25390625 C23.03971705 48.70142609 22.09828992 47.14935506 21.15625 45.59765625 C20.67881348 44.79199219 20.20137695 43.98632812 19.70947266 43.15625 C17.29163379 39.12678463 14.72756915 35.19420925 12.16796875 31.25390625 C11.70293945 30.52695557 11.23791016 29.80000488 10.75878906 29.05102539 C8.2606882 25.16335053 8.2606882 25.16335053 5.23046875 21.69140625 C4.53298292 20.37393301 3.86086918 19.04226432 3.23046875 17.69140625 C3.2054126 18.86759521 3.18035645 20.04378418 3.15454102 21.25561523 C3.06064069 25.60355247 2.96037827 29.95132341 2.8581543 34.29907227 C2.81473942 36.18379843 2.77306932 38.06856561 2.7331543 39.95336914 C2.67560982 42.65653874 2.61187071 45.35950061 2.546875 48.0625 C2.52180626 49.33437416 2.52180626 49.33437416 2.49623108 50.63194275 C2.34434046 56.57753454 2.34434046 56.57753454 1.23046875 57.69140625 C-1.07953125 57.69140625 -3.38953125 57.69140625 -5.76953125 57.69140625 C-5.76953125 38.88140625 -5.76953125 20.07140625 -5.76953125 0.69140625 C-2.76953125 -0.30859375 -2.76953125 -0.30859375 0 0 Z " fill="#0F1F21" transform="translate(512.76953125,84.30859375)"/>
<path d="M0 0 C0.87398438 -0.020625 1.74796875 -0.04125 2.6484375 -0.0625 C8.65382244 -0.09814027 14.04533462 0.59417312 19.5 3.25 C23.90524687 7.76537804 24.77364564 10.8856034 24.734375 16.9921875 C24.42523462 19.97023987 23.24207659 21.85464469 21.5 24.25 C21.5 24.91 21.5 25.57 21.5 26.25 C22.49 26.91 23.48 27.57 24.5 28.25 C27.80808291 34.00851469 28.63121268 39.67953968 27.5 46.25 C25.45561135 50.9660329 22.4783916 54.23945264 17.6875 56.1875 C13.1405382 57.38243535 8.48840864 57.72661148 3.8125 58.0625 C3.08764404 58.11591553 2.36278809 58.16933105 1.6159668 58.22436523 C-2.85939704 58.45082943 -6.395736 58.08462492 -10.5 56.25 C-11.76946834 53.71106333 -11.58919406 52.01372878 -11.53759766 49.17358398 C-11.52072906 48.11586288 -11.50386047 47.05814178 -11.48648071 45.96836853 C-11.4625827 44.82251785 -11.43868469 43.67666718 -11.4140625 42.49609375 C-11.39282318 41.32490494 -11.37158386 40.15371613 -11.34970093 38.94703674 C-11.30338501 36.46797894 -11.25445253 33.98896887 -11.203125 31.51000977 C-11.12525823 27.70013475 -11.05814617 23.89017581 -10.9921875 20.08007812 C-10.94595869 17.67707082 -10.89910494 15.27407543 -10.8515625 12.87109375 C-10.83171295 11.72321884 -10.8118634 10.57534393 -10.79141235 9.39268494 C-10.76823944 8.338116 -10.74506653 7.28354706 -10.72119141 6.19702148 C-10.70263092 5.2637352 -10.68407043 4.33044891 -10.66494751 3.36888123 C-10.26859633 -1.72256322 -3.97144482 0.02262932 0 0 Z M-2.5 7.25 C-2.5 12.53 -2.5 17.81 -2.5 23.25 C-0.458125 23.29125 1.58375 23.3325 3.6875 23.375 C4.83605469 23.39820312 5.98460937 23.42140625 7.16796875 23.4453125 C10.47316839 23.25157278 12.61361818 22.84949317 15.5 21.25 C17.14292768 17.46412318 17.81494529 15.30731633 16.625 11.3125 C16.25375 10.631875 15.8825 9.95125 15.5 9.25 C14.51 9.25 13.52 9.25 12.5 9.25 C12.5 8.59 12.5 7.93 12.5 7.25 C7.55 7.25 2.6 7.25 -2.5 7.25 Z M-2.5 29.25 C-2.5 36.18 -2.5 43.11 -2.5 50.25 C0.036875 50.311875 2.57375 50.37375 5.1875 50.4375 C6.37218872 50.47846802 6.37218872 50.47846802 7.58081055 50.52026367 C12.11011661 50.57352268 14.92501221 50.06133255 18.5 47.25 C20.82177479 43.55626737 20.70465074 40.29249873 20.05078125 36.1171875 C19.23456007 33.3501398 17.76321242 31.96455486 15.5 30.25 C12.31453711 28.65726856 8.86800652 29.14858167 5.375 29.1875 C1.476875 29.2184375 1.476875 29.2184375 -2.5 29.25 Z " fill="#101E20" transform="translate(424.5,84.75)"/>
<path d="M0 0 C2.64 0 5.28 0 8 0 C12.12653478 8.74865829 15.2602843 17.83461312 18.5 26.9375 C19.63306798 30.11412558 20.76884511 33.28976869 21.90625 36.46484375 C22.17518066 37.21881439 22.44411133 37.97278503 22.72119141 38.74960327 C24.48014824 43.65144602 26.36519075 48.47839007 28.45117188 53.25219727 C29 55 29 55 28 57 C25.69 57 23.38 57 21 57 C19.35 53.37 17.7 49.74 16 46 C7.75 45.67 -0.5 45.34 -9 45 C-8.67 46.32 -8.34 47.64 -8 49 C-8.66 49 -9.32 49 -10 49 C-10.309375 50.134375 -10.61875 51.26875 -10.9375 52.4375 C-12 56 -12 56 -13 57 C-15.33297433 57.04092937 -17.66705225 57.04241723 -20 57 C-18.90301833 51.30860098 -17.45946923 46.25432063 -15 41 C-15.66 40.67 -16.32 40.34 -17 40 C-16.01 40 -15.02 40 -14 40 C-13.78472656 38.82308594 -13.56945312 37.64617187 -13.34765625 36.43359375 C-11.78384184 29.39987343 -9.03489586 22.76313632 -6.4375 16.0625 C-5.9245779 14.72351873 -5.41220394 13.38432736 -4.90039062 12.04492188 C-1.21313001 2.42626002 -1.21313001 2.42626002 0 0 Z M4 12 C0.11558862 20.3981408 -3.75236243 29.00944971 -6 38 C0.6 38 7.2 38 14 38 C11.73924991 31.18497072 11.73924991 31.18497072 9.39453125 24.40234375 C9.13349609 23.66435547 8.87246094 22.92636719 8.60351562 22.16601562 C8.34248047 21.43060547 8.08144531 20.69519531 7.8125 19.9375 C7.53986328 19.16728516 7.26722656 18.39707031 6.98632812 17.60351562 C6.32495174 15.73541742 5.66258343 13.86767043 5 12 C4.67 12 4.34 12 4 12 Z " fill="#0F1E22" transform="translate(474,85)"/>
<path d="M0 0 C2.31 0 4.62 0 7 0 C7.33 7.92 7.66 15.84 8 24 C9.299375 22.576875 10.59875 21.15375 11.9375 19.6875 C12.66839844 18.88699219 13.39929688 18.08648437 14.15234375 17.26171875 C16.17951559 15.05360602 16.17951559 15.05360602 17 12 C18.6222454 10.29006566 20.29413425 8.62652316 22 7 C24.36807369 4.69958556 26.15764797 2.76352804 28 0 C30.1640625 -0.29296875 30.1640625 -0.29296875 32.625 -0.1875 C33.44226563 -0.16042969 34.25953125 -0.13335937 35.1015625 -0.10546875 C35.72804688 -0.07066406 36.35453125 -0.03585938 37 0 C37 0.99 37 1.98 37 3 C36.34 3 35.68 3 35 3 C34.72744385 3.59095459 34.4548877 4.18190918 34.17407227 4.79077148 C33.03057796 6.94246206 31.82847878 8.5328185 30.21484375 10.34765625 C29.41916992 11.25547852 29.41916992 11.25547852 28.60742188 12.18164062 C27.49047933 13.43967065 26.37329019 14.69748178 25.25585938 15.95507812 C24.72669922 16.55900391 24.19753906 17.16292969 23.65234375 17.78515625 C23.16757568 18.33051025 22.68280762 18.87586426 22.18334961 19.43774414 C20.78506185 21.11025005 20.78506185 21.11025005 20 24 C19.01 24.66 18.02 25.32 17 26 C18.22384397 29.48324822 19.42180188 31.43425694 22 34 C23.05372893 35.45591554 24.07317985 36.93707327 25.0625 38.4375 C25.56910156 39.19933594 26.07570313 39.96117187 26.59765625 40.74609375 C27.86719683 42.78655313 28.9677619 44.8318061 30 47 C30.66 47 31.32 47 32 47 C35 51.38461538 35 51.38461538 35 54 C35.66 54 36.32 54 37 54 C36.67 54.99 36.34 55.98 36 57 C32.9375 57.5 32.9375 57.5 29 57 C26.11822852 54.79224667 24.13960198 51.9087132 22 49 C21.54447754 48.38914551 21.08895508 47.77829102 20.61962891 47.14892578 C17.37261689 42.79466689 14.17385679 38.40781558 11 34 C8.98202695 35.66089283 8.08463956 36.57393468 7.56762695 39.17651367 C7.54144287 39.99869385 7.51525879 40.82087402 7.48828125 41.66796875 C7.43510742 43.00698242 7.43510742 43.00698242 7.38085938 44.37304688 C7.35830078 45.30181641 7.33574219 46.23058594 7.3125 47.1875 C7.27833984 48.12787109 7.24417969 49.06824219 7.20898438 50.03710938 C7.12651782 52.35795393 7.05736597 54.67842148 7 57 C4.69 57 2.38 57 0 57 C0 38.19 0 19.38 0 0 Z " fill="#112023" transform="translate(557,85)"/>
<path d="M0 0 C1.93359375 1.58203125 1.93359375 1.58203125 2.7109375 4.2578125 C2.78441406 5.02480469 2.85789062 5.79179688 2.93359375 6.58203125 C0.12109375 7.26953125 0.12109375 7.26953125 -3.06640625 7.58203125 C-4.69140625 6.20703125 -4.69140625 6.20703125 -6.06640625 4.58203125 C-9.11137129 3.56479735 -11.99566033 3.4183801 -15.19140625 3.39453125 C-16.06023437 3.38035156 -16.9290625 3.36617188 -17.82421875 3.3515625 C-20.26970351 3.3645952 -20.26970351 3.3645952 -22.06640625 5.58203125 C-22.70578125 5.64390625 -23.34515625 5.70578125 -24.00390625 5.76953125 C-26.48790725 6.47395015 -26.48790725 6.47395015 -27.62890625 9.95703125 C-28.34046875 11.75140625 -28.34046875 11.75140625 -29.06640625 13.58203125 C-29.58332031 14.0409375 -30.10023438 14.49984375 -30.6328125 14.97265625 C-33.18812935 17.84129533 -32.45806586 21.25547656 -32.37109375 24.91796875 C-32.00754282 28.09670891 -30.97490583 30.03736514 -29.06640625 32.58203125 C-29.06640625 33.57203125 -29.06640625 34.56203125 -29.06640625 35.58203125 C-28.40640625 35.58203125 -27.74640625 35.58203125 -27.06640625 35.58203125 C-26.40640625 36.90203125 -25.74640625 38.22203125 -25.06640625 39.58203125 C-23.74640625 39.58203125 -22.42640625 39.58203125 -21.06640625 39.58203125 C-20.62683594 40.08347656 -20.18726563 40.58492187 -19.734375 41.1015625 C-18.04690916 42.920372 -18.04690916 42.920372 -14.9296875 42.65625 C-13.75792969 42.52863281 -12.58617187 42.40101563 -11.37890625 42.26953125 C-10.19941406 42.14964844 -9.01992188 42.02976563 -7.8046875 41.90625 C-6.90105469 41.79925781 -5.99742187 41.69226563 -5.06640625 41.58203125 C-5.06640625 40.92203125 -5.06640625 40.26203125 -5.06640625 39.58203125 C-2.42640625 39.25203125 0.21359375 38.92203125 2.93359375 38.58203125 C3.26359375 39.57203125 3.59359375 40.56203125 3.93359375 41.58203125 C3.43859375 42.57203125 3.43859375 42.57203125 2.93359375 43.58203125 C2.27359375 43.58203125 1.61359375 43.58203125 0.93359375 43.58203125 C0.93359375 44.24203125 0.93359375 44.90203125 0.93359375 45.58203125 C-1.54140625 46.07703125 -1.54140625 46.07703125 -4.06640625 46.58203125 C-4.39640625 47.57203125 -4.72640625 48.56203125 -5.06640625 49.58203125 C-8.00535695 49.49515095 -10.94121914 49.38829358 -13.87890625 49.26953125 C-14.71228516 49.24697266 -15.54566406 49.22441406 -16.40429688 49.20117188 C-17.20673828 49.16572266 -18.00917969 49.13027344 -18.8359375 49.09375 C-19.94352417 49.05447388 -19.94352417 49.05447388 -21.07348633 49.0144043 C-23.56630797 48.4735753 -24.39269285 47.45650759 -26.06640625 45.58203125 C-26.85015625 45.14890625 -27.63390625 44.71578125 -28.44140625 44.26953125 C-32.85361148 41.4331136 -35.47297746 38.80280084 -36.82421875 33.74609375 C-37.32022461 31.0285405 -37.73943605 28.3246768 -38.06640625 25.58203125 C-38.39640625 25.58203125 -38.72640625 25.58203125 -39.06640625 25.58203125 C-38.6994266 19.88751949 -37.97002191 15.60751989 -35.06640625 10.58203125 C-34.65390625 9.59203125 -34.24140625 8.60203125 -33.81640625 7.58203125 C-30.87199288 2.53446547 -27.1397708 -0.55732686 -21.75390625 -2.79296875 C-13.40573528 -4.20791298 -7.67399962 -3.77115426 0 0 Z " fill="#E4B80F" transform="translate(327.06640625,90.41796875)"/>
<path d="M0 0 C-0.66 0.99 -1.32 1.98 -2 3 C-5.16015625 3.1875 -5.16015625 3.1875 -9.0625 3 C-16.93010497 2.79463582 -22.98235343 3.23917441 -28.9375 8.6875 C-29.618125 9.450625 -30.29875 10.21375 -31 11 C-31.66 11 -32.32 11 -33 11 C-33.12375 11.969375 -33.2475 12.93875 -33.375 13.9375 C-33.58125 14.948125 -33.7875 15.95875 -34 17 C-34.66 17.33 -35.32 17.66 -36 18 C-37.69174146 23.81856534 -39.17517796 29.89357773 -36.1875 35.4375 C-35.61322266 36.34822266 -35.61322266 36.34822266 -35.02734375 37.27734375 C-33.56257328 39.73347978 -33.28113226 42.18867743 -33 45 C-32.34 45 -31.68 45 -31 45 C-31 45.66 -31 46.32 -31 47 C-30.01 47 -29.02 47 -28 47 C-26.29220027 48.62449243 -24.62449243 50.29220027 -23 52 C-17.06448508 54.96775746 -6.43907263 53.57399553 0 52 C1.73026102 50.52109931 1.73026102 50.52109931 3 49 C3.99 49 4.98 49 6 49 C6 47.35 6 45.7 6 44 C3.03 44 0.06 44 -3 44 C-3.66 45.32 -4.32 46.64 -5 48 C-10.42806433 49.69871078 -15.82764469 49.31394843 -21 47 C-21 46.34 -21 45.68 -21 45 C-22.98 44.34 -24.96 43.68 -27 43 C-27 41.68 -27 40.36 -27 39 C-27.99 39 -28.98 39 -30 39 C-32.4012301 22.79169682 -32.4012301 22.79169682 -29 16 C-25.68041276 11.88517098 -22.18346567 8.5276241 -16.9609375 7.265625 C-14.28297461 7.03035177 -11.68585134 6.91967547 -9 7 C-8.505 7.99 -8.505 7.99 -8 9 C-7.34 9 -6.68 9 -6 9 C-5.505 10.485 -5.505 10.485 -5 12 C-5.79664063 11.95359375 -6.59328125 11.9071875 -7.4140625 11.859375 C-14.14299542 11.62290668 -14.14299542 11.62290668 -20.5 13.5625 C-24.38105932 17.34653284 -26.73378656 20.35286351 -27.27734375 25.7578125 C-27.35839069 31.97537747 -27.35839069 31.97537747 -26 38 C-25.34 38.33 -24.68 38.66 -24 39 C-23.29875 39.825 -22.5975 40.65 -21.875 41.5 C-17.43555077 45.36039063 -13.49551609 45.14679506 -7.8125 44.8125 C-4.83529322 44.16763565 -4.83529322 44.16763565 -2.5 41.8125 C-1.675 41.214375 -0.85 40.61625 0 40 C3.64183261 40.74323115 6.73838397 42.24374521 10 44 C9.52794881 48.24846075 7.11122478 50.26819288 4 53 C3.34 53 2.68 53 2 53 C1.505 53.99 1.505 53.99 1 55 C-6.55656435 58.5295064 -14.32756289 58.84105415 -22.2265625 56.27734375 C-29.2566661 53.14229755 -34.98945514 47.52495541 -38.22265625 40.53125 C-39.96137646 34.86948771 -40.41857558 28.87544681 -41 23 C-40.34 23 -39.68 23 -39 23 C-38.896875 21.989375 -38.79375 20.97875 -38.6875 19.9375 C-37.64626027 13.97403607 -36.26401194 9.68995757 -31.5 5.8125 C-21.23173061 -1.22805971 -11.91581308 -1.70225901 0 0 Z " fill="#D8B723" transform="translate(379,85)"/>
<path d="M0 0 C5.61 0 11.22 0 17 0 C15.74924696 8.75527125 13.07662014 16.01375974 5.9375 21.625 C2.97601468 23.57688805 0.60183706 24.81529041 -3 25 C-4.134375 25.061875 -5.26875 25.12375 -6.4375 25.1875 C-9.99379667 25.00032649 -12.69806067 24.28856169 -16 23 C-15.125 19.125 -15.125 19.125 -14 18 C-12.43695563 18.00588717 -10.87398625 18.0549782 -9.3125 18.125 C-4.75660214 18.19017737 -1.95943988 17.37566393 2 15 C2.66 15 3.32 15 4 15 C4 14.34 4 13.68 4 13 C4.66 13 5.32 13 6 13 C6.12375 12.443125 6.2475 11.88625 6.375 11.3125 C7.05976855 8.77885636 7.99133763 6.42078968 9 4 C6.03 4 3.06 4 0 4 C0 2.68 0 1.36 0 0 Z " fill="#E3B80E" transform="translate(262,115)"/>
<path d="M0 0 C7.59 0 15.18 0 23 0 C22.89651182 9.7278889 21.90211089 15.90616381 15 23 C7.73747495 29 7.73747495 29 3 29 C2.67 29.66 2.34 30.32 2 31 C-8.55808656 31.18451025 -8.55808656 31.18451025 -13 30 C-13 29.34 -13 28.68 -13 28 C-11.73542969 27.89042969 -10.47085938 27.78085938 -9.16796875 27.66796875 C-7.50774514 27.50851225 -5.84759233 27.34831749 -4.1875 27.1875 C-3.35412109 27.11724609 -2.52074219 27.04699219 -1.66210938 26.97460938 C-0.85966797 26.89404297 -0.05722656 26.81347656 0.76953125 26.73046875 C1.50792236 26.66239014 2.24631348 26.59431152 3.00708008 26.52416992 C5.43750434 25.88492934 6.34043998 24.84038087 8 23 C8.65742188 22.71511719 9.31484375 22.43023437 9.9921875 22.13671875 C12.79143392 20.55193138 13.63691244 18.63674995 15.125 15.8125 C15.62257813 14.89082031 16.12015625 13.96914062 16.6328125 13.01953125 C18.34870547 9.42585462 18.34870547 9.42585462 20 3 C14.39 3 8.78 3 3 3 C3 4.32 3 5.64 3 7 C5.97 7 8.94 7 12 7 C11.44271087 10.34373475 10.64826111 13.03312999 9 16 C8.34 16 7.68 16 7 16 C7 16.66 7 17.32 7 18 C4 20 4 20 1.3125 19.625 C0.1678125 19.315625 0.1678125 19.315625 -1 19 C0 17 0 17 2.375 16.125 C5.31501099 14.86499529 6.31463588 13.66110125 8 11 C6.700625 10.87625 5.40125 10.7525 4.0625 10.625 C1.84765625 10.4140625 1.84765625 10.4140625 0 10 C-1 8 -1 8 0 0 Z " fill="#DBB621" transform="translate(259,112)"/>
<path d="M0 0 C0 0.66 0 1.32 0 2 C-0.59167969 2.03738281 -1.18335938 2.07476562 -1.79296875 2.11328125 C-6.56797099 2.51054897 -10.1045504 2.95668 -14 6 C-14.33 6.66 -14.66 7.32 -15 8 C-15.66 8 -16.32 8 -17 8 C-19.28171773 16.12861943 -20.17086121 22.23356879 -16 30 C-13.84028936 32.92196145 -12.38284946 34.71959552 -8.74609375 35.45703125 C-7.16398644 35.60686164 -5.57665779 35.71099748 -3.98828125 35.76171875 C-2 36 -2 36 0 38 C-4.29 38 -8.58 38 -13 38 C-13 37.34 -13 36.68 -13 36 C-13.66 36 -14.32 36 -15 36 C-16.375 34.75 -16.375 34.75 -18 33 C-18.70125 32.34 -19.4025 31.68 -20.125 31 C-23.28558383 27.62871058 -23.13603469 24.54990954 -23.125 20.125 C-23.12757813 19.09632812 -23.13015625 18.06765625 -23.1328125 17.0078125 C-23.00995061 14.225352 -22.62944236 11.70760126 -22 9 C-21.34 9 -20.68 9 -20 9 C-19.7215625 7.88625 -19.7215625 7.88625 -19.4375 6.75 C-15.36206511 -1.04648414 -7.73357903 -0.5034518 0 0 Z " fill="#D9B621" transform="translate(258,94)"/>
<path d="M0 0 C0.33 0 0.66 0 1 0 C0.99476318 0.96413818 0.98952637 1.92827637 0.98413086 2.92163086 C0.96607882 6.48672564 0.95456726 10.05181636 0.94506836 13.61694336 C0.9400286 15.16219766 0.9331968 16.70744716 0.92456055 18.25268555 C0.91247924 20.46925029 0.90676827 22.68575218 0.90234375 24.90234375 C0.89718246 25.5971434 0.89202118 26.29194305 0.88670349 27.00779724 C0.88650723 28.6722933 0.93810871 30.33665499 1 32 C1.33 32.33 1.66 32.66 2 33 C2.08651611 34.41570123 2.10704904 35.835595 2.09765625 37.25390625 C2.09443359 38.10791016 2.09121094 38.96191406 2.08789062 39.84179688 C2.07951172 40.73962891 2.07113281 41.63746094 2.0625 42.5625 C2.05798828 43.46419922 2.05347656 44.36589844 2.04882812 45.29492188 C2.03700244 47.52997589 2.01906638 49.76499602 2 52 C6.62 52 11.24 52 16 52 C16.33 52.66 16.66 53.32 17 54 C14.20882755 54.24803781 11.41884926 54.47414334 8.625 54.6875 C7.43390625 54.79674805 7.43390625 54.79674805 6.21875 54.90820312 C3.9140625 55.07421875 3.9140625 55.07421875 0 55 C-2.13804963 51.79292555 -2.23753997 51.08638946 -2.15112305 47.42431641 C-2.13417892 46.49970612 -2.1172348 45.57509583 -2.09977722 44.62246704 C-2.07071793 43.62556854 -2.04165863 42.62867004 -2.01171875 41.6015625 C-1.98906448 40.5744516 -1.96641022 39.5473407 -1.94306946 38.48910522 C-1.8930912 36.31521088 -1.83812319 34.1414264 -1.77856445 31.96777344 C-1.68805444 28.64535213 -1.61319826 25.32286488 -1.54101562 22 C-1.49050763 19.88799853 -1.43910478 17.77601823 -1.38671875 15.6640625 C-1.36373215 14.67121246 -1.34074554 13.67836243 -1.31706238 12.65542603 C-1.29066177 11.72451141 -1.26426117 10.7935968 -1.23706055 9.83447266 C-1.21548386 9.01967438 -1.19390717 8.2048761 -1.17167664 7.36538696 C-0.98877947 4.84540179 -0.54418872 2.46513367 0 0 Z " fill="#0A1A18" transform="translate(415,87)"/>
<path d="M0 0 C3.62075208 2.40589447 6.53005669 5.3092663 9.375 8.578125 C6.64830625 11.45045818 4.10539255 13.13164626 0.375 14.578125 C-1.9375 13.953125 -1.9375 13.953125 -3.625 12.578125 C-3.955 11.588125 -4.285 10.598125 -4.625 9.578125 C-1.985 9.908125 0.655 10.238125 3.375 10.578125 C3.33544102 8.65503078 3.33544102 8.65503078 2.375 6.578125 C-0.60852894 4.79433085 -0.60852894 4.79433085 -3.625 3.578125 C-3.625 2.588125 -3.625 1.598125 -3.625 0.578125 C-6.54222548 0.49709096 -9.45719516 0.43761419 -12.375 0.390625 C-13.2 0.36548828 -14.025 0.34035156 -14.875 0.31445312 C-19.48897232 0.25863894 -22.11863961 0.2780211 -25.625 3.578125 C-28.375 3.765625 -28.375 3.765625 -30.625 3.578125 C-23.45977246 -5.86694767 -9.3504784 -5.08432263 0 0 Z " fill="#D6B52C" transform="translate(267.625,87.421875)"/>
<path d="M0 0 C0 3.50869379 -1.23449933 5.22455737 -2.9765625 8.18359375 C-7.25142877 15.77066557 -6.66777049 23.73536343 -4.62890625 31.93359375 C-3.06591074 37.06915042 -0.4571693 40.94676703 3 45 C2.67 45.66 2.34 46.32 2 47 C-4.93390162 40.03243866 -9.73165389 32.93537782 -11 23 C-9.68915951 14.00787925 -6.89609978 6.15723195 0 0 Z " fill="#CEB327" transform="translate(236,91)"/>
<path d="M0 0 C0.66 0 1.32 0 2 0 C2.84073764 13.48611813 3.0865047 26.87573266 2.625 40.375 C2.58189697 41.69387207 2.53879395 43.01274414 2.49438477 44.37158203 C2.13450194 53.73099611 2.13450194 53.73099611 1 56 C-1.31 56 -3.62 56 -6 56 C-6.33 55.34 -6.66 54.68 -7 54 C-4.69 54 -2.38 54 0 54 C0 36.18 0 18.36 0 0 Z " fill="#061417" transform="translate(548,86)"/>
<path d="M0 0 C0.66 0.33 1.32 0.66 2 1 C2 1.66 2 2.32 2 3 C2.66 3 3.32 3 4 3 C4 3.66 4 4.32 4 5 C8.62 4.67 13.24 4.34 18 4 C17.67 4.99 17.34 5.98 17 7 C13.7 7 10.4 7 7 7 C6.34 8.32 5.68 9.64 5 11 C7.97 11.495 7.97 11.495 11 12 C11 12.33 11 12.66 11 13 C9.02 13 7.04 13 5 13 C4.67 13.66 4.34 14.32 4 15 C-0.72763768 12.26847601 -2.92642516 10.06873851 -5 5 C-3.35 4.34 -1.7 3.68 0 3 C0 2.01 0 1.02 0 0 Z " fill="#E1B717" transform="translate(241,127)"/>
<path d="M0 0 C4.703153 1.3832803 8.10193812 4.08612262 11 8 C11 8.99 11 9.98 11 11 C9.76115681 11.72767003 8.50831659 12.43154815 7.25 13.125 C6.55390625 13.51945312 5.8578125 13.91390625 5.140625 14.3203125 C3 15 3 15 0.921875 14.3046875 C-1 13 -1 13 -4 10 C-1.03 10 1.94 10 5 10 C5 8.68 5 7.36 5 6 C3.37373596 4.61767557 1.7074998 3.28062485 0 2 C0 1.34 0 0.68 0 0 Z " fill="#D4B32F" transform="translate(378,87)"/>
<path d="M0 0 C0.33 0.66 0.66 1.32 1 2 C0.195625 2.12375 -0.60875 2.2475 -1.4375 2.375 C-2.283125 2.58125 -3.12875 2.7875 -4 3 C-4.33 3.66 -4.66 4.32 -5 5 C-15.55808656 5.18451025 -15.55808656 5.18451025 -20 4 C-20 3.34 -20 2.68 -20 2 C-13.4 1.34 -6.8 0.68 0 0 Z " fill="#D3B92F" transform="translate(266,138)"/>
<path d="M0 0 C7.26 0 14.52 0 22 0 C22 0.33 22 0.66 22 1 C15.07 1 8.14 1 1 1 C1.33 2.98 1.66 4.96 2 7 C3.98 7.66 5.96 8.32 8 9 C8 9.33 8 9.66 8 10 C5.36 10 2.72 10 0 10 C-1 8 -1 8 0 0 Z " fill="#C4AB2E" transform="translate(259,112)"/>
<path d="M0 0 C5.28 0 10.56 0 16 0 C16 0.66 16 1.32 16 2 C14.27185839 2.19672365 12.54240803 2.38196799 10.8125 2.5625 C9.84957031 2.66691406 8.88664062 2.77132812 7.89453125 2.87890625 C5.05766623 2.99758751 2.74576329 2.67765639 0 2 C0 1.34 0 0.68 0 0 Z " fill="#CCB93E" transform="translate(359,140)"/>
<path d="M0 0 C1.79244141 0.01740234 1.79244141 0.01740234 3.62109375 0.03515625 C5.41740234 0.04869141 5.41740234 0.04869141 7.25 0.0625 C8.17683594 0.07410156 9.10367187 0.08570313 10.05859375 0.09765625 C10.05859375 0.75765625 10.05859375 1.41765625 10.05859375 2.09765625 C6.37093183 3.27770807 2.90748858 3.30759597 -0.94140625 3.09765625 C-1.93140625 2.43765625 -2.92140625 1.77765625 -3.94140625 1.09765625 C-2.94140625 0.09765625 -2.94140625 0.09765625 0 0 Z " fill="#D2B548" transform="translate(310.94140625,139.90234375)"/>
<path d="M0 0 C1.32 0.66 2.64 1.32 4 2 C2.865625 2.268125 1.73125 2.53625 0.5625 2.8125 C-0.613125 3.204375 -1.78875 3.59625 -3 4 C-3.33 4.99 -3.66 5.98 -4 7 C-7.96 7 -11.92 7 -16 7 C-12 5 -12 5 -8.5625 4.625 C-4.59364913 3.92871037 -2.89704279 2.72146444 0 0 Z " fill="#CFB027" transform="translate(379,125)"/>
<path d="M0 0 C0 2.31 0 4.62 0 7 C-2 6 -2 6 -3 3 C-9.27 2.67 -15.54 2.34 -22 2 C-22 1.67 -22 1.34 -22 1 C-18.52085157 0.83295112 -15.04167833 0.66642482 -11.5625 0.5 C-10.56927734 0.45230469 -9.57605469 0.40460938 -8.55273438 0.35546875 C-7.60849609 0.31035156 -6.66425781 0.26523438 -5.69140625 0.21875 C-4.81685791 0.17685547 -3.94230957 0.13496094 -3.04125977 0.09179688 C-1 0 -1 0 0 0 Z " fill="#D6B939" transform="translate(282,112)"/>
<path d="M0 0 C0.33 0 0.66 0 1 0 C1 1.65 1 3.3 1 5 C0.34 5 -0.32 5 -1 5 C-1 5.66 -1 6.32 -1 7 C-4 9 -4 9 -6.6875 8.625 C-7.450625 8.41875 -8.21375 8.2125 -9 8 C-8 6 -8 6 -5.625 5.125 C-2.67288377 3.85980733 -1.74853896 2.62280844 0 0 Z " fill="#D3B424" transform="translate(267,123)"/>
<path d="M0 0 C0.99 0 1.98 0 3 0 C4.75 1.8125 4.75 1.8125 6 4 C5.67 4.99 5.34 5.98 5 7 C2.4375 8.1875 2.4375 8.1875 0 9 C0 6.03 0 3.06 0 0 Z " fill="#D2B731" transform="translate(330,91)"/>
<path d="M0 0 C5.95345745 2.09175532 5.95345745 2.09175532 8 5 C8.1875 7.6875 8.1875 7.6875 8 10 C7.01 10 6.02 10 5 10 C5 8.68 5 7.36 5 6 C3.37373596 4.61767557 1.7074998 3.28062485 0 2 C0 1.34 0 0.68 0 0 Z " fill="#D6B621" transform="translate(378,87)"/>
<path d="M0 0 C1.00109515 3.31070838 1.10356134 6.30084769 1.0625 9.75 C1.05347656 10.73484375 1.04445312 11.7196875 1.03515625 12.734375 C1.02355469 13.48203125 1.01195312 14.2296875 1 15 C0.01 14.34 -0.98 13.68 -2 13 C-2.40564287 8.05115699 -2.25552839 4.51105678 0 0 Z " fill="#C9AC25" transform="translate(238,106)"/>
<path d="M0 0 C0 3.44360632 -0.79591532 4.74795392 -2.5 7.6875 C-2.9640625 8.49574219 -3.428125 9.30398437 -3.90625 10.13671875 C-4.44765625 11.05904297 -4.44765625 11.05904297 -5 12 C-5.66 12 -6.32 12 -7 12 C-6.67566492 6.64847115 -3.50295176 3.71719957 0 0 Z " fill="#CFB42E" transform="translate(236,91)"/>
<path d="M0 0 C0.33 0.66 0.66 1.32 1 2 C1.66 2 2.32 2 3 2 C3 4.64 3 7.28 3 10 C2.01 10.33 1.02 10.66 0 11 C0 7.37 0 3.74 0 0 Z " fill="#DAB418" transform="translate(294,107)"/>
<path d="M0 0 C0.99 0 1.98 0 3 0 C3 0.66 3 1.32 3 2 C3.99 2 4.98 2 6 2 C6.33 3.98 6.66 5.96 7 8 C5.8274869 7.04882866 4.66212985 6.08882991 3.5 5.125 C2.8503125 4.59132812 2.200625 4.05765625 1.53125 3.5078125 C1.0259375 3.01023438 0.520625 2.51265625 0 2 C0 1.34 0 0.68 0 0 Z " fill="#DEBA2A" transform="translate(345,130)"/>
<path d="M0 0 C3.3 0 6.6 0 10 0 C10.33 0.99 10.66 1.98 11 3 C7.7 3 4.4 3 1 3 C0.67 2.01 0.34 1.02 0 0 Z " fill="#D3B32E" transform="translate(363,94)"/>
<path d="M0 0 C3.63 0.33 7.26 0.66 11 1 C11 1.66 11 2.32 11 3 C7.37 2.67 3.74 2.34 0 2 C0 1.34 0 0.68 0 0 Z " fill="#D1B750" transform="translate(246,140)"/>
<path d="M0 0 C8.57142857 -0.28571429 8.57142857 -0.28571429 12 2 C10.02 2 8.04 2 6 2 C5.67 2.66 5.34 3.32 5 4 C3.31503702 3.03114628 1.64821244 2.03013277 0 1 C0 0.67 0 0.34 0 0 Z " fill="#D7B32B" transform="translate(240,138)"/>
<path d="M0 0 C0.99 0.33 1.98 0.66 3 1 C2.67 1.99 2.34 2.98 2 4 C-0.31 4 -2.62 4 -5 4 C-5 3.34 -5 2.68 -5 2 C-3.35 2 -1.7 2 0 2 C0 1.34 0 0.68 0 0 Z " fill="#081719" transform="translate(500,138)"/>
<path d="M0 0 C0.33 0.66 0.66 1.32 1 2 C2.65 2 4.3 2 6 2 C6 2.66 6 3.32 6 4 C3.69 4 1.38 4 -1 4 C-0.67 2.68 -0.34 1.36 0 0 Z " fill="#061517" transform="translate(455,138)"/>
<path d="M0 0 C4.8 3.44615385 4.8 3.44615385 5.8125 6.25 C5.874375 6.8275 5.93625 7.405 6 8 C1.3125 4.38671875 1.3125 4.38671875 0 3 C0 2.01 0 1.02 0 0 Z " fill="#DABA2F" transform="translate(233,130)"/>
<path d="M0 0 C0.99 0 1.98 0 3 0 C3.33 1.65 3.66 3.3 4 5 C3.01 5 2.02 5 1 5 C0.67 3.35 0.34 1.7 0 0 Z " fill="#D9BA28" transform="translate(295,117)"/>
<path d="M0 0 C2.64 0 5.28 0 8 0 C8 0.66 8 1.32 8 2 C4.71303767 2.79953138 3.28976808 3.09658936 0 2 C0 1.34 0 0.68 0 0 Z " fill="#CEB02A" transform="translate(250,94)"/>
<path d="M0 0 C3 1 3 1 3 1 Z " fill="#D5B934" transform="translate(336,98)"/>
<path d="" fill="#101E1E" transform="translate(0,0)"/>
<path d="M0 0 C2 1 2 1 2 1 Z " fill="#BFAE31" transform="translate(299,142)"/>
<path d="M0 0 C2 1 2 1 2 1 Z " fill="#09191A" transform="translate(551,141)"/>
<path d="" fill="#687F1D" transform="translate(0,0)"/>
<path d="M0 0 C2 1 2 1 2 1 Z " fill="#18272B" transform="translate(566,137)"/>
<path d="M0 0 C2 1 2 1 2 1 Z " fill="#265F1D" transform="translate(202,134)"/>
<path d="M0 0 C2 1 2 1 2 1 Z " fill="#132226" transform="translate(482,133)"/>
<path d="M0 0 C2 1 2 1 2 1 Z " fill="#215427" transform="translate(134,129)"/>
<path d="M0 0 C2 1 2 1 2 1 Z " fill="#D5B222" transform="translate(280,126)"/>
<path d="" fill="#263124" transform="translate(0,0)"/>
<path d="M0 0 C2 1 2 1 2 1 Z " fill="#1A242A" transform="translate(552,103)"/>
<path d="" fill="#D4B624" transform="translate(0,0)"/>
<path d="M0 0 C2 1 2 1 2 1 Z " fill="#0F2123" transform="translate(491,96)"/>
<path d="" fill="#112321" transform="translate(0,0)"/>
<path d="" fill="#182327" transform="translate(0,0)"/>
<path d="" fill="#0E1E22" transform="translate(0,0)"/>
<path d="" fill="#111F28" transform="translate(0,0)"/>
<path d="" fill="#111C22" transform="translate(0,0)"/>
<path d="M0 0 C2 1 2 1 2 1 Z " fill="#303A26" transform="translate(433,82)"/>
<path d="M0 0 C2 1 2 1 2 1 Z " fill="#DAB614" transform="translate(353,82)"/>
<path d="M0 0 C2 1 2 1 2 1 Z " fill="#1A5C1E" transform="translate(69,55)"/>
<path d="" fill="#214E27" transform="translate(0,0)"/>
<path d="M0 0 C2 1 2 1 2 1 Z " fill="#1C5A21" transform="translate(139,3)"/>
<path d="" fill="#1C5B26" transform="translate(0,0)"/>
<path d="" fill="#1D5B1F" transform="translate(0,0)"/>
<path d="" fill="#1B5B21" transform="translate(0,0)"/>
<path d="" fill="#1E5B22" transform="translate(0,0)"/>
<path d="" fill="#205921" transform="translate(0,0)"/>
<path d="" fill="#23552B" transform="translate(0,0)"/>
<path d="" fill="#1D5B1D" transform="translate(0,0)"/>
<path d="" fill="#0D4A18" transform="translate(0,0)"/>
<path d="" fill="#0D4416" transform="translate(0,0)"/>
<path d="" fill="#1A5725" transform="translate(0,0)"/>
<path d="" fill="#224726" transform="translate(0,0)"/>
<path d="" fill="#1B5A25" transform="translate(0,0)"/>
<path d="" fill="#1D5D23" transform="translate(0,0)"/>
<path d="" fill="#1C571F" transform="translate(0,0)"/>
<path d="" fill="#1C581B" transform="translate(0,0)"/>
<path d="" fill="#1C581B" transform="translate(0,0)"/>
<path d="" fill="#1A591B" transform="translate(0,0)"/>
<path d="" fill="#265C1E" transform="translate(0,0)"/>
<path d="" fill="#235D1E" transform="translate(0,0)"/>
<path d="" fill="#1A5D20" transform="translate(0,0)"/>
<path d="" fill="#1E601E" transform="translate(0,0)"/>
<path d="" fill="#1E4922" transform="translate(0,0)"/>
<path d="" fill="#1B5B21" transform="translate(0,0)"/>
<path d="" fill="#16561E" transform="translate(0,0)"/>
<path d="" fill="#1A5A1E" transform="translate(0,0)"/>
<path d="" fill="#205921" transform="translate(0,0)"/>
<path d="" fill="#18561C" transform="translate(0,0)"/>
<path d="" fill="#1F5B22" transform="translate(0,0)"/>
<path d="" fill="#18561C" transform="translate(0,0)"/>
<path d="" fill="#1F5425" transform="translate(0,0)"/>
<path d="" fill="#18561C" transform="translate(0,0)"/>
<path d="" fill="#1A5A1E" transform="translate(0,0)"/>
<path d="" fill="#1F5A26" transform="translate(0,0)"/>
<path d="" fill="#255328" transform="translate(0,0)"/>
<path d="" fill="#0F1B1B" transform="translate(0,0)"/>
<path d="" fill="#091516" transform="translate(0,0)"/>
<path d="" fill="#121D1E" transform="translate(0,0)"/>
<path d="" fill="#131E1F" transform="translate(0,0)"/>
<path d="" fill="#121D1C" transform="translate(0,0)"/>
<path d="" fill="#928646" transform="translate(0,0)"/>
<path d="" fill="#C1B258" transform="translate(0,0)"/>
<path d="" fill="#C4AF4D" transform="translate(0,0)"/>
<path d="" fill="#CFB45B" transform="translate(0,0)"/>
<path d="" fill="#111F1F" transform="translate(0,0)"/>
<path d="" fill="#10201F" transform="translate(0,0)"/>
<path d="" fill="#CAB443" transform="translate(0,0)"/>
<path d="" fill="#D2B841" transform="translate(0,0)"/>
<path d="" fill="#63832D" transform="translate(0,0)"/>
<path d="" fill="#D0B41E" transform="translate(0,0)"/>
<path d="" fill="#13431A" transform="translate(0,0)"/>
<path d="" fill="#0E2023" transform="translate(0,0)"/>
<path d="" fill="#0E1E20" transform="translate(0,0)"/>
<path d="" fill="#0C1E1C" transform="translate(0,0)"/>
<path d="" fill="#09181A" transform="translate(0,0)"/>
<path d="" fill="#172628" transform="translate(0,0)"/>
<path d="" fill="#101F21" transform="translate(0,0)"/>
<path d="" fill="#C5B632" transform="translate(0,0)"/>
<path d="" fill="#19591F" transform="translate(0,0)"/>
<path d="" fill="#0E3614" transform="translate(0,0)"/>
<path d="" fill="#27552A" transform="translate(0,0)"/>
<path d="" fill="#122424" transform="translate(0,0)"/>
<path d="" fill="#0C1C1D" transform="translate(0,0)"/>
<path d="" fill="#C9B81C" transform="translate(0,0)"/>
<path d="" fill="#D8B82D" transform="translate(0,0)"/>
<path d="" fill="#112024" transform="translate(0,0)"/>
<path d="" fill="#0D1D21" transform="translate(0,0)"/>
<path d="" fill="#D3B432" transform="translate(0,0)"/>
<path d="" fill="#172429" transform="translate(0,0)"/>
<path d="" fill="#101F23" transform="translate(0,0)"/>
<path d="" fill="#333809" transform="translate(0,0)"/>
<path d="" fill="#162325" transform="translate(0,0)"/>
<path d="" fill="#16282B" transform="translate(0,0)"/>
<path d="" fill="#0B1C1F" transform="translate(0,0)"/>
<path d="" fill="#CDAE42" transform="translate(0,0)"/>
<path d="" fill="#D0B21F" transform="translate(0,0)"/>
<path d="" fill="#0A191B" transform="translate(0,0)"/>
<path d="" fill="#0E1E22" transform="translate(0,0)"/>
<path d="" fill="#CFB436" transform="translate(0,0)"/>
<path d="" fill="#244F28" transform="translate(0,0)"/>
<path d="" fill="#D6B82C" transform="translate(0,0)"/>
<path d="" fill="#1C5C22" transform="translate(0,0)"/>
<path d="" fill="#132525" transform="translate(0,0)"/>
<path d="" fill="#132226" transform="translate(0,0)"/>
<path d="" fill="#102225" transform="translate(0,0)"/>
<path d="" fill="#131F1B" transform="translate(0,0)"/>
<path d="" fill="#9EA72D" transform="translate(0,0)"/>
<path d="" fill="#516E1D" transform="translate(0,0)"/>
<path d="" fill="#1E5E28" transform="translate(0,0)"/>
<path d="" fill="#235529" transform="translate(0,0)"/>
<path d="" fill="#132226" transform="translate(0,0)"/>
<path d="" fill="#1B2415" transform="translate(0,0)"/>
<path d="" fill="#1E271B" transform="translate(0,0)"/>
<path d="" fill="#172213" transform="translate(0,0)"/>
<path d="" fill="#5D5D32" transform="translate(0,0)"/>
<path d="" fill="#CFB52C" transform="translate(0,0)"/>
<path d="" fill="#D4B227" transform="translate(0,0)"/>
<path d="" fill="#0E1E22" transform="translate(0,0)"/>
<path d="" fill="#142428" transform="translate(0,0)"/>
<path d="" fill="#0E1E20" transform="translate(0,0)"/>
<path d="" fill="#BA9E26" transform="translate(0,0)"/>
<path d="" fill="#CCB045" transform="translate(0,0)"/>
<path d="" fill="#205C21" transform="translate(0,0)"/>
<path d="" fill="#1E5E26" transform="translate(0,0)"/>
<path d="" fill="#185B20" transform="translate(0,0)"/>
<path d="" fill="#274D2A" transform="translate(0,0)"/>
<path d="" fill="#15221B" transform="translate(0,0)"/>
<path d="" fill="#CFB653" transform="translate(0,0)"/>
<path d="" fill="#1B5B21" transform="translate(0,0)"/>
<path d="" fill="#1B5B21" transform="translate(0,0)"/>
<path d="" fill="#D0AD19" transform="translate(0,0)"/>
<path d="" fill="#CFB216" transform="translate(0,0)"/>
<path d="" fill="#DAB635" transform="translate(0,0)"/>
<path d="" fill="#CEB01A" transform="translate(0,0)"/>
<path d="" fill="#B8A23C" transform="translate(0,0)"/>
<path d="" fill="#2C4E19" transform="translate(0,0)"/>
<path d="" fill="#1B5B21" transform="translate(0,0)"/>
<path d="" fill="#1C2C30" transform="translate(0,0)"/>
<path d="" fill="#908B2A" transform="translate(0,0)"/>
<path d="" fill="#1B5922" transform="translate(0,0)"/>
<path d="" fill="#225229" transform="translate(0,0)"/>
<path d="" fill="#112024" transform="translate(0,0)"/>
<path d="" fill="#C9B025" transform="translate(0,0)"/>
<path d="" fill="#C7AD24" transform="translate(0,0)"/>
<path d="" fill="#39612D" transform="translate(0,0)"/>
<path d="" fill="#1B5B21" transform="translate(0,0)"/>
<path d="" fill="#8F7A26" transform="translate(0,0)"/>
<path d="" fill="#7E6B1B" transform="translate(0,0)"/>
<path d="" fill="#938121" transform="translate(0,0)"/>
<path d="" fill="#D3B12F" transform="translate(0,0)"/>
<path d="" fill="#1F5225" transform="translate(0,0)"/>
<path d="" fill="#0D1D1C" transform="translate(0,0)"/>
<path d="" fill="#111E21" transform="translate(0,0)"/>
<path d="" fill="#D7B621" transform="translate(0,0)"/>
<path d="" fill="#112024" transform="translate(0,0)"/>
<path d="" fill="#101F23" transform="translate(0,0)"/>
<path d="" fill="#D5B623" transform="translate(0,0)"/>
<path d="" fill="#BAB34F" transform="translate(0,0)"/>
<path d="" fill="#8C8B1E" transform="translate(0,0)"/>
<path d="" fill="#1D5822" transform="translate(0,0)"/>
<path d="" fill="#1B5B21" transform="translate(0,0)"/>
<path d="" fill="#0E2021" transform="translate(0,0)"/>
<path d="" fill="#195821" transform="translate(0,0)"/>
<path d="" fill="#142025" transform="translate(0,0)"/>
<path d="" fill="#121C22" transform="translate(0,0)"/>
<path d="" fill="#101F21" transform="translate(0,0)"/>
<path d="" fill="#1A2015" transform="translate(0,0)"/>
<path d="" fill="#122125" transform="translate(0,0)"/>
<path d="" fill="#101F23" transform="translate(0,0)"/>
<path d="" fill="#141E1D" transform="translate(0,0)"/>
<path d="" fill="#10450A" transform="translate(0,0)"/>
<path d="" fill="#122125" transform="translate(0,0)"/>
<path d="" fill="#121D20" transform="translate(0,0)"/>
<path d="" fill="#D1B425" transform="translate(0,0)"/>
<path d="" fill="#1A5A1E" transform="translate(0,0)"/>
<path d="" fill="#122125" transform="translate(0,0)"/>
<path d="" fill="#CBAB2D" transform="translate(0,0)"/>
<path d="" fill="#A39F2A" transform="translate(0,0)"/>
<path d="" fill="#594D00" transform="translate(0,0)"/>
<path d="" fill="#CBAD2F" transform="translate(0,0)"/>
<path d="" fill="#122022" transform="translate(0,0)"/>
<path d="" fill="#122223" transform="translate(0,0)"/>
<path d="" fill="#D7B324" transform="translate(0,0)"/>
<path d="" fill="#185B20" transform="translate(0,0)"/>
<path d="" fill="#1A5922" transform="translate(0,0)"/>
<path d="" fill="#121D1E" transform="translate(0,0)"/>
<path d="" fill="#BC9E32" transform="translate(0,0)"/>
<path d="" fill="#17262A" transform="translate(0,0)"/>
<path d="" fill="#0E1F1E" transform="translate(0,0)"/>
<path d="" fill="#0B1A1E" transform="translate(0,0)"/>
<path d="" fill="#5C5216" transform="translate(0,0)"/>
<path d="" fill="#17262A" transform="translate(0,0)"/>
<path d="" fill="#17262C" transform="translate(0,0)"/>
<path d="" fill="#225B21" transform="translate(0,0)"/>
<path d="" fill="#19591B" transform="translate(0,0)"/>
<path d="" fill="#CDA628" transform="translate(0,0)"/>
<path d="" fill="#215421" transform="translate(0,0)"/>
<path d="" fill="#16581D" transform="translate(0,0)"/>
<path d="" fill="#1A5922" transform="translate(0,0)"/>
<path d="" fill="#18252A" transform="translate(0,0)"/>
<path d="" fill="#0D1D21" transform="translate(0,0)"/>
<path d="" fill="#D9B128" transform="translate(0,0)"/>
<path d="" fill="#0D1D1F" transform="translate(0,0)"/>
<path d="" fill="#998628" transform="translate(0,0)"/>
<path d="" fill="#C1AA2E" transform="translate(0,0)"/>
<path d="" fill="#101F23" transform="translate(0,0)"/>
<path d="" fill="#D0AF18" transform="translate(0,0)"/>
<path d="" fill="#D9B625" transform="translate(0,0)"/>
<path d="" fill="#898313" transform="translate(0,0)"/>
<path d="" fill="#C2AF32" transform="translate(0,0)"/>
<path d="" fill="#101D22" transform="translate(0,0)"/>
<path d="" fill="#CCB433" transform="translate(0,0)"/>
<path d="" fill="#A88C23" transform="translate(0,0)"/>
<path d="" fill="#D5B122" transform="translate(0,0)"/>
<path d="" fill="#C0A51A" transform="translate(0,0)"/>
<path d="" fill="#D1AD1F" transform="translate(0,0)"/>
<path d="" fill="#D7B730" transform="translate(0,0)"/>
<path d="" fill="#928C15" transform="translate(0,0)"/>
<path d="" fill="#111E23" transform="translate(0,0)"/>
<path d="" fill="#ECD443" transform="translate(0,0)"/>
<path d="" fill="#0D1D21" transform="translate(0,0)"/>
<path d="" fill="#D9B31E" transform="translate(0,0)"/>
<path d="" fill="#D3B41F" transform="translate(0,0)"/>
<path d="" fill="#111E21" transform="translate(0,0)"/>
<path d="" fill="#111E23" transform="translate(0,0)"/>
<path d="" fill="#CFB03D" transform="translate(0,0)"/>
<path d="" fill="#242C27" transform="translate(0,0)"/>
<path d="" fill="#484A22" transform="translate(0,0)"/>
<path d="" fill="#D9B623" transform="translate(0,0)"/>
<path d="" fill="#C8B943" transform="translate(0,0)"/>
<path d="" fill="#1D2422" transform="translate(0,0)"/>
<path d="" fill="#1C272A" transform="translate(0,0)"/>
<path d="" fill="#165E1F" transform="translate(0,0)"/>
<path d="" fill="#185B1E" transform="translate(0,0)"/>
<path d="" fill="#0E1E20" transform="translate(0,0)"/>
<path d="" fill="#0E1F1E" transform="translate(0,0)"/>
<path d="" fill="#2F5F26" transform="translate(0,0)"/>
<path d="" fill="#1A5723" transform="translate(0,0)"/>
<path d="" fill="#101C1A" transform="translate(0,0)"/>
<path d="" fill="#0E2023" transform="translate(0,0)"/>
<path d="" fill="#ADA03A" transform="translate(0,0)"/>
<path d="" fill="#D4B129" transform="translate(0,0)"/>
<path d="" fill="#6F7B23" transform="translate(0,0)"/>
<path d="" fill="#205727" transform="translate(0,0)"/>
<path d="" fill="#185B27" transform="translate(0,0)"/>
<path d="" fill="#101F23" transform="translate(0,0)"/>
<path d="" fill="#CDB02D" transform="translate(0,0)"/>
<path d="" fill="#164B19" transform="translate(0,0)"/>
<path d="" fill="#131E1F" transform="translate(0,0)"/>
<path d="" fill="#131E1F" transform="translate(0,0)"/>
<path d="" fill="#928336" transform="translate(0,0)"/>
<path d="" fill="#C8AD20" transform="translate(0,0)"/>
<path d="" fill="#748A2E" transform="translate(0,0)"/>
<path d="" fill="#607F30" transform="translate(0,0)"/>
<path d="" fill="#103B14" transform="translate(0,0)"/>
<path d="" fill="#112022" transform="translate(0,0)"/>
<path d="" fill="#0E2023" transform="translate(0,0)"/>
<path d="" fill="#101B1F" transform="translate(0,0)"/>
<path d="" fill="#B8AD38" transform="translate(0,0)"/>
<path d="" fill="#CBB339" transform="translate(0,0)"/>
<path d="" fill="#1B5B21" transform="translate(0,0)"/>
<path d="" fill="#1E5C20" transform="translate(0,0)"/>
<path d="" fill="#1B5B21" transform="translate(0,0)"/>
<path d="" fill="#0E1E22" transform="translate(0,0)"/>
<path d="" fill="#08151A" transform="translate(0,0)"/>
<path d="" fill="#0D1D1F" transform="translate(0,0)"/>
<path d="" fill="#988B16" transform="translate(0,0)"/>
<path d="" fill="#D8AE26" transform="translate(0,0)"/>
<path d="" fill="#D3B21E" transform="translate(0,0)"/>
<path d="" fill="#225227" transform="translate(0,0)"/>
<path d="" fill="#0F2026" transform="translate(0,0)"/>
<path d="" fill="#16251D" transform="translate(0,0)"/>
<path d="" fill="#2E392C" transform="translate(0,0)"/>
<path d="" fill="#2E392C" transform="translate(0,0)"/>
<path d="" fill="#3F430D" transform="translate(0,0)"/>
<path d="" fill="#D7B72C" transform="translate(0,0)"/>
<path d="" fill="#112024" transform="translate(0,0)"/>
<path d="" fill="#112024" transform="translate(0,0)"/>
<path d="" fill="#122223" transform="translate(0,0)"/>
<path d="" fill="#162124" transform="translate(0,0)"/>
<path d="" fill="#0E1E22" transform="translate(0,0)"/>
<path d="" fill="#605B26" transform="translate(0,0)"/>
<path d="" fill="#C7B326" transform="translate(0,0)"/>
<path d="" fill="#CBB11C" transform="translate(0,0)"/>
<path d="" fill="#87881F" transform="translate(0,0)"/>
<path d="" fill="#1D5820" transform="translate(0,0)"/>
<path d="" fill="#1F581E" transform="translate(0,0)"/>
<path d="" fill="#112026" transform="translate(0,0)"/>
<path d="" fill="#474912" transform="translate(0,0)"/>
<path d="" fill="#D7B621" transform="translate(0,0)"/>
<path d="" fill="#D2B728" transform="translate(0,0)"/>
<path d="" fill="#D3B62A" transform="translate(0,0)"/>
<path d="" fill="#CEB01A" transform="translate(0,0)"/>
<path d="" fill="#CEB527" transform="translate(0,0)"/>
<path d="" fill="#8F8F22" transform="translate(0,0)"/>
<path d="" fill="#0E2112" transform="translate(0,0)"/>
<path d="" fill="#929B2B" transform="translate(0,0)"/>
<path d="" fill="#306620" transform="translate(0,0)"/>
<path d="" fill="#215325" transform="translate(0,0)"/>
<path d="" fill="#19591F" transform="translate(0,0)"/>
<path d="" fill="#2F611C" transform="translate(0,0)"/>
<path d="" fill="#1A5A20" transform="translate(0,0)"/>
<path d="" fill="#2E621E" transform="translate(0,0)"/>
<path d="" fill="#2F6727" transform="translate(0,0)"/>
<path d="" fill="#14591F" transform="translate(0,0)"/>
<path d="" fill="#1A5721" transform="translate(0,0)"/>
<path d="" fill="#16591B" transform="translate(0,0)"/>
<path d="" fill="#1A5721" transform="translate(0,0)"/>
<path d="" fill="#1B5B21" transform="translate(0,0)"/>
<path d="" fill="#1F5C1C" transform="translate(0,0)"/>
<path d="" fill="#1B5B21" transform="translate(0,0)"/>
<path d="" fill="#26562A" transform="translate(0,0)"/>
<path d="" fill="#265626" transform="translate(0,0)"/>
<path d="" fill="#1F5C1C" transform="translate(0,0)"/>
<path d="" fill="#1D5820" transform="translate(0,0)"/>
<path d="" fill="#1A5A1E" transform="translate(0,0)"/>
<path d="" fill="#1D5927" transform="translate(0,0)"/>
<path d="" fill="#1A5A20" transform="translate(0,0)"/>
<path d="" fill="#295325" transform="translate(0,0)"/>
<path d="" fill="#24491D" transform="translate(0,0)"/>
<path d="" fill="#153017" transform="translate(0,0)"/>
<path d="" fill="#185B20" transform="translate(0,0)"/>
<path d="" fill="#1D5E21" transform="translate(0,0)"/>
<path d="" fill="#1B5B23" transform="translate(0,0)"/>
<path d="" fill="#205825" transform="translate(0,0)"/>
<path d="" fill="#1E3E1F" transform="translate(0,0)"/>
<path d="" fill="#163B1A" transform="translate(0,0)"/>
<path d="" fill="#1C5721" transform="translate(0,0)"/>
<path d="" fill="#245023" transform="translate(0,0)"/>
<path d="" fill="#0F350F" transform="translate(0,0)"/>
<path d="" fill="#215327" transform="translate(0,0)"/>
<path d="" fill="#1A5721" transform="translate(0,0)"/>
<path d="" fill="#1A5A1E" transform="translate(0,0)"/>
<path d="" fill="#185B1C" transform="translate(0,0)"/>
<path d="" fill="#1D4C18" transform="translate(0,0)"/>
<path d="" fill="#174014" transform="translate(0,0)"/>
</svg>
