<svg version="1.1" id="Layer_1" xmlns="http://www.w3.org/2000/svg" xmlns:xlink="http://www.w3.org/1999/xlink" x="0px" y="0px"
	 width="100%" viewBox="0 0 2000 1500" enable-background="new 0 0 2000 1500" xml:space="preserve">
<path fill="#23436A" opacity="1.000000" stroke="none" 
	d="
M1534.000000,1501.000000 
	C1022.666809,1501.000000 511.833649,1501.000000 1.000343,1501.000000 
	C1.000228,1001.000305 1.000228,501.000610 1.000114,1.000678 
	C667.666199,1.000452 1334.332397,1.000452 2000.998901,1.000226 
	C2000.999268,500.999359 2000.999268,1000.998718 2000.999634,1500.999023 
	C1845.500000,1501.000000 1690.000000,1501.000000 1534.000000,1501.000000 
M577.476929,981.096008 
	C580.710205,977.751587 584.257446,974.653748 587.115845,971.014893 
	C594.626038,961.454468 601.647339,951.507324 609.238892,942.014587 
	C613.579590,936.586731 613.477783,931.299438 611.160095,925.214539 
	C610.452271,923.355896 610.730164,919.952637 611.989441,918.716858 
	C617.398926,913.408325 623.072632,908.276245 629.177979,903.799622 
	C633.863525,900.364075 637.345032,896.509033 636.578857,890.653809 
	C635.637207,883.457336 634.895447,875.925171 632.144043,869.341919 
	C627.027771,857.100220 628.950562,846.358521 637.004333,836.718323 
	C642.303467,830.375305 648.419189,824.566345 654.836853,819.337524 
	C667.016174,809.414673 673.662659,795.825684 680.737732,782.446167 
	C681.270996,781.437683 681.525818,780.239258 681.711426,779.096924 
	C682.484802,774.338928 679.499146,771.589172 674.895386,773.023376 
	C672.375305,773.808533 670.123657,775.572327 667.582031,776.144897 
	C663.445801,777.076721 659.099182,778.171753 654.971436,777.790222 
	C648.585266,777.200012 647.145020,774.483459 645.349121,768.334717 
	C644.306213,764.763794 642.027039,760.307373 639.021851,758.791565 
	C630.265137,754.374512 627.625732,745.846802 623.378906,738.402649 
	C619.417114,731.458008 617.964050,723.494995 612.442261,716.937683 
	C607.101318,710.595154 603.976746,702.316345 600.297485,694.686035 
	C599.156921,692.320679 599.304077,689.303467 599.019043,686.568298 
	C598.849976,684.946472 599.556152,682.205383 598.883301,681.853760 
	C596.725464,680.726379 593.903870,679.556824 591.703186,680.045654 
	C580.792786,682.468933 570.647156,681.203125 561.391235,674.840759 
	C554.436035,670.059998 549.243713,671.530334 546.211426,679.463196 
	C544.114868,684.948059 542.548035,685.962036 537.343201,683.300659 
	C531.526001,680.326172 526.144653,676.499207 520.117615,672.760315 
	C549.376404,643.507019 578.307190,614.581604 607.456726,585.437500 
	C606.052795,584.123108 605.012146,583.148743 603.192078,581.444702 
	C601.905701,583.145264 600.954163,584.761047 599.671448,586.046570 
	C571.890320,613.889282 544.091614,641.714722 516.188660,669.435120 
	C515.097473,670.519165 512.202942,671.455872 511.435059,670.844849 
	C509.907227,669.628906 509.105408,667.350952 508.359039,665.377258 
	C508.064850,664.599365 508.755096,663.468506 508.938995,662.487488 
	C510.559235,653.846008 508.679688,651.671143 499.809448,652.005310 
	C498.320923,652.061401 496.826569,652.281372 495.360352,652.559692 
	C485.623901,654.407532 475.894348,656.291992 465.657928,658.261658 
	C465.657928,656.750427 465.657959,654.806091 465.657959,652.861694 
	C465.657837,611.363037 465.662628,569.864380 465.651306,528.365723 
	C465.649872,523.115967 465.610779,523.115967 460.629120,524.355469 
	C460.629120,526.241333 460.629089,528.219421 460.629089,530.197510 
	C460.629059,571.362854 460.629181,612.528137 460.628967,653.693481 
	C460.628906,662.973267 459.240997,664.091736 450.309845,661.933899 
	C449.522858,661.743774 448.780792,661.328369 448.048767,660.956726 
	C443.386902,658.589966 441.314209,659.332764 438.790497,663.711670 
	C437.667511,665.660156 436.202362,667.864441 434.317139,668.835510 
	C428.693573,671.731995 426.496216,676.726624 424.856323,682.264282 
	C424.369110,683.909546 423.829163,685.539185 423.171692,687.625793 
	C389.660675,654.107910 356.693481,621.133911 323.423462,587.857056 
	C322.010986,589.351746 320.961853,590.461975 319.051697,592.483276 
	C352.429413,625.849731 385.478699,658.887817 418.362885,691.760925 
	C416.533875,692.985779 413.726196,693.974060 412.342224,695.956360 
	C407.774384,702.499207 403.413391,709.232422 399.577393,716.224243 
	C396.973083,720.971130 395.382385,726.274170 393.026062,732.100708 
	C354.921143,732.100708 315.464844,732.100708 275.706543,732.100708 
	C275.706543,733.800171 275.706543,735.178223 275.706543,737.054688 
	C316.067932,737.054688 356.149994,737.054688 396.774994,737.054688 
	C396.623505,739.501160 396.694550,741.458984 396.351898,743.341492 
	C394.998627,750.776306 393.385742,758.166870 392.204620,765.626953 
	C392.000488,766.916260 393.078339,769.329834 394.148041,769.755066 
	C403.501770,773.473511 404.255951,783.703064 410.731354,790.043396 
	C383.947693,816.802612 357.591461,843.134827 331.042603,869.659424 
	C332.305115,870.866028 333.336029,871.851257 335.060272,873.499207 
	C361.446167,847.098877 387.637451,820.893188 413.918091,794.598206 
	C419.435669,800.101562 425.404053,805.964905 433.796356,803.857544 
	C445.955017,800.804382 458.957336,802.621460 470.609039,796.123718 
	C477.412048,792.329895 484.340576,796.317383 487.291931,803.642578 
	C487.585022,804.370117 488.184509,804.974243 488.614838,805.596680 
	C500.444305,800.905640 507.450470,806.669189 505.581573,819.349731 
	C505.339661,820.991089 505.084290,822.691650 504.450836,824.203674 
	C501.754242,830.640259 503.391388,835.730225 508.556549,840.252563 
	C510.615540,842.055298 512.414307,844.540710 513.428223,847.076538 
	C516.080322,853.709290 518.432983,860.480225 520.530212,867.311096 
	C522.581421,873.992249 523.287170,880.911926 519.345398,887.150024 
	C512.092468,898.628418 513.971680,909.593262 519.348267,921.241272 
	C522.923035,928.985901 524.538879,937.626282 527.146912,945.829041 
	C528.534485,950.193054 529.443237,954.945129 531.855408,958.693665 
	C535.720337,964.699951 538.960083,970.540222 539.043274,977.969055 
	C539.118958,984.723083 542.720581,987.922974 549.499207,987.978577 
	C559.132080,988.057617 568.373596,986.284729 577.476929,981.096008 
M1172.765015,801.499268 
	C1172.765015,809.108398 1172.765015,816.717529 1172.765015,825.492615 
	C1197.753540,824.593323 1222.072388,824.477783 1246.246704,822.548462 
	C1259.631104,821.480286 1272.084717,816.063416 1280.626343,804.523071 
	C1288.302612,794.151794 1289.391968,782.088074 1289.109741,769.812500 
	C1288.710083,752.424194 1279.475098,739.851807 1263.175659,733.883423 
	C1261.528442,733.280273 1259.917114,732.579285 1257.707153,731.689392 
	C1269.285278,725.620422 1275.273804,716.168518 1277.388184,704.264038 
	C1281.245728,682.543640 1274.704956,662.887024 1249.735107,655.608887 
	C1242.624512,653.536255 1235.082397,652.178162 1227.696289,651.968323 
	C1209.595215,651.454041 1191.469604,651.800293 1172.765259,651.800293 
	C1172.765259,701.318176 1172.765259,750.908752 1172.765015,801.499268 
M852.674805,817.178223 
	C858.264343,813.312317 864.144165,809.788208 869.299011,805.410400 
	C871.330444,803.684998 872.699463,800.069458 872.741333,797.290039 
	C873.032349,777.966736 872.900696,758.636963 872.884460,739.309265 
	C872.883057,737.693726 872.734070,736.078308 872.651367,734.418030 
	C851.924927,734.418030 831.562988,734.418030 811.357300,734.418030 
	C811.357300,742.565125 811.357300,750.301697 811.357300,758.615173 
	C823.113281,758.615173 834.519958,758.615173 846.462891,758.615173 
	C846.462891,768.655212 846.321838,778.117249 846.539795,787.571106 
	C846.615479,790.854004 845.592651,793.242554 842.700317,794.379944 
	C836.247559,796.917480 829.848267,799.952637 823.128723,801.387634 
	C793.977905,807.612732 767.758789,795.716248 754.998474,770.337463 
	C745.446411,751.339661 743.998352,731.348145 751.049805,711.230530 
	C757.541626,692.709473 770.583069,680.518494 789.570618,675.261047 
	C801.809448,671.872314 814.419678,671.871033 826.691345,674.647705 
	C835.115784,676.553955 843.134094,680.255432 851.754211,683.302979 
	C853.945251,678.648560 856.114319,673.040344 859.128418,667.930603 
	C861.915955,663.204895 860.549500,661.146057 856.034424,658.905945 
	C838.164734,650.039795 819.144165,647.668457 799.657349,649.191772 
	C773.528870,651.234375 751.564636,661.921631 735.571472,683.213928 
	C721.231445,702.305481 716.913696,724.235229 719.303101,747.495911 
	C721.763855,771.451233 731.249634,792.380310 750.664490,807.269714 
	C782.114197,831.388550 816.395813,832.248108 852.674805,817.178223 
M1585.294922,670.501709 
	C1585.294922,664.216431 1585.294922,657.931091 1585.294922,651.601929 
	C1576.200439,651.601929 1567.780029,651.601929 1559.260010,651.601929 
	C1559.260010,688.797424 1559.260010,725.666138 1559.260010,763.564148 
	C1557.335938,761.532776 1555.985474,760.172913 1554.707520,758.747864 
	C1523.340698,723.775085 1491.992798,688.785278 1460.579224,653.854614 
	C1459.346313,652.483765 1457.498657,651.665833 1455.273193,650.132507 
	C1455.273193,709.067444 1455.273193,766.622559 1455.273193,824.316040 
	C1464.008423,824.316040 1472.402466,824.316040 1481.151489,824.316040 
	C1481.151489,787.463135 1481.151489,750.943298 1481.151489,713.205994 
	C1482.972290,715.202332 1484.056396,716.381470 1485.130127,717.569946 
	C1493.058594,726.346741 1500.983398,735.126770 1508.912598,743.902954 
	C1532.252930,769.736755 1555.575439,795.586853 1578.984253,821.358337 
	C1580.379639,822.894653 1582.470703,823.799011 1585.294678,825.713928 
	C1585.294678,773.096802 1585.294678,722.299072 1585.294922,670.501709 
M1695.636108,814.904968 
	C1696.848633,816.698120 1697.932251,818.598877 1699.310913,820.253540 
	C1700.631348,821.838074 1702.212891,824.356018 1703.757935,824.414978 
	C1713.671997,824.793579 1723.607544,824.608276 1734.692871,824.608276 
	C1711.626831,791.704651 1689.218384,759.739014 1666.610107,727.488464 
	C1686.307617,702.304688 1705.916138,677.234619 1726.225708,651.268250 
	C1716.542847,651.268250 1708.239014,651.467712 1699.952148,651.180725 
	C1696.052002,651.045593 1693.568359,652.288879 1691.201050,655.414001 
	C1675.411377,676.257996 1659.432739,696.958801 1643.504150,717.697449 
	C1641.116821,720.805542 1638.670288,723.868042 1636.251221,726.951721 
	C1635.879028,726.852417 1635.506714,726.753113 1635.134521,726.653809 
	C1635.134521,701.668762 1635.134521,676.683777 1635.134521,651.592896 
	C1626.143799,651.592896 1617.896973,651.592896 1609.413818,651.592896 
	C1609.413818,709.298035 1609.413818,766.678345 1609.413818,824.234131 
	C1618.093140,824.234131 1626.456909,824.234131 1635.160156,824.234131 
	C1635.160156,821.994141 1635.160156,820.177002 1635.160278,818.359802 
	C1635.160400,801.862183 1635.152466,785.364624 1635.173340,768.867004 
	C1635.175171,767.382080 1634.806030,765.480591 1635.554932,764.481262 
	C1639.875610,758.715088 1644.480835,753.162170 1649.294922,747.156189 
	C1664.960449,770.082153 1680.079346,792.207825 1695.636108,814.904968 
M1301.967041,784.398376 
	C1295.684204,797.537415 1289.401367,810.676453 1282.715820,824.657776 
	C1291.846313,824.657776 1300.109497,824.531189 1308.365356,824.725098 
	C1311.331299,824.794800 1312.833130,823.758606 1313.960327,821.058044 
	C1317.672852,812.162964 1321.692017,803.396118 1325.436768,794.514038 
	C1326.519653,791.945496 1327.768188,790.636597 1330.877808,790.655090 
	C1354.859985,790.797729 1378.843750,790.778870 1402.826294,790.673279 
	C1405.610962,790.661011 1406.935547,791.640625 1407.987061,794.146912 
	C1411.779907,803.186951 1415.750488,812.154114 1419.797852,821.083557 
	C1420.409546,822.432983 1421.758057,824.416138 1422.812500,824.445740 
	C1432.187622,824.709351 1441.573120,824.599182 1451.489136,824.599182 
	C1450.726807,822.682068 1450.370972,821.600403 1449.881470,820.582947 
	C1423.287231,765.301270 1396.682007,710.024902 1370.076660,654.748596 
	C1369.788330,654.149597 1369.491211,653.554688 1369.186890,652.963623 
	C1367.846802,650.359741 1366.385498,650.247192 1364.921143,652.829590 
	C1364.184448,654.128845 1363.591919,655.510437 1362.945923,656.860291 
	C1342.710815,699.140869 1322.477173,741.422180 1301.967041,784.398376 
M890.955078,699.439941 
	C886.181824,710.239624 883.937683,721.611328 883.549927,733.349365 
	C882.738770,757.906799 888.930237,780.312012 905.580383,798.846680 
	C925.936157,821.506226 952.179565,828.472046 981.625427,825.398682 
	C992.947021,824.216980 1003.838562,821.119385 1013.677917,815.161499 
	C1015.058167,814.325745 1016.836792,811.955627 1016.514709,810.858276 
	C1014.520447,804.064026 1011.978088,797.430725 1009.445618,790.256165 
	C999.056335,796.480469 988.364441,800.164368 976.807312,801.669312 
	C951.000854,805.029785 928.092163,792.178406 918.081787,768.191895 
	C912.701721,755.300476 911.376343,741.822815 912.939941,728.037476 
	C915.447632,705.928162 925.051697,687.976196 945.797668,678.427795 
	C966.340332,668.972900 986.594116,671.012573 1005.403503,684.093994 
	C1006.016296,684.520203 1006.738525,684.788940 1007.609131,685.232788 
	C1011.458496,677.348022 1015.153625,669.779175 1019.086304,661.723694 
	C998.423401,648.451477 976.108093,646.088196 953.119263,650.363342 
	C924.397156,655.704590 903.504761,671.935852 890.955078,699.439941 
M1060.911987,767.500000 
	C1060.911987,728.935669 1060.911987,690.371338 1060.911987,651.578674 
	C1051.675049,651.578674 1043.109985,651.578674 1034.291504,651.578674 
	C1034.291504,709.254639 1034.291504,766.617371 1034.291504,824.211487 
	C1059.694214,824.211487 1084.871460,824.211487 1110.097900,824.211487 
	C1110.097900,816.260925 1110.097900,808.730530 1110.097900,800.775024 
	C1093.582153,800.775024 1077.493408,800.775024 1060.911987,800.775024 
	C1060.911987,789.730225 1060.911987,779.115112 1060.911987,767.500000 
M662.711487,889.143677 
	C654.216309,893.533203 650.284973,901.569641 650.587769,911.794556 
	C650.719299,916.234802 649.310242,920.742676 648.423767,925.184509 
	C647.653809,929.042603 646.001038,932.832214 645.887329,936.685974 
	C645.749878,941.343872 649.076477,944.448792 653.363098,945.552551 
	C657.580750,946.638550 659.572754,943.184082 661.209534,940.042419 
	C662.353333,937.847168 663.155884,935.468567 664.042297,933.145752 
	C667.705933,923.546326 671.370789,913.947144 674.977844,904.326416 
	C676.548584,900.136902 678.305481,895.976990 679.389893,891.656067 
	C680.611877,886.787354 678.769470,884.906799 673.933899,885.853577 
	C670.371155,886.551086 666.928894,887.863403 662.711487,889.143677 
M1463.860962,878.474365 
	C1464.952515,875.387085 1466.044189,872.299866 1467.291138,868.773315 
	C1466.000488,868.773315 1464.656494,868.511353 1464.515991,868.811951 
	C1461.571167,875.111084 1458.762451,881.473877 1455.648804,888.446960 
	C1453.048828,881.427002 1450.695679,875.073425 1447.954956,867.673523 
	C1445.154053,875.220642 1442.807983,881.542664 1440.044067,888.990112 
	C1437.480957,882.295532 1435.552368,876.845459 1433.258545,871.553650 
	C1432.673096,870.202942 1430.930176,869.353882 1429.718872,868.274414 
	C1429.331543,868.679688 1428.944214,869.085022 1428.556763,869.490356 
	C1432.166748,879.149902 1435.776733,888.809509 1439.822021,899.633667 
	C1442.640503,891.936951 1445.041138,885.381287 1447.862305,877.677612 
	C1450.651245,885.310791 1453.048096,891.870361 1455.866699,899.584778 
	C1458.688721,892.093445 1461.118652,885.642822 1463.860962,878.474365 
M1113.895630,888.204285 
	C1116.694580,873.610840 1106.788818,865.984619 1088.892090,869.252075 
	C1088.892090,878.136658 1088.883789,887.080872 1088.906128,896.024963 
	C1088.908081,896.830139 1089.107300,897.634827 1089.239624,898.625000 
	C1098.834595,898.766785 1108.732666,900.237671 1113.895630,888.204285 
M1237.856689,897.696106 
	C1244.864746,894.080688 1245.344849,886.045288 1239.681396,880.377502 
	C1239.963013,877.327820 1240.598633,873.673157 1239.089600,871.525085 
	C1235.657227,866.638916 1230.111084,869.168091 1225.023682,868.535889 
	C1225.023682,878.897827 1225.023682,888.624878 1225.023682,899.020996 
	C1229.258545,898.651672 1233.183350,898.309387 1237.856689,897.696106 
M1148.653809,887.591797 
	C1148.521729,884.799194 1148.389771,882.006592 1148.257812,879.213989 
	C1146.606079,879.379944 1144.956055,879.631409 1143.301514,879.666504 
	C1142.705566,879.679199 1142.116943,879.116577 1141.493774,878.910461 
	C1136.707275,877.326904 1132.021484,879.087524 1129.541260,883.377136 
	C1127.053589,887.680054 1127.780762,892.676025 1131.409180,896.114075 
	C1135.535522,900.024048 1140.028320,899.422302 1144.638062,896.851196 
	C1144.917358,904.965027 1139.496826,907.434631 1130.782837,903.571045 
	C1131.079102,905.260681 1131.608398,907.267273 1132.834595,907.880554 
	C1139.866699,911.397644 1147.778931,906.887695 1148.511841,899.008240 
	C1148.833740,895.547791 1148.622925,892.037781 1148.653809,887.591797 
M1366.984619,897.158936 
	C1366.295044,899.420593 1366.099609,903.235962 1364.820190,903.642822 
	C1361.439331,904.718018 1357.588745,904.316223 1353.321289,904.533081 
	C1353.444702,904.871338 1353.529297,906.656799 1354.441650,907.345764 
	C1359.561646,911.211609 1369.532837,908.335754 1370.397583,902.060120 
	C1371.457886,894.366455 1370.650513,886.415405 1370.650513,879.499939 
	C1367.728149,879.151489 1365.426880,878.796631 1363.112183,878.628540 
	C1361.497559,878.511292 1359.774170,878.319336 1358.255371,878.733093 
	C1352.444824,880.315918 1349.370972,886.519287 1351.415649,892.149902 
	C1353.600830,898.167175 1359.296509,900.156799 1366.984619,897.158936 
M856.817505,879.783508 
	C856.517822,875.545105 856.218140,871.306702 855.838623,865.938721 
	C854.368713,867.139038 852.715637,867.852600 852.701538,868.597229 
	C852.525208,877.901123 852.540588,887.210205 852.674927,896.515503 
	C852.685486,897.250305 853.945312,897.967102 854.624512,898.692261 
	C855.162415,898.001038 856.110962,897.340088 856.164673,896.613159 
	C856.360229,893.967834 856.209534,891.299133 856.277100,888.641541 
	C856.369812,884.994385 857.332336,881.837280 861.794189,881.940979 
	C865.958801,882.037720 866.830566,885.109070 866.915771,888.519653 
	C866.997864,891.807129 866.933533,895.098145 866.933533,898.387634 
	C867.445923,898.647339 867.958374,898.907104 868.470764,899.166809 
	C869.235413,898.057556 870.523560,897.008606 870.659851,895.826904 
	C870.981201,893.039246 870.893921,890.179749 870.721802,887.364624 
	C870.238525,879.462036 864.995972,876.443298 856.817505,879.783508 
M1537.014648,892.344849 
	C1539.013306,887.566895 1543.128418,890.469666 1546.212769,890.116211 
	C1547.294312,889.992249 1549.130859,892.234802 1549.828613,893.760071 
	C1552.073242,898.666199 1551.930420,898.731567 1555.797729,897.929138 
	C1551.745117,888.051758 1547.713501,878.225342 1543.248657,867.343445 
	C1538.780396,878.293457 1534.751343,888.166870 1530.577637,898.395142 
	C1535.939331,899.492126 1535.210815,895.104187 1537.014648,892.344849 
M1297.442871,886.471313 
	C1297.445801,889.636841 1297.294678,892.814514 1297.543213,895.960632 
	C1297.620239,896.934998 1298.783447,897.823486 1299.449341,898.751221 
	C1300.048706,897.778687 1301.042480,896.853577 1301.166382,895.823914 
	C1301.431763,893.618347 1301.247681,891.358704 1301.247681,888.751587 
	C1306.748535,891.306946 1307.284668,899.288452 1315.248901,898.618896 
	C1311.940063,894.500671 1309.082520,890.944336 1306.205200,887.363159 
	C1308.486084,884.447388 1310.579834,881.770813 1313.013306,878.659912 
	C1306.301636,877.573975 1306.052979,884.835754 1301.235596,886.153992 
	C1301.235596,879.615112 1301.235596,873.334900 1301.235596,867.054688 
	C1300.705078,866.801270 1300.174683,866.547791 1299.644165,866.294373 
	C1298.910889,867.524902 1297.603882,868.728577 1297.544678,869.990723 
	C1297.303223,875.144287 1297.443237,880.315735 1297.442871,886.471313 
M1252.187988,897.552429 
	C1255.357422,897.611633 1258.526978,897.673035 1261.696411,897.728577 
	C1262.481567,897.742371 1263.510010,897.415039 1264.011963,897.793823 
	C1266.722534,899.839844 1267.498901,898.509460 1267.542480,895.898743 
	C1267.603394,892.244507 1267.563232,888.588501 1267.563477,884.933289 
	C1267.563599,880.072388 1267.562378,880.091858 1263.078125,880.090393 
	C1262.635742,880.090210 1262.214478,879.601807 1261.748047,879.445984 
	C1255.579956,877.385376 1251.122070,878.727234 1248.432373,883.432800 
	C1245.761475,888.105591 1246.784546,892.560425 1252.187988,897.552429 
M1638.136597,896.638184 
	C1638.136597,890.638611 1638.136597,884.639099 1638.136597,878.917236 
	C1635.196411,878.917236 1633.052368,879.346863 1631.163330,878.835083 
	C1625.928955,877.416809 1621.044922,879.404602 1618.804688,884.283691 
	C1616.595093,889.096130 1618.242676,896.016418 1623.162964,897.348938 
	C1627.810059,898.607544 1633.088623,897.535278 1638.136597,896.638184 
M1185.141846,878.474304 
	C1178.642456,881.058350 1175.859131,885.893005 1177.642334,891.500366 
	C1179.288696,896.677429 1184.292603,899.862549 1189.116211,898.722595 
	C1191.241455,898.220276 1193.309204,896.047607 1195.447632,898.668701 
	C1196.205078,897.855896 1197.584839,897.067810 1197.618164,896.226257 
	C1197.822021,891.095459 1197.801270,885.949951 1197.633911,880.816528 
	C1197.608154,880.026794 1196.437500,879.274414 1195.796265,878.504822 
	C1192.428345,881.339783 1189.226562,877.262268 1185.141846,878.474304 
M892.995850,895.805542 
	C892.744385,894.921753 892.492859,894.037964 892.221436,893.084229 
	C885.262024,896.806152 881.526794,895.820312 879.397949,889.614136 
	C884.606934,889.614136 889.698853,889.614136 894.870239,889.614136 
	C895.866516,884.712524 893.866882,881.527161 890.101440,879.403381 
	C886.047546,877.116821 882.079224,877.694092 878.562866,880.693420 
	C874.421204,884.226074 873.815552,890.230225 877.043518,894.612427 
	C880.756897,899.653503 886.739990,900.374573 892.995850,895.805542 
M1016.513916,889.769165 
	C1019.250366,889.769165 1021.986816,889.769165 1024.698364,889.769165 
	C1024.664795,883.292297 1021.994202,879.577454 1017.051514,878.336426 
	C1012.899536,877.293945 1008.215332,879.346558 1005.988098,883.184509 
	C1003.663208,887.190735 1004.446350,892.828979 1007.770935,896.019531 
	C1011.059631,899.175659 1017.126099,900.169067 1020.663879,897.704834 
	C1021.714539,896.973083 1021.884399,894.976807 1022.457947,893.559937 
	C1014.902466,896.775085 1011.294128,895.900085 1009.085938,889.769165 
	C1011.353943,889.769165 1013.463013,889.769165 1016.513916,889.769165 
M1468.530029,882.118286 
	C1465.703857,887.415222 1465.800537,891.979980 1469.107178,895.434692 
	C1472.534058,899.015259 1476.684570,899.881836 1481.427612,898.268250 
	C1484.229248,897.315002 1485.146851,895.851318 1483.507935,893.180054 
	C1476.494019,896.718140 1472.444458,895.651855 1471.256592,889.532593 
	C1476.422485,889.532593 1481.493042,889.532593 1486.726074,889.532593 
	C1487.008423,884.337402 1484.941772,881.008667 1480.822144,879.059814 
	C1476.355225,876.946716 1472.420532,878.197815 1468.530029,882.118286 
M969.403625,896.021118 
	C971.588623,897.015076 973.689087,898.369202 975.981140,898.906616 
	C978.529297,899.504089 981.120117,895.582825 983.870605,898.726379 
	C984.474121,897.906128 985.573608,897.101562 985.599976,896.263123 
	C985.762085,891.111145 985.809998,885.945374 985.565552,880.799927 
	C985.520752,879.857117 983.959290,878.986389 983.097900,878.082397 
	C982.669739,878.331665 982.241577,878.580933 981.813416,878.830200 
	C981.813416,882.280151 981.919983,885.734375 981.782776,889.178833 
	C981.651306,892.480408 980.408081,895.126648 976.564026,895.187744 
	C972.651855,895.250000 971.459351,892.474976 971.253906,889.261902 
	C971.033386,885.814697 971.204102,882.342468 971.204102,877.547668 
	C969.308716,878.869629 967.471863,879.594238 967.506470,880.214478 
	C967.789490,885.282349 968.421570,890.330750 969.403625,896.021118 
M1058.046875,893.175964 
	C1060.305298,886.189270 1058.007080,880.799194 1051.871460,878.693176 
	C1046.464844,876.837280 1040.626465,879.714111 1038.625854,885.219666 
	C1036.943359,889.850342 1038.929688,895.068115 1043.347534,897.622437 
	C1048.253052,900.458679 1053.215942,899.165527 1058.046875,893.175964 
M1414.914429,883.882874 
	C1413.170654,879.723938 1410.189819,877.521912 1405.572632,878.334412 
	C1403.466919,878.704895 1401.502563,881.191467 1399.308838,878.542725 
	C1398.581421,879.370789 1397.259277,880.174805 1397.224731,881.030823 
	C1397.024048,885.998108 1396.987549,890.984619 1397.233398,895.947815 
	C1397.287964,897.049805 1398.698975,898.084534 1399.485352,899.150208 
	C1400.001587,898.890137 1400.517700,898.630005 1401.033813,898.369934 
	C1401.033813,894.757202 1400.956787,891.142395 1401.056763,887.532410 
	C1401.145386,884.325928 1402.606323,882.130798 1406.077393,881.926758 
	C1409.712158,881.712891 1411.129883,884.046509 1411.403809,887.153259 
	C1411.664917,890.117126 1411.378418,893.131409 1411.677612,896.088562 
	C1411.771729,897.018188 1412.981445,897.834839 1413.680420,898.703247 
	C1414.211182,897.839050 1415.175171,896.985962 1415.197632,896.108765 
	C1415.295166,892.302368 1415.118042,888.488892 1414.914429,883.882874 
M1281.934326,878.313538 
	C1279.983032,878.526978 1278.176758,881.816345 1276.063354,878.590210 
	C1275.291016,879.343140 1273.880005,880.071350 1273.849854,880.852905 
	C1273.651489,885.996765 1273.671875,891.154419 1273.833252,896.301025 
	C1273.859009,897.120605 1274.953369,897.906677 1275.553589,898.708191 
	C1276.174316,897.918396 1277.254761,897.170105 1277.330688,896.331055 
	C1277.569336,893.693176 1277.371826,891.019287 1277.451904,888.362671 
	C1277.555786,884.915771 1278.485840,881.930786 1282.689697,881.928162 
	C1286.851929,881.925537 1287.902222,884.822754 1287.969482,888.310120 
	C1288.035278,891.723999 1287.983765,895.140076 1287.983765,898.687561 
	C1292.317505,897.803650 1292.356079,897.669739 1291.863037,887.629700 
	C1291.559448,881.449829 1289.022827,878.821655 1281.934326,878.313538 
M1342.701416,892.300903 
	C1342.701904,893.296021 1342.479980,894.359009 1342.757812,895.269531 
	C1343.127930,896.481506 1343.886963,897.574829 1344.478882,898.718994 
	C1345.123901,897.624268 1346.267090,896.553528 1346.321167,895.430359 
	C1346.487915,891.964111 1346.512329,888.443848 1346.083984,885.007935 
	C1345.524048,880.517456 1341.398682,877.577026 1337.251343,878.154602 
	C1334.914917,878.479980 1332.695435,881.507324 1330.188232,878.517578 
	C1329.529663,879.264648 1328.326050,879.993774 1328.300659,880.761780 
	C1328.131470,885.897583 1328.072632,891.048828 1328.332886,896.177063 
	C1328.384766,897.198303 1329.969116,898.141724 1330.846802,899.121033 
	C1331.248047,898.795776 1331.649414,898.470459 1332.050781,898.145203 
	C1332.050781,895.843872 1332.048828,893.542480 1332.051147,891.241150 
	C1332.058228,884.325378 1333.467041,881.882690 1337.434326,881.903076 
	C1341.321533,881.923035 1342.642822,884.304443 1342.701416,892.300903 
M946.909546,886.596313 
	C946.909363,878.953613 946.909363,878.953613 942.974915,878.982666 
	C942.974915,882.581482 943.052307,886.200745 942.952087,889.815125 
	C942.860413,893.118958 941.172668,895.147522 937.738464,895.220703 
	C934.442200,895.291016 932.927063,893.211426 932.694092,890.230103 
	C932.461853,887.257141 932.756714,884.235229 932.410522,881.282837 
	C932.279480,880.164917 931.002930,879.181274 930.248474,878.136414 
	C929.804138,878.411499 929.359802,878.686523 928.915466,878.961609 
	C928.915466,883.256958 928.605591,887.580505 928.992737,891.840698 
	C929.494812,897.366333 934.803406,900.299988 939.957764,898.260864 
	C940.852234,897.906982 942.131592,896.830688 942.501465,897.098572 
	C948.613647,901.523926 946.552124,895.860962 946.857117,893.523804 
	C947.112915,891.564026 946.909546,889.544312 946.909546,886.596313 
M925.659912,871.591064 
	C924.988770,870.613098 924.370850,868.838196 923.637756,868.789185 
	C919.528931,868.514893 915.392212,868.657104 911.214966,868.657104 
	C911.214966,878.863953 911.214966,888.611694 911.214966,898.503784 
	C912.268555,898.503784 913.737854,898.588257 913.749817,898.491699 
	C914.421997,893.080872 914.972534,887.654846 915.563171,881.960632 
	C917.861572,881.960632 920.184631,882.114685 922.467834,881.880249 
	C923.307861,881.793884 924.053711,880.790100 924.842590,880.204834 
	C924.092651,879.548279 923.393005,878.410400 922.583191,878.325684 
	C920.173401,878.073425 917.720337,878.235229 915.223511,878.235229 
	C915.223511,875.913818 915.223511,874.183228 915.223511,871.979858 
	C918.627747,871.979858 921.753662,871.979858 925.659912,871.591064 
M1569.937012,870.167664 
	C1571.780396,867.423279 1571.732910,867.081848 1569.407349,866.360596 
	C1565.653687,865.196533 1561.555664,867.858765 1561.066406,871.957886 
	C1560.833374,873.909973 1561.026367,875.912842 1561.026367,877.215942 
	C1559.095703,878.447510 1557.723511,879.322815 1556.351318,880.198120 
	C1557.753052,881.023010 1559.154663,881.847900 1561.193481,883.047791 
	C1561.193481,887.824768 1561.193481,893.225037 1561.193481,898.840820 
	C1562.512695,898.635925 1563.988892,898.577393 1564.007935,898.378723 
	C1564.525024,893.004761 1564.892700,887.616333 1565.256470,882.629211 
	C1566.794312,881.844360 1568.153076,881.150940 1569.511841,880.457397 
	C1568.136963,879.402283 1566.762207,878.347229 1564.977173,876.977478 
	C1566.122559,874.905212 1561.550659,869.143982 1569.937012,870.167664 
M1066.356567,869.080383 
	C1065.798584,871.980164 1065.240723,874.880005 1064.779053,877.279541 
	C1063.347656,878.436646 1062.133789,879.417908 1060.919922,880.399048 
	C1062.190186,881.137146 1063.460449,881.875183 1065.114502,882.836304 
	C1065.114502,886.916443 1064.939453,891.405334 1065.237427,895.862549 
	C1065.312012,896.980469 1066.906128,897.996704 1067.801880,899.059692 
	C1068.227783,898.729004 1068.653809,898.398315 1069.079712,898.067627 
	C1069.079712,892.780945 1069.079712,887.494202 1069.079712,882.819580 
	C1071.029907,881.797668 1072.474854,881.040527 1073.919922,880.283325 
	C1072.470703,879.329224 1071.021606,878.375122 1069.264404,877.218201 
	C1068.736694,871.457764 1068.746216,871.495483 1074.388916,870.063110 
	C1074.984497,869.911865 1075.729492,869.016296 1075.774292,868.418762 
	C1075.815552,867.867981 1074.912842,866.699158 1074.589111,866.754639 
	C1071.991699,867.199463 1069.432983,867.870117 1066.356567,869.080383 
M836.024536,887.468018 
	C836.025513,890.297180 835.766479,893.162720 836.154297,895.937866 
	C836.311646,897.063416 837.878052,897.992065 838.803223,899.010315 
	C839.272095,898.671936 839.740967,898.333618 840.209839,897.995239 
	C840.209839,889.419861 840.209839,880.844543 840.209839,872.000000 
	C842.985413,872.000000 845.279297,872.000000 847.573181,872.000000 
	C847.784912,871.463501 847.996582,870.926941 848.208313,870.390442 
	C846.826294,869.806396 845.458862,868.753723 844.060059,868.710266 
	C828.767456,868.235413 828.766113,868.278320 828.371826,871.881592 
	C830.802368,872.018982 833.223633,872.155823 836.024536,872.314148 
	C836.024536,877.227173 836.024536,881.854797 836.024536,887.468018 
M1611.175415,882.862610 
	C1611.994141,883.514771 1612.812866,884.166992 1613.709229,884.880981 
	C1615.093262,880.860413 1614.975830,880.463013 1612.232300,879.143982 
	C1607.706055,876.967773 1602.414551,878.210510 1599.236328,882.195923 
	C1596.259521,885.928650 1596.168945,890.821960 1599.006348,894.627319 
	C1602.081055,898.751038 1607.168091,900.064880 1611.874268,898.122375 
	C1615.046753,896.812805 1615.892700,895.098389 1613.407715,892.266724 
	C1610.882202,895.344055 1607.461548,896.441956 1604.514526,894.366821 
	C1602.634521,893.043030 1601.219604,889.792847 1601.189819,887.386719 
	C1601.137573,883.169434 1604.818115,881.514343 1611.175415,882.862610 
M1490.883301,894.158325 
	C1489.495605,897.697998 1492.424316,898.140686 1494.482910,898.710449 
	C1497.825928,899.635742 1501.257080,898.869080 1502.475220,895.496155 
	C1503.151611,893.623291 1502.175293,890.782898 1501.137573,888.800659 
	C1500.516357,887.613770 1498.177734,887.445007 1496.908569,886.442078 
	C1495.797974,885.564331 1495.103027,884.160461 1494.224487,882.989075 
	C1495.838135,882.684082 1497.451660,882.165833 1499.065308,882.165466 
	C1499.853638,882.165283 1500.642090,883.129822 1501.430542,883.657715 
	C1501.852173,883.378967 1502.273804,883.100281 1502.695435,882.821594 
	C1501.817627,881.479858 1501.244263,879.577026 1500.003784,878.904114 
	C1496.604614,877.060364 1492.211792,878.535767 1491.111938,881.697876 
	C1489.778198,885.532471 1491.435913,888.009338 1495.042969,889.624451 
	C1497.043213,890.519958 1501.067505,890.708008 1499.263550,894.172363 
	C1497.577515,897.410339 1494.701904,895.309082 1492.432129,893.849609 
	C1492.071411,893.617737 1491.577026,893.593750 1490.883301,894.158325 
M1514.249756,894.869263 
	C1514.249756,890.744080 1514.249756,886.618896 1514.249756,882.982605 
	C1516.148926,881.939758 1517.587891,881.149475 1519.026978,880.359253 
	C1517.580566,879.385254 1516.134155,878.411316 1514.283081,877.164795 
	C1514.214844,876.023193 1514.107666,874.231506 1514.000977,872.448547 
	C1511.221436,872.417053 1511.221436,872.417053 1510.194092,877.665283 
	C1508.697144,878.513611 1507.394043,879.252136 1506.090820,879.990601 
	C1507.532349,880.972900 1508.973999,881.955139 1510.602173,883.064636 
	C1510.602173,887.210022 1510.489136,891.532471 1510.688477,895.840393 
	C1510.733643,896.813904 1511.866089,897.737000 1512.498169,898.683289 
	C1513.081177,897.692749 1513.664185,896.702209 1514.249756,894.869263 
M1207.673950,894.072632 
	C1207.673828,886.122498 1207.637817,878.172180 1207.694580,870.222412 
	C1207.712646,867.685669 1207.386353,865.820679 1203.811646,867.182373 
	C1203.811646,876.541931 1203.749756,885.965576 1203.893311,895.386169 
	C1203.910522,896.509888 1205.046875,897.616638 1205.664307,898.731201 
	C1206.333984,897.472900 1207.003540,896.214600 1207.673950,894.072632 
M1165.054688,881.867554 
	C1165.693604,883.073975 1166.817139,884.254456 1166.883301,885.491577 
	C1167.111694,889.758057 1166.971191,894.044312 1166.971191,898.496094 
	C1168.244629,898.496094 1169.694336,898.578369 1169.705933,898.484314 
	C1170.371460,893.054810 1170.917725,887.610779 1171.432373,882.590332 
	C1172.917114,881.830811 1174.272217,881.137634 1175.627319,880.444458 
	C1174.207520,879.438416 1172.787720,878.432373 1170.228638,876.619019 
	C1169.807129,876.076416 1172.663574,871.262024 1167.195312,872.217346 
	C1167.056274,874.404297 1166.942017,876.200439 1166.830444,877.953613 
	C1161.839233,879.150330 1161.839233,879.150330 1165.054688,881.867554 
M963.604858,881.324768 
	C964.922424,876.725281 960.322327,879.597717 959.171692,877.505676 
	C959.041321,876.002869 958.873169,874.064209 958.705750,872.134521 
	C952.977600,871.378540 956.422974,876.175903 954.622192,877.526123 
	C953.397461,878.492920 952.172729,879.459717 950.947998,880.426514 
	C952.221191,881.151672 953.494385,881.876831 955.118530,882.801819 
	C955.118530,885.593811 954.798584,888.781921 955.221680,891.868103 
	C955.548523,894.252075 953.005005,898.478210 958.949219,898.752258 
	C958.949219,892.978394 958.949219,887.556763 958.949219,882.097473 
	C960.553040,881.947937 961.704590,881.840515 963.604858,881.324768 
M998.406738,882.854431 
	C999.912292,882.393738 1001.417847,881.933044 1002.923401,881.472351 
	C1002.971130,880.920349 1003.018799,880.368408 1003.066467,879.816467 
	C1001.498596,879.598145 999.935120,879.261292 998.361450,879.203369 
	C997.316895,879.164856 996.045349,879.990906 995.242432,879.624817 
	C992.159790,878.219299 991.898010,878.211670 991.795654,881.719421 
	C991.669739,886.035400 991.634827,890.363770 991.838013,894.673706 
	C991.902893,896.049377 992.851440,897.383484 993.395691,898.736572 
	C994.128723,897.380737 995.186707,896.102173 995.531372,894.653870 
	C996.424011,890.903992 997.002319,887.079285 998.406738,882.854431 
M1578.062256,880.642761 
	C1576.934937,879.957153 1575.807617,879.271545 1574.680176,878.585999 
	C1574.278198,879.902832 1573.602417,881.204651 1573.529297,882.539490 
	C1573.357544,885.671936 1573.228394,888.846069 1573.555176,891.953552 
	C1573.796143,894.245300 1574.784180,896.458557 1575.439331,898.706787 
	C1576.025879,896.405701 1577.047119,894.118164 1577.119629,891.801025 
	C1577.357910,884.169434 1578.018677,883.055115 1584.732422,881.376892 
	C1583.581787,876.270691 1580.924683,879.064941 1578.062256,880.642761 
M1158.461914,897.518738 
	C1158.501587,892.045959 1158.637329,886.570435 1158.485229,881.103027 
	C1158.460449,880.207886 1157.168091,879.347961 1156.461548,878.471802 
	C1155.906738,879.327881 1154.897095,880.170837 1154.871826,881.042297 
	C1154.722900,886.180786 1154.689575,891.331726 1154.949707,896.461670 
	C1154.982178,897.101501 1156.974976,897.641968 1158.461914,897.518738 
M1119.667114,893.144775 
	C1119.667480,893.810242 1119.494629,894.537109 1119.704224,895.128418 
	C1120.138794,896.354675 1120.776489,897.508850 1121.330811,898.692627 
	C1121.991211,897.449646 1123.150757,896.234253 1123.221313,894.958740 
	C1123.459839,890.646240 1123.431030,886.307007 1123.234009,881.990295 
	C1123.180176,880.812073 1122.176514,879.677185 1121.608643,878.522400 
	C1120.961548,879.766357 1119.859863,880.973755 1119.756226,882.261414 
	C1119.490356,885.567505 1119.667358,888.909119 1119.667114,893.144775 
M1588.266846,896.703308 
	C1589.239990,897.480530 1590.213013,898.257751 1591.775391,899.505554 
	C1591.775391,891.696533 1591.775391,885.192383 1591.775391,878.688171 
	C1591.280273,878.464478 1590.785156,878.240845 1590.290039,878.017151 
	C1589.608765,879.170593 1588.395142,880.298950 1588.339600,881.481812 
	C1588.114868,886.260620 1588.246948,891.056274 1588.266846,896.703308 
M1322.127075,893.989136 
	C1322.127075,888.925720 1322.127075,883.862366 1322.127075,878.798950 
	C1321.550781,878.559143 1320.974365,878.319336 1320.398071,878.079529 
	C1319.680420,879.311035 1318.416748,880.511230 1318.343872,881.779785 
	C1318.088867,886.221008 1318.091431,890.694519 1318.343384,895.136108 
	C1318.413574,896.374939 1319.682007,897.545837 1320.400879,898.747864 
	C1320.976074,897.452698 1321.551270,896.157471 1322.127075,893.989136 
M1387.161865,884.735291 
	C1387.163208,888.401672 1386.971069,892.084473 1387.280640,895.724670 
	C1387.376953,896.857056 1388.831299,897.873962 1389.664062,898.943726 
	C1390.037476,898.665527 1390.411011,898.387329 1390.784424,898.109131 
	C1390.784424,891.677307 1390.784424,885.245483 1390.784424,878.689270 
	C1385.713745,878.006165 1387.569946,881.672791 1387.161865,884.735291 
z"/>
<path fill="#D3DA1A" opacity="1.000000" stroke="none" 
	d="
M577.181702,981.308228 
	C568.373596,986.284729 559.132080,988.057617 549.499207,987.978577 
	C542.720581,987.922974 539.118958,984.723083 539.043274,977.969055 
	C538.960083,970.540222 535.720337,964.699951 531.855408,958.693665 
	C529.443237,954.945129 528.534485,950.193054 527.146912,945.829041 
	C524.538879,937.626282 522.923035,928.985901 519.348267,921.241272 
	C513.971680,909.593262 512.092468,898.628418 519.345398,887.150024 
	C523.287170,880.911926 522.581421,873.992249 520.530212,867.311096 
	C518.432983,860.480225 516.080322,853.709290 513.428223,847.076538 
	C512.414307,844.540710 510.615540,842.055298 508.556549,840.252563 
	C503.391388,835.730225 501.754242,830.640259 504.450836,824.203674 
	C505.084290,822.691650 505.339661,820.991089 505.581573,819.349731 
	C507.450470,806.669189 500.444305,800.905640 488.614838,805.596680 
	C488.184509,804.974243 487.585022,804.370117 487.291931,803.642578 
	C484.340576,796.317383 477.412048,792.329895 470.609039,796.123718 
	C458.957336,802.621460 445.955017,800.804382 433.796356,803.857544 
	C425.404053,805.964905 419.435669,800.101562 413.918091,794.598206 
	C387.637451,820.893188 361.446167,847.098877 335.060272,873.499207 
	C333.336029,871.851257 332.305115,870.866028 331.042603,869.659424 
	C357.591461,843.134827 383.947693,816.802612 410.731354,790.043396 
	C404.255951,783.703064 403.501770,773.473511 394.148041,769.755066 
	C393.078339,769.329834 392.000488,766.916260 392.204620,765.626953 
	C393.385742,758.166870 394.998627,750.776306 396.351898,743.341492 
	C396.694550,741.458984 396.623505,739.501160 396.774994,737.054688 
	C356.149994,737.054688 316.067932,737.054688 275.706543,737.054688 
	C275.706543,735.178223 275.706543,733.800171 275.706543,732.100708 
	C315.464844,732.100708 354.921143,732.100708 393.026062,732.100708 
	C395.382385,726.274170 396.973083,720.971130 399.577393,716.224243 
	C403.413391,709.232422 407.774384,702.499207 412.342224,695.956360 
	C413.726196,693.974060 416.533875,692.985779 418.362885,691.760925 
	C385.478699,658.887817 352.429413,625.849731 319.051697,592.483276 
	C320.961853,590.461975 322.010986,589.351746 323.423462,587.857056 
	C356.693481,621.133911 389.660675,654.107910 423.171692,687.625793 
	C423.829163,685.539185 424.369110,683.909546 424.856323,682.264282 
	C426.496216,676.726624 428.693573,671.731995 434.317139,668.835510 
	C436.202362,667.864441 437.667511,665.660156 438.790497,663.711670 
	C441.314209,659.332764 443.386902,658.589966 448.048767,660.956726 
	C448.780792,661.328369 449.522858,661.743774 450.309845,661.933899 
	C459.240997,664.091736 460.628906,662.973267 460.628967,653.693481 
	C460.629181,612.528137 460.629059,571.362854 460.629089,530.197510 
	C460.629089,528.219421 460.629120,526.241333 460.629120,524.355469 
	C465.610779,523.115967 465.649872,523.115967 465.651306,528.365723 
	C465.662628,569.864380 465.657837,611.363037 465.657959,652.861694 
	C465.657959,654.806091 465.657928,656.750427 465.657928,658.261658 
	C475.894348,656.291992 485.623901,654.407532 495.360352,652.559692 
	C496.826569,652.281372 498.320923,652.061401 499.809448,652.005310 
	C508.679688,651.671143 510.559235,653.846008 508.938995,662.487488 
	C508.755096,663.468506 508.064850,664.599365 508.359039,665.377258 
	C509.105408,667.350952 509.907227,669.628906 511.435059,670.844849 
	C512.202942,671.455872 515.097473,670.519165 516.188660,669.435120 
	C544.091614,641.714722 571.890320,613.889282 599.671448,586.046570 
	C600.954163,584.761047 601.905701,583.145264 603.192078,581.444702 
	C605.012146,583.148743 606.052795,584.123108 607.456726,585.437500 
	C578.307190,614.581604 549.376404,643.507019 520.117615,672.760315 
	C526.144653,676.499207 531.526001,680.326172 537.343201,683.300659 
	C542.548035,685.962036 544.114868,684.948059 546.211426,679.463196 
	C549.243713,671.530334 554.436035,670.059998 561.391235,674.840759 
	C570.647156,681.203125 580.792786,682.468933 591.703186,680.045654 
	C593.903870,679.556824 596.725464,680.726379 598.883301,681.853760 
	C599.556152,682.205383 598.849976,684.946472 599.019043,686.568298 
	C599.304077,689.303467 599.156921,692.320679 600.297485,694.686035 
	C603.976746,702.316345 607.101318,710.595154 612.442261,716.937683 
	C617.964050,723.494995 619.417114,731.458008 623.378906,738.402649 
	C627.625732,745.846802 630.265137,754.374512 639.021851,758.791565 
	C642.027039,760.307373 644.306213,764.763794 645.349121,768.334717 
	C647.145020,774.483459 648.585266,777.200012 654.971436,777.790222 
	C659.099182,778.171753 663.445801,777.076721 667.582031,776.144897 
	C670.123657,775.572327 672.375305,773.808533 674.895386,773.023376 
	C679.499146,771.589172 682.484802,774.338928 681.711426,779.096924 
	C681.525818,780.239258 681.270996,781.437683 680.737732,782.446167 
	C673.662659,795.825684 667.016174,809.414673 654.836853,819.337524 
	C648.419189,824.566345 642.303467,830.375305 637.004333,836.718323 
	C628.950562,846.358521 627.027771,857.100220 632.144043,869.341919 
	C634.895447,875.925171 635.637207,883.457336 636.578857,890.653809 
	C637.345032,896.509033 633.863525,900.364075 629.177979,903.799622 
	C623.072632,908.276245 617.398926,913.408325 611.989441,918.716858 
	C610.730164,919.952637 610.452271,923.355896 611.160095,925.214539 
	C613.477783,931.299438 613.579590,936.586731 609.238892,942.014587 
	C601.647339,951.507324 594.626038,961.454468 587.115845,971.014893 
	C584.257446,974.653748 580.710205,977.751587 577.181702,981.308228 
z"/>
<path fill="#D2D91C" opacity="1.000000" stroke="none" 
	d="
M1172.765137,800.999268 
	C1172.765259,750.908752 1172.765259,701.318176 1172.765259,651.800293 
	C1191.469604,651.800293 1209.595215,651.454041 1227.696289,651.968323 
	C1235.082397,652.178162 1242.624512,653.536255 1249.735107,655.608887 
	C1274.704956,662.887024 1281.245728,682.543640 1277.388184,704.264038 
	C1275.273804,716.168518 1269.285278,725.620422 1257.707153,731.689392 
	C1259.917114,732.579285 1261.528442,733.280273 1263.175659,733.883423 
	C1279.475098,739.851807 1288.710083,752.424194 1289.109741,769.812500 
	C1289.391968,782.088074 1288.302612,794.151794 1280.626343,804.523071 
	C1272.084717,816.063416 1259.631104,821.480286 1246.246704,822.548462 
	C1222.072388,824.477783 1197.753540,824.593323 1172.765015,825.492615 
	C1172.765015,816.717529 1172.765015,809.108398 1172.765137,800.999268 
M1198.849609,765.500366 
	C1198.849609,777.577637 1198.849609,789.654907 1198.849609,801.760681 
	C1211.291016,801.760681 1223.148438,802.671570 1234.813599,801.561096 
	C1255.717529,799.571106 1264.641357,786.264282 1260.995361,765.270630 
	C1259.386230,756.004211 1252.996826,750.457275 1244.193359,748.061829 
	C1229.360962,744.026062 1214.229004,746.695496 1198.849609,745.832764 
	C1198.849609,752.577515 1198.849609,758.539062 1198.849609,765.500366 
M1198.849609,686.510986 
	C1198.849609,699.120483 1198.849609,711.729919 1198.849609,725.391052 
	C1210.352417,724.814514 1221.390869,725.146057 1232.123047,723.491150 
	C1244.530151,721.577881 1251.698120,710.725098 1251.800903,696.507751 
	C1251.880249,685.532104 1246.355591,677.597595 1234.825195,675.747864 
	C1223.148804,673.874817 1211.146484,674.032776 1198.849609,673.274170 
	C1198.849609,678.244019 1198.849609,681.880615 1198.849609,686.510986 
z"/>
<path fill="#D2D91C" opacity="1.000000" stroke="none" 
	d="
M852.349548,817.364624 
	C816.395813,832.248108 782.114197,831.388550 750.664490,807.269714 
	C731.249634,792.380310 721.763855,771.451233 719.303101,747.495911 
	C716.913696,724.235229 721.231445,702.305481 735.571472,683.213928 
	C751.564636,661.921631 773.528870,651.234375 799.657349,649.191772 
	C819.144165,647.668457 838.164734,650.039795 856.034424,658.905945 
	C860.549500,661.146057 861.915955,663.204895 859.128418,667.930603 
	C856.114319,673.040344 853.945251,678.648560 851.754211,683.302979 
	C843.134094,680.255432 835.115784,676.553955 826.691345,674.647705 
	C814.419678,671.871033 801.809448,671.872314 789.570618,675.261047 
	C770.583069,680.518494 757.541626,692.709473 751.049805,711.230530 
	C743.998352,731.348145 745.446411,751.339661 754.998474,770.337463 
	C767.758789,795.716248 793.977905,807.612732 823.128723,801.387634 
	C829.848267,799.952637 836.247559,796.917480 842.700317,794.379944 
	C845.592651,793.242554 846.615479,790.854004 846.539795,787.571106 
	C846.321838,778.117249 846.462891,768.655212 846.462891,758.615173 
	C834.519958,758.615173 823.113281,758.615173 811.357300,758.615173 
	C811.357300,750.301697 811.357300,742.565125 811.357300,734.418030 
	C831.562988,734.418030 851.924927,734.418030 872.651367,734.418030 
	C872.734070,736.078308 872.883057,737.693726 872.884460,739.309265 
	C872.900696,758.636963 873.032349,777.966736 872.741333,797.290039 
	C872.699463,800.069458 871.330444,803.684998 869.299011,805.410400 
	C864.144165,809.788208 858.264343,813.312317 852.349548,817.364624 
z"/>
<path fill="#D3DA1C" opacity="1.000000" stroke="none" 
	d="
M1585.294800,671.001526 
	C1585.294678,722.299072 1585.294678,773.096802 1585.294678,825.713928 
	C1582.470703,823.799011 1580.379639,822.894653 1578.984253,821.358337 
	C1555.575439,795.586853 1532.252930,769.736755 1508.912598,743.902954 
	C1500.983398,735.126770 1493.058594,726.346741 1485.130127,717.569946 
	C1484.056396,716.381470 1482.972290,715.202332 1481.151489,713.205994 
	C1481.151489,750.943298 1481.151489,787.463135 1481.151489,824.316040 
	C1472.402466,824.316040 1464.008423,824.316040 1455.273193,824.316040 
	C1455.273193,766.622559 1455.273193,709.067444 1455.273193,650.132507 
	C1457.498657,651.665833 1459.346313,652.483765 1460.579224,653.854614 
	C1491.992798,688.785278 1523.340698,723.775085 1554.707520,758.747864 
	C1555.985474,760.172913 1557.335938,761.532776 1559.260010,763.564148 
	C1559.260010,725.666138 1559.260010,688.797424 1559.260010,651.601929 
	C1567.780029,651.601929 1576.200439,651.601929 1585.294922,651.601929 
	C1585.294922,657.931091 1585.294922,664.216431 1585.294800,671.001526 
z"/>
<path fill="#D2D91C" opacity="1.000000" stroke="none" 
	d="
M1695.417236,814.619263 
	C1680.079346,792.207825 1664.960449,770.082153 1649.294922,747.156189 
	C1644.480835,753.162170 1639.875610,758.715088 1635.554932,764.481262 
	C1634.806030,765.480591 1635.175171,767.382080 1635.173340,768.867004 
	C1635.152466,785.364624 1635.160400,801.862183 1635.160278,818.359802 
	C1635.160156,820.177002 1635.160156,821.994141 1635.160156,824.234131 
	C1626.456909,824.234131 1618.093140,824.234131 1609.413818,824.234131 
	C1609.413818,766.678345 1609.413818,709.298035 1609.413818,651.592896 
	C1617.896973,651.592896 1626.143799,651.592896 1635.134521,651.592896 
	C1635.134521,676.683777 1635.134521,701.668762 1635.134521,726.653809 
	C1635.506714,726.753113 1635.879028,726.852417 1636.251221,726.951721 
	C1638.670288,723.868042 1641.116821,720.805542 1643.504150,717.697449 
	C1659.432739,696.958801 1675.411377,676.257996 1691.201050,655.414001 
	C1693.568359,652.288879 1696.052002,651.045593 1699.952148,651.180725 
	C1708.239014,651.467712 1716.542847,651.268250 1726.225708,651.268250 
	C1705.916138,677.234619 1686.307617,702.304688 1666.610107,727.488464 
	C1689.218384,759.739014 1711.626831,791.704651 1734.692871,824.608276 
	C1723.607544,824.608276 1713.671997,824.793579 1703.757935,824.414978 
	C1702.212891,824.356018 1700.631348,821.838074 1699.310913,820.253540 
	C1697.932251,818.598877 1696.848633,816.698120 1695.417236,814.619263 
z"/>
<path fill="#D2D91C" opacity="1.000000" stroke="none" 
	d="
M1302.105225,784.050903 
	C1322.477173,741.422180 1342.710815,699.140869 1362.945923,656.860291 
	C1363.591919,655.510437 1364.184448,654.128845 1364.921143,652.829590 
	C1366.385498,650.247192 1367.846802,650.359741 1369.186890,652.963623 
	C1369.491211,653.554688 1369.788330,654.149597 1370.076660,654.748596 
	C1396.682007,710.024902 1423.287231,765.301270 1449.881470,820.582947 
	C1450.370972,821.600403 1450.726807,822.682068 1451.489136,824.599182 
	C1441.573120,824.599182 1432.187622,824.709351 1422.812500,824.445740 
	C1421.758057,824.416138 1420.409546,822.432983 1419.797852,821.083557 
	C1415.750488,812.154114 1411.779907,803.186951 1407.987061,794.146912 
	C1406.935547,791.640625 1405.610962,790.661011 1402.826294,790.673279 
	C1378.843750,790.778870 1354.859985,790.797729 1330.877808,790.655090 
	C1327.768188,790.636597 1326.519653,791.945496 1325.436768,794.514038 
	C1321.692017,803.396118 1317.672852,812.162964 1313.960327,821.058044 
	C1312.833130,823.758606 1311.331299,824.794800 1308.365356,824.725098 
	C1300.109497,824.531189 1291.846313,824.657776 1282.715820,824.657776 
	C1289.401367,810.676453 1295.684204,797.537415 1302.105225,784.050903 
M1376.846069,723.679016 
	C1373.748901,716.519592 1370.651611,709.360229 1367.132568,701.225830 
	C1357.094727,723.714233 1347.588989,745.010498 1337.945679,766.614929 
	C1357.527832,766.614929 1376.306152,766.614929 1395.898193,766.614929 
	C1389.489502,752.235107 1383.287231,738.318176 1376.846069,723.679016 
z"/>
<path fill="#D2D91C" opacity="1.000000" stroke="none" 
	d="
M891.074341,699.081909 
	C903.504761,671.935852 924.397156,655.704590 953.119263,650.363342 
	C976.108093,646.088196 998.423401,648.451477 1019.086304,661.723694 
	C1015.153625,669.779175 1011.458496,677.348022 1007.609131,685.232788 
	C1006.738525,684.788940 1006.016296,684.520203 1005.403503,684.093994 
	C986.594116,671.012573 966.340332,668.972900 945.797668,678.427795 
	C925.051697,687.976196 915.447632,705.928162 912.939941,728.037476 
	C911.376343,741.822815 912.701721,755.300476 918.081787,768.191895 
	C928.092163,792.178406 951.000854,805.029785 976.807312,801.669312 
	C988.364441,800.164368 999.056335,796.480469 1009.445618,790.256165 
	C1011.978088,797.430725 1014.520447,804.064026 1016.514709,810.858276 
	C1016.836792,811.955627 1015.058167,814.325745 1013.677917,815.161499 
	C1003.838562,821.119385 992.947021,824.216980 981.625427,825.398682 
	C952.179565,828.472046 925.936157,821.506226 905.580383,798.846680 
	C888.930237,780.312012 882.738770,757.906799 883.549927,733.349365 
	C883.937683,721.611328 886.181824,710.239624 891.074341,699.081909 
z"/>
<path fill="#D1D81C" opacity="1.000000" stroke="none" 
	d="
M1060.911987,768.000000 
	C1060.911987,779.115112 1060.911987,789.730225 1060.911987,800.775024 
	C1077.493408,800.775024 1093.582153,800.775024 1110.097900,800.775024 
	C1110.097900,808.730530 1110.097900,816.260925 1110.097900,824.211487 
	C1084.871460,824.211487 1059.694214,824.211487 1034.291504,824.211487 
	C1034.291504,766.617371 1034.291504,709.254639 1034.291504,651.578674 
	C1043.109985,651.578674 1051.675049,651.578674 1060.911987,651.578674 
	C1060.911987,690.371338 1060.911987,728.935669 1060.911987,768.000000 
z"/>
<path fill="#D1D81C" opacity="1.000000" stroke="none" 
	d="
M663.072205,889.022705 
	C666.928894,887.863403 670.371155,886.551086 673.933899,885.853577 
	C678.769470,884.906799 680.611877,886.787354 679.389893,891.656067 
	C678.305481,895.976990 676.548584,900.136902 674.977844,904.326416 
	C671.370789,913.947144 667.705933,923.546326 664.042297,933.145752 
	C663.155884,935.468567 662.353333,937.847168 661.209534,940.042419 
	C659.572754,943.184082 657.580750,946.638550 653.363098,945.552551 
	C649.076477,944.448792 645.749878,941.343872 645.887329,936.685974 
	C646.001038,932.832214 647.653809,929.042603 648.423767,925.184509 
	C649.310242,920.742676 650.719299,916.234802 650.587769,911.794556 
	C650.284973,901.569641 654.216309,893.533203 663.072205,889.022705 
z"/>
<path fill="#F1F2F4" opacity="1.000000" stroke="none" 
	d="
M1463.704834,878.833252 
	C1461.118652,885.642822 1458.688721,892.093445 1455.866699,899.584778 
	C1453.048096,891.870361 1450.651245,885.310791 1447.862305,877.677612 
	C1445.041138,885.381287 1442.640503,891.936951 1439.822021,899.633667 
	C1435.776733,888.809509 1432.166748,879.149902 1428.556763,869.490356 
	C1428.944214,869.085022 1429.331543,868.679688 1429.718872,868.274414 
	C1430.930176,869.353882 1432.673096,870.202942 1433.258545,871.553650 
	C1435.552368,876.845459 1437.480957,882.295532 1440.044067,888.990112 
	C1442.807983,881.542664 1445.154053,875.220642 1447.954956,867.673523 
	C1450.695679,875.073425 1453.048828,881.427002 1455.648804,888.446960 
	C1458.762451,881.473877 1461.571167,875.111084 1464.515991,868.811951 
	C1464.656494,868.511353 1466.000488,868.773315 1467.291138,868.773315 
	C1466.044189,872.299866 1464.952515,875.387085 1463.704834,878.833252 
z"/>
<path fill="#F1F2F4" opacity="1.000000" stroke="none" 
	d="
M1113.763916,888.567505 
	C1108.732666,900.237671 1098.834595,898.766785 1089.239624,898.625000 
	C1089.107300,897.634827 1088.908081,896.830139 1088.906128,896.024963 
	C1088.883789,887.080872 1088.892090,878.136658 1088.892090,869.252075 
	C1106.788818,865.984619 1116.694580,873.610840 1113.763916,888.567505 
M1095.479248,872.074219 
	C1094.612427,872.744995 1093.011230,873.395813 1092.992310,874.089600 
	C1092.804688,880.984253 1092.878662,887.886108 1092.878662,894.994873 
	C1095.479492,894.994873 1097.455322,895.093994 1099.418335,894.977051 
	C1106.300537,894.567017 1110.817505,889.531433 1110.391724,882.836426 
	C1109.949707,875.889832 1105.444580,872.428406 1095.479248,872.074219 
z"/>
<path fill="#F1F2F4" opacity="1.000000" stroke="none" 
	d="
M1237.482422,897.831604 
	C1233.183350,898.309387 1229.258545,898.651672 1225.023682,899.020996 
	C1225.023682,888.624878 1225.023682,878.897827 1225.023682,868.535889 
	C1230.111084,869.168091 1235.657227,866.638916 1239.089600,871.525085 
	C1240.598633,873.673157 1239.963013,877.327820 1239.681396,880.377502 
	C1245.344849,886.045288 1244.864746,894.080688 1237.482422,897.831604 
M1233.086670,895.004700 
	C1238.154663,893.892578 1240.118774,891.454651 1239.211426,887.402100 
	C1238.272339,883.207458 1234.910156,881.964355 1228.691895,883.663208 
	C1228.691895,886.382935 1228.860107,889.181091 1228.645386,891.949585 
	C1228.423218,894.813049 1229.880005,895.308044 1233.086670,895.004700 
M1234.823608,878.901672 
	C1235.466675,877.401489 1236.109863,875.901306 1236.753052,874.401184 
	C1234.384033,873.399963 1232.014893,872.398743 1229.088623,871.162048 
	C1229.088623,874.653503 1229.088623,876.842957 1229.088623,879.070862 
	C1230.977539,879.070862 1232.469238,879.070862 1234.823608,878.901672 
z"/>
<path fill="#EBEDEF" opacity="1.000000" stroke="none" 
	d="
M1148.653809,888.071045 
	C1148.622925,892.037781 1148.833740,895.547791 1148.511841,899.008240 
	C1147.778931,906.887695 1139.866699,911.397644 1132.834595,907.880554 
	C1131.608398,907.267273 1131.079102,905.260681 1130.782837,903.571045 
	C1139.496826,907.434631 1144.917358,904.965027 1144.638062,896.851196 
	C1140.028320,899.422302 1135.535522,900.024048 1131.409180,896.114075 
	C1127.780762,892.676025 1127.053589,887.680054 1129.541260,883.377136 
	C1132.021484,879.087524 1136.707275,877.326904 1141.493774,878.910461 
	C1142.116943,879.116577 1142.705566,879.679199 1143.301514,879.666504 
	C1144.956055,879.631409 1146.606079,879.379944 1148.257812,879.213989 
	C1148.389771,882.006592 1148.521729,884.799194 1148.653809,888.071045 
M1134.785645,883.062195 
	C1130.510498,888.145752 1131.570801,894.293518 1137.099487,894.899109 
	C1139.293701,895.139465 1142.771484,893.927063 1143.756104,892.253235 
	C1144.895874,890.315918 1144.744507,886.744507 1143.693359,884.597900 
	C1142.114380,881.374451 1138.723267,881.220093 1134.785645,883.062195 
z"/>
<path fill="#F1F2F4" opacity="1.000000" stroke="none" 
	d="
M1366.563232,897.226501 
	C1359.296509,900.156799 1353.600830,898.167175 1351.415649,892.149902 
	C1349.370972,886.519287 1352.444824,880.315918 1358.255371,878.733093 
	C1359.774170,878.319336 1361.497559,878.511292 1363.112183,878.628540 
	C1365.426880,878.796631 1367.728149,879.151489 1370.650513,879.499939 
	C1370.650513,886.415405 1371.457886,894.366455 1370.397583,902.060120 
	C1369.532837,908.335754 1359.561646,911.211609 1354.441650,907.345764 
	C1353.529297,906.656799 1353.444702,904.871338 1353.321289,904.533081 
	C1357.588745,904.316223 1361.439331,904.718018 1364.820190,903.642822 
	C1366.099609,903.235962 1366.295044,899.420593 1366.563232,897.226501 
M1367.145020,885.518494 
	C1365.562012,882.403809 1362.744507,881.004333 1359.729980,882.186951 
	C1357.767212,882.956970 1355.428833,885.291504 1355.160522,887.193481 
	C1354.855103,889.357788 1356.058960,892.583191 1357.741211,893.925293 
	C1359.228882,895.112183 1362.629272,895.132080 1364.552246,894.264404 
	C1367.701660,892.843506 1368.664429,889.699951 1367.145020,885.518494 
z"/>
<path fill="#F1F2F4" opacity="1.000000" stroke="none" 
	d="
M857.258301,879.776245 
	C864.995972,876.443298 870.238525,879.462036 870.721802,887.364624 
	C870.893921,890.179749 870.981201,893.039246 870.659851,895.826904 
	C870.523560,897.008606 869.235413,898.057556 868.470764,899.166809 
	C867.958374,898.907104 867.445923,898.647339 866.933533,898.387634 
	C866.933533,895.098145 866.997864,891.807129 866.915771,888.519653 
	C866.830566,885.109070 865.958801,882.037720 861.794189,881.940979 
	C857.332336,881.837280 856.369812,884.994385 856.277100,888.641541 
	C856.209534,891.299133 856.360229,893.967834 856.164673,896.613159 
	C856.110962,897.340088 855.162415,898.001038 854.624512,898.692261 
	C853.945312,897.967102 852.685486,897.250305 852.674927,896.515503 
	C852.540588,887.210205 852.525208,877.901123 852.701538,868.597229 
	C852.715637,867.852600 854.368713,867.139038 855.838623,865.938721 
	C856.218140,871.306702 856.517822,875.545105 857.258301,879.776245 
z"/>
<path fill="#EDEFF0" opacity="1.000000" stroke="none" 
	d="
M1536.888306,892.725769 
	C1535.210815,895.104187 1535.939331,899.492126 1530.577637,898.395142 
	C1534.751343,888.166870 1538.780396,878.293457 1543.248657,867.343445 
	C1547.713501,878.225342 1551.745117,888.051758 1555.797729,897.929138 
	C1551.930420,898.731567 1552.073242,898.666199 1549.828613,893.760071 
	C1549.130859,892.234802 1547.294312,889.992249 1546.212769,890.116211 
	C1543.128418,890.469666 1539.013306,887.566895 1536.888306,892.725769 
M1540.211792,884.207764 
	C1542.004761,885.134949 1543.797607,886.062073 1545.590454,886.989258 
	C1545.903198,886.543335 1546.215942,886.097473 1546.528564,885.651550 
	C1545.549316,883.028015 1544.570068,880.404480 1543.217041,876.779724 
	C1542.090210,879.633545 1541.332397,881.552917 1540.211792,884.207764 
z"/>
<path fill="#E5E7EA" opacity="1.000000" stroke="none" 
	d="
M1297.442871,885.975952 
	C1297.443237,880.315735 1297.303223,875.144287 1297.544678,869.990723 
	C1297.603882,868.728577 1298.910889,867.524902 1299.644165,866.294373 
	C1300.174683,866.547791 1300.705078,866.801270 1301.235596,867.054688 
	C1301.235596,873.334900 1301.235596,879.615112 1301.235596,886.153992 
	C1306.052979,884.835754 1306.301636,877.573975 1313.013306,878.659912 
	C1310.579834,881.770813 1308.486084,884.447388 1306.205200,887.363159 
	C1309.082520,890.944336 1311.940063,894.500671 1315.248901,898.618896 
	C1307.284668,899.288452 1306.748535,891.306946 1301.247681,888.751587 
	C1301.247681,891.358704 1301.431763,893.618347 1301.166382,895.823914 
	C1301.042480,896.853577 1300.048706,897.778687 1299.449341,898.751221 
	C1298.783447,897.823486 1297.620239,896.934998 1297.543213,895.960632 
	C1297.294678,892.814514 1297.445801,889.636841 1297.442871,885.975952 
z"/>
<path fill="#EBEDEF" opacity="1.000000" stroke="none" 
	d="
M1251.879883,897.327515 
	C1246.784546,892.560425 1245.761475,888.105591 1248.432373,883.432800 
	C1251.122070,878.727234 1255.579956,877.385376 1261.748047,879.445984 
	C1262.214478,879.601807 1262.635742,880.090210 1263.078125,880.090393 
	C1267.562378,880.091858 1267.563599,880.072388 1267.563477,884.933289 
	C1267.563232,888.588501 1267.603394,892.244507 1267.542480,895.898743 
	C1267.498901,898.509460 1266.722534,899.839844 1264.011963,897.793823 
	C1263.510010,897.415039 1262.481567,897.742371 1261.696411,897.728577 
	C1258.526978,897.673035 1255.357422,897.611633 1251.879883,897.327515 
M1263.402710,885.408936 
	C1261.594116,882.167847 1258.566650,880.911194 1255.446655,882.348267 
	C1253.546753,883.223328 1251.523438,885.755981 1251.277344,887.755981 
	C1251.030273,889.761963 1252.375244,892.845093 1254.029663,893.956116 
	C1255.686279,895.068298 1258.903809,895.067688 1260.873779,894.230042 
	C1264.217407,892.808472 1264.561768,889.469238 1263.402710,885.408936 
z"/>
<path fill="#F1F2F4" opacity="1.000000" stroke="none" 
	d="
M1638.113037,897.063232 
	C1633.088623,897.535278 1627.810059,898.607544 1623.162964,897.348938 
	C1618.242676,896.016418 1616.595093,889.096130 1618.804688,884.283691 
	C1621.044922,879.404602 1625.928955,877.416809 1631.163330,878.835083 
	C1633.052368,879.346863 1635.196411,878.917236 1638.136597,878.917236 
	C1638.136597,884.639099 1638.136597,890.638611 1638.113037,897.063232 
M1634.210571,891.553101 
	C1635.546509,886.343506 1633.753784,882.100891 1629.542236,882.192688 
	C1627.073364,882.246521 1623.744751,883.955872 1622.433838,885.977905 
	C1620.669800,888.698547 1621.522583,892.279358 1624.728271,894.186462 
	C1628.190796,896.246399 1631.394653,895.634644 1634.210571,891.553101 
z"/>
<path fill="#EBEDEF" opacity="1.000000" stroke="none" 
	d="
M1185.522217,878.370605 
	C1189.226562,877.262268 1192.428345,881.339783 1195.796265,878.504822 
	C1196.437500,879.274414 1197.608154,880.026794 1197.633911,880.816528 
	C1197.801270,885.949951 1197.822021,891.095459 1197.618164,896.226257 
	C1197.584839,897.067810 1196.205078,897.855896 1195.447632,898.668701 
	C1193.309204,896.047607 1191.241455,898.220276 1189.116211,898.722595 
	C1184.292603,899.862549 1179.288696,896.677429 1177.642334,891.500366 
	C1175.859131,885.893005 1178.642456,881.058350 1185.522217,878.370605 
M1186.748535,895.176331 
	C1192.218384,894.698975 1194.664307,892.157593 1194.091797,887.547058 
	C1193.609741,883.667053 1189.917358,880.741821 1186.271118,882.187012 
	C1184.175171,883.017822 1181.897705,885.377441 1181.280762,887.506409 
	C1180.253540,891.052429 1182.238525,893.851379 1186.748535,895.176331 
z"/>
<path fill="#EDEFF0" opacity="1.000000" stroke="none" 
	d="
M892.953186,896.165039 
	C886.739990,900.374573 880.756897,899.653503 877.043518,894.612427 
	C873.815552,890.230225 874.421204,884.226074 878.562866,880.693420 
	C882.079224,877.694092 886.047546,877.116821 890.101440,879.403381 
	C893.866882,881.527161 895.866516,884.712524 894.870239,889.614136 
	C889.698853,889.614136 884.606934,889.614136 879.397949,889.614136 
	C881.526794,895.820312 885.262024,896.806152 892.221436,893.084229 
	C892.492859,894.037964 892.744385,894.921753 892.953186,896.165039 
M884.716980,881.587524 
	C882.706055,882.807129 880.695129,884.026733 878.684265,885.246338 
	C878.931519,885.614014 879.178772,885.981628 879.426086,886.349243 
	C883.242981,886.349243 887.059937,886.349243 890.876892,886.349243 
	C891.112488,885.848755 891.348145,885.348206 891.583801,884.847717 
	C889.537720,883.749573 887.491577,882.651489 884.716980,881.587524 
z"/>
<path fill="#EBEDEF" opacity="1.000000" stroke="none" 
	d="
M1016.042969,889.769165 
	C1013.463013,889.769165 1011.353943,889.769165 1009.085938,889.769165 
	C1011.294128,895.900085 1014.902466,896.775085 1022.457947,893.559937 
	C1021.884399,894.976807 1021.714539,896.973083 1020.663879,897.704834 
	C1017.126099,900.169067 1011.059631,899.175659 1007.770935,896.019531 
	C1004.446350,892.828979 1003.663208,887.190735 1005.988098,883.184509 
	C1008.215332,879.346558 1012.899536,877.293945 1017.051514,878.336426 
	C1021.994202,879.577454 1024.664795,883.292297 1024.698364,889.769165 
	C1021.986816,889.769165 1019.250366,889.769165 1016.042969,889.769165 
M1013.639771,886.582153 
	C1016.004822,886.582153 1018.369873,886.582153 1020.734924,886.582153 
	C1020.916321,885.982483 1021.097778,885.382812 1021.279175,884.783203 
	C1019.020874,883.712280 1016.772461,881.838745 1014.501343,881.810791 
	C1012.489258,881.786072 1010.451843,883.813660 1008.425598,884.935181 
	C1008.640747,885.484619 1008.855835,886.033997 1009.070984,886.583435 
	C1010.306030,886.583435 1011.541138,886.583435 1013.639771,886.582153 
z"/>
<path fill="#EBEDEF" opacity="1.000000" stroke="none" 
	d="
M1468.768921,881.827148 
	C1472.420532,878.197815 1476.355225,876.946716 1480.822144,879.059814 
	C1484.941772,881.008667 1487.008423,884.337402 1486.726074,889.532593 
	C1481.493042,889.532593 1476.422485,889.532593 1471.256592,889.532593 
	C1472.444458,895.651855 1476.494019,896.718140 1483.507935,893.180054 
	C1485.146851,895.851318 1484.229248,897.315002 1481.427612,898.268250 
	C1476.684570,899.881836 1472.534058,899.015259 1469.107178,895.434692 
	C1465.800537,891.979980 1465.703857,887.415222 1468.768921,881.827148 
M1480.604004,882.881348 
	C1474.915405,880.491394 1472.263794,881.510437 1471.126221,886.275757 
	C1474.931519,886.275757 1478.789551,886.275757 1483.114258,886.275757 
	C1482.238403,884.965698 1481.699219,884.159119 1480.604004,882.881348 
z"/>
<path fill="#E5E7EA" opacity="1.000000" stroke="none" 
	d="
M969.175598,895.703125 
	C968.421570,890.330750 967.789490,885.282349 967.506470,880.214478 
	C967.471863,879.594238 969.308716,878.869629 971.204102,877.547668 
	C971.204102,882.342468 971.033386,885.814697 971.253906,889.261902 
	C971.459351,892.474976 972.651855,895.250000 976.564026,895.187744 
	C980.408081,895.126648 981.651306,892.480408 981.782776,889.178833 
	C981.919983,885.734375 981.813416,882.280151 981.813416,878.830200 
	C982.241577,878.580933 982.669739,878.331665 983.097900,878.082397 
	C983.959290,878.986389 985.520752,879.857117 985.565552,880.799927 
	C985.809998,885.945374 985.762085,891.111145 985.599976,896.263123 
	C985.573608,897.101562 984.474121,897.906128 983.870605,898.726318 
	C981.120117,895.582825 978.529297,899.504089 975.981140,898.906616 
	C973.689087,898.369202 971.588623,897.015076 969.175598,895.703125 
z"/>
<path fill="#F1F2F4" opacity="1.000000" stroke="none" 
	d="
M1057.876465,893.528564 
	C1053.215942,899.165527 1048.253052,900.458679 1043.347534,897.622437 
	C1038.929688,895.068115 1036.943359,889.850342 1038.625854,885.219666 
	C1040.626465,879.714111 1046.464844,876.837280 1051.871460,878.693176 
	C1058.007080,880.799194 1060.305298,886.189270 1057.876465,893.528564 
M1055.067261,886.889160 
	C1053.956543,883.164673 1051.238281,881.029297 1047.670776,882.143921 
	C1045.453613,882.836609 1043.010986,885.240540 1042.196289,887.441528 
	C1040.843994,891.095154 1043.869507,894.743652 1047.682495,895.199585 
	C1052.162964,895.735291 1054.702515,893.194336 1055.067261,886.889160 
z"/>
<path fill="#EDEFF0" opacity="1.000000" stroke="none" 
	d="
M1414.977539,884.280457 
	C1415.118042,888.488892 1415.295166,892.302368 1415.197632,896.108765 
	C1415.175171,896.985962 1414.211182,897.839050 1413.680420,898.703247 
	C1412.981445,897.834839 1411.771729,897.018188 1411.677612,896.088562 
	C1411.378418,893.131409 1411.664917,890.117126 1411.403809,887.153259 
	C1411.129883,884.046509 1409.712158,881.712891 1406.077393,881.926758 
	C1402.606323,882.130798 1401.145386,884.325928 1401.056763,887.532410 
	C1400.956787,891.142395 1401.033813,894.757202 1401.033813,898.369934 
	C1400.517700,898.630005 1400.001587,898.890137 1399.485352,899.150208 
	C1398.698975,898.084534 1397.287964,897.049805 1397.233398,895.947815 
	C1396.987549,890.984619 1397.024048,885.998108 1397.224731,881.030823 
	C1397.259277,880.174805 1398.581421,879.370789 1399.308838,878.542725 
	C1401.502563,881.191467 1403.466919,878.704895 1405.572632,878.334412 
	C1410.189819,877.521912 1413.170654,879.723938 1414.977539,884.280457 
z"/>
<path fill="#F1F2F4" opacity="1.000000" stroke="none" 
	d="
M1282.326782,878.234741 
	C1289.022827,878.821655 1291.559448,881.449829 1291.863037,887.629700 
	C1292.356079,897.669739 1292.317505,897.803650 1287.983765,898.687561 
	C1287.983765,895.140076 1288.035278,891.723999 1287.969482,888.310120 
	C1287.902222,884.822754 1286.851929,881.925537 1282.689697,881.928162 
	C1278.485840,881.930786 1277.555786,884.915771 1277.451904,888.362671 
	C1277.371826,891.019287 1277.569336,893.693176 1277.330688,896.331055 
	C1277.254761,897.170105 1276.174316,897.918396 1275.553589,898.708191 
	C1274.953369,897.906677 1273.859009,897.120605 1273.833252,896.301025 
	C1273.671875,891.154419 1273.651489,885.996765 1273.849854,880.852905 
	C1273.880005,880.071350 1275.291016,879.343140 1276.063354,878.590210 
	C1278.176758,881.816345 1279.983032,878.526978 1282.326782,878.234741 
z"/>
<path fill="#EDEFF0" opacity="1.000000" stroke="none" 
	d="
M1342.701294,891.848389 
	C1342.642822,884.304443 1341.321533,881.923035 1337.434326,881.903076 
	C1333.467041,881.882690 1332.058228,884.325378 1332.051147,891.241150 
	C1332.048828,893.542480 1332.050781,895.843872 1332.050781,898.145203 
	C1331.649414,898.470459 1331.248047,898.795776 1330.846802,899.121033 
	C1329.969116,898.141724 1328.384766,897.198303 1328.332886,896.177063 
	C1328.072632,891.048828 1328.131470,885.897583 1328.300659,880.761780 
	C1328.326050,879.993774 1329.529663,879.264648 1330.188232,878.517578 
	C1332.695435,881.507324 1334.914917,878.479980 1337.251343,878.154602 
	C1341.398682,877.577026 1345.524048,880.517456 1346.083984,885.007935 
	C1346.512329,888.443848 1346.487915,891.964111 1346.321167,895.430359 
	C1346.267090,896.553528 1345.123901,897.624268 1344.479004,898.718994 
	C1343.886963,897.574829 1343.127930,896.481506 1342.757812,895.269531 
	C1342.479980,894.359009 1342.701904,893.296021 1342.701294,891.848389 
z"/>
<path fill="#EDEFF0" opacity="1.000000" stroke="none" 
	d="
M946.909546,887.073730 
	C946.909546,889.544312 947.112915,891.564026 946.857117,893.523804 
	C946.552124,895.860962 948.613647,901.523926 942.501465,897.098572 
	C942.131592,896.830688 940.852234,897.906982 939.957764,898.260864 
	C934.803406,900.299988 929.494812,897.366333 928.992737,891.840698 
	C928.605591,887.580505 928.915466,883.256958 928.915466,878.961609 
	C929.359802,878.686523 929.804138,878.411499 930.248474,878.136414 
	C931.002930,879.181274 932.279480,880.164917 932.410522,881.282837 
	C932.756714,884.235229 932.461853,887.257141 932.694092,890.230103 
	C932.927063,893.211426 934.442200,895.291016 937.738464,895.220703 
	C941.172668,895.147522 942.860413,893.118958 942.952087,889.815125 
	C943.052307,886.200745 942.974915,882.581482 942.974915,878.982666 
	C946.909363,878.953613 946.909363,878.953613 946.909546,887.073730 
z"/>
<path fill="#F1F2F4" opacity="1.000000" stroke="none" 
	d="
M925.269714,871.785461 
	C921.753662,871.979858 918.627747,871.979858 915.223511,871.979858 
	C915.223511,874.183228 915.223511,875.913818 915.223511,878.235229 
	C917.720337,878.235229 920.173401,878.073425 922.583191,878.325684 
	C923.393005,878.410400 924.092651,879.548279 924.842590,880.204834 
	C924.053711,880.790100 923.307861,881.793884 922.467834,881.880249 
	C920.184631,882.114685 917.861572,881.960632 915.563171,881.960632 
	C914.972534,887.654846 914.421997,893.080872 913.749817,898.491699 
	C913.737854,898.588257 912.268555,898.503784 911.214966,898.503784 
	C911.214966,888.611694 911.214966,878.863953 911.214966,868.657104 
	C915.392212,868.657104 919.528931,868.514893 923.637756,868.789185 
	C924.370850,868.838196 924.988770,870.613098 925.269714,871.785461 
z"/>
<path fill="#E5E7EA" opacity="1.000000" stroke="none" 
	d="
M1569.584961,870.056274 
	C1561.550659,869.143982 1566.122559,874.905212 1564.977173,876.977478 
	C1566.762207,878.347229 1568.136963,879.402283 1569.511841,880.457397 
	C1568.153076,881.150940 1566.794312,881.844360 1565.256470,882.629211 
	C1564.892700,887.616333 1564.525024,893.004761 1564.007935,898.378723 
	C1563.988892,898.577393 1562.512695,898.635925 1561.193481,898.840820 
	C1561.193481,893.225037 1561.193481,887.824768 1561.193481,883.047791 
	C1559.154663,881.847900 1557.753052,881.023010 1556.351318,880.198120 
	C1557.723511,879.322815 1559.095703,878.447510 1561.026367,877.215942 
	C1561.026367,875.912842 1560.833374,873.909973 1561.066406,871.957886 
	C1561.555664,867.858765 1565.653687,865.196533 1569.407349,866.360596 
	C1571.732910,867.081848 1571.780396,867.423279 1569.584961,870.056274 
z"/>
<path fill="#E5E7EA" opacity="1.000000" stroke="none" 
	d="
M1066.609497,868.776062 
	C1069.432983,867.870117 1071.991699,867.199463 1074.589111,866.754639 
	C1074.912842,866.699158 1075.815552,867.867981 1075.774292,868.418762 
	C1075.729492,869.016296 1074.984497,869.911865 1074.388916,870.063110 
	C1068.746216,871.495483 1068.736694,871.457764 1069.264404,877.218201 
	C1071.021606,878.375122 1072.470703,879.329224 1073.919922,880.283325 
	C1072.474854,881.040527 1071.029907,881.797668 1069.079712,882.819580 
	C1069.079712,887.494202 1069.079712,892.780945 1069.079712,898.067627 
	C1068.653809,898.398315 1068.227783,898.729004 1067.801880,899.059692 
	C1066.906128,897.996704 1065.312012,896.980469 1065.237427,895.862549 
	C1064.939453,891.405334 1065.114502,886.916443 1065.114502,882.836304 
	C1063.460449,881.875183 1062.190186,881.137146 1060.919922,880.399048 
	C1062.133789,879.417908 1063.347656,878.436646 1064.779053,877.279541 
	C1065.240723,874.880005 1065.798584,871.980164 1066.609497,868.776062 
z"/>
<path fill="#F1F2F4" opacity="1.000000" stroke="none" 
	d="
M836.024536,886.975220 
	C836.024536,881.854797 836.024536,877.227173 836.024536,872.314148 
	C833.223633,872.155823 830.802368,872.018982 828.371826,871.881592 
	C828.766113,868.278320 828.767456,868.235413 844.060059,868.710266 
	C845.458862,868.753723 846.826294,869.806396 848.208313,870.390442 
	C847.996582,870.926941 847.784912,871.463501 847.573181,872.000000 
	C845.279297,872.000000 842.985413,872.000000 840.209839,872.000000 
	C840.209839,880.844543 840.209839,889.419861 840.209839,897.995239 
	C839.740967,898.333618 839.272095,898.671936 838.803223,899.010315 
	C837.878052,897.992065 836.311646,897.063416 836.154297,895.937866 
	C835.766479,893.162720 836.025513,890.297180 836.024536,886.975220 
z"/>
<path fill="#EDEFF0" opacity="1.000000" stroke="none" 
	d="
M1610.862305,882.638428 
	C1604.818115,881.514343 1601.137573,883.169434 1601.189819,887.386719 
	C1601.219604,889.792847 1602.634521,893.043030 1604.514526,894.366821 
	C1607.461548,896.441956 1610.882202,895.344055 1613.407715,892.266724 
	C1615.892700,895.098389 1615.046753,896.812805 1611.874268,898.122375 
	C1607.168091,900.064880 1602.081055,898.751038 1599.006348,894.627319 
	C1596.168945,890.821960 1596.259521,885.928650 1599.236328,882.195923 
	C1602.414551,878.210510 1607.706055,876.967773 1612.232300,879.143982 
	C1614.975830,880.463013 1615.093262,880.860413 1613.709229,884.880981 
	C1612.812866,884.166992 1611.994141,883.514771 1610.862305,882.638428 
z"/>
<path fill="#F1F2F4" opacity="1.000000" stroke="none" 
	d="
M1491.013916,893.815979 
	C1491.577026,893.593750 1492.071411,893.617737 1492.432129,893.849609 
	C1494.701904,895.309082 1497.577515,897.410339 1499.263550,894.172363 
	C1501.067505,890.708008 1497.043213,890.519958 1495.042969,889.624451 
	C1491.435913,888.009338 1489.778198,885.532471 1491.111938,881.697876 
	C1492.211792,878.535767 1496.604614,877.060364 1500.003784,878.904114 
	C1501.244263,879.577026 1501.817627,881.479858 1502.695435,882.821594 
	C1502.273804,883.100281 1501.852173,883.378967 1501.430542,883.657715 
	C1500.642090,883.129822 1499.853638,882.165283 1499.065308,882.165466 
	C1497.451660,882.165833 1495.838135,882.684082 1494.224487,882.989014 
	C1495.103027,884.160461 1495.797974,885.564331 1496.908569,886.442078 
	C1498.177734,887.445007 1500.516357,887.613770 1501.137573,888.800659 
	C1502.175293,890.782898 1503.151611,893.623291 1502.475220,895.496155 
	C1501.257080,898.869080 1497.825928,899.635742 1494.482910,898.710449 
	C1492.424316,898.140686 1489.495605,897.697998 1491.013916,893.815979 
z"/>
<path fill="#F1F2F4" opacity="1.000000" stroke="none" 
	d="
M1514.248413,895.290405 
	C1513.664185,896.702209 1513.081177,897.692749 1512.498169,898.683289 
	C1511.866089,897.737000 1510.733643,896.813904 1510.688477,895.840393 
	C1510.489136,891.532471 1510.602173,887.210022 1510.602173,883.064636 
	C1508.973999,881.955139 1507.532349,880.972900 1506.090820,879.990601 
	C1507.394043,879.252136 1508.697144,878.513611 1510.194092,877.665283 
	C1511.221436,872.417053 1511.221436,872.417053 1514.000977,872.448547 
	C1514.107666,874.231506 1514.214844,876.023193 1514.283081,877.164795 
	C1516.134155,878.411316 1517.580566,879.385254 1519.026978,880.359253 
	C1517.587891,881.149475 1516.148926,881.939758 1514.249756,882.982605 
	C1514.249756,886.618896 1514.249756,890.744080 1514.248413,895.290405 
z"/>
<path fill="#E5E7EA" opacity="1.000000" stroke="none" 
	d="
M1207.673584,894.514465 
	C1207.003540,896.214600 1206.333984,897.472900 1205.664307,898.731201 
	C1205.046875,897.616638 1203.910522,896.509888 1203.893311,895.386169 
	C1203.749756,885.965576 1203.811646,876.541931 1203.811646,867.182373 
	C1207.386353,865.820679 1207.712646,867.685669 1207.694580,870.222412 
	C1207.637817,878.172180 1207.673828,886.122498 1207.673584,894.514465 
z"/>
<path fill="#EBEDEF" opacity="1.000000" stroke="none" 
	d="
M1164.646851,881.854492 
	C1161.839233,879.150330 1161.839233,879.150330 1166.830444,877.953613 
	C1166.942017,876.200439 1167.056274,874.404297 1167.195312,872.217346 
	C1172.663574,871.262024 1169.807129,876.076416 1170.228638,876.619019 
	C1172.787720,878.432373 1174.207520,879.438416 1175.627319,880.444458 
	C1174.272217,881.137634 1172.917114,881.830811 1171.432373,882.590332 
	C1170.917725,887.610779 1170.371460,893.054810 1169.705933,898.484314 
	C1169.694336,898.578369 1168.244629,898.496094 1166.971191,898.496094 
	C1166.971191,894.044312 1167.111694,889.758057 1166.883301,885.491577 
	C1166.817139,884.254456 1165.693604,883.073975 1164.646851,881.854492 
z"/>
<path fill="#EBEDEF" opacity="1.000000" stroke="none" 
	d="
M963.230469,881.528931 
	C961.704590,881.840515 960.553040,881.947937 958.949219,882.097473 
	C958.949219,887.556763 958.949219,892.978394 958.949219,898.752258 
	C953.005005,898.478210 955.548523,894.252075 955.221680,891.868103 
	C954.798584,888.781921 955.118530,885.593811 955.118530,882.801819 
	C953.494385,881.876831 952.221191,881.151672 950.947998,880.426514 
	C952.172729,879.459717 953.397461,878.492920 954.622192,877.526123 
	C956.422974,876.175903 952.977600,871.378540 958.705750,872.134521 
	C958.873169,874.064209 959.041321,876.002869 959.171692,877.505676 
	C960.322327,879.597717 964.922424,876.725281 963.230469,881.528931 
z"/>
<path fill="#E5E7EA" opacity="1.000000" stroke="none" 
	d="
M998.056396,883.069458 
	C997.002319,887.079285 996.424011,890.903992 995.531372,894.653870 
	C995.186707,896.102173 994.128723,897.380737 993.395691,898.736572 
	C992.851440,897.383484 991.902893,896.049377 991.838013,894.673706 
	C991.634827,890.363770 991.669739,886.035400 991.795654,881.719421 
	C991.898010,878.211670 992.159790,878.219299 995.242432,879.624817 
	C996.045349,879.990906 997.316895,879.164856 998.361450,879.203369 
	C999.935120,879.261292 1001.498596,879.598145 1003.066467,879.816467 
	C1003.018799,880.368408 1002.971130,880.920349 1002.923401,881.472351 
	C1001.417847,881.933044 999.912292,882.393738 998.056396,883.069458 
z"/>
<path fill="#F1F2F4" opacity="1.000000" stroke="none" 
	d="
M1578.335693,880.411133 
	C1580.924683,879.064941 1583.581787,876.270691 1584.732422,881.376892 
	C1578.018677,883.055115 1577.357910,884.169434 1577.119629,891.801025 
	C1577.047119,894.118164 1576.025879,896.405701 1575.439331,898.706787 
	C1574.784180,896.458557 1573.796143,894.245300 1573.555176,891.953552 
	C1573.228394,888.846069 1573.357544,885.671936 1573.529297,882.539490 
	C1573.602417,881.204651 1574.278198,879.902832 1574.680176,878.585999 
	C1575.807617,879.271545 1576.934937,879.957153 1578.335693,880.411133 
z"/>
<path fill="#E5E7EA" opacity="1.000000" stroke="none" 
	d="
M1158.260620,897.873596 
	C1156.974976,897.641968 1154.982178,897.101501 1154.949707,896.461670 
	C1154.689575,891.331726 1154.722900,886.180786 1154.871826,881.042297 
	C1154.897095,880.170837 1155.906738,879.327881 1156.461548,878.471802 
	C1157.168091,879.347961 1158.460449,880.207886 1158.485229,881.103027 
	C1158.637329,886.570435 1158.501587,892.045959 1158.260620,897.873596 
z"/>
<path fill="#F1F2F4" opacity="1.000000" stroke="none" 
	d="
M1119.667236,892.690674 
	C1119.667358,888.909119 1119.490356,885.567505 1119.756226,882.261414 
	C1119.859863,880.973755 1120.961548,879.766357 1121.608643,878.522400 
	C1122.176514,879.677185 1123.180176,880.812073 1123.234009,881.990295 
	C1123.431030,886.307007 1123.459839,890.646240 1123.221313,894.958740 
	C1123.150757,896.234253 1121.991211,897.449646 1121.330811,898.692627 
	C1120.776489,897.508850 1120.138794,896.354675 1119.704224,895.128418 
	C1119.494629,894.537109 1119.667480,893.810242 1119.667236,892.690674 
z"/>
<path fill="#E5E7EA" opacity="1.000000" stroke="none" 
	d="
M1588.257080,896.274536 
	C1588.246948,891.056274 1588.114868,886.260620 1588.339600,881.481812 
	C1588.395142,880.298950 1589.608765,879.170593 1590.290039,878.017151 
	C1590.785156,878.240845 1591.280273,878.464478 1591.775391,878.688171 
	C1591.775391,885.192383 1591.775391,891.696533 1591.775391,899.505554 
	C1590.213013,898.257751 1589.239990,897.480530 1588.257080,896.274536 
z"/>
<path fill="#E5E7EA" opacity="1.000000" stroke="none" 
	d="
M1322.126709,894.425659 
	C1321.551270,896.157471 1320.976074,897.452698 1320.400879,898.747864 
	C1319.682007,897.545837 1318.413574,896.374939 1318.343384,895.136108 
	C1318.091431,890.694519 1318.088867,886.221008 1318.343872,881.779785 
	C1318.416748,880.511230 1319.680420,879.311035 1320.398071,878.079529 
	C1320.974365,878.319336 1321.550781,878.559143 1322.127075,878.798950 
	C1322.127075,883.862366 1322.127075,888.925720 1322.126709,894.425659 
z"/>
<path fill="#EBEDEF" opacity="1.000000" stroke="none" 
	d="
M1387.161865,884.276733 
	C1387.569946,881.672791 1385.713745,878.006165 1390.784424,878.689270 
	C1390.784424,885.245483 1390.784424,891.677307 1390.784424,898.109131 
	C1390.411011,898.387329 1390.037476,898.665527 1389.664062,898.943726 
	C1388.831299,897.873962 1387.376953,896.857056 1387.280640,895.724670 
	C1386.971069,892.084473 1387.163208,888.401672 1387.161865,884.276733 
z"/>
<path fill="#24436A" opacity="1.000000" stroke="none" 
	d="
M1198.849609,765.000488 
	C1198.849609,758.539062 1198.849609,752.577515 1198.849609,745.832764 
	C1214.229004,746.695496 1229.360962,744.026062 1244.193359,748.061829 
	C1252.996826,750.457275 1259.386230,756.004211 1260.995361,765.270630 
	C1264.641357,786.264282 1255.717529,799.571106 1234.813599,801.561096 
	C1223.148438,802.671570 1211.291016,801.760681 1198.849609,801.760681 
	C1198.849609,789.654907 1198.849609,777.577637 1198.849609,765.000488 
z"/>
<path fill="#24436A" opacity="1.000000" stroke="none" 
	d="
M1198.849609,686.014099 
	C1198.849609,681.880615 1198.849609,678.244019 1198.849609,673.274170 
	C1211.146484,674.032776 1223.148804,673.874817 1234.825195,675.747864 
	C1246.355591,677.597595 1251.880249,685.532104 1251.800903,696.507751 
	C1251.698120,710.725098 1244.530151,721.577881 1232.123047,723.491150 
	C1221.390869,725.146057 1210.352417,724.814514 1198.849609,725.391052 
	C1198.849609,711.729919 1198.849609,699.120483 1198.849609,686.014099 
z"/>
<path fill="#264568" opacity="1.000000" stroke="none" 
	d="
M1376.965454,724.040161 
	C1383.287231,738.318176 1389.489502,752.235107 1395.898193,766.614929 
	C1376.306152,766.614929 1357.527832,766.614929 1337.945679,766.614929 
	C1347.588989,745.010498 1357.094727,723.714233 1367.132568,701.225830 
	C1370.651611,709.360229 1373.748901,716.519592 1376.965454,724.040161 
z"/>
<path fill="#28476D" opacity="1.000000" stroke="none" 
	d="
M1095.930542,872.073242 
	C1105.444580,872.428406 1109.949707,875.889832 1110.391724,882.836426 
	C1110.817505,889.531433 1106.300537,894.567017 1099.418335,894.977051 
	C1097.455322,895.093994 1095.479492,894.994873 1092.878662,894.994873 
	C1092.878662,887.886108 1092.804688,880.984253 1092.992310,874.089600 
	C1093.011230,873.395813 1094.612427,872.744995 1095.930542,872.073242 
z"/>
<path fill="#28476D" opacity="1.000000" stroke="none" 
	d="
M1232.640381,895.013855 
	C1229.880005,895.308044 1228.423218,894.813049 1228.645386,891.949585 
	C1228.860107,889.181091 1228.691895,886.382935 1228.691895,883.663208 
	C1234.910156,881.964355 1238.272339,883.207458 1239.211426,887.402100 
	C1240.118774,891.454651 1238.154663,893.892578 1232.640381,895.013855 
z"/>
<path fill="#28476D" opacity="1.000000" stroke="none" 
	d="
M1234.392334,878.986267 
	C1232.469238,879.070862 1230.977539,879.070862 1229.088623,879.070862 
	C1229.088623,876.842957 1229.088623,874.653503 1229.088623,871.162048 
	C1232.014893,872.398743 1234.384033,873.399963 1236.753052,874.401123 
	C1236.109863,875.901306 1235.466675,877.401489 1234.392334,878.986267 
z"/>
<path fill="#28476D" opacity="1.000000" stroke="none" 
	d="
M1135.125366,882.851746 
	C1138.723267,881.220093 1142.114380,881.374451 1143.693359,884.597900 
	C1144.744507,886.744507 1144.895874,890.315918 1143.756104,892.253235 
	C1142.771484,893.927063 1139.293701,895.139465 1137.099487,894.899109 
	C1131.570801,894.293518 1130.510498,888.145752 1135.125366,882.851746 
z"/>
<path fill="#28476D" opacity="1.000000" stroke="none" 
	d="
M1367.326172,885.868958 
	C1368.664429,889.699951 1367.701660,892.843506 1364.552246,894.264404 
	C1362.629272,895.132080 1359.228882,895.112183 1357.741211,893.925293 
	C1356.058960,892.583191 1354.855103,889.357788 1355.160522,887.193481 
	C1355.428833,885.291504 1357.767212,882.956970 1359.729980,882.186951 
	C1362.744507,881.004333 1365.562012,882.403809 1367.326172,885.868958 
z"/>
<path fill="#28476D" opacity="1.000000" stroke="none" 
	d="
M1540.393188,883.840027 
	C1541.332397,881.552917 1542.090210,879.633545 1543.217041,876.779724 
	C1544.570068,880.404480 1545.549316,883.028015 1546.528564,885.651550 
	C1546.215942,886.097473 1545.903198,886.543335 1545.590454,886.989258 
	C1543.797607,886.062073 1542.004761,885.134949 1540.393188,883.840027 
z"/>
<path fill="#28476D" opacity="1.000000" stroke="none" 
	d="
M1263.593506,885.763794 
	C1264.561768,889.469238 1264.217407,892.808472 1260.873779,894.230042 
	C1258.903809,895.067688 1255.686279,895.068298 1254.029663,893.956116 
	C1252.375244,892.845093 1251.030273,889.761963 1251.277344,887.755981 
	C1251.523438,885.755981 1253.546753,883.223328 1255.446655,882.348267 
	C1258.566650,880.911194 1261.594116,882.167847 1263.593506,885.763794 
z"/>
<path fill="#28476D" opacity="1.000000" stroke="none" 
	d="
M1634.043945,891.915588 
	C1631.394653,895.634644 1628.190796,896.246399 1624.728271,894.186462 
	C1621.522583,892.279358 1620.669800,888.698547 1622.433838,885.977905 
	C1623.744751,883.955872 1627.073364,882.246521 1629.542236,882.192688 
	C1633.753784,882.100891 1635.546509,886.343506 1634.043945,891.915588 
z"/>
<path fill="#28476D" opacity="1.000000" stroke="none" 
	d="
M1186.345215,895.116516 
	C1182.238525,893.851379 1180.253540,891.052429 1181.280762,887.506409 
	C1181.897705,885.377441 1184.175171,883.017822 1186.271118,882.187012 
	C1189.917358,880.741821 1193.609741,883.667053 1194.091797,887.547058 
	C1194.664307,892.157593 1192.218384,894.698975 1186.345215,895.116516 
z"/>
<path fill="#435D7D" opacity="1.000000" stroke="none" 
	d="
M885.081238,881.570435 
	C887.491577,882.651489 889.537720,883.749573 891.583801,884.847717 
	C891.348145,885.348206 891.112488,885.848755 890.876892,886.349243 
	C887.059937,886.349243 883.242981,886.349243 879.426086,886.349243 
	C879.178772,885.981628 878.931519,885.614014 878.684265,885.246338 
	C880.695129,884.026733 882.706055,882.807129 885.081238,881.570435 
z"/>
<path fill="#435D7D" opacity="1.000000" stroke="none" 
	d="
M1013.208008,886.582764 
	C1011.541138,886.583435 1010.306030,886.583435 1009.070984,886.583435 
	C1008.855835,886.033997 1008.640747,885.484619 1008.425598,884.935181 
	C1010.451843,883.813660 1012.489258,881.786072 1014.501343,881.810791 
	C1016.772461,881.838745 1019.020874,883.712280 1021.279175,884.783203 
	C1021.097778,885.382812 1020.916321,885.982483 1020.734924,886.582153 
	C1018.369873,886.582153 1016.004822,886.582153 1013.208008,886.582764 
z"/>
<path fill="#435D7D" opacity="1.000000" stroke="none" 
	d="
M1480.881958,883.116943 
	C1481.699219,884.159119 1482.238403,884.965698 1483.114258,886.275757 
	C1478.789551,886.275757 1474.931519,886.275757 1471.126221,886.275757 
	C1472.263794,881.510437 1474.915405,880.491394 1480.881958,883.116943 
z"/>
<path fill="#28476D" opacity="1.000000" stroke="none" 
	d="
M1055.120728,887.296143 
	C1054.702515,893.194336 1052.162964,895.735291 1047.682495,895.199585 
	C1043.869507,894.743652 1040.843994,891.095154 1042.196289,887.441528 
	C1043.010986,885.240540 1045.453613,882.836609 1047.670776,882.143921 
	C1051.238281,881.029297 1053.956543,883.164673 1055.120728,887.296143 
z"/>
</svg>