<svg version="1.1" id="Layer_1" xmlns="http://www.w3.org/2000/svg" xmlns:xlink="http://www.w3.org/1999/xlink" x="0px" y="0px"
	 width="100%" viewBox="0 0 2000 692" enable-background="new 0 0 2000 692" xml:space="preserve">
<path fill="#4C6971" opacity="1.000000" stroke="none" 
	d="
M1248.000000,693.000000 
	C832.000000,693.000000 416.500000,693.000000 1.000000,693.000000 
	C1.000000,462.333344 1.000000,231.666672 1.000000,1.000000 
	C667.666687,1.000000 1334.333374,1.000000 2001.000000,1.000000 
	C2001.000000,231.666672 2001.000000,462.333344 2001.000000,693.000000 
	C1750.166626,693.000000 1499.333374,693.000000 1248.000000,693.000000 
M227.770691,660.851013 
	C238.865219,664.741638 249.865845,668.929993 261.072540,672.465027 
	C290.348175,681.699707 320.481079,686.383362 351.090668,686.784668 
	C368.124512,687.007935 385.220673,685.428711 402.227936,683.958374 
	C422.239258,682.228394 441.723907,677.581299 460.875885,671.557800 
	C499.036621,659.555786 534.096191,641.644958 565.811340,617.147644 
	C584.929688,602.380249 602.412231,586.035950 618.104614,567.621460 
	C633.673462,549.351868 647.175232,529.726013 658.563049,508.691132 
	C673.075439,481.884583 684.454590,453.722900 690.408264,423.761353 
	C694.143738,404.963348 697.129578,385.903687 698.667603,366.817627 
	C699.876709,351.812500 698.434021,336.585205 698.027222,321.460419 
	C697.480652,301.136292 693.612793,281.251831 688.613403,261.682343 
	C681.357727,233.280914 670.440430,206.239105 655.928833,180.679642 
	C635.750061,145.138641 610.427979,113.934448 579.148315,87.504578 
	C560.446045,71.701996 540.379395,57.961723 518.837097,46.494457 
	C492.965057,32.722385 465.628998,22.649818 437.037933,15.951630 
	C414.361664,10.639119 391.379425,7.385093 368.166595,7.219140 
	C350.624207,7.093726 332.900177,7.797958 315.561249,10.268387 
	C295.800171,13.083916 276.013123,17.042147 256.890137,22.707254 
	C226.742203,31.638472 198.385910,45.201069 172.358612,62.924084 
	C158.434677,72.405441 145.494431,83.379242 132.453384,94.097038 
	C116.739075,107.011848 103.343353,122.217583 90.891632,138.241898 
	C73.926704,160.074341 59.368824,183.408386 48.648762,208.936371 
	C43.263535,221.760345 38.395252,234.844498 34.100555,248.073105 
	C27.799402,267.481934 23.535305,287.408722 21.871216,307.791168 
	C20.711594,321.994659 19.524841,336.221283 19.189074,350.457367 
	C18.979004,359.364044 19.882483,368.366974 21.070961,377.221405 
	C23.270288,393.606903 25.163328,410.112823 28.771551,426.212769 
	C35.476986,456.132568 46.676258,484.461273 61.608349,511.330750 
	C76.112648,537.430359 93.507042,561.341919 114.314224,582.729309 
	C121.380112,589.992249 128.582169,597.206116 136.365433,603.667358 
	C147.063095,612.547913 158.098465,621.082581 169.482758,629.061096 
	C187.477631,641.672546 207.020004,651.609497 227.770691,660.851013 
M911.670410,475.161804 
	C923.342590,468.993347 932.815247,460.196381 940.627502,449.748901 
	C953.372070,432.705292 960.409607,413.618713 960.079834,392.043213 
	C960.019104,388.066864 958.702026,386.818268 954.856018,386.942017 
	C947.864258,387.166962 940.859924,386.999451 933.860840,387.000031 
	C919.862671,387.001190 905.864502,386.997253 891.866333,387.016113 
	C889.542603,387.019226 887.000977,386.688568 887.029907,390.319061 
	C887.089539,397.817108 886.912659,405.321411 887.207581,412.808380 
	C887.250610,413.900391 889.206665,415.484985 890.537781,415.826263 
	C892.573608,416.348206 894.836060,415.996796 897.002258,415.998169 
	C904.591675,416.002930 912.181152,416.000000 920.688049,416.000000 
	C919.517944,418.571899 919.058960,420.386536 918.010498,421.746735 
	C913.282349,427.880707 909.142090,434.752197 903.396423,439.758698 
	C891.117371,450.458191 876.612549,455.114990 860.081543,452.222473 
	C845.385803,449.651154 833.637939,442.423615 824.344604,430.872742 
	C815.546387,419.937256 810.824158,407.389984 810.071472,393.512421 
	C808.878357,371.514923 816.817993,353.029053 833.697205,339.005280 
	C848.201294,326.954773 864.870239,322.781555 883.487305,328.309326 
	C893.822327,331.377960 902.201965,337.198975 909.575073,344.878571 
	C910.709229,346.059906 913.601562,346.975525 914.883606,346.358246 
	C922.328369,342.773560 929.549866,338.721436 936.810974,334.761505 
	C938.632507,333.768127 940.322021,332.532745 943.229187,330.665497 
	C935.173706,323.044586 928.529541,314.899414 920.201599,309.225494 
	C894.278076,291.563477 866.075195,287.691498 836.505249,299.075684 
	C814.441284,307.570129 798.142029,322.778534 787.102722,343.684540 
	C778.375366,360.212189 776.145691,377.906189 776.930786,396.305359 
	C777.468262,408.901123 780.380737,420.840942 785.660278,432.175476 
	C791.805969,445.369598 800.157593,456.921997 811.598389,466.199188 
	C821.123535,473.923035 831.623657,479.501801 843.334595,483.110596 
	C855.127625,486.744629 867.189209,486.811249 879.188477,485.822052 
	C890.462891,484.892609 901.238586,481.494354 911.670410,475.161804 
M1025.995850,430.440552 
	C1014.760864,414.816864 1009.779053,397.572662 1013.086121,378.411499 
	C1015.677734,363.395660 1022.563721,350.698212 1034.056030,340.405609 
	C1043.570679,331.884186 1054.518188,326.897888 1067.117432,326.091980 
	C1084.370850,324.988403 1098.940186,331.497925 1110.934814,343.618225 
	C1114.155029,346.872162 1116.736328,347.125641 1120.396118,344.931091 
	C1124.654297,342.377838 1129.147583,340.220551 1133.477905,337.782898 
	C1137.013062,335.792908 1140.458496,333.643372 1145.231323,330.796570 
	C1139.291504,324.827789 1134.196289,319.301300 1128.677979,314.235718 
	C1109.047363,296.215698 1085.295044,290.453705 1059.605225,293.303497 
	C1034.579590,296.079620 1014.421753,308.571503 999.072937,328.518524 
	C987.488403,343.573608 980.676025,360.726135 979.148010,379.613831 
	C977.456787,400.519196 980.846191,420.594696 991.521606,439.052002 
	C1000.755066,455.016083 1013.036987,467.771240 1029.585327,476.323151 
	C1041.419067,482.438660 1053.701782,485.906525 1067.158203,486.188538 
	C1078.869751,486.433990 1090.276611,485.468842 1101.187988,481.376038 
	C1117.467651,475.269592 1130.925171,465.089691 1141.942139,451.628906 
	C1144.362183,448.671997 1143.984253,446.952240 1140.560059,445.189636 
	C1133.644653,441.630005 1126.824219,437.870270 1120.104248,433.953430 
	C1116.549683,431.881500 1113.868896,431.887177 1111.078247,435.279968 
	C1109.222046,437.536743 1106.722778,439.313324 1104.349365,441.088379 
	C1086.634399,454.337250 1067.666260,456.935486 1047.324097,447.685730 
	C1038.947876,443.876953 1032.724487,437.416260 1025.995850,430.440552 
M1717.522217,306.036041 
	C1713.688843,297.109467 1706.761108,294.328522 1697.590210,295.996094 
	C1697.428955,296.025452 1697.257690,295.999786 1697.091064,296.000305 
	C1690.022583,296.021851 1690.004272,296.021851 1690.003662,303.093048 
	C1689.998169,359.073730 1690.000244,415.054443 1690.000000,471.035126 
	C1690.000000,483.049347 1690.000000,483.049377 1702.217163,482.998871 
	C1708.974731,482.970947 1708.995361,482.970917 1708.996338,476.098969 
	C1709.002930,430.614655 1709.000000,385.130341 1709.000244,339.646027 
	C1709.000244,337.738800 1709.000244,335.831543 1709.000244,333.240601 
	C1710.093140,334.116669 1710.554932,334.332977 1710.788452,334.696045 
	C1724.282959,355.686218 1737.698853,376.727173 1751.251587,397.679626 
	C1767.145508,422.251648 1783.693115,446.423126 1798.836792,471.446350 
	C1804.417236,480.667480 1810.422241,484.516541 1820.938477,483.164124 
	C1827.888306,482.270447 1827.996704,482.977234 1827.997437,475.898102 
	C1828.002441,420.084015 1828.000244,364.269928 1828.000366,308.455841 
	C1828.000366,295.968842 1828.000488,295.968811 1815.276733,296.000031 
	C1808.015137,296.017853 1808.002563,296.017883 1808.001831,303.406616 
	C1807.997559,348.724335 1808.003052,394.042023 1807.985474,439.359741 
	C1807.984863,441.149445 1807.786011,442.939087 1807.679443,444.728760 
	C1807.306885,444.739288 1806.934448,444.749817 1806.561890,444.760345 
	C1777.015869,398.722870 1747.469971,352.685425 1717.522217,306.036041 
M1373.909424,482.931244 
	C1398.231812,482.951721 1422.572144,483.550751 1446.870850,482.801605 
	C1464.883057,482.246246 1478.497681,473.108582 1487.359863,457.243835 
	C1494.418823,444.606781 1495.346313,431.080078 1492.808716,417.188263 
	C1490.739136,405.858429 1486.212280,395.631348 1477.317871,387.910461 
	C1473.809814,384.865234 1469.817139,382.378082 1465.882568,379.518616 
	C1467.947021,377.838226 1470.029785,376.440735 1471.755249,374.691010 
	C1484.771240,361.492889 1486.637085,345.324493 1482.113281,328.567627 
	C1476.272339,306.930603 1459.131470,297.277466 1439.777100,296.262878 
	C1418.511353,295.148071 1397.141724,296.076782 1375.818237,295.944336 
	C1372.092651,295.921204 1370.947266,297.205383 1370.952637,300.868988 
	C1371.037598,360.010193 1370.998779,419.151581 1371.097046,478.292694 
	C1371.099609,479.803497 1372.335938,481.312256 1373.909424,482.931244 
M1606.883057,319.755707 
	C1605.291870,315.583191 1602.971680,311.531708 1602.254761,307.214020 
	C1600.539795,296.885742 1594.461304,295.028717 1585.094604,295.798462 
	C1574.479004,296.670837 1574.240723,295.932404 1570.606201,305.799622 
	C1557.795898,340.578278 1545.122681,375.407501 1532.397217,410.217377 
	C1524.729370,431.192139 1517.036011,452.157562 1509.420654,473.151367 
	C1508.336914,476.138702 1507.630615,479.262848 1506.569458,482.949158 
	C1513.207886,482.949158 1518.856567,483.144806 1524.472290,482.802032 
	C1525.763916,482.723206 1527.551880,481.032684 1528.076782,479.681915 
	C1532.144531,469.212585 1536.145386,458.707947 1539.749268,448.072693 
	C1541.002441,444.374359 1542.543579,442.868103 1546.667236,442.900421 
	C1572.483521,443.102722 1598.304199,443.167542 1624.118408,442.859863 
	C1629.233276,442.798950 1631.473755,444.680969 1632.974854,449.150574 
	C1636.395996,459.336731 1640.083252,469.434784 1643.779419,479.525696 
	C1644.232056,480.761414 1645.361694,482.645966 1646.243896,482.683746 
	C1652.603027,482.956085 1658.979126,482.829681 1665.886597,482.829681 
	C1657.573975,459.598236 1649.696411,437.310852 1641.626099,415.093475 
	C1630.166382,383.544495 1618.564819,352.047058 1606.883057,319.755707 
M1239.500000,449.999054 
	C1228.835693,449.997406 1218.165771,449.792480 1207.509766,450.089966 
	C1202.982300,450.216339 1201.842163,448.569946 1201.925171,444.313507 
	C1202.159302,432.320740 1202.004150,420.320404 1202.003784,408.323029 
	C1202.002441,372.830811 1201.929565,337.338226 1202.090210,301.846741 
	C1202.110840,297.282013 1200.761108,295.695862 1196.161255,295.915314 
	C1189.178711,296.248444 1182.168457,295.993195 1175.170044,296.002563 
	C1168.022827,296.012146 1168.004028,296.019928 1168.003418,303.003540 
	C1167.997803,358.658020 1167.999756,414.312500 1168.000854,469.966980 
	C1168.000977,472.966278 1168.130127,475.971008 1167.989746,478.963379 
	C1167.845947,482.029083 1169.233154,483.018646 1172.161621,483.014282 
	C1206.320679,482.963287 1240.479858,482.956726 1274.638794,483.028259 
	C1277.844727,483.034973 1279.090210,481.918274 1279.030273,478.672943 
	C1278.888794,471.010681 1278.791260,463.336395 1279.075928,455.681854 
	C1279.234619,451.413879 1278.011841,449.787292 1273.490234,449.907837 
	C1262.500488,450.200836 1251.497559,450.000610 1239.500000,449.999054 
M1878.000488,354.500000 
	C1878.000488,339.008453 1878.000366,323.516907 1878.000366,308.025360 
	C1878.000366,295.954132 1878.000488,295.954132 1865.850342,296.000854 
	C1859.027588,296.027100 1859.005249,296.027100 1859.004395,302.831116 
	C1858.997925,358.467804 1859.000366,414.104462 1859.000000,469.741150 
	C1858.999878,483.189056 1859.001099,483.014465 1872.415283,483.094940 
	C1876.808594,483.121277 1878.137207,481.777161 1878.085938,477.400848 
	C1877.874756,459.413055 1877.991211,441.421295 1878.018311,423.431030 
	C1878.020874,421.777802 1877.626221,419.653351 1878.467773,418.549927 
	C1883.208374,412.334442 1888.270996,406.364594 1893.448853,400.035828 
	C1901.706909,411.402405 1909.431396,422.077637 1917.202026,432.719208 
	C1928.307129,447.927429 1939.431519,463.121704 1950.591797,478.289368 
	C1951.747681,479.860382 1953.143433,482.398285 1954.529541,482.467987 
	C1962.520142,482.869843 1970.541382,482.663879 1979.228638,482.663879 
	C1972.812256,473.762360 1967.112671,465.659698 1961.212158,457.706055 
	C1943.788330,434.219330 1926.328613,410.758881 1908.747437,387.390076 
	C1906.942627,384.991150 1907.077881,383.610809 1908.971313,381.454254 
	C1916.931763,372.388184 1924.786621,363.226562 1932.542480,353.984436 
	C1944.216309,340.073578 1955.772705,326.064240 1967.383423,312.100342 
	C1971.532959,307.109985 1975.694824,302.129822 1980.735718,296.083801 
	C1971.654175,296.083801 1963.892334,296.000641 1956.136719,296.183685 
	C1955.108398,296.207977 1953.927979,297.429291 1953.128784,298.362427 
	C1943.458618,309.653839 1933.787231,320.945374 1924.236694,332.338074 
	C1914.798340,343.597137 1905.550903,355.016266 1896.115845,366.278320 
	C1890.554688,372.916473 1884.791992,379.385803 1879.119873,385.931091 
	C1878.746704,385.848145 1878.373657,385.765228 1878.000488,385.682281 
	C1878.000488,375.621521 1878.000488,365.560760 1878.000488,354.500000 
z"/>
<path fill="#2ECC40" opacity="1.000000" stroke="none" 
	d="
M227.421631,660.694580 
	C207.020004,651.609497 187.477631,641.672546 169.482758,629.061096 
	C158.098465,621.082581 147.063095,612.547913 136.365433,603.667358 
	C128.582169,597.206116 121.380112,589.992249 114.314224,582.729309 
	C93.507042,561.341919 76.112648,537.430359 61.608349,511.330750 
	C46.676258,484.461273 35.476986,456.132568 28.771551,426.212769 
	C25.163328,410.112823 23.270288,393.606903 21.070961,377.221405 
	C19.882483,368.366974 18.979004,359.364044 19.189074,350.457367 
	C19.524841,336.221283 20.711594,321.994659 21.871216,307.791168 
	C23.535305,287.408722 27.799402,267.481934 34.100555,248.073105 
	C38.395252,234.844498 43.263535,221.760345 48.648762,208.936371 
	C59.368824,183.408386 73.926704,160.074341 90.891632,138.241898 
	C103.343353,122.217583 116.739075,107.011848 132.453384,94.097038 
	C145.494431,83.379242 158.434677,72.405441 172.358612,62.924084 
	C198.385910,45.201069 226.742203,31.638472 256.890137,22.707254 
	C276.013123,17.042147 295.800171,13.083916 315.561249,10.268387 
	C332.900177,7.797958 350.624207,7.093726 368.166595,7.219140 
	C391.379425,7.385093 414.361664,10.639119 437.037933,15.951630 
	C465.628998,22.649818 492.965057,32.722385 518.837097,46.494457 
	C540.379395,57.961723 560.446045,71.701996 579.148315,87.504578 
	C610.427979,113.934448 635.750061,145.138641 655.928833,180.679642 
	C670.440430,206.239105 681.357727,233.280914 688.613403,261.682343 
	C693.612793,281.251831 697.480652,301.136292 698.027222,321.460419 
	C698.434021,336.585205 699.876709,351.812500 698.667603,366.817627 
	C697.129578,385.903687 694.143738,404.963348 690.408264,423.761353 
	C684.454590,453.722900 673.075439,481.884583 658.563049,508.691132 
	C647.175232,529.726013 633.673462,549.351868 618.104614,567.621460 
	C602.412231,586.035950 584.929688,602.380249 565.811340,617.147644 
	C534.096191,641.644958 499.036621,659.555786 460.875885,671.557800 
	C441.723907,677.581299 422.239258,682.228394 402.227936,683.958374 
	C385.220673,685.428711 368.124512,687.007935 351.090668,686.784668 
	C320.481079,686.383362 290.348175,681.699707 261.072540,672.465027 
	C249.865845,668.929993 238.865219,664.741638 227.421631,660.694580 
M382.565826,171.190613 
	C377.362976,173.227142 371.648621,174.552216 369.811188,181.040970 
	C369.602875,181.776596 368.234039,182.830612 367.618744,182.702499 
	C362.280182,181.590805 356.329742,182.073959 352.398621,177.055984 
	C349.869476,173.827637 346.944946,171.961716 342.354126,171.729279 
	C338.202606,171.519104 334.160065,169.155670 330.091064,167.749161 
	C332.880951,160.421021 329.135193,151.376114 323.341217,151.293777 
	C312.631775,151.141571 301.774902,149.336380 291.226532,153.358429 
	C281.066101,157.232529 270.893463,161.391800 259.518463,157.859711 
	C257.691833,157.292511 254.754395,158.349594 253.073761,159.630814 
	C248.000412,163.498444 243.460007,168.064362 238.393021,171.941376 
	C233.959061,175.334000 230.066010,178.838821 228.099533,184.339279 
	C227.401535,186.291595 225.165802,187.788071 223.434464,189.260269 
	C217.002243,194.729767 209.845917,199.511459 204.175400,205.669281 
	C197.853607,212.534393 192.707214,220.515884 187.378693,228.238785 
	C185.967911,230.283478 185.349808,233.122711 185.097137,235.669479 
	C184.491684,241.771561 184.539719,247.942032 183.836945,254.028671 
	C183.629395,255.826202 182.163895,257.977203 180.631119,259.019684 
	C177.397400,261.218964 176.293564,263.998871 175.934341,267.750336 
	C174.914932,278.396545 179.101624,286.695770 186.386536,294.055542 
	C188.710449,296.403320 190.096939,299.709625 191.779907,302.653046 
	C193.655609,305.933624 194.699310,310.022308 197.308319,312.484161 
	C203.314087,318.151276 210.265930,322.805908 216.397629,328.353546 
	C219.518784,331.177429 221.822845,330.285187 224.725418,328.625488 
	C227.108643,327.262787 229.645477,325.276489 232.156647,325.211731 
	C237.732803,325.068024 243.330688,326.036804 248.930374,326.376312 
	C250.673111,326.481964 252.573364,326.358795 254.190353,325.765167 
	C261.812195,322.967194 269.362183,319.973236 276.934906,317.041718 
	C282.691040,314.813446 284.855316,315.511627 287.938690,320.819458 
	C290.682343,325.542389 294.008972,328.319031 300.175842,328.169525 
	C315.029175,327.809418 312.992645,326.330780 312.859436,340.673798 
	C312.823120,344.579803 312.005951,349.109222 309.877167,352.203644 
	C307.282928,355.974548 307.769043,357.916931 310.454315,361.131897 
	C316.142914,367.942566 322.237793,374.694275 326.412842,382.417847 
	C331.644196,392.095520 336.234772,402.327362 336.112640,413.932678 
	C336.068115,418.161285 335.339752,421.751923 332.447510,424.831757 
	C325.247040,432.499207 327.157806,447.934204 331.100647,455.752014 
	C335.634735,464.742188 341.016968,473.739868 343.171967,483.373779 
	C345.382629,493.256409 348.504364,502.248596 353.340759,511.064728 
	C357.032227,517.793823 360.093781,525.175354 361.723938,532.640503 
	C363.298737,539.852112 368.905792,543.804749 375.728699,540.772949 
	C379.233673,539.215515 383.305634,537.172974 386.790649,537.669739 
	C396.327362,539.029175 404.700897,537.940979 412.214935,531.416016 
	C417.081451,527.190063 422.718506,523.844055 427.526794,519.560852 
	C431.050293,516.422241 435.765350,512.753601 436.486053,508.704681 
	C438.273010,498.665619 442.881500,492.156281 452.577972,489.146118 
	C455.896759,488.115875 457.187927,485.620178 457.006317,482.210907 
	C456.900116,480.216858 457.062836,478.208740 456.963928,476.213928 
	C456.468201,466.216827 456.247406,466.031525 462.741211,458.898956 
	C465.380554,456.000031 469.018494,453.937714 472.400879,451.810974 
	C475.061401,450.138184 479.023102,449.661774 480.641785,447.394012 
	C483.649231,443.180847 486.216675,438.249146 487.400543,433.245880 
	C488.741608,427.578583 487.969543,421.442627 488.880890,415.630280 
	C489.405884,412.281738 490.206451,409.721893 486.684937,407.466003 
	C485.539581,406.732300 485.177917,404.233459 485.079285,402.506439 
	C484.746185,396.673187 488.169006,390.479645 483.279663,385.081451 
	C483.042053,384.819153 483.125519,384.039948 483.329285,383.638336 
	C485.935272,378.502838 487.864807,372.810028 491.397461,368.407166 
	C497.201538,361.173370 504.115601,354.837830 510.435974,348.007294 
	C513.455322,344.744232 516.596436,341.475891 518.969727,337.755402 
	C525.655762,327.273956 532.052124,316.604126 538.392517,305.907715 
	C540.676636,302.054382 543.793274,298.377563 542.028687,293.176575 
	C541.245422,290.867767 541.304382,288.280426 540.909546,285.831055 
	C540.212769,281.508575 538.650879,280.835785 534.373352,282.198669 
	C527.121704,284.509216 519.800964,286.613739 512.464539,288.643005 
	C508.956421,289.613312 505.442322,288.981049 504.161835,285.263428 
	C501.157532,276.541016 494.888184,270.884949 487.670532,265.785889 
	C484.685303,263.676910 481.935089,261.043121 479.637451,258.196472 
	C475.864838,253.522385 474.534607,246.908035 468.180267,244.219147 
	C467.422791,243.898605 467.261536,241.907516 467.031158,240.652725 
	C466.377563,237.092621 466.719269,233.016357 465.057495,230.044403 
	C461.630615,223.915665 457.160492,218.369812 453.113678,212.588272 
	C446.940308,203.768478 440.554871,195.087341 434.673676,186.076935 
	C431.769043,181.626862 430.111786,176.008926 422.991730,179.734528 
	C422.611877,179.933289 421.998871,179.787170 421.520538,179.682297 
	C408.786987,176.890808 396.056824,174.083633 382.565826,171.190613 
M523.869934,464.335327 
	C526.740784,457.318939 529.176025,450.082581 532.582947,443.336975 
	C537.891907,432.825226 534.327209,420.888672 528.866699,415.418549 
	C525.888245,419.335907 521.847534,422.888580 520.114258,427.339783 
	C517.463989,434.145874 512.775330,437.642517 506.367065,439.789948 
	C500.901093,441.621582 497.290771,446.417603 497.042480,452.251282 
	C496.915192,455.241760 497.106812,458.247284 496.939209,461.233948 
	C496.859283,462.658447 496.742432,464.561768 495.847961,465.381897 
	C489.869720,470.863434 488.503723,477.389160 489.862244,485.198975 
	C490.672089,489.854370 493.380310,494.662781 497.284882,495.497894 
	C500.644836,496.216461 509.144409,492.562500 510.667236,489.657898 
	C514.971252,481.448395 519.229187,473.214722 523.869934,464.335327 
z"/>
<path fill="#122023" opacity="1.000000" stroke="none" 
	d="
M911.362305,475.366150 
	C901.238586,481.494354 890.462891,484.892609 879.188477,485.822052 
	C867.189209,486.811249 855.127625,486.744629 843.334595,483.110596 
	C831.623657,479.501801 821.123535,473.923035 811.598389,466.199188 
	C800.157593,456.921997 791.805969,445.369598 785.660278,432.175476 
	C780.380737,420.840942 777.468262,408.901123 776.930786,396.305359 
	C776.145691,377.906189 778.375366,360.212189 787.102722,343.684540 
	C798.142029,322.778534 814.441284,307.570129 836.505249,299.075684 
	C866.075195,287.691498 894.278076,291.563477 920.201599,309.225494 
	C928.529541,314.899414 935.173706,323.044586 943.229187,330.665497 
	C940.322021,332.532745 938.632507,333.768127 936.810974,334.761505 
	C929.549866,338.721436 922.328369,342.773560 914.883606,346.358246 
	C913.601562,346.975525 910.709229,346.059906 909.575073,344.878571 
	C902.201965,337.198975 893.822327,331.377960 883.487305,328.309326 
	C864.870239,322.781555 848.201294,326.954773 833.697205,339.005280 
	C816.817993,353.029053 808.878357,371.514923 810.071472,393.512421 
	C810.824158,407.389984 815.546387,419.937256 824.344604,430.872742 
	C833.637939,442.423615 845.385803,449.651154 860.081543,452.222473 
	C876.612549,455.114990 891.117371,450.458191 903.396423,439.758698 
	C909.142090,434.752197 913.282349,427.880707 918.010498,421.746735 
	C919.058960,420.386536 919.517944,418.571899 920.688049,416.000000 
	C912.181152,416.000000 904.591675,416.002930 897.002258,415.998169 
	C894.836060,415.996796 892.573608,416.348206 890.537781,415.826263 
	C889.206665,415.484985 887.250610,413.900391 887.207581,412.808380 
	C886.912659,405.321411 887.089539,397.817108 887.029907,390.319061 
	C887.000977,386.688568 889.542603,387.019226 891.866333,387.016113 
	C905.864502,386.997253 919.862671,387.001190 933.860840,387.000031 
	C940.859924,386.999451 947.864258,387.166962 954.856018,386.942017 
	C958.702026,386.818268 960.019104,388.066864 960.079834,392.043213 
	C960.409607,413.618713 953.372070,432.705292 940.627502,449.748901 
	C932.815247,460.196381 923.342590,468.993347 911.362305,475.366150 
z"/>
<path fill="#122023" opacity="1.000000" stroke="none" 
	d="
M1026.239014,430.702332 
	C1032.724487,437.416260 1038.947876,443.876953 1047.324097,447.685730 
	C1067.666260,456.935486 1086.634399,454.337250 1104.349365,441.088379 
	C1106.722778,439.313324 1109.222046,437.536743 1111.078247,435.279968 
	C1113.868896,431.887177 1116.549683,431.881500 1120.104248,433.953430 
	C1126.824219,437.870270 1133.644653,441.630005 1140.560059,445.189636 
	C1143.984253,446.952240 1144.362183,448.671997 1141.942139,451.628906 
	C1130.925171,465.089691 1117.467651,475.269592 1101.187988,481.376038 
	C1090.276611,485.468842 1078.869751,486.433990 1067.158203,486.188538 
	C1053.701782,485.906525 1041.419067,482.438660 1029.585327,476.323151 
	C1013.036987,467.771240 1000.755066,455.016083 991.521606,439.052002 
	C980.846191,420.594696 977.456787,400.519196 979.148010,379.613831 
	C980.676025,360.726135 987.488403,343.573608 999.072937,328.518524 
	C1014.421753,308.571503 1034.579590,296.079620 1059.605225,293.303497 
	C1085.295044,290.453705 1109.047363,296.215698 1128.677979,314.235718 
	C1134.196289,319.301300 1139.291504,324.827789 1145.231323,330.796570 
	C1140.458496,333.643372 1137.013062,335.792908 1133.477905,337.782898 
	C1129.147583,340.220551 1124.654297,342.377838 1120.396118,344.931091 
	C1116.736328,347.125641 1114.155029,346.872162 1110.934814,343.618225 
	C1098.940186,331.497925 1084.370850,324.988403 1067.117432,326.091980 
	C1054.518188,326.897888 1043.570679,331.884186 1034.056030,340.405609 
	C1022.563721,350.698212 1015.677734,363.395660 1013.086121,378.411499 
	C1009.779053,397.572662 1014.760864,414.816864 1026.239014,430.702332 
z"/>
<path fill="#122023" opacity="1.000000" stroke="none" 
	d="
M1717.723145,306.341980 
	C1747.469971,352.685425 1777.015869,398.722870 1806.561890,444.760345 
	C1806.934448,444.749817 1807.306885,444.739288 1807.679443,444.728760 
	C1807.786011,442.939087 1807.984863,441.149445 1807.985474,439.359741 
	C1808.003052,394.042023 1807.997559,348.724335 1808.001831,303.406616 
	C1808.002563,296.017883 1808.015137,296.017853 1815.276733,296.000031 
	C1828.000488,295.968811 1828.000366,295.968842 1828.000366,308.455841 
	C1828.000244,364.269928 1828.002441,420.084015 1827.997437,475.898102 
	C1827.996704,482.977234 1827.888306,482.270447 1820.938477,483.164124 
	C1810.422241,484.516541 1804.417236,480.667480 1798.836792,471.446350 
	C1783.693115,446.423126 1767.145508,422.251648 1751.251587,397.679626 
	C1737.698853,376.727173 1724.282959,355.686218 1710.788452,334.696045 
	C1710.554932,334.332977 1710.093140,334.116669 1709.000244,333.240601 
	C1709.000244,335.831543 1709.000244,337.738800 1709.000244,339.646027 
	C1709.000000,385.130341 1709.002930,430.614655 1708.996338,476.098969 
	C1708.995361,482.970917 1708.974731,482.970947 1702.217163,482.998871 
	C1690.000000,483.049377 1690.000000,483.049347 1690.000000,471.035126 
	C1690.000244,415.054443 1689.998169,359.073730 1690.003662,303.093048 
	C1690.004272,296.021851 1690.022583,296.021851 1697.091064,296.000305 
	C1697.257690,295.999786 1697.428955,296.025452 1697.590210,295.996094 
	C1706.761108,294.328522 1713.688843,297.109467 1717.723145,306.341980 
z"/>
<path fill="#122023" opacity="1.000000" stroke="none" 
	d="
M1373.453125,482.876587 
	C1372.335938,481.312256 1371.099609,479.803497 1371.097046,478.292694 
	C1370.998779,419.151581 1371.037598,360.010193 1370.952637,300.868988 
	C1370.947266,297.205383 1372.092651,295.921204 1375.818237,295.944336 
	C1397.141724,296.076782 1418.511353,295.148071 1439.777100,296.262878 
	C1459.131470,297.277466 1476.272339,306.930603 1482.113281,328.567627 
	C1486.637085,345.324493 1484.771240,361.492889 1471.755249,374.691010 
	C1470.029785,376.440735 1467.947021,377.838226 1465.882568,379.518616 
	C1469.817139,382.378082 1473.809814,384.865234 1477.317871,387.910461 
	C1486.212280,395.631348 1490.739136,405.858429 1492.808716,417.188263 
	C1495.346313,431.080078 1494.418823,444.606781 1487.359863,457.243835 
	C1478.497681,473.108582 1464.883057,482.246246 1446.870850,482.801605 
	C1422.572144,483.550751 1398.231812,482.951721 1373.453125,482.876587 
M1438.434570,390.000732 
	C1424.277954,390.003540 1410.121460,390.015137 1395.964844,390.001251 
	C1393.345337,389.998688 1390.978271,389.906555 1390.991455,393.722168 
	C1391.070068,416.538818 1391.049438,439.355957 1390.998291,462.172760 
	C1390.992065,464.942200 1392.113770,466.056396 1394.860107,465.996613 
	C1410.974243,465.645752 1427.091553,465.053802 1443.204468,465.141449 
	C1458.207031,465.223053 1470.901733,451.823822 1474.756714,437.470428 
	C1480.957397,414.383392 1462.213257,387.949890 1438.434570,390.000732 
M1404.514648,371.983459 
	C1414.835083,371.987305 1425.156860,372.097565 1435.475586,371.969574 
	C1450.195068,371.787018 1464.358521,361.733948 1464.381226,343.853149 
	C1464.405273,324.814911 1452.308228,315.064880 1437.215698,314.182281 
	C1423.446777,313.377106 1409.592285,314.112335 1395.778320,313.943909 
	C1392.012329,313.898010 1390.906494,315.281525 1390.947388,318.904572 
	C1391.099609,332.385956 1391.002197,345.870178 1391.000610,359.353333 
	C1390.999146,371.983154 1391.000366,371.983154 1404.514648,371.983459 
z"/>
<path fill="#122023" opacity="1.000000" stroke="none" 
	d="
M1606.953491,320.141663 
	C1618.564819,352.047058 1630.166382,383.544495 1641.626099,415.093475 
	C1649.696411,437.310852 1657.573975,459.598236 1665.886597,482.829681 
	C1658.979126,482.829681 1652.603027,482.956085 1646.243896,482.683746 
	C1645.361694,482.645966 1644.232056,480.761414 1643.779419,479.525696 
	C1640.083252,469.434784 1636.395996,459.336731 1632.974854,449.150574 
	C1631.473755,444.680969 1629.233276,442.798950 1624.118408,442.859863 
	C1598.304199,443.167542 1572.483521,443.102722 1546.667236,442.900421 
	C1542.543579,442.868103 1541.002441,444.374359 1539.749268,448.072693 
	C1536.145386,458.707947 1532.144531,469.212585 1528.076782,479.681915 
	C1527.551880,481.032684 1525.763916,482.723206 1524.472290,482.802032 
	C1518.856567,483.144806 1513.207886,482.949158 1506.569458,482.949158 
	C1507.630615,479.262848 1508.336914,476.138702 1509.420654,473.151367 
	C1517.036011,452.157562 1524.729370,431.192139 1532.397217,410.217377 
	C1545.122681,375.407501 1557.795898,340.578278 1570.606201,305.799622 
	C1574.240723,295.932404 1574.479004,296.670837 1585.094604,295.798462 
	C1594.461304,295.028717 1600.539795,296.885742 1602.254761,307.214020 
	C1602.971680,311.531708 1605.291870,315.583191 1606.953491,320.141663 
M1587.500000,424.000153 
	C1599.194458,424.000153 1610.889038,424.000153 1623.474243,424.000153 
	C1610.847412,389.421356 1598.708252,356.178314 1586.569214,322.935272 
	C1586.127319,322.990173 1585.685425,323.045074 1585.243530,323.099976 
	C1573.148804,356.404633 1561.053955,389.709320 1548.600952,424.000153 
	C1561.943604,424.000153 1574.221802,424.000153 1587.500000,424.000153 
z"/>
<path fill="#122023" opacity="1.000000" stroke="none" 
	d="
M1240.000000,449.999054 
	C1251.497559,450.000610 1262.500488,450.200836 1273.490234,449.907837 
	C1278.011841,449.787292 1279.234619,451.413879 1279.075928,455.681854 
	C1278.791260,463.336395 1278.888794,471.010681 1279.030273,478.672943 
	C1279.090210,481.918274 1277.844727,483.034973 1274.638794,483.028259 
	C1240.479858,482.956726 1206.320679,482.963287 1172.161621,483.014282 
	C1169.233154,483.018646 1167.845947,482.029083 1167.989746,478.963379 
	C1168.130127,475.971008 1168.000977,472.966278 1168.000854,469.966980 
	C1167.999756,414.312500 1167.997803,358.658020 1168.003418,303.003540 
	C1168.004028,296.019928 1168.022827,296.012146 1175.170044,296.002563 
	C1182.168457,295.993195 1189.178711,296.248444 1196.161255,295.915314 
	C1200.761108,295.695862 1202.110840,297.282013 1202.090210,301.846741 
	C1201.929565,337.338226 1202.002441,372.830811 1202.003784,408.323029 
	C1202.004150,420.320404 1202.159302,432.320740 1201.925171,444.313507 
	C1201.842163,448.569946 1202.982300,450.216339 1207.509766,450.089966 
	C1218.165771,449.792480 1228.835693,449.997406 1240.000000,449.999054 
z"/>
<path fill="#122023" opacity="1.000000" stroke="none" 
	d="
M1878.000488,355.000000 
	C1878.000488,365.560760 1878.000488,375.621521 1878.000488,385.682281 
	C1878.373657,385.765228 1878.746704,385.848145 1879.119873,385.931091 
	C1884.791992,379.385803 1890.554688,372.916473 1896.115845,366.278320 
	C1905.550903,355.016266 1914.798340,343.597137 1924.236694,332.338074 
	C1933.787231,320.945374 1943.458618,309.653839 1953.128784,298.362427 
	C1953.927979,297.429291 1955.108398,296.207977 1956.136719,296.183685 
	C1963.892334,296.000641 1971.654175,296.083801 1980.735718,296.083801 
	C1975.694824,302.129822 1971.532959,307.109985 1967.383423,312.100342 
	C1955.772705,326.064240 1944.216309,340.073578 1932.542480,353.984436 
	C1924.786621,363.226562 1916.931763,372.388184 1908.971313,381.454254 
	C1907.077881,383.610809 1906.942627,384.991150 1908.747437,387.390076 
	C1926.328613,410.758881 1943.788330,434.219330 1961.212158,457.706055 
	C1967.112671,465.659698 1972.812256,473.762360 1979.228638,482.663879 
	C1970.541382,482.663879 1962.520142,482.869843 1954.529541,482.467987 
	C1953.143433,482.398285 1951.747681,479.860382 1950.591797,478.289368 
	C1939.431519,463.121704 1928.307129,447.927429 1917.202026,432.719208 
	C1909.431396,422.077637 1901.706909,411.402405 1893.448853,400.035828 
	C1888.270996,406.364594 1883.208374,412.334442 1878.467773,418.549927 
	C1877.626221,419.653351 1878.020874,421.777802 1878.018311,423.431030 
	C1877.991211,441.421295 1877.874756,459.413055 1878.085938,477.400848 
	C1878.137207,481.777161 1876.808594,483.121277 1872.415283,483.094940 
	C1859.001099,483.014465 1858.999878,483.189056 1859.000000,469.741150 
	C1859.000366,414.104462 1858.997925,358.467804 1859.004395,302.831116 
	C1859.005249,296.027100 1859.027588,296.027100 1865.850342,296.000854 
	C1878.000488,295.954132 1878.000366,295.954132 1878.000366,308.025360 
	C1878.000366,323.516907 1878.000488,339.008453 1878.000488,355.000000 
z"/>
<path fill="#4C6971" opacity="1.000000" stroke="none" 
	d="
M382.945984,171.234863 
	C396.056824,174.083633 408.786987,176.890808 421.520538,179.682297 
	C421.998871,179.787170 422.611877,179.933289 422.991730,179.734528 
	C430.111786,176.008926 431.769043,181.626862 434.673676,186.076935 
	C440.554871,195.087341 446.940308,203.768478 453.113678,212.588272 
	C457.160492,218.369812 461.630615,223.915665 465.057495,230.044403 
	C466.719269,233.016357 466.377563,237.092621 467.031158,240.652725 
	C467.261536,241.907516 467.422791,243.898605 468.180267,244.219147 
	C474.534607,246.908035 475.864838,253.522385 479.637451,258.196472 
	C481.935089,261.043121 484.685303,263.676910 487.670532,265.785889 
	C494.888184,270.884949 501.157532,276.541016 504.161835,285.263428 
	C505.442322,288.981049 508.956421,289.613312 512.464539,288.643005 
	C519.800964,286.613739 527.121704,284.509216 534.373352,282.198669 
	C538.650879,280.835785 540.212769,281.508575 540.909546,285.831055 
	C541.304382,288.280426 541.245422,290.867767 542.028687,293.176575 
	C543.793274,298.377563 540.676636,302.054382 538.392517,305.907715 
	C532.052124,316.604126 525.655762,327.273956 518.969727,337.755402 
	C516.596436,341.475891 513.455322,344.744232 510.435974,348.007294 
	C504.115601,354.837830 497.201538,361.173370 491.397461,368.407166 
	C487.864807,372.810028 485.935272,378.502838 483.329285,383.638336 
	C483.125519,384.039948 483.042053,384.819153 483.279663,385.081451 
	C488.169006,390.479645 484.746185,396.673187 485.079285,402.506439 
	C485.177917,404.233459 485.539581,406.732300 486.684937,407.466003 
	C490.206451,409.721893 489.405884,412.281738 488.880890,415.630280 
	C487.969543,421.442627 488.741608,427.578583 487.400543,433.245880 
	C486.216675,438.249146 483.649231,443.180847 480.641785,447.394012 
	C479.023102,449.661774 475.061401,450.138184 472.400879,451.810974 
	C469.018494,453.937714 465.380554,456.000031 462.741211,458.898956 
	C456.247406,466.031525 456.468201,466.216827 456.963928,476.213928 
	C457.062836,478.208740 456.900116,480.216858 457.006317,482.210907 
	C457.187927,485.620178 455.896759,488.115875 452.577972,489.146118 
	C442.881500,492.156281 438.273010,498.665619 436.486053,508.704681 
	C435.765350,512.753601 431.050293,516.422241 427.526794,519.560852 
	C422.718506,523.844055 417.081451,527.190063 412.214935,531.416016 
	C404.700897,537.940979 396.327362,539.029175 386.790649,537.669739 
	C383.305634,537.172974 379.233673,539.215515 375.728699,540.772949 
	C368.905792,543.804749 363.298737,539.852112 361.723938,532.640503 
	C360.093781,525.175354 357.032227,517.793823 353.340759,511.064728 
	C348.504364,502.248596 345.382629,493.256409 343.171967,483.373779 
	C341.016968,473.739868 335.634735,464.742188 331.100647,455.752014 
	C327.157806,447.934204 325.247040,432.499207 332.447510,424.831757 
	C335.339752,421.751923 336.068115,418.161285 336.112640,413.932678 
	C336.234772,402.327362 331.644196,392.095520 326.412842,382.417847 
	C322.237793,374.694275 316.142914,367.942566 310.454315,361.131897 
	C307.769043,357.916931 307.282928,355.974548 309.877167,352.203644 
	C312.005951,349.109222 312.823120,344.579803 312.859436,340.673798 
	C312.992645,326.330780 315.029175,327.809418 300.175842,328.169525 
	C294.008972,328.319031 290.682343,325.542389 287.938690,320.819458 
	C284.855316,315.511627 282.691040,314.813446 276.934906,317.041718 
	C269.362183,319.973236 261.812195,322.967194 254.190353,325.765167 
	C252.573364,326.358795 250.673111,326.481964 248.930374,326.376312 
	C243.330688,326.036804 237.732803,325.068024 232.156647,325.211731 
	C229.645477,325.276489 227.108643,327.262787 224.725418,328.625488 
	C221.822845,330.285187 219.518784,331.177429 216.397629,328.353546 
	C210.265930,322.805908 203.314087,318.151276 197.308319,312.484161 
	C194.699310,310.022308 193.655609,305.933624 191.779907,302.653046 
	C190.096939,299.709625 188.710449,296.403320 186.386536,294.055542 
	C179.101624,286.695770 174.914932,278.396545 175.934341,267.750336 
	C176.293564,263.998871 177.397400,261.218964 180.631119,259.019684 
	C182.163895,257.977203 183.629395,255.826202 183.836945,254.028671 
	C184.539719,247.942032 184.491684,241.771561 185.097137,235.669479 
	C185.349808,233.122711 185.967911,230.283478 187.378693,228.238785 
	C192.707214,220.515884 197.853607,212.534393 204.175400,205.669281 
	C209.845917,199.511459 217.002243,194.729767 223.434464,189.260269 
	C225.165802,187.788071 227.401535,186.291595 228.099533,184.339279 
	C230.066010,178.838821 233.959061,175.334000 238.393021,171.941376 
	C243.460007,168.064362 248.000412,163.498444 253.073761,159.630814 
	C254.754395,158.349594 257.691833,157.292511 259.518463,157.859711 
	C270.893463,161.391800 281.066101,157.232529 291.226532,153.358429 
	C301.774902,149.336380 312.631775,151.141571 323.341217,151.293777 
	C329.135193,151.376114 332.880951,160.421021 330.091064,167.749161 
	C334.160065,169.155670 338.202606,171.519104 342.354126,171.729279 
	C346.944946,171.961716 349.869476,173.827637 352.398621,177.055984 
	C356.329742,182.073959 362.280182,181.590805 367.618744,182.702499 
	C368.234039,182.830612 369.602875,181.776596 369.811188,181.040970 
	C371.648621,174.552216 377.362976,173.227142 382.945984,171.234863 
z"/>
<path fill="#4C6971" opacity="1.000000" stroke="none" 
	d="
M523.687622,464.662964 
	C519.229187,473.214722 514.971252,481.448395 510.667236,489.657898 
	C509.144409,492.562500 500.644836,496.216461 497.284882,495.497894 
	C493.380310,494.662781 490.672089,489.854370 489.862244,485.198975 
	C488.503723,477.389160 489.869720,470.863434 495.847961,465.381897 
	C496.742432,464.561768 496.859283,462.658447 496.939209,461.233948 
	C497.106812,458.247284 496.915192,455.241760 497.042480,452.251282 
	C497.290771,446.417603 500.901093,441.621582 506.367065,439.789948 
	C512.775330,437.642517 517.463989,434.145874 520.114258,427.339783 
	C521.847534,422.888580 525.888245,419.335907 528.866699,415.418549 
	C534.327209,420.888672 537.891907,432.825226 532.582947,443.336975 
	C529.176025,450.082581 526.740784,457.318939 523.687622,464.662964 
z"/>
<path fill="#4C6971" opacity="1.000000" stroke="none" 
	d="
M1438.921875,390.000732 
	C1462.213257,387.949890 1480.957397,414.383392 1474.756714,437.470428 
	C1470.901733,451.823822 1458.207031,465.223053 1443.204468,465.141449 
	C1427.091553,465.053802 1410.974243,465.645752 1394.860107,465.996613 
	C1392.113770,466.056396 1390.992065,464.942200 1390.998291,462.172760 
	C1391.049438,439.355957 1391.070068,416.538818 1390.991455,393.722168 
	C1390.978271,389.906555 1393.345337,389.998688 1395.964844,390.001251 
	C1410.121460,390.015137 1424.277954,390.003540 1438.921875,390.000732 
z"/>
<path fill="#4C6971" opacity="1.000000" stroke="none" 
	d="
M1404.018066,371.983459 
	C1391.000366,371.983154 1390.999146,371.983154 1391.000610,359.353333 
	C1391.002197,345.870178 1391.099609,332.385956 1390.947388,318.904572 
	C1390.906494,315.281525 1392.012329,313.898010 1395.778320,313.943909 
	C1409.592285,314.112335 1423.446777,313.377106 1437.215698,314.182281 
	C1452.308228,315.064880 1464.405273,324.814911 1464.381226,343.853149 
	C1464.358521,361.733948 1450.195068,371.787018 1435.475586,371.969574 
	C1425.156860,372.097565 1414.835083,371.987305 1404.018066,371.983459 
z"/>
<path fill="#4C6971" opacity="1.000000" stroke="none" 
	d="
M1587.000000,424.000153 
	C1574.221802,424.000153 1561.943604,424.000153 1548.600952,424.000153 
	C1561.053955,389.709320 1573.148804,356.404633 1585.243530,323.099976 
	C1585.685425,323.045074 1586.127319,322.990173 1586.569214,322.935272 
	C1598.708252,356.178314 1610.847412,389.421356 1623.474243,424.000153 
	C1610.889038,424.000153 1599.194458,424.000153 1587.000000,424.000153 
z"/>
</svg>